<svg xmlns="http://www.w3.org/2000/svg" xmlns:xlink="http://www.w3.org/1999/xlink" viewBox="0 0 2610.68 2655.92"><defs><style>.cls-1{fill:none;}.cls-2{isolation:isolate;}.cls-3{fill:#dfecf0;}.cls-4{fill:#1c5170;}.cls-5{fill:#fff;}.cls-6{fill:#cf786c;}.cls-7{fill:#ff5e62;}.cls-8{fill:#99473c;}.cls-9{clip-path:url(#clip-path);}.cls-10{fill:#ff8c8c;}.cls-11{fill:#ffe9e9;mix-blend-mode:multiply;}.cls-12{opacity:0.35;}</style><clipPath id="clip-path"><ellipse class="cls-1" cx="1761.92" cy="1444.23" rx="474.3" ry="1113.56" transform="translate(-13.4 16.5) rotate(-0.53)"/></clipPath></defs><g class="cls-2"><g id="Layer_4" data-name="Layer 4"><path class="cls-3" d="M1751.53,330.72l151.84,12.22c227.08,85.68,404,545.76,409.14,1102.12,5.12,548.19-158.15,1006-378.59,1105.36l-147.3,6.69"/><path class="cls-4" d="M1751.53,330.72l151.89,11.62h.08l.08,0a285.3,285.3,0,0,1,66.89,36.67l3.86,2.83c1.29.93,2.57,1.88,3.81,2.88l7.51,5.93c2.48,2,4.88,4.1,7.32,6.14l3.65,3.1,3.54,3.2c9.56,8.45,18.55,17.51,27.33,26.75a566.49,566.49,0,0,1,48.27,59.25q22.18,31.14,41.17,64.38c25.34,44.24,47,90.5,66,137.78s35.17,95.66,49.32,144.59c28.13,97.94,47.87,198.17,61.29,299.13a2556.85,2556.85,0,0,1,21.44,304.64,2571,2571,0,0,1-14.45,305.06q-4.11,38-9.53,75.8c-.93,6.3-1.78,12.61-2.77,18.9l-2.92,18.87-3.12,18.85c-1,6.28-2.19,12.54-3.28,18.81-9,50.14-19.61,100-32.55,149.27s-27.91,98-45.59,145.81-38,94.61-62,139.59q-18,33.73-39.07,65.68a590.91,590.91,0,0,1-46.05,61c-8.4,9.59-17,19-26.17,27.87l-3.4,3.36-3.5,3.26c-2.35,2.15-4.65,4.36-7,6.47l-7.22,6.28-1.81,1.56-1.86,1.5-3.72,3a298.9,298.9,0,0,1-64.73,40.36l-.11.05h-.11l-147.32,6.1,147.27-7.27-.21,0a298.06,298.06,0,0,0,64.16-40.59l3.68-3,1.84-1.51,1.79-1.57,7.15-6.29c2.35-2.12,4.63-4.33,7-6.49l3.47-3.27,3.36-3.37c9.07-8.88,17.58-18.32,25.88-27.91a608,608,0,0,0,45.52-61q20.89-31.84,38.67-65.62c23.72-44.93,43.82-91.72,61.27-139.44s32.2-96.42,44.89-145.63c25.4-98.44,42.49-198.92,53.41-300a2569.52,2569.52,0,0,0,14.22-304.48,2553.36,2553.36,0,0,0-21.2-304.08c-.85-6.29-1.63-12.6-2.54-18.89l-2.68-18.87c-1.91-12.56-3.8-25.13-5.9-37.66-4.14-25.08-8.63-50.09-13.66-75-10.06-49.82-21.81-99.3-35.74-148.18s-29.92-97.17-48.62-144.42-40.12-93.45-65.2-137.64c-12.54-22.08-26.12-43.58-40.77-64.32a582.1,582.1,0,0,0-47.74-59.27c-8.68-9.25-17.57-18.33-27-26.8l-3.5-3.21-3.61-3.1c-2.42-2.05-4.8-4.16-7.25-6.17l-7.44-5.94c-1.22-1-2.49-2-3.77-2.9l-3.82-2.83a283.51,283.51,0,0,0-66.31-36.93l.16,0Z"/><ellipse class="cls-5" cx="1761.92" cy="1444.23" rx="474.3" ry="1113.56" transform="translate(-13.4 16.5) rotate(-0.53)"/><ellipse cx="1308.12" cy="1507.76" rx="359.22" ry="549.28" transform="translate(-14.01 12.27) rotate(-0.53)"/><path class="cls-6" d="M1049.81,1513s176.3,76.34,240.72,222.45l18.61,144.67-174-158.8"/><polygon class="cls-6" points="663.34 1491.23 733.51 1469 779.29 1460.45 796.84 1458.36 813.42 1420.72 824.03 1376.21 838.94 1323.67 817.02 1305.38 808.66 1268.76 822.55 1217.66 811.34 1197.37 769.96 1166.86 735.05 1135.31 713.05 1095.2 718.1 1071.85 751.99 1063.73 776.61 1077.88 863.48 1044.6 890.78 988.35 935.2 943.12 980.22 908.19 1017.4 876.4 1047.67 839.76 1062.14 808.72 1089.36 841.7 1139.25 886.81 1179.74 926.36 1219.7 986.26 1248.49 1087.19 1247.38 1159.6 1230.38 1253.13 1196.94 1353.98 1173.52 1413.68 1135.97 1472.87 1083.48 1487.31 1035.89 1478.74 1012.74 1493.2 1004.55 1507.25 1000.38 1518.13 1037.32 1541.41 1071.34 1573.61 1082.75 1608.25 1069.63 1610.89 1018.09 1593.81 950.17 1559.53 916.13 1546.62 871.69 1530.63 810.3 1521.6 733.92 1513.55 677.97 1498.26 663.34 1491.23"/><path d="M1388.62,999.88,1387,990.6l-7.83-19.46-18-24.18-29-24.78-31-22.39-36.64-36.39-18.44-34.12-13.87-31.6-23.71-39.27-29.43-24.25L1151,722.29l-44.67-6-24.86.22-32.94,9.92-23.67,8.88L1008,743.08l-12,7.59-10.28-3.74-32.56-8.36-39.34.37-48.67,11.71-31.43,15.88L798,794.31l-31.76,36.8-18.45,30L735.5,887.53l-25,10.92-18.32,10.86-30.67,26.28-22.72,29.62-19.17,41.28-8.36,50.5,3,39.13.28,29.68-4.3,31.32-16.37,31L563.28,1219l-28,27.07-25.34,32.39-24.72,40-7.37,41.07L495,1392.15l33.11,30.33,23.37,38.17.36,26.49-13.27,35.3L506,1561.32l-30.4,24.9-32.49,43.08-28.88,55.43-16.41,46.87-9,48.36,4.59,57.51s11.51,25.45,24.76,41.48,60.45,28.16,60.45,28.16l19.6-32.86,28.39-44.91L562,1761.9l20.76-62.6,8.11-26.81,14.31-66.31,6.11-28.63,9.18-32.24,8.94-17,4.64-12.17,6.85-9.15,12-10.5,10.44-5.29s31.7-15.31,34.45-14.42,27.35-6.65,27.35-6.65l28.3-5.44,25.85-4.27,17.55-2.09L809,1442l17.66-61.53,2.57-30.22,9.74-26.53c-11.48-1.58-21.92-18.29-21.92-18.29l-8-24.57,6.13-40.52s3.53-41.42,14.48-32.86,27.92-.26,27.92-.26l7.11-4.88,12.13-15.54,6.51-21L880,1144.58l-8.6-31.19-7.25-27.69-1.56-30.26,8.63-31,7.15-19.82,21.11-26,13.54-17,22.16-18.48,23.06-18.27,22-16.66,24.53-21.37L1023.09,871l17.64-21.19,11-17.63,10.42-23.49,6.67,11.22,20.55,21.76,18.82,18.8,18.1,14.32,20,18.37,19.15,19.53,14.27,13.64,27.68,37.12,23,48.8,13.81,54.66,4.62,63.57,140-119.71ZM812.8,1198.58c-15.63-13.94-32.88-26.24-50.29-37.85-11.35-7.58-23.93-15.63-30.75-27.62a15,15,0,0,1-4.37-4.65c-.77-1.24-1.56-2.54-2.36-3.87-5.44-6.94-9.52-14.71-11-23.14a43.72,43.72,0,0,1-2.19-13.84,46.58,46.58,0,0,1-.24-9.24c.69-9,7.22-13.36,13.72-13.2,15.44-9.34,44.69-1.4,51.83,15.83a76.43,76.43,0,0,1,12.28,15.16c2.52,3.15,5.06,6.29,7.6,9.45.55.59,1.1,1.16,1.67,1.73a40.93,40.93,0,0,1,8.73,8.05,17.18,17.18,0,0,1,1.48,2.15c8.1,7.37,14.88,15.78,19.28,26.32,5.13,12.27,6.22,25.72,6.53,38.94C841.23,1194.34,824.55,1209.06,812.8,1198.58Z"/><path class="cls-7" d="M663.32,1489.06s-38.74,20.37-52.05,88.49-39.09,153.58-39.09,153.58l-45.55,98.21-48,77.77-36.12,124.66s-61.07,188.76-68.38,210.9L246,2647.42h932.16l-49.09-199.06a409,409,0,0,1-10.26-61.5l-4.06-45.62,5.52-64.38,3.84-76.71,5.81-40,3.29-29.95,5.54-21.7-20.28-24.61-53.4-39.24L1028,2012.48l-60.71-47.67-49.45-28.91s-5.68,28.94-45.77,54.45-73.48,24.27-73.48,24.27L765.78,2016l-27.27-11L704.6,1977.7l-27.38-29.48L663.06,1902l-1.12-33.62,7.76-51.63,14.09-48.54L703.12,1718l24.48-47.57L758,1629.21l36.67-32,33-19.13,33.3-10.77,28.47-4.76,30.59,3.92,25,6.29,20.89,7.81,41.34,17.76,23.53,13,41.17,26.67,20.59,16.39,28.08,22.35,24.92,20.7,31.08,31.36,27.71,29.22,5.07-7.69-12.2-34L1182,1683.68l-26.07-47.1-18.87-31.94-26.86-39.28-17.23-18.8-18.68-16.11L1049.81,1513l-18.34-11.69-13.27-9.48-13.65,15.45-4.16,10.88,21.51,12.81,27.58,18.2,21.86,24.47,11.4,21.51v13.13l-16.32,2.67-16.8-5.6-35.94-16.41-45.83-20.45-13-6.41-12.63-6.73-26.06-8.7L886,1534.52l-25.94-5.47-49.8-7.45-47-1.26-44-7.09-41.4-15Z"/><path class="cls-8" d="M796.84,1458.36c-11.38,1.72-22.7,3.71-33.92,6.07s-22.37,5-33.39,8.11-21.95,6.41-32.73,10.18-21.45,7.82-31.95,12.27l.43-7.32c20.68,10.7,43.65,16.42,66.94,19.57s47.09,4.16,71,5.5,48,3.06,71.9,8.1a202.66,202.66,0,0,1,35.07,10.73c2.84,1.18,5.61,2.53,8.41,3.79s5.46,2.86,8.19,4.28,5.27,3.22,7.89,4.83l7.54,5.36-.5-.31c10.68,6,21.59,11.79,32.49,17.49s21.86,11.34,32.95,16.69,22.2,10.67,33.52,15.52l4.23,1.85,4.28,1.74,4.28,1.75,2.14.86,2.16.8c2.89,1.07,5.76,2.21,8.67,3.23l8.8,2.9c-12.13-2.46-24-6.24-35.67-10.29s-23.2-8.7-34.64-13.47-22.69-9.92-33.91-15.16-22.29-10.74-33.36-16.44l-.18-.1-.31-.22a143.38,143.38,0,0,0-30.53-16.33,192.58,192.58,0,0,0-33.58-9.5,343.3,343.3,0,0,0-34.93-4.91c-11.76-1.15-23.62-1.85-35.52-2.56-23.79-1.41-47.85-2.51-71.82-6.27a261.22,261.22,0,0,1-35.6-8,166.82,166.82,0,0,1-33.77-14.33l-7.58-4.27,8-3c10.83-4.13,21.78-7.94,32.89-11.19s22.31-6.21,33.61-8.64,22.67-4.49,34.11-6S785.34,1459,796.84,1458.36Z"/><path class="cls-8" d="M837.58,1315.14A35.66,35.66,0,0,0,836,1322q-.57,3.51-1,7l-1.74,14.13c-1.17,9.43-2.46,18.86-4,28.27a464,464,0,0,1-12.23,56c-1.37,4.61-2.79,9.2-4.34,13.77s-3.24,9.08-5.06,13.56-3.78,8.92-5.95,13.27a142.57,142.57,0,0,1-7.07,12.8c-5.18,8.28-11.3,16.2-19.08,22.43a45.69,45.69,0,0,1-12.83,7.4,29.89,29.89,0,0,1-3.52,1.11c-.6.16-1.18.33-1.78.46l-1.8.32c-1.2.24-2.43.25-3.62.37s-2.42,0-3.6,0l1.74-.4a17.43,17.43,0,0,0,1.73-.42,31.87,31.87,0,0,0,3.34-1.11l1.63-.62c.53-.22,1-.49,1.57-.74a28.59,28.59,0,0,0,3-1.63,48.31,48.31,0,0,0,10.58-8.61c6.24-6.63,11.1-14.49,15.3-22.68,8.33-16.47,14.19-34.28,19.48-52.25s9.75-36.32,14.27-54.71c2.29-9.19,4.55-18.41,7-27.61,1.25-4.6,2.52-9.2,4-13.77.74-2.28,1.48-4.55,2.33-6.81A31.1,31.1,0,0,1,837.58,1315.14Z"/><path class="cls-7" d="M666.62,1487.05a92.34,92.34,0,0,0-27.83,26.38c-7.39,10.51-12.84,22.25-17.1,34.34-8.44,24.3-12.63,49.82-17.07,75.27l-1.71,9.56c-.59,3.19-1.16,6.38-1.87,9.55l-4,19.06c-.35,1.59-.66,3.18-1,4.76l-1.21,4.72-2.41,9.44-2.42,9.44c-.38,1.58-.83,3.14-1.3,4.69l-1.38,4.67-5.53,18.68-6.17,18.48L574,1740.7q-.75,2.33-1.6,4.6l-3.34,9.14-3.34,9.15-1.66,4.57-1.77,4.53c-9.25,24.25-19.4,48.12-29.82,71.84s-21.27,47.21-32,70.72-21.5,47-31.64,70.69-19.91,47.51-28.7,71.77C422,2106,406,2155.1,390.5,2204.38q-11.62,37-22.87,74.08l-11.29,37.1-11.44,37.08c-3.86,12.35-7.67,24.71-11.6,37l-5.87,18.49-6,18.46q-3,9.23-6.13,18.42l-6.19,18.4c-4.27,12.22-8.44,24.49-12.79,36.65-17.31,48.71-34.08,97.61-48.4,147.32,12-50.33,27.5-99.79,43.44-149,4-12.3,8-24.59,11.93-36.89L309,2443c1.93-6.17,3.85-12.33,5.7-18.52q11.33-37.07,22.19-74.28l21.75-74.46q10.92-37.23,22.17-74.39c3.79-12.38,7.62-24.74,11.58-37.07,2-6.16,3.9-12.34,5.93-18.49l6.07-18.46c2-6.16,4.12-12.28,6.21-18.41s4.15-12.28,6.3-18.39c4.38-12.2,8.58-24.46,13.19-36.58,8.9-24.34,18.86-48.39,29.13-72.18l7.82-17.8,8-17.71c5.31-11.82,10.79-23.53,16.25-35.27,11-23.42,21.92-46.82,32.63-70.31l7.89-17.67,3.93-8.85,3.83-8.88c2.53-5.92,5.18-11.81,7.62-17.77l7.34-17.88c19.15-47.84,35.19-96.91,44.94-147.59,2.57-12.67,5.11-25.38,8.14-38a290.39,290.39,0,0,1,11.29-37.32c4.75-12.12,10.69-23.87,18.57-34.26A93.17,93.17,0,0,1,666.62,1487.05Z"/><path d="M1062.14,808.72a140.43,140.43,0,0,1-5,14.75,145.66,145.66,0,0,1-6.76,14.09,171.29,171.29,0,0,1-17.74,25.79c-13.38,16.1-29,30.13-45.07,43.28-4,3.29-8.08,6.54-12.14,9.77s-8.17,6.38-12.25,9.55c-8.17,6.37-16.36,12.63-24.16,19.24-15.69,13.16-30.53,27.36-43,43.37-3.13,4-6.16,8-8.94,12.26-1.44,2.08-2.72,4.24-4.07,6.37s-2.57,4.34-3.72,6.57a124.81,124.81,0,0,0-6.36,13.63,113.54,113.54,0,0,0-4.62,14.23,95,95,0,0,0-2.63,14.67,90.42,90.42,0,0,0-.33,14.9,97.61,97.61,0,0,0,2,14.85c1,4.94,2.2,9.87,3.62,14.79,2.78,9.85,6.17,19.68,8.73,29.87a138.24,138.24,0,0,1,3.09,15.49,67.66,67.66,0,0,1,.75,8,66.52,66.52,0,0,1-.14,8,73.91,73.91,0,0,1-2.85,15.64,58.84,58.84,0,0,1-6.45,14.49A43,43,0,0,1,863.52,1204a34.56,34.56,0,0,1-14.25,6.21,33.87,33.87,0,0,0,13.44-7.22,41.29,41.29,0,0,0,9.32-11.9,64.52,64.52,0,0,0,7.15-29.13,68.37,68.37,0,0,0-1.26-15,135.26,135.26,0,0,0-3.66-14.79c-2.93-9.78-6.51-19.46-9.71-29.42s-5.94-20.31-6.67-31.07a97.37,97.37,0,0,1,0-16.11,103,103,0,0,1,2.52-15.9,108.84,108.84,0,0,1,4.8-15.32,133.46,133.46,0,0,1,6.67-14.53c1.2-2.38,2.57-4.65,3.88-7s2.75-4.54,4.24-6.73c2.89-4.44,6-8.72,9.26-12.88,13.13-16.55,28.41-31.1,44.59-44.31,8.13-6.61,16.51-12.76,24.78-19s16.6-12.32,24.79-18.58,16.18-12.73,23.93-19.45a262.46,262.46,0,0,0,22.12-21.36c3.5-3.74,6.78-7.68,10-11.7s6.09-8.26,8.91-12.55A142.46,142.46,0,0,0,1062.14,808.72Z"/><path d="M787.62,1087.71c-7.08-5.29-14-10.84-21.46-15a60.43,60.43,0,0,0-11.55-5.13c-1-.35-2-.57-3-.84s-2-.41-3-.61a36.83,36.83,0,0,0-6-.39l-1.5,0-1.5.14a29.28,29.28,0,0,0-3,.42c-1,.17-1.93.43-2.9.65s-1.89.54-2.78.93a23.43,23.43,0,0,0-2.65,1.18c-.42.22-.87.42-1.27.66l-1.21.75-.6.38-.56.43-1.11.84c-.35.31-.67.64-1,1a8.07,8.07,0,0,0-1,1l-.89,1a36.47,36.47,0,0,0-1.52,2.23l-.62,1.19c-.1.2-.22.39-.31.59l-.24.64-.49,1.27-.36,1.32a8.52,8.52,0,0,0-.29,1.33,26.77,26.77,0,0,0,.5,11.29,54.11,54.11,0,0,0,4.2,11.46,117.08,117.08,0,0,0,6.17,11.15A219.15,219.15,0,0,0,742.28,1139a129.53,129.53,0,0,0,17.57,18.84,91.7,91.7,0,0,0,21.85,14.13,73.28,73.28,0,0,1-24.4-10.78,108.94,108.94,0,0,1-20.18-17.86,172.33,172.33,0,0,1-16.24-21.42c-4.87-7.46-9.56-15.55-11.82-25a34.82,34.82,0,0,1-.45-14.86,13.09,13.09,0,0,1,.46-1.87c.18-.62.35-1.25.55-1.86l.74-1.79.37-.89c.14-.3.31-.58.46-.86l.95-1.71a19.08,19.08,0,0,1,1.1-1.61,23.67,23.67,0,0,1,2.5-3,13.32,13.32,0,0,1,1.4-1.31c.48-.42,1-.85,1.45-1.25l1.55-1.1.78-.54.81-.47,1.64-.92c.55-.3,1.12-.53,1.69-.79a31.38,31.38,0,0,1,3.45-1.32A38.7,38.7,0,0,1,742.8,1059a41.25,41.25,0,0,1,7.08,1c1.14.33,2.32.62,3.42,1s2.2.78,3.26,1.26a58,58,0,0,1,11.88,6.88C775.7,1074.61,781.82,1081.05,787.62,1087.71Z"/><path d="M783.92,1091.52c6.65,9,15.41,15.67,24.06,22.64a150.81,150.81,0,0,1,12.65,11.23,60.35,60.35,0,0,1,10.4,14,56.47,56.47,0,0,1,5.69,16.69,76.38,76.38,0,0,1,1,17.45c-.6,11.58-3.32,22.82-6.89,33.55-1.8,5.34-3.75,10.58-5.69,15.78s-3.9,10.33-5.7,15.49c-3.6,10.29-6.5,20.73-7.48,31.34a66.68,66.68,0,0,0,.57,15.83,60,60,0,0,0,4.4,15.34,47.51,47.51,0,0,0,8.66,13.47,38,38,0,0,0,13.34,9.35c-1.33-.38-2.67-.78-4-1.19l-3.88-1.69c-1.21-.72-2.44-1.42-3.65-2.17s-2.3-1.68-3.42-2.58a48.36,48.36,0,0,1-10.79-13.32,65.76,65.76,0,0,1-7.89-33.41c.28-11.58,3.06-22.81,6.45-33.53,1.7-5.38,3.6-10.63,5.47-15.86s3.79-10.38,5.5-15.56a156,156,0,0,0,4.44-15.57,109.59,109.59,0,0,0,2.49-15.79,74.4,74.4,0,0,0-.35-15.73,54.29,54.29,0,0,0-4.23-14.93c-4.28-9.47-12-17.37-19.86-25.06-3.92-3.92-8-7.79-11.67-12-.94-1-1.81-2.15-2.71-3.22s-1.71-2.24-2.55-3.35-1.54-2.35-2.31-3.51S784.59,1092.74,783.92,1091.52Z"/><path class="cls-8" d="M1066.8,817.72c14.15,15.64,29.75,29.78,45.73,43.47l24,20.51c8,6.85,16,13.82,23.75,21l5.79,5.44,5.66,5.59,2.82,2.81,2.74,2.89c1.82,1.94,3.68,3.84,5.47,5.81,3.5,4,7.11,7.93,10.39,12.14s6.63,8.38,9.71,12.74a257.58,257.58,0,0,1,29.92,56.56,299.5,299.5,0,0,1,9.85,30.51c2.73,10.33,4.88,20.81,6.57,31.35a378.72,378.72,0,0,1,4.54,63.8c-.1,10.66-.7,21.32-1.67,31.94-.24,2.65-.49,5.31-.8,8l-.45,4-.53,4-1.08,7.91-.54,4-.66,3.94a606.71,606.71,0,0,1-13.57,62.27c-11.27,41-26,80.71-41.48,120l-11.8,29.35c-3.93,9.78-8,19.66-12.8,29.3l-1.85,3.6c-.62,1.2-1.24,2.39-1.92,3.57l-2,3.54-2.14,3.48-1.07,1.74-1.15,1.69c-.77,1.13-1.51,2.28-2.31,3.39-1.67,2.19-3.25,4.43-5.1,6.49s-3.7,4.11-5.63,6.1c-1,1-2,1.88-3.07,2.83l-1.56,1.39c-.53.45-1.1.86-1.65,1.29a70,70,0,0,1-14.26,8.83,69,69,0,0,1-15.91,5.12,92,92,0,0,1-16.41,1.7,148.21,148.21,0,0,1-32.15-3.52c-5.24-1.09-10.41-2.34-15.53-3.71s-10.24-2.79-15.34-4.25c-2.55-.73-5.06-1.56-7.6-2.34s-5.06-1.58-7.56-2.45l-7.53-2.56-7.46-2.74a453.73,453.73,0,0,1-111.1-60.32A488.73,488.73,0,0,0,1001,1465.1l7.45,2.48,7.51,2.32c2.49.8,5,1.52,7.53,2.22s5,1.45,7.56,2.11c5.07,1.3,10.13,2.64,15.24,3.77s10.19,2.29,15.3,3.22a148.64,148.64,0,0,0,30.63,2.68c10.11-.39,20.11-2.3,29-6.65a62.23,62.23,0,0,0,12.39-8c.47-.39,1-.76,1.44-1.16l1.35-1.28c.9-.86,1.84-1.67,2.7-2.57,1.69-1.83,3.43-3.62,5-5.61s3.07-4,4.57-6c.73-1,1.4-2.11,2.11-3.17l1-1.58,1-1.64,2-3.28,1.84-3.37c.62-1.11,1.21-2.25,1.78-3.41l1.73-3.44c4.47-9.3,8.33-19,12.14-28.77l11.43-29.44c15.17-39.23,29.67-78.68,40.6-119.07a598.06,598.06,0,0,0,13.58-61.14l.66-3.85.55-3.87,1.09-7.75.53-3.87.45-3.88c.32-2.58.57-5.17.81-7.76,1-10.36,1.59-20.75,1.85-31.15A369.68,369.68,0,0,0,1240,1070q-2.26-15.43-6-30.57a291.25,291.25,0,0,0-9-29.81,257,257,0,0,0-27.88-55.51c-2.88-4.33-5.9-8.55-9.11-12.65s-6.5-8.12-9.83-12.14c-6.87-7.84-14-15.49-21.51-22.82-14.87-14.8-30.74-28.66-46.16-43.08q-11.6-10.75-22.71-22C1080.49,833.77,1073.5,825.84,1066.8,817.72Z"/><path class="cls-8" d="M1116.29,1111.74a1.89,1.89,0,0,0-2.46.2,5.79,5.79,0,0,0-1.25,2.35,12.29,12.29,0,0,0-.51,2.69c0,.45,0,.9,0,1.34l0,.66.09.72.32,2.88c.14,1,.33,1.9.49,2.84s.39,1.88.6,2.8.42,1.86.71,2.76a72.14,72.14,0,0,0,4,10.66c.76,1.73,1.63,3.43,2.48,5.13l1.36,2.52,1.41,2.5c7.64,13.3,17.42,25.84,25,40.57a117.79,117.79,0,0,1,5.11,11.49,76.79,76.79,0,0,1,3.41,12.41,57.68,57.68,0,0,1,.92,13,62.42,62.42,0,0,1-.62,6.53c-.18,1.08-.44,2.14-.65,3.21a32.13,32.13,0,0,1-.83,3.17A53.54,53.54,0,0,1,1143,1264.1a61.3,61.3,0,0,1-20.16,13.78,88.47,88.47,0,0,0,15.49-17.52,54.56,54.56,0,0,0,8.19-20.42,48,48,0,0,0,.67-10.71,54.21,54.21,0,0,0-1.49-10.65,90.7,90.7,0,0,0-8-20.65c-7-13.53-16.16-26.73-22.76-41.88a90.09,90.09,0,0,1-4.22-11.71,63.47,63.47,0,0,1-2.3-12.31,52.22,52.22,0,0,1,.36-12.44l.1-.77.16-.83a14.46,14.46,0,0,1,.46-1.59,14.16,14.16,0,0,1,1.44-2.92,6.9,6.9,0,0,1,2.36-2.32,3.26,3.26,0,0,1,.81-.29,2.31,2.31,0,0,1,.87,0A2.55,2.55,0,0,1,1116.29,1111.74Z"/><path class="cls-8" d="M1015.8,1348.46c5.8,1.87,11.42,4.09,17,6.38s11,4.81,16.46,7.14,10.78,4.54,16.19,6.26l2,.62,2,.54c1.36.34,2.69.78,4.09,1s2.74.61,4.12.86l4.17.62c2.8.31,5.6.66,8.42.7l2.11.12c.7,0,1.41,0,2.12,0,1.41,0,2.82,0,4.24-.07a103.53,103.53,0,0,0,16.93-2.05c11.3-2.16,22.18-6.41,33-12.09a65.07,65.07,0,0,1-13.91,12,74.06,74.06,0,0,1-16.82,8.14l-2.23.77c-.75.23-1.51.43-2.27.64l-2.28.61c-.76.21-1.53.4-2.3.54-1.55.31-3.09.63-4.65.9l-4.7.59a23.67,23.67,0,0,1-2.37.2l-2.37.12c-.79,0-1.58.1-2.38.1l-2.37,0c-1.59,0-3.18-.05-4.76-.22s-3.17-.23-4.74-.45l-4.71-.77c-1.56-.31-3.11-.68-4.66-1s-3.06-.88-4.58-1.34l-2.28-.72c-.75-.26-1.48-.55-2.22-.83a110.05,110.05,0,0,1-16.64-8.34c-5.24-3.16-10.21-6.54-15.14-10S1020.49,1352.36,1015.8,1348.46Z"/><path d="M927.7,1069.9a49.37,49.37,0,0,1,10.55-12.9,65.49,65.49,0,0,1,14.09-9.38,84.32,84.32,0,0,1,32.75-8.32,122.32,122.32,0,0,1,33.25,3.12,179.94,179.94,0,0,1,31.31,10.23c-11-.86-21.73-2.5-32.41-3.58a202.26,202.26,0,0,0-31.7-1.22,108.16,108.16,0,0,0-30.56,5.94A81,81,0,0,0,927.7,1069.9Z"/><path d="M1132.05,1052.69a48.76,48.76,0,0,1,13.29-17.48,63,63,0,0,1,41.27-14.91,48.43,48.43,0,0,1,21.39,5,141.94,141.94,0,0,0-20.91,1.76,111.43,111.43,0,0,0-19.55,5.09,109.68,109.68,0,0,0-18.29,8.56A142.74,142.74,0,0,0,1132.05,1052.69Z"/><path d="M945.39,1133.58a141,141,0,0,0,26.42,5.32,123.31,123.31,0,0,0,51.76-6,140.9,140.9,0,0,0,24.52-11.18,64.82,64.82,0,0,1-21.9,17.39,82.25,82.25,0,0,1-55.52,6.38A65.4,65.4,0,0,1,945.39,1133.58Z"/><path d="M1148.35,1110.79a138.39,138.39,0,0,0,18-1,99.73,99.73,0,0,0,16.76-3.61,101.8,101.8,0,0,0,15.89-6.42,138.44,138.44,0,0,0,15.42-9.27,39.43,39.43,0,0,1-11.74,14.91,52.06,52.06,0,0,1-36.21,11.1A39.62,39.62,0,0,1,1148.35,1110.79Z"/><path d="M1058.06,797.25A146,146,0,0,0,1019.62,765a156.21,156.21,0,0,0-22.49-10.86,172.74,172.74,0,0,0-23.8-7.36A182,182,0,0,0,924,742.32a175.27,175.27,0,0,0-48.55,9.09c-31.37,10.69-59.67,29.64-83.13,53.35s-42.47,52.08-56.78,82.77a249,249,0,0,1,51.94-87.39c2.94-3.12,6-6.16,9-9.25s6.35-5.8,9.52-8.7,6.67-5.44,10-8.17c3.46-2.57,7-5,10.48-7.58,3.6-2.37,7.3-4.6,11-6.9,3.77-2.11,7.58-4.14,11.38-6.2,3.91-1.84,7.86-3.61,11.79-5.42l12.13-4.62a176.56,176.56,0,0,1,102.31-3A163,163,0,0,1,999.29,749a155.61,155.61,0,0,1,22.55,12.47A132.09,132.09,0,0,1,1058.06,797.25Z"/><path d="M728.11,890.65a182.69,182.69,0,0,0-17.51,8.1c-1.43.73-2.81,1.57-4.21,2.35s-2.8,1.57-4.15,2.44l-4.1,2.54-4,2.69a176.68,176.68,0,0,0-15.26,11.7L677.06,922l-1.78,1.61-3.54,3.25c-2.28,2.25-4.61,4.45-6.78,6.81a188.78,188.78,0,0,0-40.27,64.56c-2.13,6-4.11,12-5.63,18.23a167.72,167.72,0,0,0-3.63,18.7,180.37,180.37,0,0,0-1,38c.82,12.76,2.25,25.58,2.94,38.56s.57,26.24-2.2,39.31l-.49,2.45L614,1156c-.46,1.61-.85,3.23-1.37,4.82a88.43,88.43,0,0,1-3.67,9.35,97.79,97.79,0,0,1-10.11,17.25c-7.87,10.72-17.28,20-26.81,28.72s-19.24,17.18-28,26.28l-1.66,1.7c-.54.57-1,1.16-1.58,1.75l-3.17,3.5c-1,1.19-2,2.41-3,3.62s-2,2.41-3,3.7c-4,5.1-7.89,10.17-11.77,15.28-7.72,10.23-15.3,20.51-21.87,31.31s-12.19,22.12-15,34a56.86,56.86,0,0,0-1.47,17.9,49.31,49.31,0,0,0,4.59,17.1,62.67,62.67,0,0,0,10.08,15,164.22,164.22,0,0,0,13.47,13.12c9.49,8.49,19.71,16.67,28.57,26.76a82.77,82.77,0,0,1,11.54,16.71l1.11,2.32a22.6,22.6,0,0,1,1,2.36l1.81,4.84c.49,1.65.91,3.32,1.36,5l.33,1.25.22,1.27.43,2.54a76.21,76.21,0,0,1,.35,20.4,99.77,99.77,0,0,1-4.62,19.63,112,112,0,0,1-8.19,18.25,122,122,0,0,1-11,16.64c-4.06,5.22-8.4,10.16-12.91,14.9s-9.2,9.27-13.93,13.71c-9.46,8.88-19.14,17.35-28.3,26.23-4.58,4.44-9,9-13.26,13.68a179.39,179.39,0,0,0-11.7,14.85,313.55,313.55,0,0,0-20.06,32.49,398.38,398.38,0,0,0-29.79,70.53q-2.83,9.16-5.16,18.46c-1.53,6.2-2.84,12.45-4,18.73s-2,12.61-2.57,19c-.32,3.17-.5,6.35-.69,9.53s-.22,6.37-.19,9.55a161.35,161.35,0,0,0,1.17,19,125.44,125.44,0,0,0,3.85,18.63,101.05,101.05,0,0,0,6.92,17.7,88.27,88.27,0,0,0,10.39,15.91,89.9,89.9,0,0,0,13.59,13.36,97,97,0,0,0,16.13,10.29c1.44.71,2.83,1.52,4.31,2.14l4.4,1.94c1.47.63,3,1.16,4.48,1.74l2.26.86,2.29.74c1.53.48,3,1,4.59,1.46l4.66,1.26c.78.2,1.55.43,2.33.62l2.36.52,4.72,1-4.75-.89-2.38-.44c-.79-.16-1.57-.36-2.36-.54l-4.71-1.1c-1.55-.42-3.1-.88-4.65-1.32l-2.33-.66-2.29-.79c-1.53-.53-3.07-1-4.58-1.59l-4.5-1.82c-1.52-.58-2.95-1.34-4.42-2A97,97,0,0,1,425,1886a92.13,92.13,0,0,1-14.29-13.28,88.74,88.74,0,0,1-11.12-16.1A105,105,0,0,1,392,1838.5a127.69,127.69,0,0,1-4.39-19.08,161.12,161.12,0,0,1-1.65-19.49,184.11,184.11,0,0,1,.52-19.52c.51-6.49,1.24-13,2.28-19.38s2.25-12.8,3.7-19.14,3.09-12.61,4.9-18.85,3.8-12.42,5.95-18.54,4.48-12.19,6.91-18.2c4.92-12,10.35-23.82,16.41-35.32a320.69,320.69,0,0,1,20.08-33.49,183.07,183.07,0,0,1,12.07-15.6c4.35-4.9,8.89-9.6,13.52-14.17,9.28-9.12,18.93-17.7,28.18-26.53,4.63-4.41,9.16-8.89,13.51-13.5s8.47-9.41,12.27-14.38a119.63,119.63,0,0,0,10.2-15.65,104.22,104.22,0,0,0,7.57-17,91.46,91.46,0,0,0,4.18-17.91,68.56,68.56,0,0,0-.35-18.11c-1.7-12-7.78-22.78-16-32s-18.17-17.3-27.88-26a169.28,169.28,0,0,1-14.15-13.86,71.46,71.46,0,0,1-11.38-17,58,58,0,0,1-5.31-20,65.12,65.12,0,0,1,1.72-20.45,101.42,101.42,0,0,1,6.68-19,165.82,165.82,0,0,1,9.4-17.44A364.07,364.07,0,0,1,513.5,1267c4-5.13,8-10.19,11.94-15.25,1-1.26,2-2.53,3.1-3.8s2.11-2.56,3.19-3.81l3.34-3.64c.56-.6,1.11-1.22,1.68-1.81l1.73-1.75c9.19-9.37,19.06-17.78,28.54-26.37s18.59-17.46,26.1-27.44a89.65,89.65,0,0,0,9.6-15.9,79.92,79.92,0,0,0,3.5-8.58c.51-1.46.88-3,1.33-4.45l.64-2.24.49-2.28c2.76-12.16,3-24.9,2.56-37.62s-1.79-25.57-2.37-38.54a185.79,185.79,0,0,1,1.71-39,175.69,175.69,0,0,1,4.07-19.15,188.32,188.32,0,0,1,6.13-18.56,190.44,190.44,0,0,1,42.49-64.72c2.26-2.33,4.68-4.49,7-6.7l3.67-3.19,1.85-1.58,1.89-1.51a174.79,174.79,0,0,1,15.72-11.37l4.11-2.57,4.2-2.42c1.39-.83,2.82-1.58,4.25-2.32s2.84-1.53,4.31-2.21A181.42,181.42,0,0,1,728.11,890.65Z"/><path d="M996,749.25c19.74-11.6,40.69-21.45,62.88-28a196,196,0,0,1,34-6.94,155.79,155.79,0,0,1,34.94-.11,144.39,144.39,0,0,1,34.21,7.9,130.35,130.35,0,0,1,31.2,16.56A111.8,111.8,0,0,1,1218.08,764a192.13,192.13,0,0,1,17.35,30.47c4.88,10.51,9.19,21.15,13.78,31.55a240.88,240.88,0,0,0,15.36,30l2.25,3.52c.37.58.74,1.18,1.13,1.75l1.22,1.68c1.65,2.23,3.19,4.54,5,6.63s3.6,4.22,5.46,6.29c.94,1,1.94,2,2.91,3l1.47,1.5,1.52,1.44c4,3.9,8.33,7.52,12.69,11.11s8.89,7,13.44,10.43c9.13,6.82,18.53,13.42,27.59,20.58,4.5,3.6,9,7.26,13.25,11.24l1.6,1.48,1.55,1.52,3.1,3.06c2,2.13,4,4.19,5.88,6.43a125.65,125.65,0,0,1,10.5,13.9l2.33,3.68,2.12,3.81c.35.64.72,1.26,1,1.91l.93,2c.6,1.33,1.29,2.61,1.8,4a80.37,80.37,0,0,1,4.92,16.63,71.51,71.51,0,0,1,.58,17.22,70.83,70.83,0,0,0-1.85-17,79.1,79.1,0,0,0-5.81-15.91,111.51,111.51,0,0,0-19.67-27.39c-1.91-2.08-4-4-6-6l-3.13-2.85-1.57-1.42-1.61-1.37c-4.27-3.7-8.79-7.08-13.37-10.45-9.2-6.67-18.68-13-28.12-19.63-4.7-3.32-9.4-6.67-14-10.22s-9.09-7.26-13.36-11.27l-1.62-1.48-1.57-1.55c-1-1-2.11-2-3.12-3.1-2-2.16-4-4.28-5.92-6.57s-3.67-4.63-5.46-7l-1.34-1.77c-.42-.6-.81-1.22-1.22-1.83l-2.44-3.68c-6.36-9.9-11.42-20.43-16.15-31s-9.08-21.09-13.89-31.32a183.18,183.18,0,0,0-16.4-29.24l-2.41-3.38c-.85-1.1-1.75-2.14-2.62-3.21l-2.63-3.19-2.84-3c-1.83-2.06-4-3.83-6-5.72a20.13,20.13,0,0,0-1.56-1.35l-1.6-1.31c-1.08-.86-2.12-1.76-3.22-2.59a122.73,122.73,0,0,0-29-16c-1.29-.53-2.62-.94-3.93-1.42s-2.62-1-4-1.35l-4-1.19-2-.59-2-.5-4.06-1c-1.36-.33-2.74-.56-4.11-.84s-2.74-.58-4.12-.78l-4.16-.61-2.08-.31-2.09-.21-4.18-.42c-1.39-.13-2.8-.17-4.2-.26s-2.8-.18-4.2-.19l-4.21,0H1104l-2.11.08-4.22.13c-1.41.06-2.81.19-4.22.28-5.63.35-11.23,1.11-16.82,2-2.78.51-5.57,1-8.34,1.56s-5.55,1.17-8.3,1.89C1037.88,730.6,1016.63,739.31,996,749.25Z"/><path class="cls-8" d="M1023.06,1482.74c-3.82,6.34-7.62,12.11-11.09,18s-6.73,11.79-9.71,17.82-5.74,12.18-8.31,18.52-4.93,12.86-7.68,19.73a56.61,56.61,0,0,1-.41-22,75.72,75.72,0,0,1,19.46-39.17A56.59,56.59,0,0,1,1023.06,1482.74Z"/><path class="cls-8" d="M1006.49,1518.07a232.66,232.66,0,0,1,27,15.22,186.3,186.3,0,0,1,25,18.58c7.8,7.06,15,15.26,20,25a58.64,58.64,0,0,1,3.17,7.54,49.7,49.7,0,0,1,1.94,7.94,43,43,0,0,1,.41,8.08,35.89,35.89,0,0,1-1.3,7.83c-.45-2.6-1-5.09-1.65-7.51a62.14,62.14,0,0,0-2.51-7,69.4,69.4,0,0,0-3.29-6.5c-1.22-2.08-2.56-4.09-4-6.06-5.64-7.84-12.62-14.74-20-21.41-1.82-1.69-3.7-3.33-5.59-5s-3.81-3.26-5.72-4.91l-5.79-4.92c-2-1.65-3.89-3.34-5.81-5A232.71,232.71,0,0,1,1006.49,1518.07Z"/><path class="cls-8" d="M1018.21,1493.15c12.39,6.18,24.53,12.78,36.44,19.92,5.95,3.59,11.8,7.35,17.52,11.36s11.33,8.18,16.71,12.7a205.56,205.56,0,0,1,15.51,14.34,201.81,201.81,0,0,1,13.87,16c4.36,5.53,8.41,11.26,12.32,17s7.58,11.72,11.2,17.65c7.15,11.91,14,23.81,20.83,35.86s13.37,24.26,19.48,36.73a414.6,414.6,0,0,1,16.54,38.25,271.62,271.62,0,0,1,11.54,40c-9.78-25.9-22-50.42-35.51-74.3-6.75-11.94-13.73-23.76-20.8-35.56l-21.2-35.42q-5.29-8.81-10.85-17.37t-11.57-16.72q-6-8.16-12.72-15.71c-4.49-5-9.24-9.82-14.18-14.46C1063.54,1524.83,1040.59,1509.39,1018.21,1493.15Z"/><path class="cls-8" d="M899.9,1965.44a176.71,176.71,0,0,1-18.2,16.81,165.52,165.52,0,0,1-20.62,13.92c-3.57,2.12-7.3,4-11,5.84l-5.69,2.59c-1.9.86-3.85,1.58-5.78,2.38a178.34,178.34,0,0,1-23.87,7.55,181.23,181.23,0,0,1-24.82,4,78.87,78.87,0,0,1-25.59-2.24A81,81,0,0,1,740.69,2006c-7-4.46-13.91-9.13-20.65-14.08A246.59,246.59,0,0,1,700.5,1976c-1.54-1.39-3.14-2.91-4.64-4.48s-3-3.19-4.34-4.88A84.43,84.43,0,0,1,684,1956a85.85,85.85,0,0,1-9.71-24.2c-1.88-8.16-3.52-16.27-5-24.48a400.09,400.09,0,0,1-5.89-49.69,236.22,236.22,0,0,1-.09-25.25A144.21,144.21,0,0,1,666.6,1807c.42-2.16,1-4.12,1.5-6.13l1.58-6c1-4,2.22-8,3.32-12q3.45-12,7.36-23.83a463.71,463.71,0,0,1,18.14-46.56,361.93,361.93,0,0,1,23.87-44c4.51-7,9.29-13.92,14.38-20.57s10.52-13,16.2-19.18a202,202,0,0,1,18.11-17.48,200.67,200.67,0,0,1,65-37.25,184.33,184.33,0,0,1,48.93-9.6,168.17,168.17,0,0,1,49.31,4.44,171.55,171.55,0,0,0-24.54-2.43,176.07,176.07,0,0,0-24.53.94,185.42,185.42,0,0,0-47.38,11.57,196.19,196.19,0,0,0-42.79,23,203.34,203.34,0,0,0-36,32.42q-8,9.12-15.22,19t-13.63,20.17a352.84,352.84,0,0,0-22.57,43.19,481.93,481.93,0,0,0-17.44,45.67q-3.79,11.64-7.12,23.45c-1.07,4-2.21,7.88-3.22,11.84l-1.52,6c-.5,2-1,4-1.42,5.87a135,135,0,0,0-3.13,23.57,229.42,229.42,0,0,0,0,24.18,420.77,420.77,0,0,0,5.42,48.5c1.31,8,2.82,16.11,4.52,24a76.12,76.12,0,0,0,14.85,31.28q1.8,2.28,3.8,4.41c1.33,1.43,2.69,2.78,4.16,4.19A238.63,238.63,0,0,0,725,1985.28c6.43,5,13.07,9.73,19.85,14.28a77.16,77.16,0,0,0,21.26,10,71.77,71.77,0,0,0,23.37,2.87,182.13,182.13,0,0,0,24.1-3A175.89,175.89,0,0,0,899.9,1965.44Z"/><path class="cls-8" d="M1573.9,2156a173.61,173.61,0,0,1,16-13.37c5.6-4.14,11.41-8,17.34-11.65,11.87-7.32,24.25-13.73,36.57-20.1s24.76-12.55,37.21-18.69q9.3-4.65,18.7-9.13l18.78-9,18.82-8.89c6.28-3,12.62-5.79,18.93-8.69l9.47-4.32,9.5-4.26c6.34-2.83,12.65-5.7,19-8.49,12.7-5.62,25.47-11.06,38.25-16.47,6.38-2.73,12.79-5.4,19.2-8.06s12.8-5.37,19.24-8l19.32-7.76,19.38-7.63c6.45-2.56,12.93-5,19.41-7.54s12.94-5,19.46-7.41l19.53-7.23,19.57-7.1q19.58-7.1,39.29-13.79c13.14-4.49,26.3-8.89,39.32-13.43a380.12,380.12,0,0,0,38.24-15.47l2.33-1.09,2.29-1.16,4.59-2.33c3-1.67,6-3.25,9-5.07s5.8-3.64,8.66-5.53c1.43-.95,2.78-2,4.18-3l2.09-1.51,2-1.6a114.13,114.13,0,0,0,27.46-30.6,103,103,0,0,1-18,25.54l-3.68,3.75c-1.25,1.23-2.57,2.37-3.86,3.57l-1.94,1.77-2,1.67c-1.36,1.11-2.7,2.24-4.1,3.3-2.81,2.08-5.61,4.21-8.55,6.12s-5.9,3.79-8.87,5.66l-4.55,2.63-2.28,1.31-2.31,1.24a380.11,380.11,0,0,1-38.16,17.34c-6.47,2.58-13,5-19.49,7.44l-19.47,7.28c-25.89,9.85-51.85,19.49-77.59,29.71s-51.56,20.23-77.16,30.78q-38.51,15.57-76.71,31.87c-25.53,10.75-50.89,21.87-76.28,32.95l-38,16.89c-12.68,5.6-25.27,11.37-37.9,17.08s-25.18,11.47-37.38,18c-6.09,3.24-12.07,6.69-17.89,10.42A187.88,187.88,0,0,0,1573.9,2156Z"/><path class="cls-8" d="M2189.64,1763.05c8.91,6.26,17.72,12.67,26.31,19.39s16.93,13.77,24.93,21.23a259.88,259.88,0,0,1,22.69,23.75c3.57,4.18,6.88,8.58,10.13,13l2.34,3.41,1.17,1.71,1.11,1.75,2.22,3.49,2.09,3.59,1,1.79,1,1.83,1.93,3.68c1.17,2.52,2.45,5,3.48,7.57a125.76,125.76,0,0,1,5.57,15.75l1.06,4c.37,1.35.59,2.74.89,4.1.62,2.73,1,5.51,1.39,8.28a112.3,112.3,0,0,1,.83,16.8c0,2.81-.3,5.61-.49,8.42-.37,2.78-.63,5.59-1.2,8.35s-1.15,5.5-1.79,8.24-1.48,5.43-2.43,8.08-1.92,5.28-2.94,7.89-2.21,5.17-3.49,7.66-2.58,5-3.91,7.43-2.81,4.85-4.35,7.17c-12.1,18.83-27.73,34.91-44.42,49.27s-34.6,27.22-52.54,39.55c-35.75,25-72.19,48.94-108.95,72.38-18.38,11.73-37,23-55.61,34.43-18.74,11.16-37.39,22.44-56.35,33.22l-14.17,8.15-14.27,8-14.28,8c-4.75,2.66-9.51,5.33-14.31,7.91l-28.74,15.58-29,15.16q-58,30.09-117.32,57.69c-39.59,18.22-79.48,35.76-119.84,52.13,39.41-18.54,78.67-37.33,117.56-56.85l29.13-14.7c9.69-4.94,19.31-10,29-15s19.26-10.1,28.86-15.2,19.23-10.15,28.74-15.41l28.6-15.67,28.48-15.89c4.76-2.63,9.47-5.34,14.18-8l14.14-8.11,14.14-8.13,14-8.29,14-8.26,7-4.12,7-4.2,27.94-16.81c18.48-11.43,37-22.78,55.31-34.52l13.79-8.69c4.59-2.91,9.13-5.9,13.7-8.84l13.68-8.86c4.56-3,9.15-5.88,13.65-8.91l27.15-18.06,27-18.31c18.07-12.12,35.73-24.52,52.21-38.36q6.16-5.19,12.05-10.66c3.9-3.67,7.74-7.4,11.41-11.28s7.24-7.83,10.58-12a158.75,158.75,0,0,0,9.47-12.79c1.52-2.18,2.86-4.46,4.26-6.71s2.64-4.57,3.81-6.94,2.31-4.74,3.43-7.13,2.05-4.86,2.89-7.35,1.64-5,2.42-7.51,1.35-5.08,1.81-7.67.89-5.18,1.31-7.78c.24-2.62.61-5.23.66-7.87a103,103,0,0,0-.36-15.8c-.33-2.61-.58-5.25-1.11-7.84-.25-1.3-.41-2.62-.74-3.9l-.89-3.87a121.66,121.66,0,0,0-4.92-15.15c-.92-2.5-2.09-4.9-3.15-7.35l-1.77-3.6-.88-1.8-.95-1.76-1.91-3.54-2-3.46-1-1.74-1.08-1.69-2.17-3.4c-3-4.44-6.1-8.86-9.47-13.08a279,279,0,0,0-21.55-24.23c-7.62-7.71-15.67-15-23.9-22.1S2198.23,1769.74,2189.64,1763.05Z"/><path class="cls-7" d="M1138.77,2108.49c-3.66,32.47-7.86,64.78-11.15,97.13s-6,64.69-7.08,97.07a858.89,858.89,0,0,0,1.77,97.07,690,690,0,0,0,14.34,96.34c-11.35-30.67-18.49-62.92-22.69-95.48a610.49,610.49,0,0,1-4.08-98.3,845.77,845.77,0,0,1,9.45-97.77C1124.33,2172.22,1130.74,2140.17,1138.77,2108.49Z"/><path class="cls-6" d="M934.34,1568.77s-47.46-8.39-57.73-6.3S817.75,1583,817.75,1583L758,1629.21l-36.36,49.26-30,63.93-19.42,63.65-10.51,75.66s1.79,60.22,25.93,81.84,65.38,48.76,65.38,48.76l45.54,2.31,55.25-16.35,39.61-17.2s21.44-27.13,24.39-45.17l49.45,28.91,60.71,47.67,68.92,53.4,71.95,58.82,45.09,34.66,91.62,67.68,85.26,58,45.81,28.4,67.16,34.87,59,21.81,46.18,10.39,61.31-24.84,50.47-23.68,72.49-35.82,60.2-31.4,54.72-29.89,66.51-38.14,63.13-38.07,59.27-37.48,40.3-26.47,52.4-35.69,54.74-43.26,33.37-39.94,16-38.3-.45-47.37L2269.08,1838l-38.8-42.16-34.21-27.56a57.18,57.18,0,0,0-14.08-8.34l-77.92-32.07s43.91,89.24,67.91,118.4c-24.94,27.1-22.91,45.29-22.91,45.29l-34.17,25.28-36.79,17.14-80,29.38-92.39,34.37-82,34.35L1720,2076.67l-81.93,39.4-28.31,15.08-20.89-17L1552,2089.05l-50.06-33.87-44.14-34.53-46.56-39.83-77.18-78-83.5-94.47L1184.16,1736l-54.25-51.88-58-46.14-41.17-26.67-44.2-22.91Z"/><path class="cls-8" d="M1609,2380.52c-38.21-4.95-75.48-16.55-110.9-31.95-35.38-15.59-69.2-34.55-101.83-55.11-4.11-2.53-8.16-5.15-12.23-7.74s-8.12-5.19-12.15-7.83c-8.1-5.23-16.08-10.62-24.11-15.95q-24-16.14-47.7-32.64-11.85-8.27-23.57-16.72l-11.72-8.45-11.67-8.53q-23.31-17.1-46.3-34.61c-7.67-5.84-15.23-11.8-22.84-17.71s-15.15-11.91-22.65-18q-22.59-18-44.79-36.55c-14.79-12.35-29.39-24.9-44-37.33l-22-18.57c-7.36-6.16-14.72-12.31-22.18-18.34q-22.31-18.18-45.56-35-11.62-8.41-23.6-16.35c-8-5.22-16.1-10.36-24.36-15.17s-16.6-9.54-25.15-13.84c-4.24-2.23-8.59-4.23-12.9-6.32l-6.55-3-3.27-1.47-3.32-1.4A353.32,353.32,0,0,0,829,1903.84l7.08,1.4c1.18.24,2.37.45,3.54.71l3.52.81c2.34.56,4.7,1.06,7,1.66l7,1.86c9.27,2.63,18.48,5.54,27.52,9l3.4,1.25,3.37,1.34,6.72,2.71c4.42,1.94,8.89,3.79,13.25,5.87,8.8,4,17.41,8.42,25.93,13l6.35,3.5,6.28,3.62,3.14,1.82,3.1,1.87,6.2,3.76c8.21,5.11,16.33,10.35,24.33,15.79s15.87,11,23.63,16.77,15.47,11.56,23.09,17.48,15.16,11.92,22.69,18,14.92,12.18,22.35,18.31c14.84,12.26,29.58,24.6,44.48,36.72q44.55,36.52,90.32,71.52c30.42,23.45,61.36,46.21,92.6,68.56s62.85,44.22,94.84,65.39c4,2.61,8,5.26,12.07,7.83l12.15,7.69,12.26,7.49c4.09,2.51,8.24,4.89,12.35,7.34,16.54,9.67,33.42,18.74,50.69,27C1534.75,2360.4,1571.15,2373.24,1609,2380.52Z"/><path class="cls-8" d="M934.34,1568.77l13.21,3.88c2.2.66,4.42,1.25,6.6,2l6.51,2.26,6.5,2.29,3.25,1.15c1.09.37,2.17.76,3.23,1.22l12.78,5.19c4.3,1.65,8.43,3.68,12.62,5.6l6.26,2.91,3.14,1.45,3.07,1.58,12.28,6.34c2.06,1,4.06,2.17,6.06,3.31l6,3.41c8.09,4.43,15.79,9.5,23.64,14.33,3.87,2.51,7.67,5.13,11.5,7.68l5.74,3.86,5.62,4,11.22,8.1,10.94,8.45c1.81,1.42,3.66,2.81,5.45,4.25l5.35,4.38c3.56,2.93,7.16,5.81,10.68,8.78,28.19,23.78,54.59,49.58,79.89,76.28,12.7,13.32,25,27,37.25,40.67s24.32,27.51,36.43,41.28,24.07,27.65,36.21,41.36,24.4,27.28,36.86,40.64a1087.58,1087.58,0,0,0,78.06,76.8c54.79,48.37,114.94,90.56,174.36,133.57-31-19.6-61.76-39.63-92-60.53q-22.61-15.74-44.68-32.3t-43.14-34.44c-14.07-11.89-27.84-24.17-41-37l-5-4.78-4.91-4.85-9.81-9.73c-6.4-6.6-12.92-13.11-19.21-19.82-25.32-26.7-49.53-54.35-73.74-81.91s-48.1-55.3-73-82.07q-18.54-20.2-38-39.45l-9.79-9.56c-3.26-3.2-6.65-6.25-10-9.41-6.57-6.33-13.43-12.34-20.19-18.47-3.42-3-6.92-5.94-10.37-8.92l-5.2-4.45c-1.74-1.47-3.53-2.88-5.3-4.33l-10.63-8.6-10.85-8.33-5.43-4.16-5.56-4c-3.71-2.65-7.38-5.36-11.13-8-7.61-5-15.09-10.26-22.93-14.93l-5.81-3.62c-1.94-1.21-3.87-2.42-5.87-3.52l-11.91-6.76-3-1.68-3-1.57-6.09-3.13c-4.08-2-8.08-4.28-12.27-6.12l-12.44-5.77c-1-.5-2.08-.94-3.15-1.36l-3.17-1.3-6.35-2.6-6.35-2.63c-2.13-.84-4.3-1.56-6.46-2.34Z"/><path class="cls-8" d="M2104.07,1727.83c2.35,5.25,5.37,10.11,8.15,15.08l8.65,14.74,17.41,29.33c5.79,9.76,11.66,19.46,17.65,29,1.49,2.41,3,4.76,4.55,7.11l2.29,3.54,2.37,3.44c.79,1.15,1.56,2.32,2.36,3.45s1.66,2.18,2.47,3.29c1.58,2.32,3.38,4.12,5.07,6.2l3.53,4.36-4,2.42c-.12.07-.32.22-.51.36l-.57.42c-.39.3-.78.6-1.17.93-.78.62-1.53,1.3-2.29,2s-1.49,1.4-2.23,2.11-1.44,1.47-2.13,2.23a66.22,66.22,0,0,0-7.5,9.9l-.83,1.33c-.27.45-.51.92-.77,1.37-.49.92-1,1.84-1.49,2.78-.85,1.91-1.84,3.81-2.52,5.83a73.8,73.8,0,0,0-3.51,12.49c-.09-1.1-.15-2.2-.2-3.3a24.83,24.83,0,0,1-.05-3.34l.2-3.34c0-1.12.29-2.22.43-3.34a54.81,54.81,0,0,1,1.43-6.63c.31-1.09.7-2.15,1.06-3.24.19-.53.35-1.08.56-1.61l.67-1.57a60,60,0,0,1,6.69-12c.66-.93,1.38-1.84,2.08-2.76s1.46-1.8,2.24-2.67,1.57-1.72,2.42-2.54c.41-.42.85-.83,1.29-1.24.21-.2.44-.41.68-.61s.45-.41.77-.66l-.43,6.77c-1.11-1.06-2.19-2.15-3.28-3.24a41,41,0,0,1-3-3.33q-1.46-1.68-2.89-3.39c-.92-1.16-1.78-2.33-2.68-3.49l-2.66-3.49-2.48-3.58-2.49-3.57c-.83-1.19-1.58-2.43-2.37-3.64-6.33-9.68-12.07-19.67-17.43-29.84s-10.35-20.54-14.81-31.15c-1.12-2.66-2.17-5.34-3.24-8s-2-5.41-3-8.12-1.81-5.48-2.6-8.27c-.39-1.4-.77-2.8-1.11-4.2S2104.29,1729.24,2104.07,1727.83Z"/><path class="cls-7" d="M1138.77,2108.49c-3.66,32.47-7.86,64.78-11.15,97.13s-6,64.69-7.08,97.07a858.89,858.89,0,0,0,1.77,97.07,690,690,0,0,0,14.34,96.34c-11.35-30.67-18.49-62.92-22.69-95.48a610.49,610.49,0,0,1-4.08-98.3,845.77,845.77,0,0,1,9.45-97.77C1124.33,2172.22,1130.74,2140.17,1138.77,2108.49Z"/><path class="cls-8" d="M1769.08,1983.6a179.29,179.29,0,0,0,88,42.28,188.5,188.5,0,0,0,24.35,2.59,73.78,73.78,0,0,0,23.55-3.08,78.84,78.84,0,0,0,21.39-10.15c6.76-4.61,13.42-9.48,19.85-14.55s12.66-10.39,18.49-16l2.16-2.13,2.05-2.11,2-2.19,1.87-2.26a75.73,75.73,0,0,0,14.86-31.51c.2-.93.4-1.94.58-3l.58-3,1.08-6.07c.69-4.06,1.36-8.12,2-12.18a414,414,0,0,0,4.66-48.93A226.72,226.72,0,0,0,1996,1847a131.85,131.85,0,0,0-3.66-23.65c-.41-1.9-1-3.92-1.56-5.89l-1.67-6c-1.12-4-2.35-7.89-3.52-11.84s-2.49-7.85-3.73-11.77-2.66-7.78-4-11.68a474.34,474.34,0,0,0-18.71-45.55,349.92,349.92,0,0,0-23.91-42.87c-1.07-1.74-2.27-3.4-3.44-5.08l-3.51-5c-1.14-1.7-2.41-3.29-3.64-4.92l-3.71-4.89c-1.2-1.65-2.54-3.19-3.83-4.78l-3.9-4.72c-1.27-1.61-2.68-3.08-4-4.61l-4.11-4.54a206.37,206.37,0,0,0-37.22-31.53,199.58,199.58,0,0,0-43.76-21.92,190,190,0,0,0-48-10.51,180.71,180.71,0,0,0-24.74-.44,177,177,0,0,0-24.68,2.87,176.74,176.74,0,0,1,24.55-4.49,180.35,180.35,0,0,1,25-.91,189.41,189.41,0,0,1,49.51,8.47,204.34,204.34,0,0,1,45.88,21,207.13,207.13,0,0,1,39.48,31.66l4.37,4.59c1.44,1.53,2.94,3,4.29,4.64l4.15,4.78c1.37,1.6,2.8,3.16,4.08,4.83l3.92,5c1.29,1.66,2.63,3.29,3.83,5l3.7,5.13c1.23,1.72,2.49,3.41,3.63,5.18a358.94,358.94,0,0,1,25.25,43.69,460.65,460.65,0,0,1,19.44,46.45c1.36,4,2.81,7.89,4.11,11.87s2.64,8,3.87,12,2.48,8,3.63,12l1.72,6c.56,2,1.19,4,1.65,6.14a141.93,141.93,0,0,1,3.83,25.53,235,235,0,0,1,.38,25.44c-.24,8.45-.94,16.84-1.78,25.2s-2,16.69-3.34,25c-.67,4.14-1.41,8.27-2.18,12.39l-1.2,6.17-.63,3.08c-.2,1-.41,2-.67,3.14a85.25,85.25,0,0,1-17.25,35.21l-2.14,2.5-2.23,2.42-2.33,2.32-2.33,2.18a252.91,252.91,0,0,1-19.56,16.11c-6.75,5-13.61,9.81-20.69,14.38a82.43,82.43,0,0,1-23.76,10.45,80.43,80.43,0,0,1-25.74,2.47,188.14,188.14,0,0,1-25-3.57,181.88,181.88,0,0,1-24.19-7.11c-2-.76-3.95-1.43-5.88-2.27l-5.79-2.47c-3.79-1.79-7.58-3.58-11.24-5.63a169,169,0,0,1-21.1-13.5A176.18,176.18,0,0,1,1769.08,1983.6Z"/><path class="cls-8" d="M1088.8,2186.71a193.1,193.1,0,0,0-17.41-11.76c-6-3.62-12.13-7-18.38-10.09-12.5-6.25-25.33-11.8-38.26-17.24s-25.8-11-38.76-16.36l-38.83-16.17c-26-10.59-51.89-21.23-78-31.49s-52.16-20.52-78.39-30.41c-26.15-10.07-52.46-19.73-78.8-29.31-26.29-9.73-52.78-18.88-79.21-28.24l-19.87-6.91c-6.64-2.29-13.29-4.61-19.9-7.06a392.73,392.73,0,0,1-39-16.6c-3.19-1.55-6.27-3.32-9.4-5s-6.15-3.53-9.11-5.5A145.54,145.54,0,0,1,508.3,1942c-1.33-1.17-2.69-2.3-4-3.5l-3.82-3.69a100.16,100.16,0,0,1-7.19-7.81,103,103,0,0,1-11.74-17.54,114.5,114.5,0,0,0,28.61,30.21c.7.52,1.37,1.07,2.08,1.57l2.15,1.46c1.45,1,2.83,2,4.31,2.92l4.42,2.76c1.46.93,3,1.73,4.5,2.6,3,1.77,6.12,3.28,9.19,4.9,3.14,1.47,6.24,3,9.44,4.39,25.39,11.39,52.41,18.73,79.18,27.38q20.1,6.32,40.08,13l20,6.73,19.93,6.85c6.65,2.25,13.24,4.69,19.86,7s13.23,4.73,19.82,7.17l19.78,7.26,19.74,7.39c6.57,2.48,13.1,5.08,19.66,7.61s13.09,5.09,19.62,7.69c13.06,5.17,26.11,10.37,39.1,15.74,6.49,2.67,13,5.43,19.44,8.14l9.71,4.07,9.69,4.15c6.45,2.78,12.93,5.48,19.36,8.33l19.26,8.53,19.22,8.65,9.59,4.35,9.56,4.44c12.74,5.91,25.42,11.94,38.1,18s25.31,12.32,37.5,19.42c6.09,3.55,12.08,7.3,17.85,11.34A175.78,175.78,0,0,1,1088.8,2186.71Z"/><path class="cls-8" d="M456.59,1805.31c-8.6,6.85-17.07,13.84-25.29,21.11S415,1841.14,407.43,1849A277.63,277.63,0,0,0,386,1873.72c-3.35,4.3-6.41,8.79-9.4,13.32-1.4,2.31-2.91,4.57-4.22,6.94l-2,3.53-1.88,3.59c-.65,1.19-1.22,2.41-1.8,3.63s-1.18,2.42-1.72,3.65c-1.05,2.48-2.17,4.94-3.06,7.47a114.26,114.26,0,0,0-4.67,15.37l-.85,3.92c-.25,1.31-.43,2.63-.65,3.95l-.32,2-.22,2-.41,4-.2,4c0,.67-.08,1.33-.08,2l0,2c0,1.33,0,2.66.05,4l.26,4a100.4,100.4,0,0,0,2.45,15.72,102.21,102.21,0,0,0,4.76,15.17,129.49,129.49,0,0,0,15.47,27.89c3.13,4.33,6.45,8.55,10,12.58s7.22,8,11.08,11.74a297.48,297.48,0,0,0,24.35,21.41c17,13.49,35.23,25.48,53.78,37.25l13.84,8.89c4.62,3,9.2,6,13.86,8.88L532.26,2140c9.31,5.81,18.7,11.47,28,17.22,4.69,2.85,9.34,5.76,14.06,8.55l14.14,8.42c18.75,11.38,37.75,22.36,56.7,33.41l28.62,16.26,7.16,4,7.2,4,14.39,8q57.54,32,116.22,61.85c9.73,5.08,19.58,9.92,29.39,14.84l14.73,7.35c4.9,2.47,9.85,4.84,14.78,7.26,9.86,4.81,19.7,9.69,29.6,14.43L937,2359.74c39.72,18.74,79.8,36.74,120,54.5-41.12-15.55-81.79-32.28-122.19-49.69s-80.26-36-119.81-55.31Q696.4,2251.37,583,2183.43c-37.71-22.69-75.08-46-111.81-70.21-18.41-12-36.83-24.41-54.11-38.42s-33.54-29.68-46.39-48.26a137.09,137.09,0,0,1-15.86-29.91,111.62,111.62,0,0,1-4.78-16.34,103.08,103.08,0,0,1-2.21-16.87l-.16-4.25c0-1.42,0-2.84,0-4.26l0-2.12c0-.71.1-1.41.15-2.12l.32-4.24.55-4.21.28-2.1.39-2.08c.27-1.39.51-2.78.81-4.16l1-4.11a120.2,120.2,0,0,1,5.33-16c1-2.62,2.23-5.14,3.39-7.69.59-1.27,1.26-2.5,1.89-3.75s1.27-2.49,2-3.69l2.06-3.65,2.19-3.56c1.43-2.4,3.05-4.66,4.58-7,3.21-4.54,6.5-9,10.05-13.28a260.86,260.86,0,0,1,22.62-24.24c8-7.63,16.36-14.8,24.92-21.72S447.67,1811.73,456.59,1805.31Z"/><path class="cls-6" d="M1726.62,1587.65s48-9.28,58.45-7.38,60.12,19.45,60.12,19.45l61.48,45.06,37.82,48.58,31.65,63.36,20.91,63.27,12.1,75.45s-.68,60.24-24.77,82.32-65.41,50-65.41,50l-46.16,3.16-56.38-15.31-36.56-21.2s-29.33-23.14-32.66-41.11l-46.52,31L1640,2033l-68.92,54.68-71.9,60.16-45.09,35.49-91.68,69.38L1277,2312.32,1231,2341.57l-67.48,36.11-59.43,22.91-46.67,11.25-62.67-23.69-51.67-22.74L868.9,2331l-61.68-30.27-56.09-28.86-68.21-36.89L618.14,2198l-60.85-36.36L515.9,2136l-53.85-34.7L405.7,2059l-34.62-39.3-16.94-38-.44-47.37,23.7-52.66L416,1838.82l34.18-28.2a58,58,0,0,1,14.14-8.59l78.46-33.52s-42.87,90-66.67,119.64c25.82,26.63,24.1,44.85,24.1,44.85l35.16,24.64L573,1974.09,654.73,2002l94.39,32.63L833,2067.43,939,2110.12,1022.9,2148l29,14.55,20.87-17.37,37-25.8,50.14-34.8,44.14-35.35,46.48-40.69,76.85-79.45,82.93-96,66-73.6,54.07-52.88,57.94-47.22,41.27-27.44,44.42-23.73Z"/><path class="cls-8" d="M1057.46,2411.84c38.09-8,74.7-21.41,109.37-38.6,17.35-8.57,34.29-17.94,50.89-27.9,4.13-2.52,8.29-5,12.39-7.56l12.31-7.71,12.18-7.91c4.06-2.64,8.07-5.38,12.1-8.06q48.12-32.64,95.06-67.18t92.77-70.34q45.92-35.77,90.44-73.3c14.91-12.41,29.66-25.06,44.52-37.61,7.43-6.28,14.87-12.56,22.37-18.77s15.07-12.34,22.72-18.39,15.32-12.06,23.12-17.93,15.68-11.63,23.69-17.21,16.16-11,24.39-16.23l6.22-3.87c2.07-1.3,4.16-2.56,6.27-3.8l6.3-3.74,6.38-3.61c8.55-4.72,17.19-9.29,26-13.45,4.38-2.16,8.88-4.08,13.32-6.1,4.51-1.87,9-3.83,13.56-5.52,9.08-3.57,18.35-6.64,27.68-9.44l7-2c2.35-.64,4.72-1.18,7.08-1.78l3.54-.88c1.18-.28,2.38-.51,3.57-.77l7.13-1.52-7,1.91c-1.17.33-2.35.63-3.51,1l-3.49,1.07c-2.31.73-4.65,1.4-6.95,2.17l-6.88,2.35c-9.15,3.22-18.21,6.68-27,10.65l-3.33,1.45c-1.11.49-2.2,1-3.29,1.53l-6.58,3.06c-4.33,2.18-8.7,4.24-13,6.55-8.59,4.45-17,9.29-25.25,14.28s-16.4,10.25-24.44,15.62-15.9,11-23.66,16.79q-23.31,17.29-45.63,35.93c-7.47,6.17-14.84,12.47-22.21,18.78l-22,19c-14.67,12.72-29.27,25.57-44.08,38.22s-29.76,25.12-44.83,37.44-30.24,24.53-45.55,36.56-30.82,23.81-46.38,35.5l-11.69,8.75-11.75,8.68q-11.74,8.66-23.62,17.17-23.74,17-47.81,33.53c-8.05,5.48-16.05,11-24.17,16.41q-6.06,4.07-12.19,8.05c-4.08,2.66-8.14,5.35-12.26,8-32.72,21.16-66.67,40.71-102.23,56.9C1133.48,2394,1096,2406.21,1057.46,2411.84Z"/><path class="cls-8" d="M1726.62,1587.65l-13,4.85c-2.16.82-4.33,1.59-6.47,2.46l-6.37,2.73c-4.23,1.84-8.52,3.55-12.71,5.47l-12.48,6c-4.19,1.91-8.21,4.18-12.29,6.32l-6.1,3.23-3,1.62c-1,.54-2,1.15-3,1.72l-11.92,7c-1,.59-2,1.15-3,1.75l-2.91,1.86-5.82,3.71c-7.85,4.81-15.35,10.15-23,15.32-3.76,2.64-7.42,5.43-11.14,8.14l-5.55,4.09c-1.85,1.37-3.63,2.83-5.44,4.24l-10.85,8.52-10.63,8.8-5.3,4.41-5.19,4.55c-3.46,3-6.94,6-10.36,9.11-6.74,6.26-13.61,12.38-20.17,18.85-3.28,3.22-6.66,6.34-9.92,9.58l-9.78,9.76c-3.28,3.22-6.43,6.58-9.64,9.88s-6.43,6.59-9.54,10l-9.42,10.1c-3.15,3.36-6.2,6.82-9.3,10.23-24.81,27.27-48.73,55.42-72.68,83.59s-48.19,56.23-73.42,83.44l-4.74,5.1-4.8,5-9.61,10.07-9.78,9.92-4.9,5-5,4.87c-13.19,13.08-26.93,25.63-41,37.77s-28.43,23.9-43.11,35.23-29.6,22.33-44.68,33.08c-30.23,21.42-61,42-92,62.12,59.41-44.07,119.57-87.32,174.28-136.72a1091.42,1091.42,0,0,0,77.85-78.31c12.42-13.62,24.61-27.47,36.71-41.41s24-28,36-42.12,24.07-28.1,36.27-42,24.44-27.87,37.1-41.44c25.21-27.22,51.57-53.51,79.72-77.8s58.08-46.63,90.21-65.38l6-3.52,3-1.75c1-.57,2-1.1,3.07-1.65l12.3-6.54c1-.54,2-1.11,3.08-1.62l3.14-1.51,6.28-3c4.19-2,8.34-4.07,12.66-5.8l12.82-5.41c1.06-.47,2.15-.86,3.24-1.26l3.26-1.2,6.53-2.4,6.53-2.37c2.19-.74,4.42-1.38,6.63-2.08Z"/><path class="cls-8" d="M542.75,1768.51c-.21,1.42-.44,2.86-.71,4.3s-.69,2.82-1,4.23c-.76,2.81-1.62,5.57-2.51,8.34s-1.88,5.47-2.89,8.18-2.06,5.41-3.14,8.08c-4.34,10.71-9.22,21.17-14.47,31.45s-10.88,20.37-17.12,30.17c-.78,1.22-1.52,2.47-2.34,3.67l-2.45,3.62-2.45,3.62-2.63,3.54c-.89,1.17-1.74,2.36-2.65,3.52s-1.9,2.31-2.86,3.44a42.8,42.8,0,0,1-3,3.38c-1.09,1.11-2.16,2.21-3.26,3.29l-.57-6.86c.33.25.55.44.79.64s.48.41.7.6c.45.4.91.8,1.33,1.21.87.81,1.68,1.65,2.5,2.49s1.55,1.74,2.31,2.61,1.47,1.8,2.17,2.73a60.36,60.36,0,0,1,7,11.88l.71,1.56c.24.52.41,1.07.61,1.61.39,1.08.8,2.14,1.15,3.22a56.88,56.88,0,0,1,1.59,6.62c.17,1.13.42,2.22.51,3.35l.26,3.35a25,25,0,0,1,0,3.35c0,1.11-.07,2.21-.13,3.31a73.41,73.41,0,0,0-3.8-12.45c-.73-2-1.77-3.88-2.67-5.78-.5-.94-1-1.84-1.57-2.75s-1.09-1.8-1.68-2.67a66.07,66.07,0,0,0-7.79-9.73c-.71-.74-1.46-1.45-2.19-2.18s-1.52-1.38-2.29-2-1.55-1.33-2.36-1.93c-.39-.32-.79-.61-1.19-.9-.2-.15-.4-.29-.59-.41s-.4-.28-.52-.35l-4.12-2.37L473,1885c1.67-2.1,3.46-3.93,5-6.28q1.2-1.68,2.43-3.33c.79-1.14,1.56-2.32,2.33-3.48l2.34-3.48,2.25-3.58c1.52-2.37,3-4.76,4.48-7.19,5.9-9.65,11.67-19.46,17.36-29.32l17.11-29.65,8.48-14.9C537.49,1778.72,540.46,1773.81,542.75,1768.51Z"/><g class="cls-9"><path class="cls-6" d="M1623.15,1523.37S1448.3,1603,1386.62,1750.28l-40.36,168.16,195.44-185.19"/><polygon class="cls-6" points="2002.66 1501.18 1932.09 1480.27 1886.15 1472.57 1868.57 1470.81 1851.29 1433.48 1839.85 1389.18 1823.96 1336.93 1845.54 1318.23 1853.21 1281.46 1838.37 1230.63 1849.2 1210.13 1890.01 1178.85 1924.32 1146.66 1945.56 1106.15 1940.08 1082.9 1906.04 1075.41 1881.7 1090.02 1794.22 1058.36 1765.87 1002.64 1720.61 958.24 1674.95 924.15 1637.18 893.06 1606.24 857 1591.19 826.24 1564.59 859.71 1515.56 905.75 1475.81 946.05 1436.97 1006.69 1410.07 1108.13 1412.53 1180.51 1431.28 1273.71 1466.59 1373.91 1491.12 1433.16 1529.77 1491.65 1582.51 1505.1 1629.94 1495.65 1653.36 1509.67 1661.81 1523.57 1666.17 1534.37 1629.68 1558.33 1596.27 1591.16 1585.51 1626.01 1598.67 1628.41 1649.89 1610.36 1717.15 1574.83 1750.94 1561.28 1795.08 1544.46 1856.29 1534.29 1932.5 1524.82 1988.16 1508.49 2002.66 1501.18"/><path d="M1268.3,1034.37l142.18,117.08,3.43-63.64,12.79-54.92,22.12-49.22,27-37.62,14-13.91,18.79-19.88,19.69-18.74,17.84-14.66,18.46-19.15,20.14-22.13,6.46-11.34,10.86,23.28,11.31,17.42,18,20.87L1650,903.25,1675,924.16l22.27,16.25,23.39,17.83,22.51,18.07L1757,993.07l21.59,25.61,7.51,19.68,9.21,30.83-1,30.28-6.73,27.82-8,31.35-2.83,21.27,6.9,20.83,12.42,15.31,7.2,4.74s17.13,8.51,27.92-.26,15.09,32.59,15.09,32.59l6.89,40.4-7.59,24.71s-10.13,16.91-21.58,18.7l10.24,26.34,3.13,30.17,18.8,61.19,12.44,16.18,17.58,1.76,25.92,3.78,28.4,4.91s24.74,7.09,27.48,6.15,34.71,13.77,34.71,13.77l10.53,5.09,12.22,10.28,7,9,4.88,12.07,9.25,16.8,9.78,32.07L2063,1615l15.54,66,8.61,26.65,21.93,62.2,36.61,66.78,29.21,44.37,20.22,32.48s47-13,59.91-29.28,24-41.93,24-41.93l3.5-57.59-9.91-48.18L2255.29,1690l-29.91-54.88-33.29-42.47-30.85-24.33L2128,1530.06l-13.93-35-.14-26.49,22.66-38.6,32.53-30.94,16.52-33-8.13-40.92-25.46-39.48-25.93-31.91-28.52-26.55-31.18-30.37-17-30.64-4.88-31.24-.28-29.67,2.33-39.18-9.31-50.34-19.93-40.92-23.27-29.18L1963,919.9l-18.52-10.52-25.22-10.44-12.81-26.21-19-29.63L1855,806.89l-36.24-27.1-31.71-15.29-48.88-10.8-39.35.36-32.4,9-10.2,3.93-12.12-7.37-17-7.41-23.82-8.44-33.12-9.3-24.87.25-44.55,6.79-27.89,12.39-29,24.79-23,39.71-13.27,31.85-17.8,34.46-36,37.07-30.57,23L1294.84,970l-17.56,24.51-7.45,19.6-1.5,9.32ZM1825.51,1196c.07-13.22.91-26.69,5.8-39.06,4.21-10.61,10.83-19.15,18.79-26.67a16.64,16.64,0,0,1,1.44-2.17,40.69,40.69,0,0,1,8.58-8.21c.55-.58,1.09-1.17,1.63-1.76l7.43-9.6a76.38,76.38,0,0,1,12-15.38c6.82-17.37,35.92-25.84,51.53-16.8,6.49-.28,13.1,4,14,13a46.71,46.71,0,0,1-.07,9.24,43.81,43.81,0,0,1-1.92,13.87c-1.29,8.46-5.23,16.3-10.53,23.35-.77,1.34-1.54,2.65-2.29,3.91a14.92,14.92,0,0,1-4.28,4.73c-6.6,12.12-19,20.4-30.23,28.19-17.19,11.94-34.21,24.56-49.58,38.79C1836.21,1222.07,1819.26,1207.66,1825.51,1196Z"/><path class="cls-10" d="M2002.64,1499s39.11,19.65,53.69,87.51,42,152.82,42,152.82l47.38,97.35,49.43,76.85,72.25,110.9,60.23,103.5,42.22,89.78,49.65,141.44L1946,2657.06l-397.84-142.35,13.58-78.37,5.4-76.87-6.71-64.27-5.27-76.63-6.56-39.88-3.85-29.89-5.94-21.59,19.81-25L1611.3,2062l36.49-32.85,59.81-48.79,48.9-29.83s7.2,27.11,47.76,51.87S1877.2,2027,1877.2,2027l32.82.77,27.07-11.54,33.4-27.89,21.67-30.14,5.74-49.75,6.64-31.61-2.17-50-15-48.27-20.26-49.88-25.37-47.1-31.19-40.65-37.26-31.33-33.3-18.51-33.5-10.14-28.56-4.23-30.5,4.49-24.88,6.76-20.74,8.2-41,18.52L1637.53,1628l-40.66,27.44-20.29,16.78-27.65,22.86-24.53,21.16-30.49,31.94L1466.74,1778l-5.2-7.59,11.56-34.23,14.58-32.85,25.18-47.58,18.27-32.29,26.12-39.78,16.88-19.11,18.38-16.46,24.15-17.93,18.12-12,13.09-9.73,13.94,15.2,4.36,10.8-21.27,13.21-27.24,18.71-21.39,24.88-11,21.71.25,13.13,16.36,2.37,16.7-5.92,35.62-17.08,45.44-21.3,12.92-6.65,12.5-7,25.89-9.18,29.86-12.66,25.83-5.95,49.66-8.38,46.93-2.13,43.83-7.92,41.11-15.75Z"/><path class="cls-8" d="M1775,1979.73a176,176,0,0,0,87.09,42.38,183.84,183.84,0,0,0,24.14,2.53,72.44,72.44,0,0,0,23.32-3.3,77.22,77.22,0,0,0,21.07-10.4c6.69-4.67,13.24-9.54,19.58-14.64a236.6,236.6,0,0,0,18.16-16.1c1.44-1.43,2.78-2.81,4.08-4.26s2.55-2.94,3.72-4.48a76.17,76.17,0,0,0,14.27-31.55c1.55-8,2.9-16.06,4.06-24.13a421,421,0,0,0,4.52-48.58,231.76,231.76,0,0,0-.48-24.18,134.2,134.2,0,0,0-3.58-23.5c-.4-1.89-1-3.89-1.53-5.85l-1.63-5.92c-1.08-4-2.3-7.85-3.44-11.78q-3.55-11.73-7.55-23.31a481.28,481.28,0,0,0-18.29-45.34,351.18,351.18,0,0,0-23.38-42.76q-6.58-10.24-14-19.91T1909.55,1646a203.52,203.52,0,0,0-36.57-31.74,195.83,195.83,0,0,0-43.21-22.17,184.47,184.47,0,0,0-47.58-10.69,176.36,176.36,0,0,0-24.55-.48,172.93,172.93,0,0,0-24.49,2.89,174.12,174.12,0,0,1,24.36-4.5,176.25,176.25,0,0,1,24.86-.86,184.44,184.44,0,0,1,49.1,8.68,200.86,200.86,0,0,1,65.72,36,203.31,203.31,0,0,1,18.43,17.14q8.72,9.06,16.56,18.88c5.21,6.55,10.12,13.34,14.76,20.29a361.87,361.87,0,0,1,24.7,43.57,463.28,463.28,0,0,1,19,46.21q4.15,11.77,7.81,23.69c1.18,4,2.43,7.95,3.55,11.94l1.69,6c.55,2,1.15,4,1.61,6.11a145,145,0,0,1,3.74,25.33,241.8,241.8,0,0,1,.38,25.24,401.67,401.67,0,0,1-5,49.8c-1.32,8.23-2.8,16.37-4.53,24.56a85.73,85.73,0,0,1-16.55,35.21q-2,2.57-4.25,5c-1.47,1.6-3,3.14-4.56,4.57a247.85,247.85,0,0,1-19.24,16.22c-6.64,5.07-13.45,9.86-20.39,14.46A80.73,80.73,0,0,1,1911.5,2028a78.7,78.7,0,0,1-25.54,2.72,170.33,170.33,0,0,1-48.9-10.61c-1.94-.77-3.91-1.45-5.82-2.28l-5.74-2.48c-3.76-1.79-7.51-3.58-11.13-5.64a164.75,164.75,0,0,1-20.87-13.53A176.63,176.63,0,0,1,1775,1979.73Z"/><path class="cls-8" d="M1868.57,1470.81c11.5.37,23,1.28,34.46,2.62s22.86,3.19,34.21,5.38,22.59,5,33.76,8,22.19,6.65,33.1,10.57l8.06,2.9-7.5,4.42a167.14,167.14,0,0,1-33.5,15,261.82,261.82,0,0,1-35.44,8.63c-23.89,4.21-47.93,5.76-71.69,7.62-11.88.93-23.73,1.85-35.47,3.22a341.78,341.78,0,0,0-34.83,5.56,192.77,192.77,0,0,0-33.4,10.12,143.65,143.65,0,0,0-30.21,16.9l-.31.23-.18.1c-11,5.9-21.94,11.56-33,17.06s-22.32,10.75-33.63,15.79-22.75,9.83-34.38,14.11-23.39,8.27-35.47,11l8.74-3.07c2.89-1.07,5.74-2.26,8.61-3.38l2.15-.84,2.12-.91,4.25-1.83,4.24-1.82,4.2-1.93c11.22-5.06,22.27-10.51,33.22-16.14s21.86-11.36,32.64-17.3,21.59-11.9,32.15-18.09l-.49.32,7.44-5.5c2.59-1.67,5.16-3.38,7.79-5s5.38-3,8.11-4.43,5.53-2.72,8.34-3.94a202.88,202.88,0,0,1,34.86-11.39c23.78-5.48,47.9-7.61,71.74-9.44s47.59-3.22,70.87-6.83,46.08-9.72,66.56-20.82l.56,7.32c-10.58-4.25-21.33-8.07-32.17-11.67s-21.84-6.71-32.91-9.57-22.28-5.31-33.54-7.49S1880,1472.31,1868.57,1470.81Z"/><path class="cls-8" d="M1825.16,1328.38a31.12,31.12,0,0,1,3.29,6.42c.88,2.24,1.67,4.5,2.45,6.76,1.55,4.54,2.91,9.12,4.25,13.69,2.65,9.15,5.08,18.33,7.54,27.48,4.86,18.3,9.71,36.52,15.29,54.43s11.81,35.57,20.45,51.88c4.35,8.11,9.36,15.87,15.72,22.39a48.39,48.39,0,0,0,10.73,8.41,29.8,29.8,0,0,0,3.08,1.58c.52.23,1,.49,1.59.7l1.63.6a32.06,32.06,0,0,0,3.37,1,16.67,16.67,0,0,0,1.73.39l1.75.36c-1.19,0-2.4.14-3.6.08s-2.43-.09-3.62-.3L1909,1524c-.6-.11-1.19-.28-1.79-.42a31.19,31.19,0,0,1-3.54-1,45.9,45.9,0,0,1-13-7.17c-7.89-6.08-14.16-13.89-19.49-22.06a142.82,142.82,0,0,1-7.31-12.67c-2.25-4.31-4.27-8.72-6.2-13.15s-3.63-9-5.31-13.48-3.14-9.1-4.59-13.67a463.36,463.36,0,0,1-13.28-55.8c-1.67-9.38-3.13-18.79-4.47-28.19l-2-14.09c-.34-2.35-.71-4.69-1.13-7A35.33,35.33,0,0,0,1825.16,1328.38Z"/><path class="cls-7" d="M1999.3,1497.06a91,91,0,0,1,24.13,18.27,108.56,108.56,0,0,1,9.62,11.86,132.37,132.37,0,0,1,8,13c2.4,4.49,4.65,9.07,6.6,13.78,1,2.33,1.92,4.71,2.87,7.08s1.79,4.76,2.59,7.17c3.34,9.62,6.09,19.4,8.6,29.23s4.68,19.71,6.88,29.55l3.32,14.75c1.1,4.91,2.39,9.75,3.6,14.61a554.31,554.31,0,0,0,18.18,57.27c1.7,4.71,3.62,9.35,5.48,14s3.84,9.25,5.82,13.86,4,9.18,6.09,13.75,4.21,9.1,6.37,13.62c8.68,18.09,18.08,35.83,28,53.31,19.73,35,41.29,69,63.38,102.73,21.94,33.83,44.4,67.4,65.86,101.7s41.8,69.42,59.81,105.71a1125.34,1125.34,0,0,1,85,226.84,1343.22,1343.22,0,0,0-92.35-223c-2.3-4.47-4.72-8.88-7.12-13.3s-4.78-8.85-7.27-13.21l-7.38-13.16-7.55-13c-10.17-17.34-20.78-34.44-31.63-51.4-21.62-34-44.12-67.46-66.25-101.27-22-33.91-43.63-68.14-63.25-103.64-9.77-17.77-19-35.82-27.61-54.24-2.13-4.61-4.28-9.2-6.28-13.87s-4.11-9.29-6-14-3.85-9.4-5.61-14.17-3.63-9.48-5.26-14.3a526.27,526.27,0,0,1-17.15-58.48c-1.09-5-2.26-9.91-3.22-14.88l-2.92-14.87c-1.9-9.92-3.83-19.79-6-29.61-4.26-19.6-9.51-39.08-18.21-57.11a131.72,131.72,0,0,0-7.28-13.09,111.27,111.27,0,0,0-8.92-12,89.94,89.94,0,0,0-22.94-19.34Z"/><path d="M1591.19,826.24a141.72,141.72,0,0,0,14.28,27.36c2.9,4.24,5.88,8.41,9.13,12.38s6.61,7.84,10.18,11.52a262.27,262.27,0,0,0,22.51,20.94c7.88,6.58,16,12.88,24.3,19s16.73,12.07,25.12,18.12,16.89,12,25.13,18.49c16.43,12.9,32,27.16,45.41,43.47,3.33,4.1,6.53,8.31,9.51,12.7,1.53,2.16,2.92,4.42,4.36,6.65s2.77,4.53,4,6.89a131.7,131.7,0,0,1,6.94,14.41,109.18,109.18,0,0,1,5.09,15.22,105,105,0,0,1,2.82,15.85,98.42,98.42,0,0,1,.35,16.1c-.54,10.78-3.1,21.2-6.1,31.2s-6.41,19.76-9.16,29.59a135.61,135.61,0,0,0-3.38,14.86,68.41,68.41,0,0,0-1,15,64.64,64.64,0,0,0,7.69,29,41.52,41.52,0,0,0,9.54,11.73,33.86,33.86,0,0,0,13.58,7,34.52,34.52,0,0,1-14.37-5.94,43.15,43.15,0,0,1-10.78-11.51,58.85,58.85,0,0,1-6.71-14.37,74.25,74.25,0,0,1-3.15-15.58,68.68,68.68,0,0,1-.29-8,68,68,0,0,1,.6-8,139,139,0,0,1,2.81-15.55c2.36-10.23,5.57-20.12,8.17-30,1.32-5,2.47-9.9,3.34-14.86a97.71,97.71,0,0,0,1.69-14.88,90.33,90.33,0,0,0-.62-14.89,94.67,94.67,0,0,0-2.9-14.63,112,112,0,0,0-4.89-14.14,123.81,123.81,0,0,0-6.6-13.5c-1.19-2.22-2.55-4.34-3.84-6.5s-2.72-4.25-4.2-6.3c-2.85-4.16-6-8.17-9.16-12.09-12.78-15.77-27.88-29.7-43.81-42.56-7.93-6.46-16.24-12.57-24.52-18.78-4.14-3.1-8.3-6.18-12.43-9.33s-8.23-6.32-12.31-9.54c-16.33-12.84-32.2-26.58-45.87-42.43a171.23,171.23,0,0,1-18.22-25.45,147,147,0,0,1-7-14A143.6,143.6,0,0,1,1591.19,826.24Z"/><path d="M1870.87,1100.05c5.67-6.77,11.67-13.31,18.83-18.88a57.78,57.78,0,0,1,11.75-7.1c1-.5,2.14-.9,3.23-1.32s2.27-.73,3.41-1.07a40.17,40.17,0,0,1,7.06-1.17,38.78,38.78,0,0,1,14.32,1.5,29.34,29.34,0,0,1,3.47,1.25c.57.25,1.15.47,1.71.75l1.65.9.82.45.79.53,1.57,1.07c.5.39,1,.81,1.48,1.22a14.38,14.38,0,0,1,1.42,1.29,22.9,22.9,0,0,1,2.55,2.92,19,19,0,0,1,1.13,1.58l1,1.69c.15.29.33.57.47.86l.39.88.77,1.78c.21.61.39,1.23.58,1.84a13.58,13.58,0,0,1,.5,1.87,34.78,34.78,0,0,1-.17,14.87c-2.09,9.47-6.63,17.65-11.36,25.21a172.26,172.26,0,0,1-15.83,21.71,108.7,108.7,0,0,1-19.85,18.23,73.21,73.21,0,0,1-24.19,11.24,91.65,91.65,0,0,0,21.58-14.54,128.76,128.76,0,0,0,17.21-19.16,222,222,0,0,0,14.12-21.68,123.37,123.37,0,0,0,6-11.26,54.46,54.46,0,0,0,4-11.54,26.71,26.71,0,0,0,.29-11.3,7.47,7.47,0,0,0-.32-1.32l-.37-1.31-.52-1.26-.25-.64c-.1-.2-.22-.39-.32-.59l-.65-1.18a12.87,12.87,0,0,0-.76-1.11,10.39,10.39,0,0,0-.8-1.08l-.91-1a8.09,8.09,0,0,0-1-1c-.34-.3-.67-.63-1-.93l-1.13-.82-.56-.42-.61-.36-1.22-.73c-.42-.24-.86-.43-1.29-.64a21.81,21.81,0,0,0-2.67-1.13c-.9-.37-1.87-.58-2.8-.88s-1.93-.45-2.91-.6-2-.32-3-.36l-1.5-.11h-1.5a39.09,39.09,0,0,0-6,.5c-1,.22-2,.39-3,.67s-2,.53-3,.9a59.72,59.72,0,0,0-11.45,5.35C1884.62,1089,1877.85,1094.64,1870.87,1100.05Z"/><path d="M1874.64,1103.8c-.65,1.22-1.28,2.47-2,3.69s-1.46,2.39-2.25,3.55-1.62,2.29-2.48,3.4-1.73,2.21-2.65,3.27c-3.62,4.3-7.6,8.25-11.44,12.23-7.77,7.84-15.29,15.89-19.4,25.43a54.51,54.51,0,0,0-3.94,15,73.83,73.83,0,0,0-.06,15.73,109.28,109.28,0,0,0,2.78,15.74,158.42,158.42,0,0,0,4.73,15.49c1.81,5.14,3.8,10.28,5.79,15.45s4,10.41,5.77,15.75c3.59,10.66,6.57,21.84,7.07,33.41a65.83,65.83,0,0,1-7.26,33.55,48.65,48.65,0,0,1-10.54,13.53c-1.1.91-2.26,1.76-3.37,2.63s-2.42,1.5-3.62,2.24l-3.84,1.76c-1.34.44-2.67.86-4,1.27a38,38,0,0,0,13.16-9.6,47.34,47.34,0,0,0,8.41-13.63,60.36,60.36,0,0,0,4.12-15.41,67.22,67.22,0,0,0,.27-15.84c-1.18-10.6-4.27-21-8.06-31.2-1.9-5.12-3.92-10.24-6-15.38s-4.09-10.36-6-15.67c-3.77-10.67-6.7-21.85-7.52-33.42a76.32,76.32,0,0,1,.68-17.46,56.73,56.73,0,0,1,5.38-16.79,60.09,60.09,0,0,1,10.14-14.19,156.88,156.88,0,0,1,12.43-11.47C1859.53,1119.75,1868.16,1112.91,1874.64,1103.8Z"/><path class="cls-8" d="M1586.7,835.32c-6.55,8.25-13.39,16.3-20.62,24s-14.7,15.17-22.29,22.48c-15.14,14.7-30.76,28.86-45.34,43.93-7.37,7.47-14.36,15.25-21.09,23.22-3.25,4.08-6.6,8.08-9.6,12.32s-6.08,8.44-8.87,12.82a257.5,257.5,0,0,0-26.85,56,290.14,290.14,0,0,0-8.41,30c-2.28,10.13-4.12,20.36-5.43,30.67a369.08,369.08,0,0,0-2.52,62.27q.67,15.59,2.42,31.12c.3,2.58.6,5.17,1,7.74l.52,3.87.61,3.86,1.23,7.72.63,3.86.73,3.84a598,598,0,0,0,14.71,60.88c11.69,40.18,26.92,79.35,42.82,118.29l12,29.23c4,9.73,8,19.32,12.68,28.53l1.8,3.41c.59,1.14,1.2,2.28,1.84,3.38l1.91,3.33,2,3.24,1,1.62,1.08,1.57c.72,1,1.41,2.1,2.16,3.12,1.54,2,3,4.05,4.68,5.92s3.35,3.71,5.08,5.51c.87.89,1.83,1.68,2.74,2.52l1.38,1.25c.48.4,1,.76,1.46,1.14a62,62,0,0,0,12.53,7.79c8.94,4.18,19,5.9,29.08,6.11a148.69,148.69,0,0,0,30.58-3.26q7.64-1.53,15.24-3.5c5.09-1.22,10.12-2.66,15.16-4.06,2.52-.7,5-1.5,7.52-2.25s5-1.51,7.49-2.35l7.46-2.46,7.41-2.63a488.89,488.89,0,0,0,111.81-57.47,454.23,454.23,0,0,1-110,62.37l-7.41,2.89-7.48,2.69c-2.48.92-5,1.76-7.51,2.59s-5,1.71-7.56,2.49c-5.07,1.55-10.13,3.15-15.25,4.53s-10.25,2.81-15.46,4a148.27,148.27,0,0,1-32.08,4.12,92.1,92.1,0,0,1-16.44-1.4,69,69,0,0,1-16-4.82,70.6,70.6,0,0,1-14.42-8.56c-.55-.42-1.13-.82-1.67-1.26l-1.58-1.36c-1-.93-2.13-1.8-3.13-2.77-2-2-4-3.88-5.74-6s-3.51-4.24-5.22-6.4c-.82-1.09-1.58-2.23-2.37-3.34l-1.18-1.68-1.11-1.71-2.2-3.44-2-3.51c-.7-1.16-1.36-2.34-2-3.53l-1.92-3.56c-5-9.55-9.23-19.35-13.35-29.06L1471,1398.05c-16.23-39-31.68-78.42-43.71-119.16a609.39,609.39,0,0,1-14.73-62l-.73-3.92-.62-3.94-1.23-7.89-.6-4-.52-4c-.36-2.64-.66-5.29-.95-7.94-1.17-10.6-2-21.25-2.27-31.91a380.07,380.07,0,0,1,3.35-63.87c1.49-10.57,3.45-21.09,6-31.47a300.86,300.86,0,0,1,9.27-30.68,257.66,257.66,0,0,1,28.86-57.11q4.5-6.65,9.47-12.92c3.21-4.27,6.74-8.26,10.17-12.34,1.75-2,3.57-3.93,5.35-5.9l2.69-3,2.77-2.86,5.55-5.69,5.69-5.55c7.64-7.33,15.46-14.45,23.35-21.44l23.66-21C1557.51,865.65,1572.84,851.22,1586.7,835.32Z"/><path class="cls-8" d="M1542.7,1130.21a2.55,2.55,0,0,1,1.3-.87,2.07,2.07,0,0,1,.86,0,2.84,2.84,0,0,1,.82.28,6.92,6.92,0,0,1,2.41,2.27,14.44,14.44,0,0,1,1.49,2.9,13.79,13.79,0,0,1,.49,1.58l.17.83.12.76a52.63,52.63,0,0,1,.59,12.43,63.61,63.61,0,0,1-2.07,12.35,90.79,90.79,0,0,1-4,11.79c-6.33,15.27-15.29,28.63-22,42.3a91,91,0,0,0-7.65,20.79,54.31,54.31,0,0,0-1.29,10.68,48.08,48.08,0,0,0,.87,10.7,54.63,54.63,0,0,0,8.57,20.25,88.43,88.43,0,0,0,15.82,17.24,61.3,61.3,0,0,1-20.42-13.41,53.57,53.57,0,0,1-13.25-21.69,31.29,31.29,0,0,1-.88-3.15c-.24-1.06-.51-2.12-.71-3.2a59.59,59.59,0,0,1-.07-19.53,76.47,76.47,0,0,1,3.18-12.47,119.24,119.24,0,0,1,4.89-11.58c7.36-14.88,16.91-27.59,24.29-41l1.37-2.53,1.31-2.55c.81-1.71,1.66-3.42,2.39-5.17a72.49,72.49,0,0,0,3.74-10.73c.28-.91.47-1.84.67-2.77s.42-1.87.54-2.81.31-1.9.44-2.85l.27-2.89.06-.72,0-.66c0-.44,0-.89-.06-1.34a12.41,12.41,0,0,0-.56-2.68,5.67,5.67,0,0,0-1.29-2.32A1.89,1.89,0,0,0,1542.7,1130.21Z"/><path class="cls-8" d="M1647.6,1365c-4.62,4-9.43,7.65-14.28,11.23s-9.78,7-15,10.28a111,111,0,0,1-16.48,8.64c-.73.3-1.46.6-2.21.88l-2.26.76c-1.51.48-3,1.06-4.56,1.42s-3.08.8-4.63,1.14l-4.7.86c-1.57.25-3.15.35-4.73.54s-3.17.24-4.75.3l-2.38.06c-.79,0-1.58,0-2.38,0l-2.37-.08a21,21,0,0,1-2.37-.15l-4.71-.5c-1.56-.24-3.12-.54-4.67-.82-.77-.12-1.54-.29-2.31-.49l-2.29-.57c-.76-.2-1.53-.38-2.28-.6l-2.24-.72a74.2,74.2,0,0,1-17-7.83,65.54,65.54,0,0,1-14.13-11.78c10.88,5.48,21.84,9.53,33.17,11.48a104.66,104.66,0,0,0,17,1.73c1.42.06,2.83,0,4.24,0,.71,0,1.42,0,2.12,0l2.11-.16c2.82-.1,5.61-.49,8.4-.86l4.16-.7c1.38-.27,2.73-.64,4.11-.93s2.71-.72,4.07-1.09l2-.58,2-.65c5.38-1.83,10.7-4.12,16.07-6.56s10.79-5,16.32-7.45S1641.83,1367,1647.6,1365Z"/><path d="M1730.48,1084.86a81,81,0,0,0-27.58-15.6,108.44,108.44,0,0,0-30.66-5.37,202.79,202.79,0,0,0-31.68,1.81c-10.65,1.28-21.36,3.13-32.33,4.19a180.5,180.5,0,0,1,31.12-10.82,122.66,122.66,0,0,1,33.18-3.74,84.36,84.36,0,0,1,32.9,7.71,65.4,65.4,0,0,1,14.26,9.12A49.33,49.33,0,0,1,1730.48,1084.86Z"/><path d="M1525.84,1071.47a141.13,141.13,0,0,0-17.42-11.7,109.93,109.93,0,0,0-18.45-8.22,111,111,0,0,0-19.63-4.73,144.84,144.84,0,0,0-20.94-1.37,48.63,48.63,0,0,1,21.29-5.36,63.13,63.13,0,0,1,41.54,14.15A48.69,48.69,0,0,1,1525.84,1071.47Z"/><path d="M1714,1148.85a65.08,65.08,0,0,1-25,12.42,82.17,82.17,0,0,1-55.63-5.35,64.82,64.82,0,0,1-22.22-17,141.9,141.9,0,0,0,24.72,10.72,123.37,123.37,0,0,0,51.87,5A140.16,140.16,0,0,0,1714,1148.85Z"/><path d="M1510.63,1129.85a39.49,39.49,0,0,1-18,6.09,52,52,0,0,1-36.41-10.43,39.3,39.3,0,0,1-12-14.68,137.48,137.48,0,0,0,15.59,9,99.95,99.95,0,0,0,32.83,9.42A134.94,134.94,0,0,0,1510.63,1129.85Z"/><path d="M1595.05,814.69a132.15,132.15,0,0,1,35.55-36.45,156.89,156.89,0,0,1,22.31-12.89,164.81,164.81,0,0,1,24.17-9.12,176.43,176.43,0,0,1,102.35,1.06l12.21,4.39c4,1.74,7.95,3.43,11.89,5.2,3.83,2,7.69,4,11.5,6,3.69,2.24,7.43,4.4,11.08,6.7,3.53,2.47,7.11,4.88,10.61,7.39s6.81,5.27,10.15,8c3.23,2.85,6.51,5.63,9.68,8.53s6.13,6,9.13,9.08a249,249,0,0,1,53.57,86.41c-14.89-30.43-34.36-58.38-58.32-81.7s-52.55-41.69-84.11-51.79a174.8,174.8,0,0,0-48.71-8.18,182.47,182.47,0,0,0-49.28,5.38,175.18,175.18,0,0,0-23.66,7.81,156.25,156.25,0,0,0-22.28,11.28A146.1,146.1,0,0,0,1595.05,814.69Z"/><path d="M1926.69,901.92a178.94,178.94,0,0,1,17.94,7.19c1.48.66,2.9,1.43,4.35,2.13s2.89,1.44,4.29,2.24l4.25,2.34,4.15,2.5a170.82,170.82,0,0,1,15.93,11.07l1.92,1.48,1.88,1.55,3.72,3.11c2.41,2.17,4.87,4.28,7.17,6.57a186.24,186.24,0,0,1,50.17,82.36,174.56,174.56,0,0,1,4.42,19.07,186.32,186.32,0,0,1,2.45,39c-.34,13-1.37,25.82-1.65,38.58s.27,25.46,3.26,37.56l.52,2.27.69,2.23c.48,1.47.88,3,1.41,4.43a81.8,81.8,0,0,0,3.66,8.5,90.87,90.87,0,0,0,9.89,15.73c7.7,9.84,16.94,18.56,26.61,26.94s19.67,16.64,29,25.84l1.77,1.71c.58.58,1.14,1.19,1.71,1.78l3.4,3.58c1.11,1.23,2.18,2.5,3.27,3.75s2.17,2.5,3.17,3.75c4.08,5,8.17,10,12.22,15a364.3,364.3,0,0,1,23.09,31.49,167.18,167.18,0,0,1,9.73,17.26,102.36,102.36,0,0,1,7,18.85,65.56,65.56,0,0,1,2.1,20.42,58,58,0,0,1-4.94,20.12,71.34,71.34,0,0,1-11.06,17.22,171.8,171.8,0,0,1-13.88,14.13c-9.56,8.83-19.39,17-27.4,26.46s-13.89,20.28-15.36,32.3a68.2,68.2,0,0,0,0,18.11,91.34,91.34,0,0,0,4.52,17.84,103.83,103.83,0,0,0,7.88,16.83,121,121,0,0,0,10.48,15.46c3.9,4.89,8.13,9.6,12.54,14.15s9.05,8.92,13.76,13.25c9.42,8.65,19.23,17,28.67,26,4.72,4.48,9.34,9.1,13.78,13.92a179.91,179.91,0,0,1,12.36,15.37,318.56,318.56,0,0,1,20.71,33.11c6.27,11.38,11.92,23.08,17.06,35q3.82,9,7.25,18.07t6.3,18.43q2.88,9.3,5.25,18.76t4.05,19.06c1.17,6.4,2,12.86,2.64,19.33a181.6,181.6,0,0,1,.89,19.51,161.42,161.42,0,0,1-1.28,19.52,129.23,129.23,0,0,1-4,19.16,103.71,103.71,0,0,1-7.22,18.2,87.59,87.59,0,0,1-10.81,16.31,91.79,91.79,0,0,1-14,13.55,97.89,97.89,0,0,1-16.49,10.31c-1.46.69-2.88,1.48-4.38,2.09l-4.46,1.9c-1.5.6-3,1.12-4.55,1.68l-2.28.83-2.31.71c-1.55.46-3.09.95-4.64,1.4l-4.69,1.19c-.78.19-1.55.41-2.34.58l-2.37.49-4.73,1,4.69-1.13,2.35-.56c.78-.2,1.55-.44,2.32-.66l4.64-1.34c1.53-.5,3-1,4.56-1.56l2.28-.78,2.24-.9c1.48-.61,3-1.17,4.45-1.82l4.36-2c1.47-.65,2.84-1.48,4.27-2.21a97.37,97.37,0,0,0,15.93-10.6,89.34,89.34,0,0,0,13.34-13.6,87.94,87.94,0,0,0,10.09-16.11,101.65,101.65,0,0,0,6.6-17.82,126,126,0,0,0,3.49-18.7,159.39,159.39,0,0,0,.82-19c0-3.18-.21-6.36-.37-9.54s-.49-6.35-.87-9.52c-.73-6.33-1.67-12.64-2.92-18.9s-2.67-12.48-4.32-18.65-3.5-12.29-5.5-18.36a398.1,398.1,0,0,0-31.1-70,314.73,314.73,0,0,0-20.67-32.12,180.59,180.59,0,0,0-12-14.63c-4.32-4.62-8.85-9.07-13.51-13.43-9.33-8.7-19.17-17-28.79-25.69-4.81-4.35-9.57-8.81-14.18-13.44s-9-9.52-13.19-14.67a122.46,122.46,0,0,1-11.28-16.42,112,112,0,0,1-8.52-18.1,98.47,98.47,0,0,1-5-19.54,76.63,76.63,0,0,1,0-20.41l.39-2.54.2-1.28.3-1.25c.42-1.67.81-3.35,1.27-5l1.72-4.88a24.73,24.73,0,0,1,1-2.37l1.08-2.35a82.21,82.21,0,0,1,11.22-16.92c8.66-10.25,18.73-18.63,28.06-27.29a161.77,161.77,0,0,0,13.23-13.37,62.83,62.83,0,0,0,9.8-15.13,49.79,49.79,0,0,0,4.27-17.19,57.09,57.09,0,0,0-1.81-17.86c-3-11.83-8.89-23.07-15.62-33.72s-14.55-20.82-22.45-30.9c-4-5-8-10-12.05-15-1-1.28-2-2.46-3-3.65s-2-2.39-3.06-3.56l-3.23-3.44c-.54-.58-1.07-1.16-1.62-1.72l-1.69-1.67c-8.95-8.94-18.8-17.15-28.5-25.75s-19.28-17.64-27.35-28.21a97.64,97.64,0,0,1-10.42-17.07,88.28,88.28,0,0,1-3.85-9.27c-.55-1.58-1-3.2-1.45-4.8l-.71-2.4-.54-2.44c-3-13-3.31-26.27-2.93-39.25s1.64-25.85,2.22-38.62a180.75,180.75,0,0,0-1.69-38,166.84,166.84,0,0,0-4-18.63c-1.64-6.15-3.73-12.17-6-18.12a188.72,188.72,0,0,0-41.47-63.8c-2.21-2.32-4.58-4.48-6.9-6.69l-3.6-3.18-1.81-1.58-1.86-1.52A176.24,176.24,0,0,0,1961,919.4l-4-2.62-4.14-2.46c-1.37-.84-2.78-1.61-4.19-2.36s-2.81-1.57-4.26-2.27A180.11,180.11,0,0,0,1926.69,901.92Z"/><path d="M1656.2,765.54c-20.8-9.55-42.22-17.87-64.4-22.78-2.76-.67-5.55-1.17-8.33-1.74s-5.58-.95-8.37-1.4c-5.6-.75-11.22-1.4-16.85-1.65-1.41-.06-2.82-.17-4.22-.2l-4.23,0-2.11,0-2.1.05-4.21.11c-1.4,0-2.8.18-4.2.27s-2.8.17-4.19.33l-4.17.5-2.09.25-2.07.35-4.14.69c-1.38.22-2.74.57-4.11.85s-2.74.57-4.09.92l-4,1.08-2,.55-2,.62-4,1.26c-1.34.41-2.62,1-3.93,1.43s-2.62.94-3.9,1.49A122.55,122.55,0,0,0,1463.73,765c-1.08.85-2.11,1.77-3.17,2.66L1459,769a20.05,20.05,0,0,0-1.53,1.38c-2,1.93-4.06,3.73-5.85,5.82l-2.78,3-2.57,3.23c-.85,1.09-1.73,2.15-2.56,3.26l-2.35,3.42a183.74,183.74,0,0,0-15.85,29.54c-4.62,10.32-8.78,21-13.3,31.58s-9.4,21.22-15.57,31.25l-2.37,3.72c-.4.62-.78,1.24-1.19,1.85l-1.3,1.8c-1.75,2.38-3.41,4.83-5.33,7.07s-3.83,4.49-5.8,6.68c-1,1.09-2,2.11-3.06,3.17l-1.54,1.57-1.59,1.51c-4.2,4.09-8.65,7.86-13.15,11.52s-9.16,7.07-13.8,10.48c-9.31,6.76-18.68,13.31-27.74,20.15-4.52,3.45-9,6.92-13.18,10.7l-1.59,1.4-1.54,1.45-3.08,2.91c-2,2-4,4-5.86,6.1a111.7,111.7,0,0,0-19.16,27.76,79.52,79.52,0,0,0-5.51,16,70.52,70.52,0,0,0-1.53,17,71.42,71.42,0,0,1,.25-17.22,81.58,81.58,0,0,1,4.61-16.73c.49-1.37,1.16-2.66,1.73-4l.89-2c.31-.66.67-1.29,1-1.94l2-3.84,2.26-3.73a126.14,126.14,0,0,1,10.23-14.09c1.81-2.27,3.83-4.36,5.77-6.53l3-3.12,1.53-1.56,1.58-1.5c4.15-4.06,8.59-7.81,13-11.49,8.92-7.33,18.2-14.1,27.2-21.08,4.49-3.51,9-7,13.25-10.69s8.54-7.36,12.48-11.34l1.49-1.47,1.44-1.52c.95-1,1.93-2,2.85-3.06,1.82-2.1,3.68-4.18,5.35-6.39s3.28-4.46,4.88-6.72l1.19-1.7c.38-.59.73-1.19,1.1-1.78l2.18-3.56a241.53,241.53,0,0,0,14.8-30.31c4.39-10.48,8.5-21.2,13.19-31.8a191.16,191.16,0,0,1,16.78-30.79,111.7,111.7,0,0,1,24.32-25.82,130.74,130.74,0,0,1,30.89-17.14,144.74,144.74,0,0,1,34.06-8.53,155.3,155.3,0,0,1,34.94-.54,196.77,196.77,0,0,1,34.15,6.29C1615.11,744.85,1636.25,754.31,1656.2,765.54Z"/><path class="cls-8" d="M1642.84,1499.4a56.73,56.73,0,0,1,18,12.64,75.67,75.67,0,0,1,20.18,38.79,56.21,56.21,0,0,1,0,22c-2.87-6.82-5.3-13.29-8-19.58s-5.55-12.38-8.65-18.36-6.44-11.82-10-17.63S1646.78,1505.67,1642.84,1499.4Z"/><path class="cls-8" d="M1660.07,1534.42a231,231,0,0,1-21.57,22.29c-1.89,1.73-3.79,3.46-5.72,5.15l-5.7,5c-1.87,1.69-3.78,3.32-5.62,5s-3.71,3.34-5.5,5.06c-7.21,6.81-14.06,13.84-19.56,21.78-1.35,2-2.66,4-3.84,6.14a69.43,69.43,0,0,0-3.17,6.55,64.46,64.46,0,0,0-2.37,7,76.37,76.37,0,0,0-1.51,7.55,36.4,36.4,0,0,1-1.46-7.81,44.8,44.8,0,0,1,.26-8.09,51,51,0,0,1,1.8-8,57.71,57.71,0,0,1,3-7.59c4.78-9.83,11.85-18.16,19.52-25.36a185.83,185.83,0,0,1,24.67-19A233.42,233.42,0,0,1,1660.07,1534.42Z"/><path class="cls-7" d="M1647.88,1509.72c-22.07,16.66-44.73,32.52-64.18,51.46-4.85,4.73-9.51,9.63-13.9,14.72s-8.52,10.43-12.43,15.94-7.67,11.16-11.25,16.94-7.11,11.63-10.52,17.57l-20.54,35.81c-6.85,11.93-13.61,23.88-20.14,35.94-13,24.13-24.82,48.87-34.11,75a269.94,269.94,0,0,1,10.79-40.16,414.33,414.33,0,0,1,15.82-38.56c5.88-12.58,12.25-24.9,18.79-37.08s13.24-24.21,20.16-36.25c3.51-6,7.09-12,10.86-17.85s7.75-11.67,12-17.28a197.5,197.5,0,0,1,13.57-16.22,202.08,202.08,0,0,1,15.24-14.63c5.29-4.62,10.83-8.92,16.47-13s11.42-8,17.3-11.68C1623.6,1523,1635.62,1516.14,1647.88,1509.72Z"/><path class="cls-7" d="M1538.83,2127.21c8.62,31.52,15.62,63.45,21.22,95.68a843.69,843.69,0,0,1,11.28,97.57,611,611,0,0,1-2.25,98.37c-3.58,32.62-10.12,65-20.9,95.88a691,691,0,0,0,12.54-96.59,859,859,0,0,0,0-97.08c-1.73-32.36-4.94-64.66-8.9-96.93S1543.09,2159.61,1538.83,2127.21Z"/><path class="cls-7" d="M1541.9,2128.36c8.61,31.52,15.61,63.45,21.22,95.68a845.62,845.62,0,0,1,11.27,97.57,608.54,608.54,0,0,1-2.25,98.36c-3.58,32.63-10.12,65-20.89,95.89a691,691,0,0,0,12.53-96.59,856.86,856.86,0,0,0,0-97.09c-1.73-32.35-4.94-64.66-8.89-96.92S1546.15,2160.75,1541.9,2128.36Z"/><path class="cls-8" d="M1641.24,1511.59c-11.83,9-24,17.64-35.54,26.79-5.83,4.52-11.53,9.19-17,14s-10.89,9.79-16,15a229.52,229.52,0,0,0-27.21,33.93c-4.06,6.06-7.89,12.3-11.67,18.6s-7.42,12.71-11.1,19.14c-1.84,3.22-3.66,6.45-5.44,9.64-.89,1.6-1.8,3.19-2.67,4.81l-2.59,4.86q-5.16,9.73-10.07,19.66-9.8,19.82-18.8,40.1c-1.54,3.36-3,6.76-4.47,10.15s-3,6.78-4.42,10.18c-2.93,6.79-5.69,13.65-8.49,20.51q-8.34,20.58-15.7,41.63a425.34,425.34,0,0,1,11.1-43.26c1.08-3.57,2.18-7.13,3.39-10.66s2.33-7.07,3.58-10.59c2.4-7,5-14,7.64-21q8-20.89,17.32-41.28c3.14-6.77,6.33-13.54,9.76-20.2l2.57-5c.86-1.67,1.77-3.31,2.66-5,1.77-3.33,3.59-6.56,5.41-9.8,3.64-6.49,7.34-13,11.23-19.38s7.92-12.76,12.24-19,8.94-12.21,13.85-18c1.22-1.46,2.49-2.87,3.77-4.27s2.6-2.78,3.91-4.15l2-2.06,2-2c1.37-1.31,2.72-2.65,4.13-3.91s2.79-2.56,4.22-3.79l4.31-3.67,4.41-3.54c1.47-1.18,3-2.3,4.47-3.45,6-4.49,12.21-8.73,18.47-12.81C1615.12,1525.85,1628.05,1518.49,1641.24,1511.59Z"/></g><path class="cls-4" d="M2236.55,1439.8c.18,27,.13,54.11-.45,81.15s-1.5,54.09-2.94,81.11q-4.07,81.06-13.43,161.74t-24.5,160.49q-7.65,39.87-17,79.42c-6.21,26.35-13,52.59-20.44,78.62-14.94,52.06-32.33,103.48-53.3,153.5-10.47,25-21.8,49.66-34.18,73.81s-25.86,47.74-40.57,70.58c-1.82,2.87-3.75,5.66-5.62,8.5s-3.74,5.67-5.69,8.45l-5.87,8.33-2.94,4.17-3,4.09-6.09,8.17c-2,2.72-4.2,5.35-6.29,8l-3.16,4-1.59,2-1.64,1.95-6.57,7.81c-2.16,2.63-4.49,5.12-6.74,7.66s-4.5,5.11-6.86,7.57c-4.72,4.9-9.34,9.91-14.28,14.6l-3.66,3.57c-1.21,1.19-2.43,2.38-3.71,3.51l-7.56,6.88c-1.25,1.16-2.55,2.26-3.86,3.35l-3.91,3.3c-2.61,2.2-5.19,4.42-7.92,6.47l-8.09,6.27-8.34,5.94c-2.75,2-5.66,3.83-8.52,5.7s-5.7,3.77-8.68,5.44-5.89,3.47-8.87,5.16l-9.1,4.74-2.28,1.18-2.33,1.07-4.66,2.14-4.67,2.14-4.77,1.9-4.78,1.9c-.79.31-1.58.64-2.38.93l-2.44.83c-3.25,1.08-6.48,2.21-9.75,3.26l-9.9,2.74c-1.65.49-3.33.82-5,1.19l-5,1.08a219.74,219.74,0,0,1-40.84,4.42,217.29,217.29,0,0,1-40.89-3.81l-5-1c-1.67-.35-3.36-.64-5-1.12l-9.93-2.6c-3.28-1-6.52-2.08-9.78-3.12l-2.45-.78c-.8-.29-1.6-.61-2.4-.91l-4.79-1.83-4.79-1.83-4.69-2.06-4.69-2.08-2.34-1-2.29-1.15-9.15-4.6c-3-1.64-5.95-3.35-8.92-5s-5.86-3.49-8.76-5.29-5.81-3.57-8.58-5.56l-8.42-5.8-8.16-6.14c-2.76-2-5.37-4.18-8-6.33l-4-3.23c-1.33-1.07-2.64-2.15-3.9-3.29l-7.66-6.75c-1.29-1.11-2.53-2.27-3.75-3.45l-3.71-3.51c-5-4.6-9.69-9.52-14.48-14.35-2.38-2.41-4.63-5-7-7.44s-4.66-4.95-6.85-7.55a617.44,617.44,0,0,1-49.48-64.59c-30.12-45.13-55.32-93.34-77.15-142.88S1395.05,2141,1379,2089.29c-31.93-103.48-54.12-209.78-69.14-317a2569.09,2569.09,0,0,1-24.14-323.66c-.25-27.06-.26-54.13.26-81.2.08-6.77.32-13.53.47-20.3s.33-13.53.61-20.29l.74-20.29,1-20.28q4-81.12,13.45-161.88c3.19-26.89,6.72-53.75,10.91-80.51s8.8-53.45,13.94-80.05,10.92-53.07,17.21-79.43,13.12-52.58,20.69-78.61c15.09-52.05,32.69-103.44,53.71-153.46s45.48-98.7,74.92-144.44a613.68,613.68,0,0,1,48.54-65.56c2.15-2.64,4.48-5.13,6.74-7.68s4.5-5.11,6.86-7.58c4.72-4.91,9.34-9.92,14.3-14.62l3.65-3.58c1.22-1.2,2.44-2.39,3.72-3.52l7.57-6.89c1.25-1.16,2.55-2.27,3.86-3.36l3.92-3.3c2.61-2.21,5.2-4.43,7.93-6.49l8.1-6.29,8.36-5.95c2.75-2,5.66-3.84,8.52-5.72s5.71-3.78,8.71-5.45,5.9-3.48,8.88-5.18l9.11-4.76,2.28-1.19,2.34-1.08,4.67-2.15,4.68-2.15,4.78-1.92,4.78-1.91c.8-.31,1.6-.65,2.4-1l2.44-.83c3.26-1.09,6.5-2.22,9.77-3.28l9.94-2.77c1.64-.5,3.33-.83,5-1.2l5-1.1a206.27,206.27,0,0,1,82-.72l5.06,1c1.69.35,3.38.64,5,1.11l10,2.59c3.29,1,6.55,2.08,9.82,3.11l2.46.79c.81.28,1.6.6,2.41.9l4.81,1.83,4.82,1.82,4.71,2.07,4.71,2.07,2.35,1,2.31,1.14,9.19,4.6c3,1.64,6,3.35,9,5s5.88,3.5,8.79,5.3,5.85,3.57,8.63,5.56l8.46,5.8,8.2,6.14c2.77,2,5.4,4.19,8,6.34l4,3.23c1.33,1.07,2.65,2.15,3.92,3.29l7.69,6.76c1.3,1.1,2.54,2.27,3.78,3.45l3.72,3.51c5,4.6,9.74,9.53,14.55,14.36,2.4,2.42,4.66,5,7,7.45s4.68,5,6.88,7.55l6.71,7.7,1.67,1.92,1.63,2,3.23,3.95c2.14,2.64,4.35,5.23,6.44,7.92l6.24,8.07,3.11,4,3,4.12,6,8.23c2,2.75,3.88,5.57,5.83,8.35s3.91,5.57,5.78,8.4c15.12,22.59,29,46,41.83,69.87s24.6,48.38,35.52,73.2c21.86,49.64,40.2,100.74,56.1,152.52,8,25.89,15.19,52,21.88,78.23s12.83,52.61,18.44,79.1q16.65,79.47,27.47,160t16.44,161.48c1.94,27,3.3,54,4.42,81S2236.24,1412.75,2236.55,1439.8Zm-.7,0c-.36-27-1-54.08-2.09-81.1-.23-6.76-.62-13.51-.93-20.27s-.63-13.5-1.06-20.25l-1.19-20.25-1.44-20.23c-2-27-4.35-53.91-7.28-80.79s-6.13-53.74-10-80.49c-15.21-107.06-37.92-213.14-70.3-316.24a1422.06,1422.06,0,0,0-57.09-151.49q-16.55-36.93-35.77-72.54c-12.86-23.69-26.71-46.83-41.78-69.15a619.8,619.8,0,0,0-49.34-63.76c-2.18-2.56-4.52-5-6.8-7.43s-4.53-4.95-6.9-7.33c-4.74-4.74-9.39-9.59-14.35-14.11l-3.66-3.44c-1.22-1.16-2.44-2.3-3.72-3.39l-7.56-6.61c-1.25-1.13-2.55-2.18-3.85-3.23l-3.91-3.16c-2.6-2.11-5.18-4.24-7.89-6.2l-8-6-8.28-5.66c-2.73-1.94-5.6-3.64-8.43-5.41s-5.65-3.58-8.59-5.15-5.82-3.28-8.75-4.87l-8.95-4.46-2.25-1.11-2.29-1-4.57-2-4.58-2-4.68-1.76-4.67-1.76c-.78-.29-1.55-.6-2.34-.88l-2.38-.75c-3.17-1-6.33-2-9.52-3l-9.65-2.48c-1.61-.46-3.24-.74-4.87-1.06l-4.89-1a199.54,199.54,0,0,0-79.16.79l-4.87,1.06c-1.62.36-3.26.67-4.85,1.16l-9.6,2.67c-3.17,1-6.31,2.12-9.46,3.18l-2.36.8c-.78.29-1.55.61-2.32.92l-4.64,1.85-4.63,1.85-4.54,2.09-4.54,2.09-2.27,1-2.22,1.16-8.86,4.63c-2.9,1.65-5.76,3.36-8.65,5s-5.67,3.51-8.48,5.31-5.64,3.58-8.33,5.58l-8.16,5.81-7.93,6.15c-2.67,2-5.21,4.2-7.77,6.35l-3.84,3.24c-1.28,1.07-2.56,2.15-3.78,3.3l-7.44,6.75c-1.25,1.11-2.45,2.28-3.64,3.46l-3.6,3.51c-4.86,4.61-9.41,9.55-14.06,14.38-2.32,2.42-4.5,5-6.76,7.46s-4.52,5-6.64,7.56a615.46,615.46,0,0,0-48.07,64.69c-29.24,45.21-53.62,93.52-74.65,143.16s-38.63,100.8-53.78,152.61-27.58,104.43-38.14,157.39q-7.8,39.75-14.14,79.78l-3.09,20-2.86,20.06c-1,6.68-1.83,13.38-2.72,20.08s-1.78,13.39-2.55,20.1a2554.77,2554.77,0,0,0-18.23,323.54c.27,27,.78,54,1.81,81.07.2,6.75.58,13.5.85,20.25s.59,13.5,1,20.25l1.13,20.24,1.34,20.23q5.55,80.91,16.54,161.33c3.72,26.77,7.76,53.51,12.48,80.13s9.83,53.17,15.48,79.61,12,52.73,18.76,78.89,14.16,52.18,22.24,78C1397.32,2140.2,1416,2191,1438,2240.37s47.52,97.17,77.75,141.87a613.89,613.89,0,0,0,49.54,63.84c2.19,2.56,4.55,5,6.83,7.44s4.56,5,6.94,7.34c4.77,4.74,9.43,9.59,14.41,14.11l3.69,3.45c1.22,1.15,2.45,2.3,3.73,3.39l7.61,6.62c1.25,1.12,2.55,2.18,3.87,3.22l3.92,3.17c2.61,2.11,5.2,4.24,7.93,6.2l8.09,6,8.32,5.66c2.74,1.94,5.63,3.64,8.48,5.42s5.67,3.58,8.63,5.15,5.84,3.27,8.79,4.87l9,4.46,2.25,1.1,2.3,1,4.6,2,4.61,2,4.69,1.76,4.7,1.76c.78.29,1.56.6,2.35.88l2.39.75c3.19,1,6.36,2,9.56,3l9.71,2.47c1.6.45,3.25.73,4.89,1.06l4.91,1a216.84,216.84,0,0,0,39.79,3.52,214.32,214.32,0,0,0,39.69-4.42l4.88-1.08c1.63-.36,3.27-.68,4.86-1.17l9.64-2.7c3.17-1,6.32-2.14,9.48-3.2l2.37-.81c.78-.29,1.55-.62,2.32-.93l4.65-1.86,4.65-1.87,4.54-2.1,4.55-2.1,2.27-1.06,2.22-1.16,8.88-4.66,8.66-5.05c2.92-1.63,5.69-3.52,8.5-5.33s5.65-3.59,8.34-5.59l8.18-5.83,7.94-6.17c2.68-2,5.22-4.2,7.78-6.36l3.84-3.24c1.29-1.08,2.57-2.16,3.79-3.31l7.45-6.77c1.25-1.11,2.45-2.29,3.65-3.47l3.6-3.52c4.87-4.62,9.42-9.56,14.07-14.4,2.32-2.43,4.5-5,6.76-7.47s4.53-5,6.65-7.57a620.19,620.19,0,0,0,48.11-64.76c14.64-22.61,28-46,40.43-70s23.82-48.4,34.37-73.23a1425.73,1425.73,0,0,0,54.2-152.57c30.42-103.7,51.14-210.19,64.34-317.51,3.38-26.83,6.12-53.73,8.5-80.67s4.24-53.91,5.77-80.91l1.05-20.26.82-20.27c.3-6.75.48-13.51.67-20.27s.44-13.51.54-20.27C2235.91,1493.9,2236,1466.85,2235.85,1439.81Z"/><path class="cls-8" d="M1716.7,1584.92c-41.45,15.57-80.18,37-116,62.38-17.89,12.71-35.1,26.37-51.75,40.68q-12.46,10.76-24.53,22t-23.76,22.85q-11.73,11.6-23.1,23.56c-3.8,4-7.59,8-11.33,12s-7.4,8.11-11.14,12.14c-14.66,16.35-28.7,33.33-42.69,50.4-27.83,34.23-55.21,69.24-86.09,101q20.55-26.09,40.09-52.81l19.64-26.71c6.52-8.93,13.19-17.76,19.84-26.62s13.4-17.65,20.36-26.3,14-17.21,21.28-25.66,14.82-16.59,22.4-24.71,15.36-16,23.23-23.89c31.54-31.29,65.55-60.41,102.86-84.82,9.33-6.08,18.79-12,28.51-17.42s19.61-10.53,29.68-15.27,20.33-9,30.76-12.81c2.6-1,5.22-1.88,7.85-2.78s5.24-1.81,7.9-2.61,5.28-1.67,8-2.41Z"/><ellipse class="cls-11" cx="1761.92" cy="1444.23" rx="474.3" ry="1113.56" transform="translate(-13.4 16.5) rotate(-0.53)"/><g class="cls-12"><path class="cls-5" d="M1888,1567.41c14-38.75,28.62-77.29,43.4-115.75,7.33-19.25,14.87-38.42,22.31-57.63l22.62-57.51,22.91-57.39c7.75-19.09,15.39-38.22,23.23-57.27,15.59-38.14,31.37-76.2,47.7-114-14,38.75-28.61,77.29-43.39,115.75-7.33,19.25-14.87,38.42-22.31,57.63l-22.63,57.51-22.92,57.39c-7.74,19.09-15.39,38.21-23.23,57.26C1920.08,1491.5,1904.3,1529.56,1888,1567.41Z"/><path class="cls-5" d="M1920.88,1853.64c14-38.75,28.62-77.29,43.4-115.75,7.33-19.25,14.87-38.42,22.31-57.63l22.62-57.51,22.91-57.39c7.75-19.09,15.39-38.22,23.24-57.27,15.58-38.14,31.36-76.2,47.69-114-14,38.76-28.61,77.3-43.38,115.76-7.34,19.25-14.88,38.42-22.32,57.63l-22.62,57.5-22.93,57.39c-7.74,19.09-15.39,38.22-23.23,57.27C1953,1777.73,1937.2,1815.79,1920.88,1853.64Z"/><path class="cls-5" d="M1856.61,1845.87c21.18-59.95,43.2-119.58,65.51-179.09,11.08-29.79,22.46-59.46,33.7-89.18l34.17-89,34.63-88.82,17.5-44.34,8.76-22.16,8.84-22.14c23.56-59,47.42-118,72.12-176.54-21.18,60-43.19,119.59-65.51,179.1L2058,1336l-8.44,22.29-16.9,44.57-34.19,89-34.63,88.82c-11.7,29.55-23.26,59.15-35.11,88.64C1905.15,1728.36,1881.29,1787.28,1856.61,1845.87Z"/></g><path class="cls-8" d="M899.9,1965.44a176.71,176.71,0,0,1-18.2,16.81,165.52,165.52,0,0,1-20.62,13.92c-3.57,2.12-7.3,4-11,5.84l-5.69,2.59c-1.9.86-3.85,1.58-5.78,2.38a178.34,178.34,0,0,1-23.87,7.55,181.23,181.23,0,0,1-24.82,4,78.87,78.87,0,0,1-25.59-2.24A81,81,0,0,1,740.69,2006c-7-4.46-13.91-9.13-20.65-14.08A246.59,246.59,0,0,1,700.5,1976c-1.54-1.39-3.14-2.91-4.64-4.48s-3-3.19-4.34-4.88A84.43,84.43,0,0,1,684,1956a85.85,85.85,0,0,1-9.71-24.2c-1.88-8.16-3.52-16.27-5-24.48a400.09,400.09,0,0,1-5.89-49.69,236.22,236.22,0,0,1-.09-25.25A144.21,144.21,0,0,1,666.6,1807c.42-2.16,1-4.12,1.5-6.13l1.58-6c1-4,2.22-8,3.32-12q3.45-12,7.36-23.83a463.71,463.71,0,0,1,18.14-46.56,361.93,361.93,0,0,1,23.87-44c4.51-7,9.29-13.92,14.38-20.57s10.52-13,16.2-19.18a202,202,0,0,1,18.11-17.48,200.67,200.67,0,0,1,65-37.25,184.33,184.33,0,0,1,48.93-9.6,168.17,168.17,0,0,1,49.31,4.44,171.55,171.55,0,0,0-24.54-2.43,176.07,176.07,0,0,0-24.53.94,185.42,185.42,0,0,0-47.38,11.57,196.19,196.19,0,0,0-42.79,23,203.34,203.34,0,0,0-36,32.42q-8,9.12-15.22,19t-13.63,20.17a352.84,352.84,0,0,0-22.57,43.19,481.93,481.93,0,0,0-17.44,45.67q-3.79,11.64-7.12,23.45c-1.07,4-2.21,7.88-3.22,11.84l-1.52,6c-.5,2-1,4-1.42,5.87a135,135,0,0,0-3.13,23.57,229.42,229.42,0,0,0,0,24.18,420.77,420.77,0,0,0,5.42,48.5c1.31,8,2.82,16.11,4.52,24a76.12,76.12,0,0,0,14.85,31.28q1.8,2.28,3.8,4.41c1.33,1.43,2.69,2.78,4.16,4.19A238.63,238.63,0,0,0,725,1985.28c6.43,5,13.07,9.73,19.85,14.28a77.16,77.16,0,0,0,21.26,10,71.77,71.77,0,0,0,23.37,2.87,182.13,182.13,0,0,0,24.1-3A175.89,175.89,0,0,0,899.9,1965.44Z"/><path class="cls-8" d="M1573.9,2156a173.61,173.61,0,0,1,16-13.37c5.6-4.14,11.41-8,17.34-11.65,11.87-7.32,24.25-13.73,36.57-20.1s24.76-12.55,37.21-18.69q9.3-4.65,18.7-9.13l18.78-9,18.82-8.89c6.28-3,12.62-5.79,18.93-8.69l9.47-4.32,9.5-4.26c6.34-2.83,12.65-5.7,19-8.49,12.7-5.62,25.47-11.06,38.25-16.47,6.38-2.73,12.79-5.4,19.2-8.06s12.8-5.37,19.24-8l19.32-7.76,19.38-7.63c6.45-2.56,12.93-5,19.41-7.54s12.94-5,19.46-7.41l19.53-7.23,19.57-7.1q19.58-7.1,39.29-13.79c13.14-4.49,26.3-8.89,39.32-13.43a380.12,380.12,0,0,0,38.24-15.47l2.33-1.09,2.29-1.16,4.59-2.33c3-1.67,6-3.25,9-5.07s5.8-3.64,8.66-5.53c1.43-.95,2.78-2,4.18-3l2.09-1.51,2-1.6a114.13,114.13,0,0,0,27.46-30.6,103,103,0,0,1-18,25.54l-3.68,3.75c-1.25,1.23-2.57,2.37-3.86,3.57l-1.94,1.77-2,1.67c-1.36,1.11-2.7,2.24-4.1,3.3-2.81,2.08-5.61,4.21-8.55,6.12s-5.9,3.79-8.87,5.66l-4.55,2.63-2.28,1.31-2.31,1.24a380.11,380.11,0,0,1-38.16,17.34c-6.47,2.58-13,5-19.49,7.44l-19.47,7.28c-25.89,9.85-51.85,19.49-77.59,29.71s-51.56,20.23-77.16,30.78q-38.51,15.57-76.71,31.87c-25.53,10.75-50.89,21.87-76.28,32.95l-38,16.89c-12.68,5.6-25.27,11.37-37.9,17.08s-25.18,11.47-37.38,18c-6.09,3.24-12.07,6.69-17.89,10.42A187.88,187.88,0,0,0,1573.9,2156Z"/><path class="cls-8" d="M2189.64,1763.05c8.91,6.26,17.72,12.67,26.31,19.39s16.93,13.77,24.93,21.23a259.88,259.88,0,0,1,22.69,23.75c3.57,4.18,6.88,8.58,10.13,13l2.34,3.41,1.17,1.71,1.11,1.75,2.22,3.49,2.09,3.59,1,1.79,1,1.83,1.93,3.68c1.17,2.52,2.45,5,3.48,7.57a125.76,125.76,0,0,1,5.57,15.75l1.06,4c.37,1.35.59,2.74.89,4.1.62,2.73,1,5.51,1.39,8.28a112.3,112.3,0,0,1,.83,16.8c0,2.81-.3,5.61-.49,8.42-.37,2.78-.63,5.59-1.2,8.35s-1.15,5.5-1.79,8.24-1.48,5.43-2.43,8.08-1.92,5.28-2.94,7.89-2.21,5.17-3.49,7.66-2.58,5-3.91,7.43-2.81,4.85-4.35,7.17c-12.1,18.83-27.73,34.91-44.42,49.27s-34.6,27.22-52.54,39.55c-35.75,25-72.19,48.94-108.95,72.38-18.38,11.73-37,23-55.61,34.43-18.74,11.16-37.39,22.44-56.35,33.22l-14.17,8.15-14.27,8-14.28,8c-4.75,2.66-9.51,5.33-14.31,7.91l-28.74,15.58-29,15.16q-58,30.09-117.32,57.69c-39.59,18.22-79.48,35.76-119.84,52.13,39.41-18.54,78.67-37.33,117.56-56.85l29.13-14.7c9.69-4.94,19.31-10,29-15s19.26-10.1,28.86-15.2,19.23-10.15,28.74-15.41l28.6-15.67,28.48-15.89c4.76-2.63,9.47-5.34,14.18-8l14.14-8.11,14.14-8.13,14-8.29,14-8.26,7-4.12,7-4.2,27.94-16.81c18.48-11.43,37-22.78,55.31-34.52l13.79-8.69c4.59-2.91,9.13-5.9,13.7-8.84l13.68-8.86c4.56-3,9.15-5.88,13.65-8.91l27.15-18.06,27-18.31c18.07-12.12,35.73-24.52,52.21-38.36q6.16-5.19,12.05-10.66c3.9-3.67,7.74-7.4,11.41-11.28s7.24-7.83,10.58-12a158.75,158.75,0,0,0,9.47-12.79c1.52-2.18,2.86-4.46,4.26-6.71s2.64-4.57,3.81-6.94,2.31-4.74,3.43-7.13,2.05-4.86,2.89-7.35,1.64-5,2.42-7.51,1.35-5.08,1.81-7.67.89-5.18,1.31-7.78c.24-2.62.61-5.23.66-7.87a103,103,0,0,0-.36-15.8c-.33-2.61-.58-5.25-1.11-7.84-.25-1.3-.41-2.62-.74-3.9l-.89-3.87a121.66,121.66,0,0,0-4.92-15.15c-.92-2.5-2.09-4.9-3.15-7.35l-1.77-3.6-.88-1.8-.95-1.76-1.91-3.54-2-3.46-1-1.74-1.08-1.69-2.17-3.4c-3-4.44-6.1-8.86-9.47-13.08a279,279,0,0,0-21.55-24.23c-7.62-7.71-15.67-15-23.9-22.1S2198.23,1769.74,2189.64,1763.05Z"/><path class="cls-6" d="M934.34,1568.77s-47.46-8.39-57.73-6.3S817.75,1583,817.75,1583L758,1629.21l-36.36,49.26-30,63.93-19.42,63.65-10.51,75.66s1.79,60.22,25.93,81.84,65.38,48.76,65.38,48.76l45.54,2.31,55.25-16.35,39.61-17.2s21.44-27.13,24.39-45.17l49.45,28.91,60.71,47.67,68.92,53.4,71.95,58.82,45.09,34.66,91.62,67.68,85.26,58,45.81,28.4,67.16,34.87,59,21.81,46.18,10.39,61.31-24.84,50.47-23.68,72.49-35.82,60.2-31.4,54.72-29.89,66.51-38.14,63.13-38.07,59.27-37.48,40.3-26.47,52.4-35.69,54.74-43.26,33.37-39.94,16-38.3-.45-47.37L2269.08,1838l-38.8-42.16-34.21-27.56a57.18,57.18,0,0,0-14.08-8.34l-77.92-32.07s43.91,89.24,67.91,118.4c-24.94,27.1-22.91,45.29-22.91,45.29l-34.17,25.28-36.79,17.14-80,29.38-92.39,34.37-82,34.35L1720,2076.67l-81.93,39.4-28.31,15.08-20.89-17L1552,2089.05l-50.06-33.87-44.14-34.53-46.56-39.83-77.18-78-83.5-94.47L1184.16,1736l-54.25-51.88-58-46.14-41.17-26.67-44.2-22.91Z"/><path class="cls-8" d="M1609,2380.52c-38.21-4.95-75.48-16.55-110.9-31.95-35.38-15.59-69.2-34.55-101.83-55.11-4.11-2.53-8.16-5.15-12.23-7.74s-8.12-5.19-12.15-7.83c-8.1-5.23-16.08-10.62-24.11-15.95q-24-16.14-47.7-32.64-11.85-8.27-23.57-16.72l-11.72-8.45-11.67-8.53q-23.31-17.1-46.3-34.61c-7.67-5.84-15.23-11.8-22.84-17.71s-15.15-11.91-22.65-18q-22.59-18-44.79-36.55c-14.79-12.35-29.39-24.9-44-37.33l-22-18.57c-7.36-6.16-14.72-12.31-22.18-18.34q-22.31-18.18-45.56-35-11.62-8.41-23.6-16.35c-8-5.22-16.1-10.36-24.36-15.17s-16.6-9.54-25.15-13.84c-4.24-2.23-8.59-4.23-12.9-6.32l-6.55-3-3.27-1.47-3.32-1.4A353.32,353.32,0,0,0,829,1903.84l7.08,1.4c1.18.24,2.37.45,3.54.71l3.52.81c2.34.56,4.7,1.06,7,1.66l7,1.86c9.27,2.63,18.48,5.54,27.52,9l3.4,1.25,3.37,1.34,6.72,2.71c4.42,1.94,8.89,3.79,13.25,5.87,8.8,4,17.41,8.42,25.93,13l6.35,3.5,6.28,3.62,3.14,1.82,3.1,1.87,6.2,3.76c8.21,5.11,16.33,10.35,24.33,15.79s15.87,11,23.63,16.77,15.47,11.56,23.09,17.48,15.16,11.92,22.69,18,14.92,12.18,22.35,18.31c14.84,12.26,29.58,24.6,44.48,36.72q44.55,36.52,90.32,71.52c30.42,23.45,61.36,46.21,92.6,68.56s62.85,44.22,94.84,65.39c4,2.61,8,5.26,12.07,7.83l12.15,7.69,12.26,7.49c4.09,2.51,8.24,4.89,12.35,7.34,16.54,9.67,33.42,18.74,50.69,27C1534.75,2360.4,1571.15,2373.24,1609,2380.52Z"/><path class="cls-8" d="M934.34,1568.77l13.21,3.88c2.2.66,4.42,1.25,6.6,2l6.51,2.26,6.5,2.29,3.25,1.15c1.09.37,2.17.76,3.23,1.22l12.78,5.19c4.3,1.65,8.43,3.68,12.62,5.6l6.26,2.91,3.14,1.45,3.07,1.58,12.28,6.34c2.06,1,4.06,2.17,6.06,3.31l6,3.41c8.09,4.43,15.79,9.5,23.64,14.33,3.87,2.51,7.67,5.13,11.5,7.68l5.74,3.86,5.62,4,11.22,8.1,10.94,8.45c1.81,1.42,3.66,2.81,5.45,4.25l5.35,4.38c3.56,2.93,7.16,5.81,10.68,8.78,28.19,23.78,54.59,49.58,79.89,76.28,12.7,13.32,25,27,37.25,40.67s24.32,27.51,36.43,41.28,24.07,27.65,36.21,41.36,24.4,27.28,36.86,40.64a1087.58,1087.58,0,0,0,78.06,76.8c54.79,48.37,114.94,90.56,174.36,133.57-31-19.6-61.76-39.63-92-60.53q-22.61-15.74-44.68-32.3t-43.14-34.44c-14.07-11.89-27.84-24.17-41-37l-5-4.78-4.91-4.85-9.81-9.73c-6.4-6.6-12.92-13.11-19.21-19.82-25.32-26.7-49.53-54.35-73.74-81.91s-48.1-55.3-73-82.07q-18.54-20.2-38-39.45l-9.79-9.56c-3.26-3.2-6.65-6.25-10-9.41-6.57-6.33-13.43-12.34-20.19-18.47-3.42-3-6.92-5.94-10.37-8.92l-5.2-4.45c-1.74-1.47-3.53-2.88-5.3-4.33l-10.63-8.6-10.85-8.33-5.43-4.16-5.56-4c-3.71-2.65-7.38-5.36-11.13-8-7.61-5-15.09-10.26-22.93-14.93l-5.81-3.62c-1.94-1.21-3.87-2.42-5.87-3.52l-11.91-6.76-3-1.68-3-1.57-6.09-3.13c-4.08-2-8.08-4.28-12.27-6.12l-12.44-5.77c-1-.5-2.08-.94-3.15-1.36l-3.17-1.3-6.35-2.6-6.35-2.63c-2.13-.84-4.3-1.56-6.46-2.34Z"/><path class="cls-8" d="M2104.07,1727.83c2.35,5.25,5.37,10.11,8.15,15.08l8.65,14.74,17.41,29.33c5.79,9.76,11.66,19.46,17.65,29,1.49,2.41,3,4.76,4.55,7.11l2.29,3.54,2.37,3.44c.79,1.15,1.56,2.32,2.36,3.45s1.66,2.18,2.47,3.29c1.58,2.32,3.38,4.12,5.07,6.2l3.53,4.36-4,2.42c-.12.07-.32.22-.51.36l-.57.42c-.39.3-.78.6-1.17.93-.78.62-1.53,1.3-2.29,2s-1.49,1.4-2.23,2.11-1.44,1.47-2.13,2.23a66.22,66.22,0,0,0-7.5,9.9l-.83,1.33c-.27.45-.51.92-.77,1.37-.49.92-1,1.84-1.49,2.78-.85,1.91-1.84,3.81-2.52,5.83a73.8,73.8,0,0,0-3.51,12.49c-.09-1.1-.15-2.2-.2-3.3a24.83,24.83,0,0,1-.05-3.34l.2-3.34c0-1.12.29-2.22.43-3.34a54.81,54.81,0,0,1,1.43-6.63c.31-1.09.7-2.15,1.06-3.24.19-.53.35-1.08.56-1.61l.67-1.57a60,60,0,0,1,6.69-12c.66-.93,1.38-1.84,2.08-2.76s1.46-1.8,2.24-2.67,1.57-1.72,2.42-2.54c.41-.42.85-.83,1.29-1.24.21-.2.44-.41.68-.61s.45-.41.77-.66l-.43,6.77c-1.11-1.06-2.19-2.15-3.28-3.24a41,41,0,0,1-3-3.33q-1.46-1.68-2.89-3.39c-.92-1.16-1.78-2.33-2.68-3.49l-2.66-3.49-2.48-3.58-2.49-3.57c-.83-1.19-1.58-2.43-2.37-3.64-6.33-9.68-12.07-19.67-17.43-29.84s-10.35-20.54-14.81-31.15c-1.12-2.66-2.17-5.34-3.24-8s-2-5.41-3-8.12-1.81-5.48-2.6-8.27c-.39-1.4-.77-2.8-1.11-4.2S2104.29,1729.24,2104.07,1727.83Z"/></g></g></svg>