<svg width="32" height="32" viewBox="0 0 32 32" fill="none" xmlns="http://www.w3.org/2000/svg">
<path d="M26.6667 14.6667H9.10669L12.9467 10.8267C13.196 10.5774 13.3361 10.2392 13.3361 9.88667C13.3361 9.5341 13.196 9.19598 12.9467 8.94667C12.6974 8.69737 12.3593 8.55731 12.0067 8.55731C11.6541 8.55731 11.316 8.69737 11.0667 8.94667L4.94669 15.0667C4.82308 15.19 4.72502 15.3365 4.65811 15.4978C4.5912 15.6591 4.55676 15.832 4.55676 16.0067C4.55676 16.1813 4.5912 16.3542 4.65811 16.5155C4.72502 16.6768 4.82308 16.8233 4.94669 16.9467L11.0667 23.0667C11.1901 23.1901 11.3367 23.288 11.498 23.3548C11.6592 23.4216 11.8321 23.456 12.0067 23.456C12.1813 23.456 12.3541 23.4216 12.5154 23.3548C12.6767 23.288 12.8232 23.1901 12.9467 23.0667C13.0701 22.9432 13.1681 22.7967 13.2349 22.6354C13.3017 22.4741 13.3361 22.3012 13.3361 22.1267C13.3361 21.9521 13.3017 21.7792 13.2349 21.6179C13.1681 21.4567 13.0701 21.3101 12.9467 21.1867L9.10669 17.3333H26.6667C27.4 17.3333 28 16.7333 28 16C28 15.2667 27.4 14.6667 26.6667 14.6667Z" fill="#FF6B68"/>
</svg>
