<svg width="320" height="320" viewBox="0 0 320 320" fill="none" xmlns="http://www.w3.org/2000/svg">
<path d="M306.47 166.04C306.47 166.04 316.145 218.691 245.107 246.48C174.069 274.269 93.2972 289.471 51.7893 248.221C1.44557 198.2 0.653196 175.926 36.5176 131.235C72.382 86.5436 78.2097 16.137 183.168 56.9446C288.126 97.7521 299.878 115.092 306.47 166.04Z" fill="#F2E1DE"/>
<path d="M193.395 184.052H135.961L128.489 133.179H200.867L193.395 184.052Z" fill="white"/>
<path d="M193.395 184.43C193.395 187.826 180.537 190.585 164.676 190.585C148.815 190.585 135.961 187.821 135.961 184.43C135.961 181.04 148.819 178.276 164.676 178.276C180.533 178.276 193.395 181.03 193.395 184.43Z" fill="white"/>
<path d="M164.676 140.937C184.661 140.937 200.863 137.464 200.863 133.179C200.863 128.894 184.661 125.421 164.676 125.421C144.69 125.421 128.489 128.894 128.489 133.179C128.489 137.464 144.69 140.937 164.676 140.937Z" fill="#E0B0AA"/>
<path d="M71.3268 163.736C68.4671 162.416 65.3453 161.76 62.196 161.82C61.0213 161.843 59.8189 161.958 58.7086 161.594C57.5984 161.23 56.5987 160.212 56.7507 159.065C56.8659 158.199 57.58 157.545 58.2526 156.969C61.0167 154.582 63.8499 152.168 67.1622 150.551C70.4746 148.934 74.3812 148.188 77.9054 149.294C79.9877 149.948 81.8489 151.219 83.9819 151.694C90.7447 153.191 97.0884 146.354 103.948 147.327C104.377 147.354 104.786 147.515 105.118 147.787C105.41 148.143 105.583 148.581 105.611 149.04C107.204 159.315 105.735 169.831 101.387 179.275" fill="#CF786C"/>
<path d="M67.0977 162.142C65.8631 161.142 64.5317 159.378 65.5636 158.18C66.0565 157.609 66.8858 157.489 67.6413 157.462C68.9811 157.417 70.3213 157.539 71.6308 157.826C71.4143 155.623 71.5433 152.813 73.598 151.993C75.496 151.233 77.4493 152.859 78.8544 154.347C78.3459 152.368 78.4621 150.281 79.1871 148.37C79.9121 146.46 81.2104 144.821 82.9038 143.678C86.23 141.531 90.7355 141.665 94.2275 143.494C97.7195 145.322 100.309 148.639 101.829 152.293C103.183 155.55 103.759 159.29 102.543 162.598" fill="#51312C"/>
<path d="M113.572 183.057C113.618 185.596 113.36 188.346 111.752 190.304C109.656 192.824 106.017 193.266 102.732 193.529C93.0116 194.298 77.68 194.492 72.1472 194.538C70.8887 194.555 69.6314 194.451 68.3926 194.229C62.2116 193.094 55.936 192.554 49.6519 192.617C47.0444 192.64 44.2941 192.759 42.0552 191.451C38.1393 189.189 37.5082 183.412 39.7517 179.496C41.9953 175.58 46.2013 173.249 50.4489 171.711C50.9418 171.522 51.4532 171.361 51.9415 171.172C55.7191 169.914 59.6119 168.933 63.0855 166.998C63.6429 166.698 64.228 166.302 64.3892 165.694C64.4161 165.611 64.4316 165.524 64.4353 165.436C64.4583 164.717 63.8779 164.054 63.2698 163.552C61.8325 162.427 60.1022 161.74 58.2851 161.571C66.3011 159.189 75.2983 162.267 83.1622 159.47C87.2623 158.019 90.6115 155.131 94.1726 152.68C97.7337 150.229 101.815 148.073 106.104 148.414C104.404 154.403 107.947 160.465 110.251 166.27C112.368 171.618 113.494 177.306 113.572 183.057V183.057Z" fill="#CF786C"/>
<path d="M99.143 163.662C99.2582 164.151 98.816 164.584 98.3967 164.851C91.3574 169.794 81.66 168.804 73.8514 172.489C76.9748 176.262 84.1753 175.143 86.3682 179.528C81.9377 180.901 77.1992 180.925 72.7549 179.598C70.4008 178.874 68.1849 177.778 65.8999 176.893C60.4539 174.747 54.6432 173.679 48.79 173.747C49.8404 172.908 50.8908 172.042 51.9365 171.181C55.7142 169.923 59.607 168.942 63.0805 167.007C63.638 166.708 64.223 166.311 64.3843 165.703C64.4111 165.62 64.4266 165.533 64.4303 165.445L65.4807 165.1C68.7424 166.754 72.2896 168.477 75.9245 167.919C77.3756 167.62 78.7903 167.166 80.1443 166.565C86.2108 164.303 92.6781 163.315 99.143 163.662V163.662Z" fill="#B65F50"/>
<path d="M249.746 171.255C249.51 173.187 248.856 175.045 247.83 176.7C247.649 177.068 247.353 177.367 246.987 177.552C246.602 177.649 246.197 177.625 245.826 177.483C234.406 174.383 222.704 171.153 213.145 164.197C212.756 163.967 212.449 163.621 212.27 163.206C212.179 162.76 212.229 162.296 212.412 161.88C213.278 159.244 214.177 156.554 215.881 154.366C216.305 153.761 216.871 153.27 217.531 152.938C218.853 152.357 220.373 152.901 221.7 153.467C230.388 157.153 238.142 162.63 246.116 167.67C247.581 168.555 249.885 170.236 249.746 171.255Z" fill="#1C5170"/>
<path d="M262.415 180.275C257.501 177.538 252.601 174.8 247.714 172.061C246.715 172.406 245.678 172.683 245.383 173.904C245.31 174.213 245.346 174.539 245.485 174.825L256.297 180.662C258.177 181.675 260.379 183.426 262.438 182.007C262.585 181.915 262.707 181.786 262.79 181.633C262.873 181.48 262.916 181.308 262.914 181.134C262.911 180.96 262.864 180.79 262.777 180.639C262.689 180.489 262.565 180.363 262.415 180.275V180.275Z" fill="#668290"/>
<path d="M252.188 182.726C254.16 178.822 257.581 175.846 261.72 174.433C262.798 174.016 263.959 173.858 265.11 173.973C266.953 174.24 268.409 175.516 269.777 176.737C273.799 180.335 277.862 183.979 280.87 188.452C281.303 188.967 281.536 189.622 281.524 190.295C281.438 190.747 281.212 191.16 280.88 191.479C278.871 193.616 275.48 193.423 272.587 193.068C266.446 192.322 260.208 191.548 254.542 189.069C253.086 188.429 251.571 187.567 250.995 186.089C250.161 183.946 250.811 184.545 252.211 182.726" fill="#668290"/>
</svg>
