<svg width="320" height="320" viewBox="0 0 320 320" fill="none" xmlns="http://www.w3.org/2000/svg">
<path d="M319.518 164.445C319.518 164.445 330.009 221.487 253.075 251.595C176.141 281.702 88.7161 298.18 43.743 253.466C-10.7452 199.313 -11.6398 175.186 27.1932 126.77C66.0262 78.3534 72.329 2.0671 185.982 46.2928C299.634 90.5186 312.362 109.275 319.518 164.445Z" fill="#F2E1DE"/>
<path d="M184.075 233.27H134.988L128.605 189.777H190.496L184.075 233.27Z" fill="white"/>
<path d="M184.075 233.625C184.075 236.54 173.084 238.904 159.531 238.904C145.979 238.904 134.988 236.54 134.988 233.625C134.988 230.709 145.979 228.346 159.531 228.346C173.084 228.346 184.075 230.709 184.075 233.625Z" fill="white"/>
<path d="M159.531 196.396C176.611 196.396 190.457 193.433 190.457 189.777C190.457 186.122 176.611 183.159 159.531 183.159C142.451 183.159 128.605 186.122 128.605 189.777C128.605 193.433 142.451 196.396 159.531 196.396Z" fill="#E0B0AA"/>
<path d="M187.581 192.574C193.924 189.935 172.453 187.335 166.071 186.271C156.577 184.656 140.661 186.507 132.506 193.008C132.506 193.008 142.158 196.829 161.422 196.396C161.422 196.435 178.363 196.435 187.581 192.574Z" fill="#51312C"/>
<path d="M134.555 135.845C134.555 135.845 144.088 142.857 145.586 146.481C145.586 146.481 153.071 131.629 145.113 123.671L134.555 135.845Z" fill="#1C5170"/>
<path d="M119.623 139.035C119.623 139.035 134.909 138.563 139.715 133.875C142.591 131.156 144.482 127.571 145.152 123.671C145.152 123.671 134.278 119.141 128.014 122.529C121.75 125.917 119.623 139.035 119.623 139.035Z" fill="#668290"/>
<path d="M142.394 140.02C143.615 141.99 144.797 143.999 145.94 146.009C147.082 148.018 148.225 150.027 149.328 152.075C150.431 154.124 151.494 156.173 152.519 158.261C153.543 160.349 154.488 162.437 155.355 164.603C155.789 165.667 156.143 166.77 156.498 167.873L156.931 169.567C157.049 170.119 157.128 170.71 157.246 171.261C157.64 173.546 157.955 175.831 158.192 178.155C158.428 180.48 158.625 182.765 158.783 185.089C158.94 187.414 159.058 189.698 159.137 192.023H158.428C158.428 187.414 158.27 182.765 157.876 178.195C157.68 175.91 157.404 173.586 157.049 171.301C156.931 170.749 156.852 170.158 156.734 169.607L156.34 167.952C155.985 166.849 155.631 165.746 155.198 164.682C153.464 160.388 151.455 156.212 149.17 152.194C146.964 148.136 144.6 144.157 142.118 140.217L142.394 140.02Z" fill="#1C5170"/>
<path d="M135.697 98.7729C135.697 98.7729 147.791 99.3244 151.77 103.776C155.749 108.228 155.592 120.638 155.592 120.638C151.376 120.165 147.397 118.51 144.088 115.91C138.73 111.577 135.697 98.7729 135.697 98.7729Z" fill="#668290"/>
<path d="M157.68 191.629C157.286 184.262 157.522 176.934 157.483 169.607C157.444 162.279 157.444 154.912 157.286 147.584C157.207 143.921 157.128 140.257 156.971 136.593C156.813 132.929 156.616 129.265 156.222 125.641C156.143 124.735 155.986 123.829 155.868 122.923C155.75 122.017 155.513 121.15 155.237 120.283L154.804 118.983L154.292 117.722C154.134 117.289 153.898 116.895 153.701 116.501L153.386 115.91L153.031 115.319C152.125 113.743 151.061 112.246 149.84 110.907C148.619 109.528 147.24 108.346 145.704 107.361L145.861 107.086C147.437 108.07 148.895 109.252 150.116 110.631C151.377 111.971 152.48 113.468 153.425 115.083L153.78 115.674L154.095 116.304C154.292 116.698 154.528 117.132 154.725 117.565L155.277 118.826L155.75 120.126C155.907 120.559 156.025 120.992 156.143 121.465C156.262 121.938 156.34 122.371 156.419 122.844C156.577 123.75 156.695 124.656 156.813 125.602C157.247 129.265 157.444 132.929 157.641 136.593C157.838 140.257 157.956 143.921 158.034 147.624C158.192 154.951 158.231 162.318 158.231 169.646C158.231 176.974 158.31 184.301 157.68 191.629Z" fill="#1C5170"/>
<path d="M182.735 91.6818C182.735 91.6818 170.641 92.2334 166.662 96.6851C162.683 101.137 162.84 113.546 162.84 113.546C167.056 113.074 171.035 111.419 174.344 108.819C179.702 104.485 182.735 91.6818 182.735 91.6818Z" fill="#668290"/>
<path d="M160.753 192.023C160.162 184.065 160.28 176.107 160.241 168.11C160.201 160.112 160.28 152.154 160.437 144.196C160.516 140.217 160.634 136.238 160.792 132.259C160.95 128.28 161.147 124.301 161.501 120.322C161.659 118.313 161.935 116.343 162.328 114.374C162.447 113.861 162.604 113.389 162.762 112.916C162.919 112.443 163.116 111.97 163.313 111.498C163.707 110.552 164.141 109.646 164.613 108.779C165.559 107.007 166.741 105.352 168.08 103.855C169.42 102.358 170.956 101.018 172.65 99.9548L172.808 100.231C171.153 101.294 169.656 102.594 168.356 104.091C167.056 105.588 165.953 107.204 165.007 108.976C164.535 109.843 164.141 110.749 163.786 111.655C163.432 112.561 163.116 113.507 162.88 114.452C162.486 116.422 162.25 118.392 162.092 120.362C161.738 124.301 161.58 128.28 161.422 132.259C161.265 136.238 161.186 140.217 161.107 144.196C160.95 152.154 160.91 160.112 160.91 168.11C160.91 176.107 161.147 184.065 160.753 192.023Z" fill="#1C5170"/>
<path d="M159.925 192.023C159.334 183.907 159.374 175.792 159.216 167.637L158.822 143.251C158.704 135.135 158.546 127.02 158.389 118.865L158.152 106.692C158.113 104.682 158.034 102.634 157.955 100.585L157.837 97.5518C157.798 96.5275 157.719 95.5426 157.64 94.5183L157.955 94.4789C158.034 95.5032 158.113 96.4881 158.192 97.5124L158.349 100.546C158.467 102.594 158.507 104.604 158.586 106.652C158.743 110.71 158.861 114.768 158.98 118.825C159.177 126.941 159.374 135.096 159.531 143.211L159.925 167.597C160.043 175.792 160.319 183.907 159.925 192.023Z" fill="#1C5170"/>
<path d="M168.789 170.828C168.789 170.828 175.959 157.63 186.32 159.009C196.681 160.388 199.281 166.534 199.242 170.71C199.203 174.846 196.327 180.913 193.608 184.223C190.89 187.532 193.096 175.91 190.89 175.91C188.684 175.91 187.069 177.013 181.711 175.28C176.353 173.546 173.517 168.149 168.789 170.828Z" fill="#668290"/>
<path d="M188.724 164.879C187.857 164.564 186.912 164.288 186.006 164.091C185.1 163.894 184.154 163.776 183.208 163.697C181.357 163.54 179.466 163.737 177.654 164.21C175.841 164.722 174.187 165.588 172.729 166.731C171.272 167.913 170.05 169.331 169.026 170.907C166.977 174.098 165.402 177.525 164.259 181.11C163.747 182.922 163.353 184.774 163.156 186.626C162.92 188.477 162.88 190.368 163.117 192.22L162.408 192.338C162.289 191.393 162.289 190.408 162.329 189.423C162.368 188.95 162.368 188.477 162.408 188.005L162.486 187.295L162.565 186.586C162.841 184.695 163.235 182.804 163.786 180.992C164.889 177.328 166.505 173.861 168.553 170.631C169.578 168.976 170.878 167.519 172.335 166.297C173.084 165.707 173.911 165.155 174.778 164.722C175.645 164.288 176.551 163.934 177.457 163.697C179.308 163.225 181.278 163.067 183.169 163.303C185.139 163.5 186.99 164.052 188.724 164.879Z" fill="#1C5170"/>
<path d="M192.426 115.674C192.426 115.674 177.85 122.214 174.856 132.772C171.862 143.33 170.562 144.512 170.562 144.512C170.562 144.512 185.808 143.605 190.102 135.726C194.396 127.847 192.426 115.674 192.426 115.674Z" fill="#1C5170"/>
<path d="M185.571 128.399C183.838 130.841 181.986 133.126 179.977 135.293C178.007 137.499 175.959 139.666 173.831 141.754C173.319 142.266 172.768 142.778 172.216 143.29C171.665 143.802 171.113 144.315 170.601 144.787C169.616 145.772 168.946 147.112 168.355 148.451C167.292 151.209 166.464 154.045 165.913 156.921C164.731 162.712 163.904 168.582 163.352 174.492C162.761 180.401 162.328 186.311 162.052 192.22H161.737C161.934 186.271 162.328 180.362 162.879 174.452C163.391 168.543 164.258 162.634 165.401 156.803C165.716 155.345 166.031 153.888 166.464 152.47C166.858 151.012 167.331 149.594 167.922 148.215C168.198 147.506 168.552 146.836 168.907 146.206C169.301 145.536 169.734 144.906 170.286 144.393C170.837 143.881 171.389 143.409 171.901 142.896C172.452 142.384 172.965 141.872 173.516 141.36C175.644 139.311 177.653 137.145 179.662 134.938C181.671 132.732 183.483 130.565 185.571 128.399Z" fill="#668290"/>
<path d="M180.293 109.883C180.293 109.883 170.562 116.935 168.277 128.674C165.992 140.414 168.08 146.56 168.08 146.56C171.823 143.527 175.329 140.139 178.481 136.514C183.129 131.038 184.154 123.159 180.293 109.883Z" fill="#668290"/>
<path d="M175.565 122.016C174.147 127.808 172.571 133.52 170.877 139.232C170.01 142.069 169.144 144.905 168.198 147.742C167.292 150.578 166.189 153.336 165.44 156.212C165.047 157.63 164.771 159.088 164.456 160.545L164.062 162.712C163.904 163.461 163.786 164.17 163.707 164.918C163.234 167.834 162.88 170.788 162.525 173.743C161.895 179.652 161.343 185.562 161.068 191.511L160.358 191.471C160.674 185.522 161.146 179.574 161.855 173.664C162.21 170.71 162.604 167.755 163.116 164.8C163.234 164.052 163.352 163.343 163.51 162.594L163.943 160.388C164.259 158.93 164.574 157.473 164.968 156.015L165.243 154.912C165.362 154.557 165.48 154.203 165.598 153.848C165.834 153.139 166.071 152.43 166.307 151.721C166.819 150.342 167.292 148.924 167.765 147.505C168.71 144.708 169.616 141.872 170.483 139.035C172.177 133.402 173.832 127.729 175.565 122.016Z" fill="#1C5170"/>
<path d="M114.542 173.98C114.542 173.98 119.781 159.009 129.236 155.936C138.691 152.864 147.122 159.718 147.122 159.718C147.122 159.718 143.97 169.41 139.282 171.104C134.594 172.798 128.054 169.567 122.46 171.34C116.866 173.113 114.542 173.98 114.542 173.98Z" fill="#668290"/>
<path d="M128.646 164.643C130.497 163.382 132.427 162.279 134.476 161.334C136.485 160.349 138.613 159.6 140.779 159.127C141.882 158.891 143.025 158.812 144.128 158.891C144.404 158.891 144.68 158.93 144.955 158.97C145.231 159.009 145.507 159.088 145.783 159.167C146.058 159.246 146.334 159.324 146.571 159.443C146.846 159.561 147.083 159.679 147.319 159.837L147.674 160.073C147.792 160.152 147.91 160.27 147.989 160.349C148.225 160.506 148.422 160.703 148.619 160.94C149.013 161.334 149.407 161.728 149.801 162.161C149.998 162.358 150.195 162.555 150.353 162.791L150.865 163.461C151.219 163.894 151.534 164.367 151.85 164.84C153.11 166.731 154.056 168.74 154.726 170.907C155.395 173.074 155.868 175.24 156.183 177.486C156.735 181.938 157.05 186.389 157.01 190.88H156.301C156.42 186.429 156.223 181.977 155.71 177.565C155.435 175.358 155.001 173.192 154.371 171.064C153.741 168.937 152.835 166.888 151.613 165.037C151.298 164.564 151.022 164.091 150.628 163.658L150.116 162.988C149.919 162.791 149.762 162.555 149.565 162.358C149.21 161.925 148.816 161.531 148.422 161.137L148.146 160.821C148.068 160.743 147.949 160.624 147.831 160.546C147.713 160.467 147.634 160.349 147.516 160.27L147.162 160.034C146.925 159.876 146.689 159.758 146.413 159.64C146.177 159.521 145.901 159.443 145.625 159.364C145.349 159.285 145.074 159.246 144.837 159.206C144.561 159.167 144.286 159.127 144.01 159.127C142.907 159.088 141.804 159.167 140.701 159.364C138.534 159.837 136.406 160.546 134.397 161.491C132.506 162.358 130.537 163.422 128.646 164.643Z" fill="#1C5170"/>
<path d="M170.921 62.115C163.762 62.5783 158.689 66.6805 157.057 68.6636C167.449 79.4496 165.29 88.4259 162.867 91.577C167.852 89.6848 171.25 84.9656 171.476 79.6374L170.921 62.115Z" fill="#F9928F"/>
<path d="M141.833 80.8129L141.269 63.015C157.641 64.7037 163.08 77.1444 163.783 83.1527C164.405 86.641 163.399 93.4523 154.505 92.6304C145.61 91.8085 142.341 84.4231 141.833 80.8129Z" fill="#FF6B68"/>
<path d="M202.946 159.206C202.473 154.873 200.07 152.47 195.736 151.997C200.07 151.524 202.473 149.121 202.946 144.787C203.419 149.121 205.822 151.524 210.155 151.997C205.822 152.47 203.419 154.873 202.946 159.206Z" fill="#FF5051"/>
<path d="M117.221 156.567C116.748 152.233 114.345 149.83 110.011 149.357C114.345 148.885 116.748 146.481 117.221 142.148C117.693 146.481 120.097 148.885 124.43 149.357C120.097 149.83 117.693 152.233 117.221 156.567Z" fill="#FF5051"/>
<path d="M128.605 84.4331C128.29 81.4784 126.596 79.8238 123.642 79.4692C126.596 79.154 128.251 77.46 128.605 74.5053C128.921 77.46 130.615 79.154 133.569 79.4692C130.575 79.8238 128.921 81.4784 128.605 84.4331Z" fill="#FF8C8C"/>
<path d="M195.46 107.558C195.145 104.604 193.451 102.949 190.496 102.594C193.451 102.279 195.105 100.585 195.46 97.6306C195.775 100.585 197.469 102.279 200.424 102.594C197.43 102.949 195.775 104.604 195.46 107.558Z" fill="#FF8C8C"/>
<path d="M191.008 137.972C190.693 135.135 189.117 133.56 186.281 133.244C189.117 132.929 190.693 131.353 191.008 128.517C191.323 131.353 192.899 132.969 195.736 133.244C192.899 133.599 191.323 135.135 191.008 137.972Z" fill="#FF8C8C"/>
<path d="M134.554 112.522C134.396 110.946 133.49 110.079 131.915 109.882C133.49 109.725 134.357 108.819 134.554 107.243C134.712 108.819 135.618 109.725 137.194 109.882C135.618 110.079 134.751 110.946 134.554 112.522Z" fill="#FF5051"/>
<path d="M119.623 123.277C119.466 121.701 118.56 120.835 116.984 120.638C118.56 120.48 119.426 119.574 119.623 117.998C119.781 119.574 120.687 120.48 122.263 120.638C120.687 120.835 119.82 121.701 119.623 123.277Z" fill="#FF8C8C"/>
<path d="M175.684 154.479C175.526 152.982 174.699 152.154 173.202 151.997C174.699 151.839 175.526 151.012 175.684 149.515C175.841 151.012 176.668 151.839 178.166 151.997C176.668 152.154 175.881 152.982 175.684 154.479Z" fill="#FF8C8C"/>
<path d="M181.711 77.0266C181.553 75.5296 180.726 74.7023 179.229 74.5447C180.726 74.3871 181.553 73.5598 181.711 72.0628C181.869 73.5598 182.696 74.3871 184.193 74.5447C182.696 74.7023 181.869 75.5296 181.711 77.0266Z" fill="#FF5051"/>
</svg>
