<svg width="320" height="320" viewBox="0 0 320 320" fill="none" xmlns="http://www.w3.org/2000/svg">
<path d="M319.519 167.454C319.519 167.454 330.011 224.49 253.033 254.593C176.056 284.695 88.5856 301.177 43.6057 256.488C-10.9308 202.304 -11.8096 178.174 27.0637 129.759C65.937 81.3441 72.2226 5.08032 185.921 49.2844C299.62 93.4885 312.362 112.277 319.519 167.454Z" fill="#F2E1DE"/>
<path d="M150.763 271.205H99.5856L92.9287 225.874H157.42L150.763 271.205Z" fill="white"/>
<path d="M150.763 271.537C150.763 274.568 139.306 277.023 125.172 277.023C111.038 277.023 99.5854 274.568 99.5854 271.537C99.5854 268.505 111.043 266.055 125.172 266.055C139.301 266.055 150.763 268.515 150.763 271.537Z" fill="white"/>
<path d="M125.172 232.784C142.98 232.784 157.416 229.69 157.416 225.874C157.416 222.057 142.98 218.963 125.172 218.963C107.365 218.963 92.9287 222.057 92.9287 225.874C92.9287 229.69 107.365 232.784 125.172 232.784Z" fill="#E0B0AA"/>
<path d="M154.394 228.799C161 226.035 138.643 223.335 131.981 222.211C122.076 220.534 105.492 222.469 97.0059 229.241C97.0059 229.241 107.044 233.203 127.149 232.784C127.149 232.784 144.807 232.784 154.394 228.799Z" fill="#51312C"/>
<path d="M99.1665 169.665C99.1665 169.665 109.099 176.967 110.684 180.768C110.684 180.768 118.488 165.303 110.186 157.01L99.1665 169.665Z" fill="#1C5170"/>
<path d="M83.5767 173.014C83.5767 173.014 99.498 172.517 104.51 167.647C107.483 164.796 109.465 161.069 110.167 157.01C110.167 157.01 98.8254 152.27 92.3297 155.822C85.834 159.374 83.5767 173.014 83.5767 173.014Z" fill="#668290"/>
<path d="M107.316 174.019C108.575 176.076 109.804 178.154 111.001 180.252C112.199 182.348 113.383 184.444 114.526 186.572C116.863 190.798 118.954 195.156 120.786 199.624C121.247 200.739 121.606 201.895 121.984 203.047L122.445 204.811C122.574 205.405 122.671 206 122.786 206.594C123.2 208.971 123.509 211.371 123.758 213.771C124.007 216.172 124.219 218.576 124.375 220.986C124.532 223.395 124.679 225.804 124.753 228.228H123.914C123.942 223.423 123.762 218.599 123.348 213.804C123.131 211.408 122.855 209.017 122.468 206.64C122.362 206.05 122.274 205.451 122.15 204.866L121.722 203.125C121.348 201.982 120.998 200.821 120.538 199.72C118.735 195.253 116.65 190.904 114.295 186.701C111.992 182.468 109.527 178.322 106.966 174.263L107.316 174.019Z" fill="#1C5170"/>
<path d="M100.332 131.064C100.332 131.064 112.941 131.649 117.087 136.266C121.233 140.882 121.063 153.818 121.063 153.818C116.689 153.316 112.542 151.606 109.085 148.879C103.488 144.387 100.332 131.064 100.332 131.064Z" fill="#668290"/>
<path d="M123.242 227.804C122.781 220.147 123.034 212.5 122.993 204.852C122.951 197.205 122.933 189.553 122.763 181.91C122.684 178.087 122.583 174.267 122.422 170.448C122.26 166.629 122.058 162.815 121.638 159.028C121.542 158.079 121.404 157.139 121.256 156.204C121.116 155.274 120.896 154.359 120.597 153.467L120.137 152.127L119.579 150.837C119.404 150.376 119.174 149.98 118.967 149.552L118.649 148.92L118.294 148.303C117.36 146.651 116.247 145.106 114.977 143.696C113.725 142.275 112.282 141.034 110.688 140.011L110.872 139.679C112.52 140.695 114.018 141.935 115.322 143.365C116.636 144.781 117.792 146.335 118.773 147.999L119.146 148.626L119.478 149.266C119.694 149.699 119.939 150.118 120.123 150.565L120.708 151.892L121.205 153.251C121.793 155.098 122.173 157.005 122.339 158.936C122.799 162.755 123.011 166.579 123.205 170.402C123.398 174.226 123.523 178.054 123.619 181.883C123.785 189.535 123.836 197.191 123.836 204.843C123.836 212.495 123.947 220.161 123.242 227.804Z" fill="#1C5170"/>
<path d="M149.354 123.656C149.354 123.656 136.74 124.242 132.598 128.858C128.457 133.474 128.618 146.41 128.618 146.41C132.992 145.908 137.139 144.198 140.596 141.471C146.193 136.984 149.354 123.656 149.354 123.656Z" fill="#668290"/>
<path d="M126.421 228.232C125.73 219.94 125.877 211.648 125.831 203.323C125.785 194.998 125.868 186.738 126.02 178.409C126.097 174.26 126.22 170.114 126.388 165.971C126.564 161.824 126.771 157.678 127.149 153.532C127.313 151.446 127.605 149.372 128.024 147.322C128.288 146.301 128.628 145.302 129.042 144.332C129.44 143.362 129.89 142.415 130.392 141.494C131.395 139.651 132.607 137.929 134.004 136.362C135.392 134.782 137.006 133.416 138.795 132.308L138.979 132.64C137.254 133.754 135.702 135.115 134.372 136.68C133.024 138.229 131.86 139.93 130.903 141.748C130.425 142.657 129.998 143.592 129.623 144.549C129.237 145.493 128.921 146.465 128.678 147.456C128.295 149.481 128.026 151.527 127.872 153.583C127.517 157.706 127.338 161.852 127.185 165.994C127.033 170.135 126.96 174.286 126.881 178.432C126.729 186.724 126.683 195.017 126.683 203.309C126.683 211.601 126.909 219.94 126.421 228.232Z" fill="#1C5170"/>
<path d="M125.591 228.232C124.895 219.769 124.997 211.302 124.826 202.839L124.412 177.442C124.292 168.974 124.149 160.508 123.983 152.044L123.725 139.352C123.661 137.238 123.619 135.118 123.541 133.004L123.421 129.834C123.371 128.779 123.288 127.729 123.223 126.674L123.601 126.637C123.684 127.692 123.776 128.752 123.845 129.811L124.006 132.985C124.117 135.1 124.186 137.219 124.278 139.334C124.426 143.563 124.587 147.796 124.688 152.03C124.909 160.495 125.103 168.96 125.269 177.428L125.669 202.825C125.748 211.293 126.079 219.756 125.591 228.232Z" fill="#1C5170"/>
<path d="M134.805 206.119C134.805 206.119 142.264 192.354 153.062 193.828C163.861 195.302 166.574 201.688 166.542 206.004C166.51 210.321 163.515 216.632 160.663 220.087C157.812 223.542 160.143 211.426 157.821 211.417C155.499 211.408 153.859 212.569 148.248 210.777C142.637 208.985 139.73 203.355 134.805 206.119Z" fill="#668290"/>
<path d="M155.592 199.918C154.669 199.57 153.72 199.296 152.754 199.098C151.795 198.89 150.822 198.751 149.842 198.684C147.897 198.533 145.941 198.722 144.061 199.241C143.133 199.516 142.232 199.875 141.37 200.315C140.515 200.766 139.704 201.297 138.947 201.899C137.45 203.141 136.154 204.606 135.105 206.244C132.978 209.549 131.312 213.13 130.152 216.886C129.616 218.77 129.23 220.694 128.996 222.64C128.744 224.567 128.733 226.519 128.964 228.449L128.135 228.578C128.035 227.571 128.01 226.557 128.061 225.546C128.084 225.044 128.102 224.547 128.153 224.049C128.204 223.552 128.245 223.054 128.314 222.557C128.584 220.579 129.011 218.625 129.59 216.715C130.757 212.902 132.436 209.265 134.58 205.903C135.651 204.196 136.989 202.672 138.542 201.388C139.336 200.764 140.187 200.216 141.085 199.753C141.986 199.299 142.93 198.936 143.904 198.67C145.86 198.175 147.89 198.044 149.893 198.283C151.87 198.508 153.796 199.061 155.592 199.918Z" fill="#1C5170"/>
<path d="M159.424 148.658C159.424 148.658 144.221 155.471 141.125 166.459C138.03 177.446 136.634 178.672 136.634 178.672C136.634 178.672 152.537 177.75 156.991 169.513C161.446 161.276 159.424 148.658 159.424 148.658Z" fill="#1C5170"/>
<path d="M152.302 161.93C150.535 164.472 148.589 166.885 146.479 169.149C144.406 171.453 142.277 173.696 140.075 175.871C139.527 176.419 138.96 176.944 138.403 177.483C137.846 178.022 137.242 178.529 136.712 179.063C135.704 180.179 134.91 181.471 134.367 182.873C133.257 185.735 132.4 188.688 131.806 191.7C130.589 197.745 129.694 203.85 129.125 209.989C128.511 216.132 128.05 222.286 127.743 228.453H127.36C127.577 222.276 127.955 216.102 128.53 209.948C129.076 203.781 129.949 197.649 131.147 191.576C131.755 188.518 132.64 185.522 133.792 182.624C134.367 181.141 135.214 179.777 136.288 178.603C136.85 178.041 137.426 177.557 137.988 177.022C138.55 176.488 139.108 175.967 139.651 175.419C141.849 173.263 143.973 171.024 146.046 168.739C148.119 166.454 150.118 164.128 152.302 161.93Z" fill="#668290"/>
<path d="M146.806 142.628C146.806 142.628 136.671 149.957 134.303 162.193C131.935 174.429 134.1 180.809 134.1 180.809C138.01 177.638 141.642 174.138 144.954 170.347C149.759 164.681 150.837 156.457 146.806 142.628Z" fill="#668290"/>
<path d="M141.872 155.269C140.421 161.295 138.762 167.27 137.007 173.236C136.123 176.208 135.201 179.168 134.243 182.113C133.294 185.071 132.138 187.959 131.377 190.93C130.963 192.414 130.663 193.93 130.336 195.436C130.009 196.942 129.756 198.467 129.53 199.997C129.028 203.047 128.655 206.119 128.3 209.211C127.637 215.361 127.088 221.534 126.766 227.707L125.932 227.67C126.259 221.465 126.743 215.282 127.471 209.118C127.849 206.036 128.245 202.959 128.77 199.905C129.005 198.371 129.327 196.846 129.613 195.321C129.899 193.796 130.263 192.28 130.691 190.778L130.99 189.65L131.354 188.535C131.599 187.793 131.815 187.042 132.101 186.324C132.63 184.868 133.133 183.407 133.63 181.942C134.621 179.008 135.551 176.055 136.473 173.102C138.315 167.141 140.075 161.202 141.872 155.269Z" fill="#1C5170"/>
<path d="M78.2881 209.399C78.2881 209.399 83.7518 193.814 93.6013 190.594C103.451 187.374 112.222 194.552 112.222 194.552C112.222 194.552 108.942 204.65 104.073 206.414C99.2032 208.179 92.3943 204.834 86.5436 206.672C80.6929 208.51 78.2881 209.399 78.2881 209.399Z" fill="#668290"/>
<path d="M92.9888 199.67C94.9169 198.362 96.9422 197.204 99.0468 196.205C101.139 195.165 103.354 194.391 105.639 193.902C106.788 193.663 107.964 193.574 109.136 193.635C110.323 193.679 111.479 194.021 112.499 194.63L112.877 194.869C112.996 194.952 113.107 195.058 113.222 195.15C113.45 195.334 113.665 195.532 113.867 195.745C114.286 196.155 114.701 196.565 115.088 197.007C115.281 197.223 115.484 197.435 115.673 197.656L116.221 198.343C116.604 198.804 116.921 199.264 117.258 199.757C118.563 201.711 119.58 203.843 120.275 206.087C120.96 208.325 121.465 210.614 121.786 212.933C122.391 217.561 122.688 222.224 122.675 226.892H121.837C121.957 222.255 121.754 217.615 121.229 213.007C120.951 210.711 120.489 208.442 119.847 206.221C119.201 204.002 118.237 201.889 116.986 199.946C116.659 199.485 116.35 198.979 115.982 198.532L115.447 197.827C115.263 197.606 115.069 197.394 114.876 197.173C114.507 196.712 114.097 196.32 113.692 195.906C113.498 195.694 113.289 195.497 113.065 195.316C112.955 195.229 112.854 195.127 112.734 195.044L112.374 194.814C111.388 194.227 110.27 193.896 109.122 193.851C107.97 193.801 106.817 193.898 105.69 194.141C103.422 194.631 101.217 195.375 99.1159 196.357C97.0019 197.323 94.9549 198.43 92.9888 199.67Z" fill="#1C5170"/>
<path d="M135.501 95.2414C128.01 95.4718 122.602 99.5857 120.833 101.617C131.322 113.204 128.738 122.473 126.14 125.661C128.72 124.772 130.983 123.146 132.647 120.983C134.311 118.82 135.304 116.216 135.501 113.494V95.2414Z" fill="#F9928F"/>
<path d="M104.598 113.784V95.2414C121.579 97.5448 126.867 110.693 127.388 116.967C127.908 120.653 126.637 127.688 117.396 126.531C108.154 125.375 105.012 117.548 104.598 113.784Z" fill="#FF6B68"/>
<path d="M196.979 63.2744C174.783 63.2744 156.789 79.661 156.789 99.8805C156.826 108.317 159.953 116.448 165.579 122.735C164.197 127.724 161.184 134.911 155.126 136.869C155.126 136.869 166.592 135.768 173.927 129.876C180.817 134.233 188.809 136.53 196.961 136.496C219.157 136.496 237.151 120.105 237.151 99.8851C237.151 79.6656 219.175 63.2744 196.979 63.2744Z" fill="#FF6B68"/>
<path d="M183.227 95.2727C182.646 89.9449 179.691 86.9903 174.363 86.4091C179.691 85.8279 182.646 82.8733 183.227 77.5455C183.808 82.8733 186.763 85.8279 192.091 86.4091C186.763 86.9903 183.808 89.9449 183.227 95.2727Z" fill="white"/>
<path d="M213.363 126C212.743 120.317 209.592 117.165 203.909 116.545C209.592 115.926 212.743 112.774 213.363 107.091C213.983 112.774 217.135 115.926 222.818 116.545C217.135 117.165 213.983 120.317 213.363 126Z" fill="white"/>
<path d="M209.818 100C209.43 96.4481 207.461 94.4784 203.909 94.0909C207.461 93.7034 209.43 91.7337 209.818 88.1818C210.205 91.7337 212.175 93.7034 215.727 94.0909C212.175 94.4784 210.205 96.4481 209.818 100Z" fill="white"/>
<path d="M178.545 119C178.194 115.776 176.406 113.988 173.182 113.636C176.406 113.285 178.194 111.497 178.545 108.273C178.897 111.497 180.685 113.285 183.909 113.636C180.685 113.988 178.897 115.776 178.545 119Z" fill="white"/>
<path d="M196 111C195.738 108.896 194.404 107.73 192 107.5C194.404 107.271 195.738 106.104 196 104C196.262 106.104 197.596 107.271 200 107.5C197.596 107.73 196.262 108.896 196 111Z" fill="white"/>
<path d="M227 100C226.869 98.7978 226.202 98.1312 225 98C226.202 97.8689 226.869 97.2022 227 96C227.131 97.2022 227.798 97.8689 229 98C227.798 98.1312 227.131 98.7978 227 100Z" fill="white"/>
<path d="M200.955 79.9091C200.761 78.1331 199.776 77.1483 198 76.9546C199.776 76.7608 200.761 75.776 200.955 74C201.148 75.776 202.133 76.7608 203.909 76.9546C202.133 77.1483 201.148 78.1331 200.955 79.9091Z" fill="white"/>
</svg>
