<svg xmlns="http://www.w3.org/2000/svg" xmlns:xlink="http://www.w3.org/1999/xlink" viewBox="0 0 2610.68 2655.92"><defs><style>.cls-1{fill:none;}.cls-2{clip-path:url(#clip-path);}.cls-3{fill:#dde4e9;}.cls-4{fill:#ff5e62;}.cls-5{fill:#cf786c;}.cls-6{fill:#99473c;}.cls-7{fill:#1c5170;}</style><clipPath id="clip-path"><rect class="cls-1" x="2.13" y="493.22" width="2608.55" height="2157.27"/></clipPath></defs><g id="Layer_5" data-name="Layer 5"><g class="cls-2"><path class="cls-3" d="M1292.14,636.21s-42.32-16.56-49.89-18-51.35-3.2-51.35-3.2l-52.32,10.59-48,24.88-39.71,26.94-51.28,62.7-30.41,59.27L945.64,868.3,932.51,924l-11.85,55.36-13.16,46.88-21.43,48.56-14.78,22.82-23.52,26.27s-18.34,14.47-19.39,15.14-19.66,12.21-21.66,12.21,23.46,17,23.46,17L698.8,1267.59s-78.54,200.24-81.57,200,0,91.05,0,91.05l81.57,112.67-172,413.12,113.25,575,1261.94-134L2088.28,2072l13.44-554.76L1902,1147.64l-61-31.32-13.76-14.68-26.61-29.32L1770,1015.88l-18.67-54-16.79-62.58L1711.06,822l-23.47-55.49-41.67-64.58L1608.11,665l-58.59-35.75-59.08-19.69-34-7.17-44.59.3-19.86,2L1363.41,609l-29.05,8.15-20.1,7.82Z"/><polygon class="cls-4" points="1090.53 2009.89 1629.41 1958.39 1778.99 2320.34 1806.53 2636.36 1158.35 2744.77 785.34 2685.78 914.29 2485.41 1090.53 2009.89"/><polygon class="cls-5" points="1192.76 1850.26 1192.76 1816.01 1195.31 1729.7 1204.85 1678.24 1215.61 1633.7 1232.38 1587.13 1253.75 1551.49 1291.12 1514.05 1329.23 1495.71 1359.49 1500.41 1404.49 1517.46 1434.84 1543.3 1455.62 1590.03 1462.04 1621 1486.67 1663.67 1511.49 1695.27 1524.85 1728.52 1527.53 1748.06 1521.78 1765.54 1545.16 1748.94 1617.17 1818.43 1629.41 1915.19 1589.1 2014.85 1496.3 2024.79 1492 2051.84 1492.49 2084.46 1500.34 2084.46 1505.25 2096.68 1511.49 2126.03 1506.34 2168.99 1499.78 2209.51 1489.03 2242.65 1475.82 2272.57 1461.61 2295.74 1451.92 2307.9 1443.56 2316.62 1436.23 2322.14 1449.41 2380.12 1465.67 2442.31 1466.57 2445.52 1477.88 2433.4 1490.12 2417.91 1501.66 2403.32 1520 2380.12 1540.95 2354.36 1560.86 2332.08 1568.36 2324.45 1575.12 2317.94 1584.23 2314.41 1591.74 2342.83 1591.86 2400.87 1591.36 2431.28 1601.59 2464.9 1609.67 2488.83 1611.06 2505.37 1602.22 2540.68 1598.23 2565.48 1602.77 2587.49 1603.86 2592.58 1596.18 2601.27 1573.11 2634.09 1548.47 2661.98 1522.43 2682.14 1440.14 2702.09 1306.46 2691.24 1311.76 2651.32 1302.08 2650.49 1306.46 2631.71 1304.51 2592.48 1303.11 2556.18 1302.08 2511.64 1302.08 2457.41 1303.25 2380.12 1304.96 2346.3 1294.42 2338.08 1276.15 2319.78 1256.67 2292.14 1241.52 2260.09 1231.9 2228.05 1224.68 2190.35 1224.68 2137.52 1224.68 2106.2 1231.69 2072 1236.72 2045.63 1242.42 2029.66 1254.97 2021.11 1265.57 2016.23 1278.92 2007.99 1279.21 1974.53 1192.76 1850.26"/><polygon class="cls-5" points="1067.93 2290.3 1042.22 2368.61 1024.98 2433.63 1010.73 2495.42 993.46 2549.01 975 2583.08 998.36 2589.1 1043.96 2601.09 1091.67 2613.45 1136.46 2624.33 1198.46 2637.3 1251.93 2645.65 1384.31 2656.66 1409.44 2661.98 1398.88 2690.85 1246.28 2713.64 1084.19 2702.09 849.92 2695.92 785.34 2685.78 779.23 2655.39 785.85 2573.51 798.36 2517.4 813.23 2460.18 827.97 2412.45 854.36 2347.37 959.92 2286.69 1067.93 2290.3"/><path class="cls-3" d="M1773.6,1388.68s-18.9,9.77-25.29-18.86c0,0-9.58,10.62-18-5.29s-1.28-21.41-1.28-21.41l3.82-14.3.81-10-5.44-12.57-9.48-13.48-2.83-23.4,10.3-30.74,18.54-38.59,23.29-33.5,45.23-36.94,41.57-18.17,44.28-9.38,65.67,6.12,35.62,15.2,58.36,31.78,31.7,29,29.19,40.69,11,36.56,7.13,27.13-2.55,35.09-7.15,25.61s-16.5,35.31-24.69,41l34.39-3.66,35.94,5.37,42.25,20.54,20.38,19.86,14,24.34,3.08,33.67-7.18,23.37-10.64,17.54-13.77,13.26,56.6,38.14,31.18,32.81,103.05,111.3,42.62,55.28,41,58.11,18.35,27.84-20.5,19.27-29.58,21.09,6,17,12.15,30.24,12,35.67,29.82,111.76,10.47,67.09,6.56,111.42-2.25,65.49-26.76,168-19.88,67.76-22,59-7.49,17.58L2310.8,2662l-481-597.33L1935,1819.52l-16.11-113.29v-52.42l15.26-47,18.61-39.15,17.29-20.76-11.63-13.33-5.66-5.83-20.09,7.71-33.82,2.36-47.41-21.43-37.92-37.18-23.71-34.93-12.35-38.24Z"/><path class="cls-3" d="M235.77,2650.78l-17.64-44.68-17.5-52.84-14.16-53.09-11.09-54.12-7.18-48.41-4.81-50.27-2.28-27s-28.5-16.31-48-61.81l-15.36-34.19L83,2178.26l-15.79-84.65-3.45-39.43,2.69-26.28,18.78-89.33,22-81.92,18.39-59.56,25.78-75.18,38.68-99.75,32.24-73,24.53-48.79,30.73-49,32.83-32.21,29.46-9.61,27.91,4.77,31.43,13.71L434.56,1445,483,1468.51l7.68-4.84,17.38-14.23,16.23-13.3,17.75-23.42,10.46-18.35,10.41-26.75,5.42-13.92-12.5-10-6.65-10.16-5.61-23.14-1.53-24.13,3.73-18.48,12.39-13.76,12.39-4.72,15.24,1.28s-4.42-14-4.37-18.84,2.62-20.28,2.62-20.28l7.8-19.76,6.34-12.48,7.42-16,5-18.58,6.16-5.14H639.7l35.74-4.64,28-1.42,28.64,2.19,44.35,9.68,34.49,10.73,20.34,17,17.43,13.54L862,1206.76l8.64,21.86,3.43,20.58-1,19.72-3.56,13.81-6.32,12.6-6.8,10.61-6.57,7-5.16,4-1.94-3.38L840,1311v7.13L831.1,1344s-9.36,20.29-9.66,21.21S807.37,1390,807.37,1390l-14.2,24.93s-13.57,21.66-15.09,22.16-3.82,3.36-3.82,3.36l-17.48,17.44c-1.52,1.52-32.95,34.18-32.95,34.18l-32.94,18.07-19.84-5.07-22.82-20.74-9.13-7.67-9,31.45,2.55,33.14,7.41,17.43,8.77,4,9.18,5.58,28,28.21L704.64,1628l10.3,21.55,10.58,22,11,21.28,25,43.69,6.68-8.16,1.76-37.23-.68-31.76-.67-27.73L767.05,1608l-1.2-16.3-4.37-14.64,1.91-18.38,10.21-20.17,12.87-15.57,17.65-19.22,6.48-8.3,9.82-18.33,1.66-16,2.45-15-.14-18,.71-14.31,2.7-13.43,4.41-9.43s5.26-5.92,9.54-1.28l2.92-14.75,5.61-10.09,17.87,6,7,.09,12.56,6.71,10.68,15.9,7.36-11.32,6.49-1.74,9,7.29,4.45,16.09v31.88l.91,32L920.7,1488l-28.59,44.2-23.17,26.47-36.63,30.49-.12,16.31.75,19.08,5,51.44,3.47,24,11,62.7,5.73,30.57,10,58.33,4.78,36.88,7.45,43.77-4,38.19L873.14,2000l-6.59,6.42L839.67,2005l-48.09-19.81-53.05-38.89-25.46-26.88-20.51-23.34s-36.42-47.79-37.76-49.81-7.55,30.29-7.55,30.29L631,1929.35l-28.64,126.07-9.7,56.75-3.34,39.75,14.58,71.26,20.33,40,11,17.52,42.13,116.56,39.35,253.53.61,11.2H240.63Z"/><path d="M382,2652.23s19.18-84,37.84-111.9,37.68-60.55,37.68-60.55l41.08-48.23,33.95-32.16L579,2356.52l26.8-33.95,22.42-27.46,18.67-38.64,14.29-48.23,8.6-64.09L682.62,2110l28.58-35.73,50-35.73,33.94-21.44,34-21.44,40.91-36.9,18-22,18.12-40.82,17.61-55.65,12.5-51.8,19.65-50L984.53,1708l39.3-26.8,26-19.62,27.63-32.19,21.44-28.58,30.37-46.45,11.14-25.13,23.16-36.81,22.94-27.56,20-20,25.28-15.8,22.12-8.43,23.18-6.32s42.13,1.06,59,13.7l32.66-11.59,20-1,24.23,3.16,42.13,16.85,39,19,36.87,21.07,29.49,26.33,29.5,43.19,19,40,17.91,50.56,20,33.71,13.69,35.81,15.8,30.55,30.55,44.24,39,37.92,43.19,36.87,50.56,62.15,25.62,42,12.3,45.46,9.48,71.63,9.48,66.36,24.23,45.29,36.86,34.76,34.76,24.23,48.46,24.23,47.4,29.49,30.54,25.28,23.18,33.71,14.74,46.34,3.16,32.66,8.43,50.56,21.07,35.81,25.28,23.17,35.81,25.28,23.17,16.86,15.8,23.17L2300.9,2631l7.31,21.28,1.39,7.2H1629.31l-1.61-18.67-5.92-14.45-7.22-14.45-7.23-17.08-7.22-19.06-1.32-20.36,4.6-19.71,8.54-20.36-2-22.34-6.57-21.68-9.85-34.82-2-28.9,1.32-30.22v-30.22l-7.88-29.56-18.4-30.22-26.08-54.84-7-34.87,3.49-34.87,1-19.14-2.17-22.23-8.13-22.24-9.22-21.69-8.68-15.19-8.13-13.56-5.43-10.31v-14.1l13.56-7,24.41-8.68,17.72-8.44,11.91-13.5,7.94-17.47,4.77-15.88,4.76-18.27,3.18-14.29,3.18-15.89,11.91-23.82,4-17.47-7.94-22.23-14.3-23-18.26-23-14.86-19-6.53-5-4.16-3.17-3.76-.19-3.77,4.15-3.36.2-4.36-6.53,5.24-17.67-1.55-15.92-5.44-17.48-24.34-40.53-17-22.87-18.44-32.46-5.17-28.77-14.75-43.52-28.77-25.08-33.19-15.49-48.69-10.33-19.18,8.85-19.92,9.59-17,13.28-16.22,18.44L1238,1573.06l-11.8,29.51-11.81,34.67-11.8,46.48L1193,1744.2l-.74,53.86,3.69,57.54,9.88,6.29,9,13.91,12.12,4.49,7.63-2.69,10.78,25.13,16.15,21.1,13,11.67,2.69,17,6.29,52.52-15.71,9.43-12.12,5.38s-58.89,10.62-73.13,24.87-19.42,44-19.42,44l-1.3,44,6.47,37.56L1167,2211.8l-11.65,25.9-16.49,21.7-27.91,23.23-29.24,17.54-52.64,16.38-40.94,5.85-51.46,11.69-46.79,15.21-36.26,23.39-18.42,17.2s-7.34,22.77-10.09,28.73-9.17,31.2-9.17,31.2l-28.26,108.73-4.24,56-4.15,44.92H382.07Z"/><path class="cls-6" d="M1329.23,1495.71a204.89,204.89,0,0,1,44.85,6.55c14.64,4.06,29,10,41.69,18.91a104.53,104.53,0,0,1,31.49,33.9,84.89,84.89,0,0,1,8.72,21.86c1.84,7.67,2.59,15.33,3.56,22.7.46,3.68,1,7.32,1.67,10.85.38,1.76.74,3.51,1.27,5.22s.94,3.44,1.61,5.11a99.65,99.65,0,0,0,9.66,19.39c7.73,12.46,17.73,23.67,27,35.6a182.58,182.58,0,0,1,13.26,18.66,117,117,0,0,1,10,20.66,74.25,74.25,0,0,1,4.47,22.52c0,.95.07,1.91,0,2.87l-.18,2.86a46.92,46.92,0,0,1-.73,5.68c-.09.47-.14.94-.26,1.4l-.38,1.38-.75,2.74c-.58,1.81-1.35,3.54-2,5.29a52.62,52.62,0,0,0,2.09-22.08,73.94,73.94,0,0,0-5.89-21.23,113.68,113.68,0,0,0-10.8-19.29c-2.11-3-4.26-6-6.56-8.94-1.15-1.45-2.29-2.9-3.5-4.32s-2.39-2.87-3.61-4.28c-2.43-2.85-4.9-5.67-7.38-8.51s-4.91-5.73-7.34-8.64a204.84,204.84,0,0,1-13.84-18.32,101.91,101.91,0,0,1-10.63-20.83c-.74-1.82-1.24-3.74-1.83-5.63s-1-3.82-1.43-5.73c-.82-3.84-1.37-7.66-1.86-11.44-.92-7.55-1.6-14.92-3.23-21.9a81.39,81.39,0,0,0-7.74-20,91.76,91.76,0,0,0-12.47-17.73,116,116,0,0,0-16.1-14.81c-1.42-1.15-3-2.13-4.45-3.21s-3.08-2-4.62-3-3.16-1.89-4.77-2.78-3.21-1.81-4.88-2.61a156.5,156.5,0,0,0-20.5-8.6C1358.86,1501.07,1344.11,1498,1329.23,1495.71Z"/><path class="cls-6" d="M1204.62,1781.85c8.09,20.27,15.44,40.77,22.53,61.35,3.65,10.25,6.87,20.67,10.58,30.77a197.66,197.66,0,0,0,12.85,29.22,103.08,103.08,0,0,0,19.09,24.84l2.84,2.73c1,.87,2,1.71,3,2.57s2,1.75,3,2.53l3.17,2.39c4.25,3.17,8.73,6.06,13.27,8.88,18.42,10.94,38.71,18.92,58.8,27.4q-15.88-3.94-31.45-9.17c-2.59-.86-5.16-1.82-7.73-2.79s-5.11-2-7.66-3-5-2.23-7.56-3.35-5-2.46-7.43-3.68-4.87-2.64-7.25-4.08l-3.54-2.21-1.76-1.12-1.72-1.21-3.42-2.41c-1.16-.78-2.21-1.71-3.32-2.56s-2.21-1.73-3.29-2.62l-3.14-2.82a106.3,106.3,0,0,1-11.54-12.35,110.68,110.68,0,0,1-9.32-14.08,177.09,177.09,0,0,1-13-30.63c-1.71-5.23-3.3-10.47-4.85-15.69s-3.06-10.45-4.54-15.69C1215.31,1824.11,1209.59,1803.1,1204.62,1781.85Z"/><path class="cls-6" d="M1198.73,1855.83a14.34,14.34,0,0,1,6.54,3.31,33.11,33.11,0,0,1,4.89,5.35c1.4,1.86,2.65,3.79,3.85,5.41.63.82,1.22,1.65,1.87,2.38a20.77,20.77,0,0,0,1.95,2.1,13.69,13.69,0,0,0,2,1.71,9.21,9.21,0,0,0,2.08,1.21,10.87,10.87,0,0,0,1.08.41c.37.07.78.21,1,.22a4,4,0,0,0,1.93-.12,9.13,9.13,0,0,0,1.11-.38c.35-.21.74-.38,1.09-.63a8.08,8.08,0,0,0,2-1.78,5,5,0,0,0,.82-5.53,5,5,0,0,1,2.59,2.83,7.28,7.28,0,0,1,.17,4.21,11.06,11.06,0,0,1-.68,2,12.2,12.2,0,0,1-1.09,1.84,10.82,10.82,0,0,1-3.22,3,12.62,12.62,0,0,1-2.12,1,10.1,10.1,0,0,1-2.47.48,10.85,10.85,0,0,1-2.37,0,16.5,16.5,0,0,1-2.2-.45,17.27,17.27,0,0,1-7.22-4.36,27.12,27.12,0,0,1-4.62-6.13,56.09,56.09,0,0,1-2.92-6.36C1203.08,1863.42,1201.75,1859.57,1198.73,1855.83Z"/><path d="M1206.58,1688a3.26,3.26,0,0,1,.25,1.58,1.54,1.54,0,0,1-.42.87,1.23,1.23,0,0,1-1.19.27,1.51,1.51,0,0,1-1-.78,1.1,1.1,0,0,1,0-1,1.48,1.48,0,0,1,.28-.37l.13-.14,1-1.13c1.38-1.5,2.81-3,4.29-4.37a71.51,71.51,0,0,1,9.61-7.86,49.73,49.73,0,0,1,5.5-3.21c1-.5,2-.92,3-1.35s2-.8,3.08-1.11c.52-.16,1-.34,1.57-.48l1.61-.39c1.08-.25,2.17-.44,3.26-.59a47.66,47.66,0,0,1,6.5-.4c2.15,0,4.26.18,6.34.4s4.12.54,6.13.9c4,.72,7.92,1.51,11.86,2.39a196.39,196.39,0,0,1,23.4,6.56,196.26,196.26,0,0,1-24.29-.59c-4-.29-8-.72-12-1.15-2-.2-3.91-.43-5.83-.56s-3.82-.27-5.69-.27a41.46,41.46,0,0,0-10.88,1.17,53.2,53.2,0,0,0-10.52,3.9c-3.47,1.67-6.9,3.61-10.35,5.63-1.73,1-3.46,2-5.23,3l-1.33.75-.16.09a.37.37,0,0,1,0-.09c0-.11,0-.28,0-.28s0,.14.09.21.15.13.24.13a.77.77,0,0,0,.39-.37A3.56,3.56,0,0,0,1206.58,1688Z"/><path d="M1360.25,1661.36a.38.38,0,0,1,.21.42.75.75,0,0,1-.28.42,1.06,1.06,0,0,1-1.07.22,1.69,1.69,0,0,1-.47-2.14,5.14,5.14,0,0,1,.45-.91l.48-.76,1-1.54a54.48,54.48,0,0,1,4.39-5.77,75,75,0,0,1,10.58-10,120.08,120.08,0,0,1,11.9-8.17c4.1-2.49,8.2-4.8,12.49-7,2.16-1.08,4.35-2.12,6.6-3.09s4.56-1.82,6.93-2.55a57.9,57.9,0,0,1,7.27-1.76c1.23-.22,2.48-.38,3.73-.51s2.53-.17,3.8-.17a37.3,37.3,0,0,1,14.71,2.86,25.94,25.94,0,0,1,11.39,9.06c-7.76-5.68-17.08-7-25.75-5.9s-17,4.75-25.2,8.9c-2.06,1-4.11,2.12-6.18,3.21l-6.18,3.26c-4.1,2.19-8.14,4.42-12.08,6.81a116.93,116.93,0,0,0-11.42,7.75c-1.86,1.39-3.6,2.9-5.38,4.43l-1.29,1.19-.65.6a3.94,3.94,0,0,0-.52.57,1.68,1.68,0,0,0-.32.58.66.66,0,0,0,.05.5.62.62,0,0,0,.61,0C1360.25,1661.87,1360.49,1661.62,1360.25,1661.36Z"/><path d="M1380.73,1689.25a99.21,99.21,0,0,0,21.43.56,89.8,89.8,0,0,0,39-12.93,99.33,99.33,0,0,0,16.87-13.21,46.69,46.69,0,0,1-13.3,18.08,60.17,60.17,0,0,1-42.58,14.07A46.86,46.86,0,0,1,1380.73,1689.25Z"/><path d="M1233.61,1726a90.58,90.58,0,0,0,18.2.66,78.91,78.91,0,0,0,33.19-10,91.61,91.61,0,0,0,14.83-10.56,37.69,37.69,0,0,1-11.37,15.51,49.54,49.54,0,0,1-36.81,11A37.78,37.78,0,0,1,1233.61,1726Z"/><path class="cls-6" d="M1325.41,1688.13c.17.07.38.1.44,0a.63.63,0,0,0,0-.45,1.32,1.32,0,0,0-.52-.76c-.21-.08-.25,0-.46.26a1.2,1.2,0,0,0-.17.75c.07,1.17,1,2.34,1.73,3.68s1.49,2.63,2.23,4l1.94,4.1a102.14,102.14,0,0,1,6,17.18,136.44,136.44,0,0,1,3.34,17.85c.42,3,.64,6,.93,9s.4,6,.51,9c.49,12,.16,23.9-.2,35.73a17.6,17.6,0,0,0,.14,3.69,4.2,4.2,0,0,0,1.31,2.4,16.31,16.31,0,0,0,3.2,2.17c1.23.7,2.49,1.36,3.79,1.95a56,56,0,0,0,8.14,3,60.27,60.27,0,0,0,8.7,1.68,41.94,41.94,0,0,1-4.49.5c-1.52.07-3,0-4.56,0a43.52,43.52,0,0,1-9.1-1.48,44.06,44.06,0,0,1-4.43-1.45,19.81,19.81,0,0,1-4.5-2.27,9.39,9.39,0,0,1-2.17-2.11,10.16,10.16,0,0,1-1.41-2.76,20.31,20.31,0,0,1-.84-5.14c-.79-11.93-1-23.79-1.48-35.54-.22-5.88-.5-11.73-1-17.55-.18-2.92-.55-5.81-.8-8.71l-.55-4.34-.27-2.17-.35-2.15a153.13,153.13,0,0,0-3.54-17.13l-1.16-4.25c-.45-1.39-.92-2.79-1.35-4.2l-.69-2.17a5.52,5.52,0,0,1-.24-2.55,2.22,2.22,0,0,1,.7-1.25c.09-.08.2-.14.29-.21a1.66,1.66,0,0,1,.39-.15,1,1,0,0,1,.82.25,1.78,1.78,0,0,1,.45,1.2.81.81,0,0,1-.2.6C1325.76,1688.39,1325.54,1688.23,1325.41,1688.13Z"/><path class="cls-6" d="M1315.07,1878.64c10.83-3.17,21.65-5.82,32.44-8.52l32.35-7.92,32.36-7.91c10.82-2.59,21.64-5.23,32.71-7.41a235.24,235.24,0,0,1-30.93,13.37,333.74,333.74,0,0,1-65.32,16A238.74,238.74,0,0,1,1315.07,1878.64Z"/><path class="cls-6" d="M1494.47,1776.85a8.8,8.8,0,0,0-7-2.13,13.37,13.37,0,0,0-6.8,3,12.88,12.88,0,0,0-4.23,6,15.84,15.84,0,0,0-.38,7.34c.84,4.91,3.48,9.36,6.65,13.2s7.12,7.12,10.86,10.64c1.87,1.77,3.71,3.6,5.43,5.58a39.75,39.75,0,0,1,4.51,6.49,36.19,36.19,0,0,1,4.34,15.21,41.29,41.29,0,0,1-.27,7.94,48.53,48.53,0,0,1-1.59,7.74,61.57,61.57,0,0,1-2.59,7.43c-1,2.43-2.15,4.77-3.38,7.08a112.36,112.36,0,0,1-18.69,24.89,295.12,295.12,0,0,1-23.09,20.56,317,317,0,0,1-51.69,33.77c-9.13,4.75-18.36,9.13-27.31,13.85s-17.7,9.72-25.45,15.86a86.07,86.07,0,0,0-10.83,10,72.62,72.62,0,0,0-4.57,5.67c-.68,1-1.44,1.94-2.08,3l-1.85,3.11c-4.83,8.36-7.36,18-8.85,27.77s-2,20-2.6,30.17l-1.87,30.59-3.64,61.17c-4.91,81.55-9.21,163.11-11.47,244.74-1.13,40.81-1.76,81.64-1.53,122.48s1.06,81.67,2.66,122.51c-3.36-40.73-5.35-81.58-6.55-122.45l-.37-15.33c-.13-5.11-.26-10.22-.3-15.33l-.37-30.67V2428c0-10.22.19-20.44.28-30.66s.3-20.45.51-30.67.45-20.44.79-30.66.58-20.43,1-30.65l1.15-30.64c1.75-40.85,4-81.67,6.32-122.47l3.82-61.18,2-30.59c.68-10.16,1.15-20.47,2.83-30.84a110.24,110.24,0,0,1,3.55-15.45,70.5,70.5,0,0,1,6.44-14.73l2.1-3.45c.72-1.14,1.56-2.19,2.34-3.28a77.92,77.92,0,0,1,5.09-6.22,95.71,95.71,0,0,1,11.8-10.65c2-1.67,4.26-3.08,6.4-4.61,1.09-.73,2.2-1.41,3.3-2.12s2.2-1.41,3.33-2l3.36-2c1.12-.65,2.27-1.25,3.4-1.88,2.26-1.28,4.56-2.43,6.86-3.62,9.19-4.68,18.48-8.92,27.55-13.46a320.17,320.17,0,0,0,51.3-32.35,290.17,290.17,0,0,0,23.08-19.7,109.41,109.41,0,0,0,18.51-23.57,73.18,73.18,0,0,0,3.4-6.66,58.52,58.52,0,0,0,2.64-7,46,46,0,0,0,1.68-7.21,37.61,37.61,0,0,0,.44-7.34,32.93,32.93,0,0,0-3.63-14.11,46.87,46.87,0,0,0-9.12-11.76c-3.57-3.59-7.42-7-10.65-11.14s-5.8-8.84-6.51-14.09a16.93,16.93,0,0,1,.7-7.8,14.44,14.44,0,0,1,11.85-9A9,9,0,0,1,1494.47,1776.85Z"/><path class="cls-6" d="M1504.06,1786.16a95.79,95.79,0,0,1,17.2,12.95,133.75,133.75,0,0,1,14.48,15.89,132,132,0,0,1,11.75,18,94.47,94.47,0,0,1,8.21,19.9c-4.81-5.42-9.1-11-13.42-16.51l-12.8-16.55-12.79-16.54C1512.44,1797.72,1508.11,1792.17,1504.06,1786.16Z"/><path class="cls-6" d="M1552.48,1853.19a2.11,2.11,0,0,1,1.24.41,3,3,0,0,1,.86,1.14,6.35,6.35,0,0,1,.45,2.74,8.94,8.94,0,0,1-.13,1.36c-.07.45-.21,1-.3,1.32l-.62,2.35c-.85,3.12-1.81,6.2-2.84,9.25q-3.12,9.12-7,17.89t-8.59,17.2a122.7,122.7,0,0,1-10.66,16.28,122.91,122.91,0,0,1,5-18.81q3.12-9.13,7.05-17.89c2.61-5.85,5.46-11.58,8.6-17.2,1.58-2.8,3.22-5.57,5-8.29l1.34-2c.24-.36.42-.59.6-.91a7.73,7.73,0,0,0,.49-1,5.69,5.69,0,0,0,.55-2,2.16,2.16,0,0,0-.17-1A2.1,2.1,0,0,0,1552.48,1853.19Z"/><path class="cls-6" d="M1501.46,1780.57a54.71,54.71,0,0,1-.75-7.71,19.56,19.56,0,0,1,1.46-7.86,13.36,13.36,0,0,1,5.65-6.19,10.4,10.4,0,0,1,4.34-1.28,9.8,9.8,0,0,1,4.58.89,20.94,20.94,0,0,1,6.53,5.38l5.15,5.71c3.43,3.8,6.81,7.65,10.19,11.49q10.13,11.54,20.07,23.23l9.91,11.72c3.28,3.93,6.57,7.8,9.84,11.92,1.61,2.06,3.19,4.17,4.69,6.39a72.07,72.07,0,0,1,4.21,6.9,49.82,49.82,0,0,1,3.31,7.57,36.8,36.8,0,0,1,1.9,8.25,35.28,35.28,0,0,1,0,8.53,42.35,42.35,0,0,1-1.92,8.12,89.78,89.78,0,0,1-6.66,14.43c-9.91,17.94-20,35.75-30.82,53.19,7.87-19,16.5-37.54,25.28-56a93.94,93.94,0,0,0,5.54-13.69,39.09,39.09,0,0,0,1.36-6.86,27.39,27.39,0,0,0-.18-6.77,31.89,31.89,0,0,0-1.69-6.64,42.5,42.5,0,0,0-3-6.41,65.55,65.55,0,0,0-3.83-6.17c-1.38-2-2.89-4-4.42-6-3.07-3.93-6.4-7.86-9.62-11.83l-9.67-11.92q-9.63-12-19.08-24c-3.15-4-6.3-8.07-9.39-12.15l-4.65-6.11a18.13,18.13,0,0,0-4.79-4.82,6.23,6.23,0,0,0-2.81-.89,7.16,7.16,0,0,0-3,.57,11.24,11.24,0,0,0-5.05,4.46,17.94,17.94,0,0,0-2.22,6.93A64.09,64.09,0,0,0,1501.46,1780.57Z"/><path class="cls-6" d="M1531.77,1775.42a2.92,2.92,0,0,1-1.32-1.28,3.71,3.71,0,0,1-.31-1.89,6.18,6.18,0,0,1,1.63-3.5,5.21,5.21,0,0,1,3.72-1.72,8.53,8.53,0,0,1,4,.89,21.57,21.57,0,0,1,6,4.79l5,5.24c6.65,7.07,13.25,14.21,19.51,21.69,12.54,14.91,24,31.14,32.15,49.26,1.07,2.23,1.93,4.57,2.89,6.86a34,34,0,0,1,2.37,7.79,16,16,0,0,1,0,4.74,20,20,0,0,1-1.2,4.31,39.53,39.53,0,0,1-1.67,3.63l-1.68,3.23c-2.24,4.26-4.37,8.57-6.54,12.86s-4.25,8.64-6.3,13c-8.31,17.39-15.88,35.14-23.34,53.08a370.2,370.2,0,0,1,17.64-55.57c3.62-9,7.6-18,11.84-26.72,1-2.23,2.2-4.36,2.89-6.24a12.6,12.6,0,0,0,.7-2.69,8,8,0,0,0,0-2.49,27.37,27.37,0,0,0-2-6c-.92-2.17-1.75-4.38-2.78-6.51-7.76-17.25-18.34-33.24-29.8-48.66q-8.61-11.58-17.58-23l-4.42-5.76a21.14,21.14,0,0,0-4.74-4.87,6.68,6.68,0,0,0-3-1.11,3.79,3.79,0,0,0-2.85.89,5.39,5.39,0,0,0-1.84,2.74,3.26,3.26,0,0,0,0,1.67A2.81,2.81,0,0,0,1531.77,1775.42Z"/><path class="cls-6" d="M1596.18,1875.51l-5.81,25-5.9,24.93-6,24.92-3,12.46c-1,4.17-2.11,8.35-3.49,12.48a66.51,66.51,0,0,1-5.29,12.08,51,51,0,0,1-3.71,5.58,44.7,44.7,0,0,1-4.57,5,53.78,53.78,0,0,1-10.84,7.78,102.3,102.3,0,0,1-11.88,5.56c-4,1.61-8.06,3.08-12,4.54s-8,3-11.91,4.54q-11.87,4.67-23.51,9.84t-23,10.86a176.75,176.75,0,0,0-21.83,12.4,67.78,67.78,0,0,0-17.49,16.75,61.09,61.09,0,0,0-9.19,22.2,155.36,155.36,0,0,0-3,24.79c-.46,8.41-.54,16.86-.33,25.3a487.29,487.29,0,0,0,4.26,50.63q1.63,12.63,3.58,25.27l4,25.24,4.37,25.2,4.68,25.13c1.65,8.36,3.21,16.74,5,25.09l2.6,12.52,1.31,6.26,1.37,6.24c1.86,8.32,3.64,16.66,5.61,24.95s3.8,16.62,5.87,24.89c16.1,66.29,35.46,131.79,57.56,196.46a1679.75,1679.75,0,0,1-63.55-195q-6.55-24.81-12.25-49.84l-1.45-6.25L1435,2333l-2.76-12.53c-1.83-8.36-3.49-16.75-5.24-25.13s-3.23-16.8-4.85-25.21l-4.47-25.27-4.13-25.34c-1.32-8.46-2.58-16.94-3.69-25.45a493.16,493.16,0,0,1-4.13-51.46c-.19-8.62-.08-17.27.42-25.91a152.87,152.87,0,0,1,3.3-26A68.55,68.55,0,0,1,1420,2066a74.59,74.59,0,0,1,19.47-18.32,178.78,178.78,0,0,1,22.83-12.63q11.64-5.54,23.5-10.56t23.92-9.51q6-2.25,12.11-4.36c4.05-1.42,8.09-2.74,12-4.22a96,96,0,0,0,11.44-5,49,49,0,0,0,10.1-6.86c6.14-5.31,10.1-12.75,13-20.57,1.45-3.92,2.65-8,3.79-12.07l3.39-12.35,6.8-24.7,6.86-24.69Z"/><path class="cls-6" d="M1470.84,2442.31c7.1-11.65,14.86-22.77,22.75-33.79s16.11-21.76,24.53-32.39,17.2-21,26.58-30.92a229.49,229.49,0,0,1,30.42-27.27c-8.76,10.45-17.35,20.8-25.74,31.35l-25.07,31.76q-12.6,15.88-25.85,31.32C1489.57,2422.6,1480.53,2432.71,1470.84,2442.31Z"/><path class="cls-6" d="M1275,1945.41a106.42,106.42,0,0,1,10.49,31.46,129.2,129.2,0,0,1-5.92,66.05,105.77,105.77,0,0,1-15.93,29.08,255.54,255.54,0,0,0,10-30.92,204.69,204.69,0,0,0,5.71-63.47A255.24,255.24,0,0,0,1275,1945.41Z"/><path class="cls-6" d="M1283.3,1999.21a18.79,18.79,0,0,1-6.14,10.72,50.71,50.71,0,0,1-10.47,7c-3.66,2-7.4,3.76-10.92,5.78a39.47,39.47,0,0,0-9.46,7.1,29.27,29.27,0,0,0-3.43,4.62,33.67,33.67,0,0,0-2.49,5.25,60.32,60.32,0,0,0-2.92,11.55c-.64,4-1.13,8.07-1.66,12.17s-1,8.18-1.51,12.28c-1.91,16.38-3.66,32.75-4.63,49.15a452.67,452.67,0,0,0-.7,49.13,314,314,0,0,0,5.57,48.6,252.15,252.15,0,0,0,14.06,46.75c.73,1.9,1.63,3.73,2.44,5.6l1.25,2.8c.41.93.83,1.86,1.3,2.76,1.86,3.63,3.59,7.33,5.64,10.86l3,5.35,3.24,5.2,1.63,2.6c.56.85,1.16,1.68,1.74,2.52l3.51,5a178.68,178.68,0,0,0,34.13,35.38,158.13,158.13,0,0,1-37.2-33,198.43,198.43,0,0,1-26.32-42.63c-1.65-3.86-3.46-7.65-4.9-11.59l-2.23-5.87-2-6c-1.39-4-2.43-8-3.62-12-.6-2-1-4.06-1.54-6.09s-1.05-4.07-1.45-6.12c-.83-4.11-1.72-8.22-2.31-12.36l-1-6.21-.78-6.23c-.58-4.15-.86-8.32-1.28-12.48-.19-2.09-.29-4.17-.43-6.26s-.31-4.17-.35-6.26c-.11-4.17-.29-8.35-.26-12.52,0-2.09,0-4.17,0-6.26l.13-6.25c0-2.09.09-4.17.19-6.25l.26-6.25c.26-4.15.46-8.31.83-12.46s.7-8.29,1.16-12.42.89-8.26,1.38-12.39,1-8.23,1.59-12.35,1.2-8.2,1.86-12.3,1.28-8.18,2-12.27,1.31-8.18,2.23-12.32a65.39,65.39,0,0,1,3.79-12.28,39.05,39.05,0,0,1,3.13-5.79,31.65,31.65,0,0,1,4.24-5.09,43,43,0,0,1,10.77-7.07c3.79-1.85,7.63-3.4,11.4-5a50.69,50.69,0,0,0,10.65-5.91,21,21,0,0,0,4.26-4.31A17.56,17.56,0,0,0,1283.3,1999.21Z"/><path class="cls-6" d="M1440.14,2319.78c14.77-15.39,26-33.36,34.85-52.35s15.34-39.07,21.09-59.36,10.49-40.78,12.1-61.64c.19-2.6.29-5.21.44-7.82l.1-7.83c0-2.61-.18-5.22-.26-7.83s-.48-5.2-.7-7.82a124.27,124.27,0,0,0-7.42-30.67,101.37,101.37,0,0,1,11.25,30.05c.48,2.65,1,5.31,1.39,8s.66,5.37.91,8.06.35,5.39.44,8.09.05,5.4,0,8.1c-.5,21.64-4.84,42.92-10.66,63.49s-13.06,40.93-23.19,60c-1.29,2.37-2.63,4.7-3.94,7s-2.8,4.61-4.23,6.88-3,4.45-4.55,6.67-3.23,4.31-4.85,6.45A130.37,130.37,0,0,1,1440.14,2319.78Z"/><path class="cls-6" d="M1497.58,2024.21c.25.13.36,0,.34-.24a.71.71,0,0,0-.15-.48s-.09,0-.1,0,0,0-.11.08a.56.56,0,0,0-.21.3,2.92,2.92,0,0,0-.21,1l-.05,1.34c-.06,1.83-.25,3.61-.31,5.41-.22,3.59-.46,7.14-.62,10.68-.38,7.08-.63,14.11-.71,21.14s0,14.07.2,21.16.55,14.21.63,21.59a82.11,82.11,0,0,1-6.81-20.9,108.39,108.39,0,0,1-1.93-21.94,109.52,109.52,0,0,1,2.48-21.89,92.56,92.56,0,0,1,3-10.6c.57-1.74,1.27-3.45,2-5.14l.54-1.29a4,4,0,0,1,1-1.39,1.65,1.65,0,0,1,.92-.38,1.13,1.13,0,0,1,.56.11.77.77,0,0,1,.37.44,1.11,1.11,0,0,1-.09.85.57.57,0,0,1-.3.29A.32.32,0,0,1,1497.58,2024.21Z"/><path class="cls-6" d="M1495.77,2038.53c3.73,5.85,7.47,11.7,11.11,17.62s7.14,11.92,10.45,18c1.71,3,3.26,6.16,4.86,9.26s3.07,6.26,4.43,9.48a184.76,184.76,0,0,1,7.51,19.61l1.51,5.05c.47,1.69.86,3.41,1.29,5.11l.63,2.57.49,2.6c.32,1.73.69,3.46,1,5.2.45,3.5,1,7,1.17,10.54a104.17,104.17,0,0,1,.34,10.6c-.15,14.13-2.36,27.94-3,41.58a118.43,118.43,0,0,0,.56,20.23c.07.83.22,1.65.36,2.47l.4,2.46c.32,1.64.76,3.24,1.13,4.86l.58,2.43.78,2.38c.54,1.58,1,3.17,1.61,4.74,1.31,3.09,2.49,6.23,4.07,9.23l1.11,2.27.56,1.13.62,1.12,2.48,4.45c3.45,5.87,7.12,11.64,11,17.37s7.77,11.49,11.53,17.42a197.29,197.29,0,0,1,10.57,18.37l2.31,4.84c.74,1.63,1.37,3.32,2.06,5l1,2.5c.3.85.56,1.72.84,2.58.54,1.72,1.12,3.43,1.63,5.17a120,120,0,0,1,3.43,21.28c.85,14.26-.33,28.3-1.27,42.08-.45,6.9-.9,13.76-.91,20.56-.1,3.42.1,6.79.18,10.17.3,3.35.44,6.73,1,10,.35,3.34,1.14,6.58,1.81,9.84s1.77,6.45,2.9,9.65c2.21,6.41,4.89,12.78,7.38,19.34,1.23,3.29,2.46,6.61,3.49,10a86.75,86.75,0,0,1,2.61,10.48l.43,2.69c.15.9.2,1.82.3,2.72.23,1.82.22,3.66.29,5.49,0,.92-.06,1.84-.08,2.75s0,1.84-.17,2.74c-.21,1.81-.37,3.63-.72,5.4a142.54,142.54,0,0,1-5.5,20.5,200.82,200.82,0,0,0-5.74,19.7c-.4,1.64-.62,3.3-.91,4.95-.15.82-.19,1.65-.29,2.48s-.23,1.66-.22,2.48a55.24,55.24,0,0,0,.34,10,76.72,76.72,0,0,0,2.08,9.85c.95,3.25,2.08,6.46,3.32,9.65,5,12.74,12.06,24.81,17.33,37.77a97.77,97.77,0,0,1,3.49,9.91,61,61,0,0,1,2.17,10.28,47.19,47.19,0,0,1,.11,10.49,44.55,44.55,0,0,1-2.39,10.14A44.93,44.93,0,0,0,1629,2660a47.09,47.09,0,0,0-.7-10.27,61.1,61.1,0,0,0-2.61-9.94,95,95,0,0,0-3.88-9.55c-5.78-12.51-13.21-24.27-18.9-37.15q-2.12-4.84-3.78-9.92a79.15,79.15,0,0,1-2.53-10.42,60.94,60.94,0,0,1-.71-10.81c0-.91.11-1.8.15-2.7s.11-1.81.24-2.69c.25-1.78.44-3.58.81-5.32a184.64,184.64,0,0,1,5.37-20.39,135.29,135.29,0,0,0,4.85-19.77c.29-1.64.4-3.29.55-4.93.1-.82.07-1.63.1-2.45s.06-1.64,0-2.45c-.1-1.63-.12-3.26-.37-4.89-.11-.82-.17-1.63-.32-2.44l-.45-2.44a112.29,112.29,0,0,0-6-19.24c-2.52-6.38-5.31-12.76-7.72-19.44-1.22-3.32-2.3-6.75-3.22-10.24s-1.67-7-2.1-10.58c-.63-3.55-.83-7.11-1.14-10.67-.11-3.55-.33-7.11-.25-10.64,0-7.07.42-14.07.84-21s.92-13.83,1.21-20.69a203.32,203.32,0,0,0-.12-20.37,112.43,112.43,0,0,0-3.08-19.77c-.47-1.59-1-3.17-1.48-4.76-.26-.79-.49-1.59-.76-2.37l-.93-2.33c-.63-1.55-1.2-3.12-1.89-4.65l-2.16-4.56c-6-12.13-13.83-23.43-21.41-35.11-3.82-5.81-7.53-11.8-11-17.93l-2.52-4.68-.63-1.17-.58-1.21-1.15-2.41c-1.61-3.17-2.84-6.55-4.19-9.87-.6-1.69-1.11-3.42-1.66-5.13l-.81-2.58-.6-2.64c-.38-1.76-.83-3.51-1.15-5.29s-.58-3.57-.72-5.36a123.73,123.73,0,0,1-.13-21.34c1-14.06,3.39-27.72,4-41.36a101.86,101.86,0,0,0,0-10.19c0-3.4-.49-6.78-.81-10.17-.21-1.7-.52-3.37-.78-5.06l-.4-2.53-.53-2.51c-.37-1.66-.7-3.34-1.1-5l-1.31-5a180,180,0,0,0-6.61-19.52c-1.21-3.22-2.67-6.35-4-9.53s-2.85-6.3-4.41-9.39c-3-6.23-6.25-12.35-9.54-18.45S1499.17,2044.58,1495.77,2038.53Z"/><path class="cls-6" d="M1604.5,2594.07a.61.61,0,0,0,.1.8,1.41,1.41,0,0,0,.75.32,1.3,1.3,0,0,0,.75-.1c.21-.11.26-.23.25-.37.12-.74-1-1.31-1.76-1.15a1.24,1.24,0,0,0-.49.21,3.27,3.27,0,0,0-.51.41,5.4,5.4,0,0,0-.88,1.22c-.53,1-1.14,2.22-1.73,3.35-1.21,2.31-2.42,4.61-3.73,6.86s-2.6,4.51-4,6.72a242.41,242.41,0,0,1-39.28,48.33,180.37,180.37,0,0,1-24.3,19.57c6.5-8.18,13.2-16,19.78-23.84s13.13-15.7,19.59-23.62,12.79-15.92,19.12-24l9.52-12.12c.84-1,1.54-2,2.53-3.11a5.43,5.43,0,0,1,4.4-2.16,3.7,3.7,0,0,1,2.29,1.16,2.36,2.36,0,0,1,.53,2.57,1.45,1.45,0,0,1-1.15.83,2,2,0,0,1-1.15-.19,1.76,1.76,0,0,1-.84-.71.88.88,0,0,1-.09-.55A.92.92,0,0,1,1604.5,2594.07Z"/><path class="cls-6" d="M831.11,2403.16c-7.82,28.05-15.88,56-23,84.07s-13.4,56.39-18,84.93a576.63,576.63,0,0,0-7.72,86.19,441.93,441.93,0,0,0,7.63,86.42c-8.65-27.84-12.9-57.09-13.8-86.35a459.6,459.6,0,0,1,6.08-87.52,673.71,673.71,0,0,1,19.88-85.3C810.47,2457.64,820.19,2430.16,831.11,2403.16Z"/><path class="cls-6" d="M1058.41,2318.59c-5.79,21.53-11.67,42.94-17.18,64.43s-10.59,43.05-15.41,64.71-9.78,43.46-16.54,64.83-15.38,42.29-27.67,61c9.38-20.24,16.18-41.28,21.74-62.66s9.84-43.14,14.76-64.86,10.55-43.36,17.21-64.65A630.14,630.14,0,0,1,1058.41,2318.59Z"/><path class="cls-6" d="M900.33,2565.33c77.26,15.05,153,36.84,229.6,54.29,38.28,8.73,76.8,16.32,115.65,21.36l7.28,1c2.42.34,4.86.54,7.29.82l14.6,1.57c9.73,1,19.5,1.71,29.3,2.42,19.58,1.4,39.29,2.63,59,5,9.84,1.21,19.66,2.72,29.42,4.66,2.43.52,4.87,1,7.3,1.55l7.27,1.72c4.83,1.25,9.62,2.55,14.36,4,19,5.56,37.5,12,56.51,14.81a138.12,138.12,0,0,0,28.69,1.33c9.66-.46,19.39-1.58,29.22-2.5,4.92-.46,9.87-.88,14.85-1.13,2.49-.1,5-.24,7.47-.27l3.74-.06,3.73,0c10,.08,19.88.78,29.74,1.82a510,510,0,0,1,58.41,10.26c9.62,2.26,19.2,4.79,28.64,7.79a242.33,242.33,0,0,1,27.76,10.69c2.24,1.07,4.49,2.12,6.68,3.28,1.1.57,2.22,1.12,3.31,1.72l3.25,1.8c2.18,1.19,4.28,2.53,6.42,3.78s4.2,2.66,6.22,4.1a146,146,0,0,1,22.66,19.22,131.7,131.7,0,0,1,18,23.51,117.23,117.23,0,0,1,11.7,27.08,116.77,116.77,0,0,0-12.71-26.45,130.91,130.91,0,0,0-18.57-22.6,149.15,149.15,0,0,0-22.81-18.21c-2-1.36-4.14-2.56-6.2-3.85s-4.22-2.43-6.39-3.53l-3.24-1.68c-1.09-.56-2.2-1.06-3.29-1.59-2.18-1.09-4.42-2.05-6.64-3a242,242,0,0,0-27.5-9.89c-9.36-2.75-18.86-5-28.43-7.07-19.17-4-38.49-7.39-57.9-9.18-9.71-.87-19.44-1.41-29.15-1.33-4.85,0-9.7.18-14.54.46s-9.68.74-14.55,1.24c-9.73,1-19.54,2.23-29.52,2.8-5,.29-10,.4-15.07.24-2.53-.06-5-.29-7.57-.47-1.26-.1-2.51-.27-3.76-.4s-2.51-.28-3.75-.48c-5-.67-9.91-1.68-14.79-2.75s-9.69-2.36-14.47-3.7c-9.55-2.67-18.94-5.64-28.33-8.35-4.69-1.38-9.38-2.64-14.08-3.84l-7.09-1.65c-2.37-.53-4.75-1-7.13-1.49-9.53-1.87-19.16-3.31-28.85-4.49-19.36-2.4-38.93-3.69-58.57-5.15s-39.35-3.32-58.89-6.08l-14.66-2.09-14.6-2.45c-9.75-1.55-19.41-3.53-29.1-5.37-4.85-.89-9.66-2-14.48-3s-9.65-2-14.46-3.09L1142.9,2629c-4.8-1.11-9.6-2.23-14.38-3.43-9.56-2.36-19.12-4.7-28.64-7.2l-14.29-3.7-14.26-3.82q-28.5-7.69-56.91-15.58C976.52,2584.8,938.58,2574.52,900.33,2565.33Z"/><path class="cls-6" d="M1324.51,1500.41a127.06,127.06,0,0,0-18.43,7.15,134,134,0,0,0-17,10,147.94,147.94,0,0,0-15.32,12.37,160.18,160.18,0,0,0-13.56,14.26,181.76,181.76,0,0,0-21.75,32.68,249.33,249.33,0,0,0-15.33,36.2c-8.46,24.86-13.87,50.72-18.45,76.61a689.83,689.83,0,0,0-8.64,157.19c.71,13.12,2,26.2,3.44,39.26.83,6.51,1.6,13,2.56,19.54l2.85,19.62a335.6,335.6,0,0,1,3.66,39.87c.26,13.44-.81,27.1-4.3,40.32a137.74,137.74,0,0,1-6.69,19.22c-2.66,6.19-5.58,12.22-8.58,18.14-6,11.82-12.26,23.37-16.94,35.36s-7.53,24.38-7.41,37.2c-.07,3.19.13,6.41.27,9.63s.49,6.45.88,9.69c.7,6.47,1.64,13,2.57,19.52,1.83,13.09,3.55,26.51,2.88,40.18a100.15,100.15,0,0,1-10.37,39.53,123.58,123.58,0,0,1-24.09,32.74,173,173,0,0,1-32,24.56,216.88,216.88,0,0,1-36.21,17.43c-6.27,2.34-12.65,4.43-19.08,6.21-3.22.86-6.43,1.78-9.65,2.59l-9.7,2.34c-25.92,5.92-52.08,9.79-77.86,15.06-12.89,2.64-25.68,5.65-38.22,9.47l-4.69,1.48c-1.56.5-3.13,1-4.66,1.55-3.07,1.13-6.18,2.17-9.22,3.37s-6.07,2.46-9.08,3.74l-4.44,2-4.37,2.19a162.73,162.73,0,0,0-32.25,22.1,145.1,145.1,0,0,0-25.73,29.5,106.61,106.61,0,0,0-15.33,35.95,82.38,82.38,0,0,0,1,39.1,83.09,83.09,0,0,1-2.13-39.33,107.88,107.88,0,0,1,14.65-36.89,144.3,144.3,0,0,1,25.53-30.6,166.23,166.23,0,0,1,32.48-23.26l4.44-2.33,4.53-2.16c3-1.35,6.12-2.64,9.18-4s6.21-2.38,9.32-3.58c1.55-.61,3.14-1.12,4.71-1.65l4.74-1.58c12.66-4.09,25.56-7.34,38.5-10.2,25.89-5.74,52-9.83,77.53-16l9.53-2.43c3.17-.83,6.3-1.77,9.45-2.65,6.28-1.82,12.43-3.91,18.51-6.26a211.72,211.72,0,0,0,35-17.15,165.64,165.64,0,0,0,30.54-23.75,116,116,0,0,0,22.45-30.94,93.6,93.6,0,0,0,9.46-36.61c.6-12.75-1-25.68-2.91-38.71-.93-6.52-1.9-13.1-2.64-19.75-.41-3.32-.66-6.68-.93-10s-.38-6.75-.31-10.17c0-1.7,0-3.4.12-5.11s.16-3.42.34-5.13l.62-5.12c.21-1.71.61-3.39.91-5.08a116.51,116.51,0,0,1,5.88-19.59c5-12.62,11.37-24.34,17.34-36s11.53-23.44,14.77-35.78,4.36-25.27,4.13-38.21-1.71-26-3.43-39l-2.7-19.61c-.93-6.56-1.66-13.16-2.46-19.75-1.39-13.2-2.57-26.43-3.19-39.69s-1-26.53-.91-39.8c.12-6.63.16-13.27.48-19.89.14-3.32.21-6.64.42-9.95l.6-9.93c.17-3.31.48-6.61.74-9.92s.52-6.61.85-9.91c.72-6.59,1.3-13.2,2.21-19.77,1.55-13.17,3.73-26.26,6.07-39.3,5-26,10.87-51.95,19.88-77a252.57,252.57,0,0,1,16.3-36.37,180.46,180.46,0,0,1,22.78-32.66,161.28,161.28,0,0,1,14.08-14.08,148.14,148.14,0,0,1,15.79-12.11,136.15,136.15,0,0,1,17.38-9.6A126.77,126.77,0,0,1,1324.51,1500.41Z"/><path d="M1332,1425a89.51,89.51,0,0,0-26.06-8.45,100.85,100.85,0,0,0-13.66-1.28,113.89,113.89,0,0,0-13.7.57,134.35,134.35,0,0,0-51.78,16.9c-4,2.23-7.85,4.68-11.61,7.27a125.07,125.07,0,0,0-10.85,8.35c-1.72,1.5-3.5,2.93-5.18,4.48l-5,4.68c-3.22,3.24-6.46,6.47-9.48,9.9-12.27,13.56-22.76,28.64-32.39,44.19-19.28,31.14-34.89,64.5-54.8,95.54-5,7.75-10.23,15.33-15.83,22.67a225.37,225.37,0,0,1-18,21,192.2,192.2,0,0,1-20.62,18.57c-7.31,5.67-14.92,10.88-22.54,16s-15.26,10.17-22.62,15.56c-3.69,2.67-7.26,5.48-10.77,8.35s-6.87,5.93-10,9.15a136.11,136.11,0,0,0-17.06,21,165.46,165.46,0,0,0-12.94,23.86c-7.36,16.62-12.48,34.2-17,51.91s-8.4,35.69-13.17,53.49-10.38,35.51-18.55,52.22a167.52,167.52,0,0,1-14.19,24c-2.64,3.85-5.62,7.43-8.54,11l-4.64,5.21c-.76.88-1.57,1.72-2.38,2.54l-2.43,2.5c-13,13.27-27.85,24.52-43,34.94s-31,19.89-46.54,29.59c-7.78,4.84-15.49,9.76-23.08,14.84s-15,10.36-22.19,16a222.8,222.8,0,0,0-20.48,17.94,170.76,170.76,0,0,0-17.63,20.57,141.84,141.84,0,0,0-22.26,49c-4.54,17.59-6.75,35.78-9.47,54-1.33,9.09-2.83,18.2-4.73,27.25-.51,2.26-.93,4.53-1.52,6.78l-1.7,6.74-2,6.68-.5,1.67-.58,1.64-1.14,3.29a204.13,204.13,0,0,1-25.91,49.07,344.66,344.66,0,0,1-35.83,42.17c-12.94,13.12-26.49,25.56-40.1,37.88s-27.27,24.56-40.4,37.31c-6.56,6.39-13,12.88-19.21,19.6-3.07,3.38-6.19,6.72-9.12,10.22l-4.46,5.21-4.33,5.32a401.53,401.53,0,0,0-31.41,44.92c-4.79,7.8-9.17,15.83-13.45,23.92s-8.17,16.37-11.81,24.77a420.16,420.16,0,0,0-18.89,51.53l-1.91,6.59c-.62,2.21-1.17,4.43-1.76,6.64-1.21,4.42-2.22,8.89-3.26,13.35-.55,2.22-1,4.47-1.46,6.71l-1.39,6.73-1.21,6.76c-.4,2.26-.83,4.51-1.15,6.78a423.06,423.06,0,0,0-5.07,54.71,416.81,416.81,0,0,0,2.2,55A405.33,405.33,0,0,1,381,2662.44c.3-2.28.7-4.54,1.08-6.81l1.15-6.8,1.33-6.76c.44-2.26.86-4.52,1.39-6.76,1-4.48,2-9,3.14-13.43.56-2.22,1.1-4.46,1.69-6.68l1.86-6.64a422.43,422.43,0,0,1,18.46-52c3.57-8.48,7.6-16.76,11.71-25,4.26-8.16,8.62-16.27,13.38-24.15A404,404,0,0,1,467.52,2462l4.32-5.39,4.46-5.27c2.94-3.55,6.07-6.94,9.14-10.37,6.21-6.81,12.66-13.39,19.21-19.84,13.12-12.9,26.74-25.24,40.26-37.64s27-24.87,39.7-38a342.62,342.62,0,0,0,35.25-41.77,199.25,199.25,0,0,0,25.2-48.09l1.11-3.21.56-1.6.48-1.63,1.92-6.52,1.65-6.61c.57-2.2,1-4.44,1.46-6.66,1.85-8.91,3.3-17.93,4.6-27,2.64-18.12,4.87-36.46,9.49-54.46,1.09-4.51,2.5-8.95,3.9-13.39l2.41-6.56c.37-1.1.86-2.16,1.32-3.24l1.4-3.21a142.16,142.16,0,0,1,13.91-24.25,176.46,176.46,0,0,1,18.14-21.2,225.59,225.59,0,0,1,20.89-18.34c7.27-5.72,14.79-11.09,22.46-16.22s15.41-10.1,23.21-15c15.6-9.71,31.28-19.19,46.41-29.44s29.63-21.36,42.35-34.29l2.38-2.43c.8-.8,1.59-1.62,2.32-2.47l4.52-5.07c2.84-3.52,5.74-7,8.3-10.72a162.06,162.06,0,0,0,13.81-23.31c8-16.29,13.53-33.74,18.34-51.35s8.72-35.57,13.32-53.39,9.85-35.6,17.42-52.56a168.77,168.77,0,0,1,13.36-24.43,138.06,138.06,0,0,1,17.68-21.59c3.29-3.3,6.81-6.34,10.36-9.33s7.27-5.75,11-8.44c7.49-5.41,15.19-10.45,22.84-15.51s15.21-10.18,22.43-15.72a188.14,188.14,0,0,0,20.37-18.11,227.08,227.08,0,0,0,17.89-20.65c5.57-7.22,10.83-14.7,15.81-22.36,20-30.68,35.76-64,55.37-95.12,9.84-15.53,20.55-30.62,33.06-44.17,3.08-3.43,6.38-6.65,9.66-9.88l5.09-4.68c1.71-1.55,3.52-3,5.27-4.47a126,126,0,0,1,11.05-8.31c3.82-2.58,7.74-5,11.79-7.23a135.11,135.11,0,0,1,52.34-16.5,113.32,113.32,0,0,1,13.79-.38,101.36,101.36,0,0,1,13.7,1.46A89.8,89.8,0,0,1,1332,1425Z"/><path d="M1338.23,1426.27a122.67,122.67,0,0,1,27.11-9.16,107.69,107.69,0,0,1,14.22-1.89,114.69,114.69,0,0,1,14.36.14,126.14,126.14,0,0,1,14.22,2.05c4.69,1,9.33,2.21,13.91,3.61a243.09,243.09,0,0,1,26.77,10.36c8.74,3.9,17.32,8.13,25.89,12.35l12.84,6.35c4.28,2.13,8.61,4.1,12.85,6.37l6.39,3.31c2.09,1.18,4.13,2.44,6.2,3.65l3.1,1.84,1.54.92,1.49,1,6,4c1,.69,2,1.32,3,2l2.87,2.18,5.74,4.34c1.88,1.5,3.68,3.09,5.52,4.63l2.75,2.33,1.37,1.16,1.31,1.24a229,229,0,0,1,37.15,43.87,220,220,0,0,1,24.62,52l1.14,3.42.94,3.49,1.87,7,1.86,6.85.46,1.71.56,1.67,1.13,3.35a140.49,140.49,0,0,0,12.22,25.5c4.85,8.14,10.27,16,15.32,24.18a173.79,173.79,0,0,1,13.38,25.64c.46,1.12,1,2.23,1.38,3.36l1.21,3.42,2.39,6.77,2.38,6.68,2.75,6.53,1.38,3.26,1.56,3.19,3.13,6.36,3.45,6.2c.58,1,1.13,2.08,1.74,3.09l1.87,3c1.26,2,2.47,4,3.77,6l4,5.87c1.3,2,2.74,3.87,4.15,5.77s2.79,3.83,4.27,5.69c3,3.7,5.86,7.46,9,11,1.56,1.8,3.06,3.63,4.65,5.4l4.77,5.29c25.69,28.08,54.8,52.92,82,79.85l5.1,5.07c1.69,1.7,3.34,3.44,5,5.15,3.37,3.41,6.6,7,9.88,10.47,6.42,7.14,12.76,14.37,18.61,22a236.27,236.27,0,0,1,30.07,49.31c1,2.22,1.82,4.48,2.73,6.72l1.36,3.37c.44,1.12.8,2.28,1.21,3.42l1.19,3.42c.38,1.15.72,2.31,1.08,3.46l1.07,3.47,1,3.49a277.35,277.35,0,0,1,6,28.25c3.12,19,4.75,38.09,6.6,57.08s3.85,37.94,7.87,56.44,10.16,36.53,19.91,52.61a137.43,137.43,0,0,0,17,22.36c3.14,3.49,6.61,6.68,10,9.91l5.36,4.61c1.79,1.54,3.7,2.94,5.54,4.41a259.52,259.52,0,0,0,23.43,16c8.12,4.91,16.42,9.55,24.82,14,16.84,8.9,34.06,17.19,51,26.16,8.47,4.46,16.84,9.18,25,14.2,2,1.28,4.11,2.51,6.11,3.84l6,4c3.93,2.79,7.88,5.56,11.64,8.6a164.48,164.48,0,0,1,21.21,19.76,133.57,133.57,0,0,1,16.77,23.74l3.34,6.48c1,2.22,2,4.41,2.88,6.69a140,140,0,0,1,4.68,13.75c1.34,4.64,2.43,9.35,3.42,14.06s1.81,9.46,2.5,14.21c2.89,19,4.26,38.06,7.51,56.77a180.37,180.37,0,0,0,6.78,27.54,125,125,0,0,0,5.32,13.09l1.6,3.14c.27.52.53,1,.81,1.57l.88,1.53c.6,1,1.16,2,1.78,3l1.92,3a113.9,113.9,0,0,0,18.69,21.11,246.8,246.8,0,0,0,22.44,17.52c15.53,11,31.83,21.32,45.76,34.71a138.64,138.64,0,0,1,32.08,47.51c7.36,17.78,11.32,36.79,12.84,55.87a273.68,273.68,0,0,1-1.79,57.29,363.83,363.83,0,0,1-12.15,56,362.75,362.75,0,0,0,11.41-56.08,273.74,273.74,0,0,0,1.23-57.08c-1.7-19-5.82-37.77-13.26-55.26a136.52,136.52,0,0,0-32-46.48c-13.79-13.05-30-23.23-45.69-34.19A250,250,0,0,1,2201,2538a117,117,0,0,1-19.31-21.57l-2-3c-.65-1-1.23-2.09-1.85-3.13l-.92-1.57c-.3-.53-.56-1.08-.85-1.61l-1.67-3.23a131.35,131.35,0,0,1-5.54-13.41,183.23,183.23,0,0,1-7.07-28c-3.41-18.93-4.89-38-7.86-56.8-.72-4.7-1.6-9.36-2.55-14s-2.1-9.23-3.43-13.75a137.37,137.37,0,0,0-4.63-13.34c-.84-2.2-1.87-4.3-2.82-6.45l-3.27-6.24a130.43,130.43,0,0,0-16.3-22.9,161.08,161.08,0,0,0-20.73-19.19c-3.68-3-7.56-5.66-11.43-8.39l-5.92-3.92c-2-1.31-4-2.51-6-3.77q-12.15-7.39-24.84-14c-16.85-8.86-34.1-17.1-51.07-26-8.48-4.47-16.88-9.13-25.11-14.11a263,263,0,0,1-23.88-16.27c-1.89-1.51-3.83-2.94-5.67-4.51l-5.5-4.73c-3.54-3.31-7.11-6.59-10.36-10.2a141.92,141.92,0,0,1-17.66-23.13c-10.11-16.65-16.45-35.26-20.55-54.07s-6.16-38-8-57-3.43-38-6.49-56.77-7.65-37.17-15.25-54.45a230.8,230.8,0,0,0-29.41-48.33c-5.75-7.53-12-14.68-18.35-21.75-3.24-3.47-6.43-7-9.77-10.39-1.65-1.71-3.29-3.43-5-5.12l-5.05-5.06c-27-26.86-56.1-51.83-81.95-80.25l-4.81-5.37c-1.6-1.78-3.11-3.65-4.68-5.47-3.15-3.62-6.08-7.45-9.08-11.2-1.49-1.89-2.87-3.86-4.31-5.79s-2.88-3.86-4.2-5.87l-4-6c-1.3-2-2.53-4.1-3.8-6.15l-1.88-3.08c-.62-1-1.17-2.11-1.76-3.16l-3.48-6.35-3.16-6.51-1.57-3.26-1.39-3.34-2.77-6.69-2.39-6.84-2.34-6.75-1.16-3.33c-.41-1.11-.88-2.19-1.32-3.28a170.68,170.68,0,0,0-13-25.18c-4.94-8.11-10.32-16-15.21-24.32a144.2,144.2,0,0,1-12.34-26.17l-1.14-3.44-.57-1.73-.46-1.75-1.85-7-1.8-6.88-.91-3.43-1.1-3.38a217.34,217.34,0,0,0-24-51.44,228.44,228.44,0,0,0-36.45-43.59l-1.28-1.23-1.35-1.17-2.69-2.33c-1.81-1.54-3.58-3.13-5.42-4.63l-5.64-4.36-2.82-2.17c-.94-.73-2-1.37-2.92-2l-5.87-4-1.47-1L1515,1467l-3-1.85c-2-1.22-4-2.49-6.11-3.68l-6.3-3.34c-4.16-2.28-8.51-4.31-12.76-6.49l-12.79-6.47c-8.52-4.3-17-8.61-25.71-12.57a242.5,242.5,0,0,0-26.55-10.57q-6.81-2.16-13.78-3.73a131.51,131.51,0,0,0-14.1-2.17,111.39,111.39,0,0,0-14.27-.32,105.73,105.73,0,0,0-14.18,1.7A122.24,122.24,0,0,0,1338.23,1426.27Z"/><polygon class="cls-3" points="1783.23 1841.45 1724.33 1848.25 1699.46 1850.26 1671.76 1855.83 1668.87 1862.76 1684.59 1865.2 1715.92 1867.95 1733.38 1868.34 1757.11 1867.58 1777.33 1865.74 1761.69 1885.21 1748.76 1898 1758.3 1910.57 1768.66 1917.63 1774.47 1928.57 1783.23 1933.43 1790.9 1947.14 1799.13 1959.4 1809.35 1961.32 1831.73 1960.23 1868.22 1953.69 1891.18 1942.5 1905 1932.97 1905 1921.05 1938.24 1913.1 1979.62 1907.67 2010.03 1901.38 2033.21 1892.07 2048.81 1856.34 2006.48 1830.49 1966.61 1820.27 1913.14 1828.3 1850.05 1833.73 1804.66 1838.97 1783.23 1841.45"/><polygon class="cls-3" points="876.3 1931.12 871.76 2009.89 816.13 2002.75 795.73 1988.11 876.3 1931.12"/><path class="cls-7" d="M2017.38,1357.18c1.49-15.52,3.77-30.88,6.23-46.21,1.19-7.69,2.87-15.27,3.06-22.51s-1.28-14.19-5.84-18.56c-4.41-4.39-11.58-5.56-18.3-4.13a30.23,30.23,0,0,0-17.53,10.57c-4.53,5.6-7.61,12.52-9.68,19.82s-3.37,15-4.85,22.64a129.32,129.32,0,0,1,1.18-23.46,67,67,0,0,1,2.94-11.65,46.78,46.78,0,0,1,5.57-11,29.62,29.62,0,0,1,4.09-4.91,34.44,34.44,0,0,1,5-4,36.61,36.61,0,0,1,11.7-5.13,31.2,31.2,0,0,1,13.07-.46,23.88,23.88,0,0,1,12.15,6.17,15.83,15.83,0,0,1,1.2,1.26,13.7,13.7,0,0,1,1.09,1.35l1,1.39c.31.48.58,1,.87,1.47a27.79,27.79,0,0,1,1.5,3.05l.56,1.59.28.79.2.81a35.13,35.13,0,0,1,1.07,6.42,47.13,47.13,0,0,1,0,6.29,80.21,80.21,0,0,1-1.78,12c-.83,3.88-1.74,7.59-2.64,11.38C2025.85,1327.25,2022,1342.29,2017.38,1357.18Z"/><path class="cls-7" d="M1748.31,1369.82a12.13,12.13,0,0,1-6,2.32,11.17,11.17,0,0,1-3.26-.24,12.72,12.72,0,0,1-3.06-1.2,19.12,19.12,0,0,1-8.15-10,21.34,21.34,0,0,1-1.35-6.48,19.64,19.64,0,0,1,.11-3.34c.16-1.07.29-2.16.51-3.23.78-4.29,2-8.44,3.07-12.59a60.61,60.61,0,0,0,2.21-12.41,23.43,23.43,0,0,0-.49-6,18.38,18.38,0,0,0-2.26-5.53c-2.08-3.5-5.07-6.53-7.84-10a31.57,31.57,0,0,1-3.74-5.62c-.27-.5-.57-1-.8-1.5l-.65-1.58-.65-1.58-.48-1.63a43,43,0,0,1-1.57-13.36,71.24,71.24,0,0,1,1.76-13.15,156.45,156.45,0,0,1,8.17-24.85c6.5-16,13.76-31.76,22.7-46.72a207.6,207.6,0,0,1,14.83-21.56c1.38-1.7,2.75-3.41,4.2-5l4.43-4.86,2.21-2.43c.75-.8,1.57-1.53,2.35-2.3l4.73-4.56,1.19-1.14,1.25-1.06,2.5-2.13c1.68-1.41,3.32-2.87,5-4.23l5.25-4,2.62-2c.88-.66,1.82-1.23,2.72-1.84l5.47-3.64,1.36-.91,1.42-.83L1811,1127c1.89-1.1,3.76-2.25,5.67-3.3l5.83-3,2.92-1.51c1-.5,2-.91,3-1.38l6-2.68,1.5-.67,1.53-.59,3.06-1.18c2-.78,4.07-1.6,6.13-2.33a218.91,218.91,0,0,1,25.23-7.15c2.14-.45,4.27-1,6.42-1.36l6.48-1.07,3.24-.53,3.26-.38,6.53-.73c2.18-.21,4.37-.29,6.56-.44s4.37-.34,6.56-.3c4.38,0,8.78-.14,13.14.15a213.47,213.47,0,0,1,26.1,2.77l6.44,1.25,3.22.63,3.19.77,6.37,1.55,6.3,1.82,3.15.92,3.1,1,6.21,2.1,6.12,2.34,3,1.18,3,1.3,6,2.6,5.91,2.83c1,.47,2,.93,2.94,1.42l2.89,1.53c1.92,1,3.86,2,5.77,3.08a287.17,287.17,0,0,1,42.93,29.6c6.67,5.58,13.16,11.4,19.26,17.62a238.45,238.45,0,0,1,17.24,19.63,192.22,192.22,0,0,1,14.68,21.64,150.93,150.93,0,0,1,21.69,74.59,161.24,161.24,0,0,1-1.73,26l-1.1,6.41c-.42,2.13-.95,4.24-1.42,6.35-.26,1-.47,2.12-.76,3.16l-.91,3.12-.92,3.12-.46,1.56-.54,1.53-2.19,6.11c-.77,2-1.67,4-2.5,6-.43,1-.84,2-1.29,3l-1.44,2.9-1.45,2.89c-.49,1-.94,2-1.51,2.87l-3.26,5.59c-.52.94-1.12,1.83-1.73,2.73l-1.8,2.68-1.79,2.69c-.59.9-1.29,1.72-1.93,2.58l-3.92,5.13,3.68-5.29c.6-.89,1.26-1.74,1.81-2.67l1.67-2.75,1.66-2.75c.57-.91,1.12-1.83,1.6-2.79l3-5.69c.52-.94.94-1.93,1.39-2.9l1.32-2.92,1.32-2.92c.41-1,.78-2,1.16-3,.75-2,1.57-4,2.26-6l1.93-6.11.48-1.52.39-1.55.79-3.1.8-3.1c.25-1,.42-2.09.64-3.13.4-2.1.86-4.18,1.2-6.28l.89-6.32a150.16,150.16,0,0,0-2.48-50.63,154.86,154.86,0,0,0-7.79-24.12,161.14,161.14,0,0,0-11.51-22.6,184.41,184.41,0,0,0-14.6-20.75,248.06,248.06,0,0,0-36.09-35.77,278.81,278.81,0,0,0-42.16-28.43c-1.87-1-3.76-2-5.64-2.94l-2.81-1.46c-1-.48-1.91-.92-2.87-1.38l-5.73-2.72-5.84-2.5-2.91-1.25-3-1.13-5.93-2.26-6-2-3-1-3-.88-6.09-1.74-6.16-1.47-3.08-.73-3.11-.6-6.22-1.18a208.49,208.49,0,0,0-25.16-2.6c-4.22-.3-8.43-.18-12.64-.18-2.1,0-4.21.17-6.31.26s-4.21.21-6.31.4l-6.29.69-3.14.34-3.12.51-6.25,1c-2.08.36-4.13.87-6.2,1.29a210.87,210.87,0,0,0-24.38,6.81c-2,.7-3.94,1.49-5.92,2.23l-3,1.13-1.48.57-1.45.64-5.79,2.55c-1,.44-2,.82-2.89,1.3l-2.82,1.42-5.66,2.84c-1.86,1-3.67,2.09-5.5,3.13l-2.75,1.57-1.37.79-1.33.86-5.3,3.45c-.88.59-1.79,1.13-2.64,1.75l-2.54,1.87-5.1,3.75c-1.66,1.3-3.25,2.69-4.88,4l-2.43,2-1.21,1-1.16,1.08-4.59,4.34c-.76.73-1.56,1.42-2.28,2.18l-2.16,2.32-4.31,4.62c-1.4,1.57-2.74,3.19-4.1,4.81a201.26,201.26,0,0,0-14.74,20.65c-4.47,7.21-8.57,14.67-12.4,22.29s-7.34,15.42-10.78,23.26a152.18,152.18,0,0,0-8.5,23.89,66.08,66.08,0,0,0-2,12.33,40,40,0,0,0,1.1,12.18l.38,1.47.54,1.42.53,1.42c.19.47.45.9.67,1.36a28.93,28.93,0,0,0,3.24,5.19c2.51,3.34,5.53,6.56,7.76,10.54a21,21,0,0,1,2.39,6.43,26.2,26.2,0,0,1,.35,6.77,60.57,60.57,0,0,1-2.73,12.84c-1.24,4.14-2.59,8.2-3.51,12.34-.25,1-.41,2.08-.6,3.12a17.78,17.78,0,0,0-.22,3.09,20.18,20.18,0,0,0,1,6.14,18.31,18.31,0,0,0,7.35,9.92,12.56,12.56,0,0,0,2.88,1.27,10.65,10.65,0,0,0,3.13.37A11.83,11.83,0,0,0,1748.31,1369.82Z"/><path class="cls-7" d="M2101.72,1398.74l1.13-8.52,0-.33.38-.1a139.54,139.54,0,0,1,17.12-3.6,131.57,131.57,0,0,1,17.53-1.45,140.65,140.65,0,0,1,17.64.8,144.28,144.28,0,0,1,17.46,3,131.21,131.21,0,0,1,33.07,13.05,114.89,114.89,0,0,1,28,22.22,106.63,106.63,0,0,1,11,14.25,85,85,0,0,1,8.16,16.15,71.52,71.52,0,0,1,2.64,8.74l.83,4.52.21,1.12.11,1.14.21,2.28a67.36,67.36,0,0,1-.81,18.06,78.93,78.93,0,0,1-4.87,17.23l-.82,2.07c-.28.69-.63,1.35-.94,2l-1.92,4c-1.48,2.57-2.79,5.23-4.5,7.64a88.84,88.84,0,0,1-24.35,25,100.6,100.6,0,0,0,21.19-26.92c1.42-2.46,2.54-5.07,3.77-7.62l1.55-3.94c.25-.66.54-1.31.76-2l.64-2c.4-1.35.91-2.67,1.23-4l1-4.08c.34-1.36.52-2.75.79-4.12l.38-2.06.22-2.08a68,68,0,0,0,0-16.56l-.25-2-.13-1-.22-1-.86-4a65.69,65.69,0,0,0-2.62-7.81,95.71,95.71,0,0,0-18.08-27.82,114.51,114.51,0,0,0-26.06-21,131.31,131.31,0,0,0-31-13.37,141.06,141.06,0,0,0-16.58-3.75,157.81,157.81,0,0,0-17-1.88,165.66,165.66,0,0,0-34.34,1.84l.42-.43Z"/><path class="cls-7" d="M2024.27,1357.42a255.15,255.15,0,0,0,42.44,81.63,249.05,249.05,0,0,0,68.14,61l2.43,1.51c.82.5,1.67.93,2.5,1.4l5,2.77c3.33,1.88,6.74,3.61,10.19,5.26,6.89,3.33,13.91,6.45,21,9.47,14.19,6,28.65,11.74,42.75,18.59a289.78,289.78,0,0,1,40.3,24.12,411.63,411.63,0,0,1,36.48,29.4c11.57,10.47,22.58,21.49,33.32,32.72s21.17,22.73,31.47,34.33c5.11,5.83,10.25,11.64,15.27,17.55l7.56,8.84,7.47,8.92c5,5.92,9.87,12,14.79,18s9.67,12.13,14.45,18.23,9.54,12.23,14.18,18.43l7,9.28,6.89,9.36c9.18,12.5,18.12,25.16,26.94,37.91,17.48,25.6,34.28,51.65,50.05,78.3-17.21-25.74-34.82-51.19-53.12-76.12-4.6-6.22-9.17-12.46-13.82-18.63s-9.3-12.35-14.07-18.43l-7.09-9.17-7.18-9.1c-4.75-6.1-9.65-12.07-14.49-18.09-19.53-24-39.56-47.49-60.27-70.4s-41.7-45.61-64.51-66.19a405,405,0,0,0-35.68-29,294.8,294.8,0,0,0-39.17-23.73c-13.69-6.85-28-12.7-42.2-18.93-7.11-3.13-14.22-6.35-21.2-9.88-3.49-1.76-6.95-3.6-10.33-5.59l-5.1-2.94c-.84-.5-1.7-1-2.53-1.48l-2.47-1.6-4.93-3.2c-1.64-1.06-3.29-2.12-4.86-3.3l-4.75-3.45-2.38-1.72c-.79-.57-1.58-1.15-2.33-1.78l-9.12-7.38-8.73-7.84a256.29,256.29,0,0,1-30.89-35.12A243.17,243.17,0,0,1,2024.27,1357.42Z"/><path class="cls-7" d="M1952.77,1527.79a95.65,95.65,0,0,1,19.9,17.64,116.74,116.74,0,0,1,14.95,22.18,165.72,165.72,0,0,1,10.23,24.49,195.22,195.22,0,0,1,6.68,25.57c-4.61-7.6-8.46-15.48-12.27-23.3s-7.48-15.61-11.44-23.2a248.37,248.37,0,0,0-13-22.11C1963.19,1541.87,1958,1535,1952.77,1527.79Z"/><path class="cls-7" d="M2142,1509.52a618,618,0,0,1-37,56.29q-19.9,27.21-42.21,52.57c-3.74,4.2-7.48,8.4-11.28,12.54q-2.85,3.11-5.74,6.17c-2,2.05-3.8,4.1-5.83,6.15a49.19,49.19,0,0,1-6.83,5.94,25.6,25.6,0,0,1-4.23,2.4,21.85,21.85,0,0,1-2.35.87c-.41.11-.8.24-1.22.33l-1.34.21a24,24,0,0,1-9.66-1,45.39,45.39,0,0,1-8.31-3.49,53.79,53.79,0,0,1-7.46-4.84,36.3,36.3,0,0,1-6.43-6.33,21.19,21.19,0,0,1-2.5-4,18,18,0,0,1-1.36-4.57,47.36,47.36,0,0,1-.57-8.74,137.24,137.24,0,0,1,1.52-16.93c.82-5.58,1.84-11.11,3.11-16.58-.21,2.8-.43,5.59-.58,8.39s-.32,5.59-.41,8.38a151.06,151.06,0,0,0,.13,16.63,44.94,44.94,0,0,0,1.12,7.94,13.79,13.79,0,0,0,1.27,3.38,15.89,15.89,0,0,0,2.16,2.93,40.91,40.91,0,0,0,12.69,9,39,39,0,0,0,7.31,2.62,17.78,17.78,0,0,0,6.94.54l.74-.12.79-.24a16.08,16.08,0,0,0,1.56-.65,18.7,18.7,0,0,0,3-1.84,43.22,43.22,0,0,0,5.65-5.28c3.69-4.08,7.52-8.22,11.2-12.39s7.44-8.32,11.13-12.51q22.07-25.17,43.25-51.15C2114.35,1544.84,2128.08,1527.18,2142,1509.52Z"/><path class="cls-7" d="M1966.61,1548.8c-14.56,19.18-24.65,41.09-31.49,63.8-1.74,5.68-3.24,11.42-4.55,17.21-.68,2.89-1.25,5.8-1.88,8.7s-1.13,5.82-1.61,8.75c-1,5.85-1.81,11.73-2.41,17.63s-1.14,11.81-1.46,17.73a311.94,311.94,0,0,0,.08,35.53l1.1,17.93c.36,6,.74,11.93,1.27,17.87s1.08,11.84,1.88,17.74,1.72,11.79,2.72,17.69c2,11.8,4.24,23.63,6,35.54-3.75-11.45-7.2-23-10.26-34.63a268.22,268.22,0,0,1-7-35.64c-.75-6-1.36-12-1.94-18s-1-12-1.4-18a279.14,279.14,0,0,1,0-36.47c.42-6.06,1-12.12,1.76-18.14s1.79-12,2.94-18,2.48-11.9,4.11-17.75,3.39-11.68,5.42-17.4,4.28-11.37,6.82-16.89a173.74,173.74,0,0,1,8.31-16.18,163.06,163.06,0,0,1,9.93-15.19A145.62,145.62,0,0,1,1966.61,1548.8Z"/><path class="cls-7" d="M1970.06,1311.86c-18.91-12.1-37.41-24.76-55.8-37.57l-13.77-9.64-13.67-9.73c-9.11-6.39-18.28-12.53-28.07-17.09a82.93,82.93,0,0,0-15.07-5.4,57.55,57.55,0,0,0-15.61-1.64c-1.31,0-2.62.17-3.93.25s-2.62.34-3.92.52a71,71,0,0,0-7.73,1.8,67.39,67.39,0,0,0-14.66,6.27,72.47,72.47,0,0,0-6.73,4.38c-.54.39-1.1.77-1.63,1.18l-1.58,1.25c-1.07.81-2,1.74-3.07,2.61a69.71,69.71,0,0,0-10.66,12.09,62.13,62.13,0,0,0-11.35,30.12l-.13,1.4-1.28-.12a38.81,38.81,0,0,1-11.79-3.19,37.42,37.42,0,0,1-10-6.58,40.51,40.51,0,0,0,10.57,5.22,38.91,38.91,0,0,0,11.42,1.89l-1.41,1.27a60.33,60.33,0,0,1,2.53-17.05,67.14,67.14,0,0,1,7.12-15.82,74.89,74.89,0,0,1,10.86-13.61c1.06-1,2.07-2.06,3.19-3l1.65-1.45c.55-.47,1.13-.91,1.7-1.37a76.42,76.42,0,0,1,7.2-5,74.56,74.56,0,0,1,15.95-7.38,64.26,64.26,0,0,1,17.42-3.2,62.67,62.67,0,0,1,17.71,1.72,85.7,85.7,0,0,1,16.51,6c10.51,5,19.94,11.56,28.93,18.33l13.42,10.16,13.29,10.29C1935.32,1283.48,1952.89,1297.4,1970.06,1311.86Z"/><path class="cls-7" d="M1740.15,1282.21a120.78,120.78,0,0,1,7.25,10.36c2.26,3.58,4.22,7.34,6.13,11.13a177.28,177.28,0,0,1,9.21,23.69c2.49,8.11,4.54,16.33,6.41,24.57s3.46,16.51,5.17,24.73,3.45,16.4,5.42,24.49a233.79,233.79,0,0,0,7.1,23.8,160,160,0,0,0,10.05,22.49,192.19,192.19,0,0,0,13.23,20.88,213.09,213.09,0,0,0,33,36.86,143,143,0,0,0,19.76,14.64,119.13,119.13,0,0,0,10.77,5.85c.91.47,1.84.89,2.78,1.29l2.81,1.22c1.88.81,3.82,1.46,5.72,2.2s3.9,1.22,5.85,1.84,3.94,1,5.93,1.42,4,.73,6,1,4,.49,6.09.59a86.69,86.69,0,0,0,24.45-1.88,76.73,76.73,0,0,0,23-9,65.31,65.31,0,0,0,10.06-7.33,25.52,25.52,0,0,0,2.27-2.14l2.23-2.22c1.39-1.56,2.68-3.21,4-4.83-1.2,1.72-2.34,3.51-3.6,5.2l-2,2.44a28.16,28.16,0,0,1-2.11,2.39,66.8,66.8,0,0,1-9.7,8.28A77.32,77.32,0,0,1,1934.2,1537a90.56,90.56,0,0,1-25.56,3.25,89.14,89.14,0,0,1-25.57-4.18c-2-.7-4.12-1.32-6.14-2.1l-3-1.19c-1-.39-2-.8-3-1.26-2-.92-4-1.76-5.84-2.81s-3.84-2-5.68-3.11a149.62,149.62,0,0,1-21.06-14.9,187.82,187.82,0,0,1-18.38-18,240,240,0,0,1-16.08-19.94,201.32,201.32,0,0,1-13.6-21.81,156.12,156.12,0,0,1-10.29-23.63c-5.48-16.27-8.79-33-11.55-49.6s-5.26-33.19-9.32-49.39a187,187,0,0,0-7.54-23.85c-1.58-3.86-3.25-7.7-5.19-11.41A119.42,119.42,0,0,0,1740.15,1282.21Z"/><path class="cls-7" d="M1797,1360.14a35.92,35.92,0,0,1,9.49,10.25,57.46,57.46,0,0,1,5.9,12.85c2.91,9,4.19,18.17,5.34,27.13s2,17.82,4.22,26.24a55.93,55.93,0,0,0,4.54,12.13c.47,1,1.1,1.88,1.63,2.84s1.26,1.8,1.87,2.74,1.41,1.72,2.12,2.61,1.57,1.63,2.34,2.49a30.83,30.83,0,0,1-11.08-8.56,45.46,45.46,0,0,1-7.15-12.36c-3.5-8.87-5-18.15-6.11-27.16s-1.87-17.94-3.54-26.58S1802.22,1367.75,1797,1360.14Z"/><path class="cls-7" d="M1881.4,1303.66a1.11,1.11,0,0,0-.46.51.47.47,0,0,0,.11.49,2.18,2.18,0,0,0,1,.62,2.43,2.43,0,0,0,1.14.1c.34-.08.38-.24.36-.35l0-.35a2,2,0,0,0-.06-.44,2.28,2.28,0,0,0-.43-.77,5.85,5.85,0,0,0-1.75-1.33,10.35,10.35,0,0,0-2.32-.89c-.91-.23-1.77-.55-2.69-.73s-1.79-.42-2.7-.56-1.82-.28-2.72-.4a52.11,52.11,0,0,0-16.26.7c-.89.16-1.77.39-2.65.58s-1.76.46-2.62.73a59.24,59.24,0,0,0-19.36,10,56.06,56.06,0,0,0-14.69,17.24c.82-8,4.85-15.73,10.62-21.7a48.89,48.89,0,0,1,21.22-12.9,45.59,45.59,0,0,1,24.92-.56c1,.27,2,.58,3,.95a27.89,27.89,0,0,1,2.9,1.17c1,.4,1.87.92,2.79,1.4a13.85,13.85,0,0,1,2.8,2,8.39,8.39,0,0,1,2.17,3,4.77,4.77,0,0,1,.34,2,3.92,3.92,0,0,1-.2,1,3.36,3.36,0,0,1-.52,1,2.19,2.19,0,0,1-1.06.75,2.45,2.45,0,0,1-1.12.09,3.63,3.63,0,0,1-1.65-.74,2.87,2.87,0,0,1-1-1.38.91.91,0,0,1,.18-.91A1.32,1.32,0,0,1,1881.4,1303.66Z"/><path class="cls-7" d="M1788.11,1353.11c-2.71-.93-4.8-1.91-6.85-2.83s-3.9-1.85-5.78-2.81-3.72-1.93-5.67-3a71.3,71.3,0,0,1-6.31-3.88,13.4,13.4,0,0,1,7.81-2,18.64,18.64,0,0,1,13.79,7A13.44,13.44,0,0,1,1788.11,1353.11Z"/><path class="cls-7" d="M1892.69,1334.29a122,122,0,0,0-16.31,4,90.42,90.42,0,0,0-14.76,6.25,93.11,93.11,0,0,0-13.44,8.74,125,125,0,0,0-12.4,11.3,37.18,37.18,0,0,1,8.21-15.64,48.84,48.84,0,0,1,31.15-16.54A37.38,37.38,0,0,1,1892.69,1334.29Z"/><path class="cls-7" d="M1864.09,1347.92a11.53,11.53,0,0,1,5.28,4.51,15.35,15.35,0,0,1,2.29,7,17.26,17.26,0,0,1-1.05,7.52,16.53,16.53,0,0,1-4.49,6.51l-.79.66c-.27.2-.56.38-.84.57l-.85.56-.9.46c-.3.14-.6.3-.91.43l-.94.34a11.67,11.67,0,0,1-1.9.53,16.93,16.93,0,0,1-7.6-.1,15.94,15.94,0,0,1-6.53-3.28,11.52,11.52,0,0,1-3.83-5.78,19,19,0,0,0,11.11,3.06,14.27,14.27,0,0,0,8.93-3.23,14.89,14.89,0,0,0,4.58-8.43,17.48,17.48,0,0,0,.22-5.43l-.23-1.43-.37-1.45c-.18-.46-.33-1-.53-1.47S1864.29,1348.46,1864.09,1347.92Z"/><path class="cls-7" d="M1779.1,1371.86a14.59,14.59,0,0,0,3,6.78,17.38,17.38,0,0,0,5.19,4.33,15.71,15.71,0,0,0,6,1.93,10.23,10.23,0,0,0,5.46-.87l-2,2.29a1.06,1.06,0,0,0-.09.45.37.37,0,0,0,0,.21h0s0-.08,0-.13a5.87,5.87,0,0,0-.49-1,21.58,21.58,0,0,0-1.88-2.66,72,72,0,0,0-4.92-5.41c-1.76-1.77-3.61-3.49-5.53-5.15a30.59,30.59,0,0,0-6.33-4.46,11.7,11.7,0,0,1,4.17.09,24.36,24.36,0,0,1,4,1.1,39.46,39.46,0,0,1,14,9,24,24,0,0,1,2.91,3.54,12.07,12.07,0,0,1,1.25,2.47c.09.27.18.51.26.81s.13.64.19,1,0,.8,0,1.19a8.06,8.06,0,0,1-.27,1.42l-.47,1.69-1.54.6c-.8.31-1.62.6-2.43.88s-1.68.35-2.52.48-1.68.06-2.52.05-1.64-.18-2.45-.32a18.36,18.36,0,0,1-8.35-4.25,17.21,17.21,0,0,1-5-7.48A11.61,11.61,0,0,1,1779.1,1371.86Z"/><path class="cls-7" d="M1932.68,1468.72c-7.28,2.26-14.37,4.33-21.32,6.7s-13.76,4.92-20.46,7.76-13.28,6-19.79,9.31-12.95,7-19.66,10.65a78.81,78.81,0,0,1,16.48-15.78,102.4,102.4,0,0,1,42-17.77A78.91,78.91,0,0,1,1932.68,1468.72Z"/><path class="cls-7" d="M2198.41,1591.59c-13.37,27.86-20,58.24-21.23,88.64a291.87,291.87,0,0,0,1.79,45.6,324.44,324.44,0,0,0,8.36,44.88,429.11,429.11,0,0,0,13.67,43.7l4,10.75,4.27,10.66,4.47,10.59,4.59,10.56c12.49,28,26.5,55.49,39.87,83.31-16.17-26.28-31.67-53-45.3-80.78l-5-10.46-4.78-10.58-4.57-10.69-4.35-10.8a416.75,416.75,0,0,1-14.3-44.36,317.48,317.48,0,0,1-8.13-46,266.19,266.19,0,0,1-.53-46.73c.35-3.88.8-7.75,1.19-11.63.54-3.86,1.17-7.7,1.79-11.55s1.61-7.62,2.41-11.42c1-3.78,2-7.53,3-11.28A179.31,179.31,0,0,1,2198.41,1591.59Z"/><path class="cls-7" d="M2510.07,1873.31a235.38,235.38,0,0,1-49.32,40.92,269,269,0,0,1-121.43,40.27,234.36,234.36,0,0,1-64-3.36,358.71,358.71,0,0,0,63.36-2.59,337.51,337.51,0,0,0,119-39.45A359.08,359.08,0,0,0,2510.07,1873.31Z"/><path class="cls-7" d="M2456.47,1928.48a1.69,1.69,0,0,1-1.22-.93,2.75,2.75,0,0,1-.14-1.63,4,4,0,0,1,1.92-2.71,2.71,2.71,0,0,1,.89-.32l.49,0,.45,0a5.63,5.63,0,0,1,1.71.46,8.56,8.56,0,0,1,2.67,2.1,18.86,18.86,0,0,1,1.92,2.57l1.64,2.57,3.27,5.14c2.15,3.45,4.17,7,6.26,10.47s4,7.1,5.94,10.66a440.79,440.79,0,0,1,36.12,90.52,350.45,350.45,0,0,1,9.77,47.76c-5.18-15.42-10.16-30.77-15.54-46s-11-30.28-16.91-45.22-12.24-29.74-18.84-44.45l-5-11c-1.7-3.65-3.36-7.34-5.11-11l-2.56-5.49-1.29-2.75a21.06,21.06,0,0,0-1.35-2.54,6.72,6.72,0,0,0-1.79-2,3.93,3.93,0,0,0-1.14-.52,1.85,1.85,0,0,0-1.14,0,3.15,3.15,0,0,0-1.82,1.83,2.4,2.4,0,0,0-.14,1.35A1.55,1.55,0,0,0,2456.47,1928.48Z"/><path class="cls-7" d="M2270.62,1949a68.44,68.44,0,0,1,9.35,10.77,118.75,118.75,0,0,1,13.44,24.43,68.46,68.46,0,0,1,4.06,13.67,69,69,0,0,1-9.36-10.76,118.15,118.15,0,0,1-13.41-24.45A70,70,0,0,1,2270.62,1949Z"/><path class="cls-7" d="M2001.64,1905.91c18.91,17.31,37.27,35.15,55.45,53.18s36.15,36.24,53.91,54.66,35.33,37,52.7,55.84,34.52,37.81,51.14,57.34c-18.92-17.31-37.29-35.15-55.46-53.18s-36.15-36.24-53.9-54.67-35.33-37-52.69-55.85S2018.26,1925.43,2001.64,1905.91Z"/><path class="cls-7" d="M1868.22,1908.67c-5.61,3-11.29,5.72-17,8.32s-11.43,5.08-17.18,7.51-11.5,4.8-17.29,7.11-11.59,4.59-17.44,6.78l1.87-2.7c-.27,2.27-.51,4.55-.69,6.85s-.33,4.6-.43,6.92-.16,4.65-.19,7,0,4.71,0,7.1a64.66,64.66,0,0,1-2.26-6.81c-.62-2.31-1.13-4.66-1.54-7s-.7-4.77-.9-7.17-.29-4.82-.28-7.24v-1.74l1.87-1c5.59-2.9,11.31-5.57,17.1-8s11.68-4.72,17.64-6.78,12-3.88,18.11-5.44A155.34,155.34,0,0,1,1868.22,1908.67Z"/><path class="cls-7" d="M1806.53,1961.31c8.5-1.75,17-2.84,25.34-4.11s16.64-2.56,24.74-4.36a139.2,139.2,0,0,0,23.62-7.29A99.47,99.47,0,0,0,1902,1933c-4.56,7.43-11.39,13.48-19,18a85,85,0,0,1-24.67,9.4,128.72,128.72,0,0,1-25.93,2.87A146,146,0,0,1,1806.53,1961.31Z"/><path class="cls-7" d="M2038.48,1887.5a96.24,96.24,0,0,1-23.41,14.14,109.16,109.16,0,0,1-13.07,4.54c-4.44,1.26-8.94,2.22-13.43,3.07s-9,1.57-13.44,2.28l-13.33,2.19-6.66,1.13-6.64,1.2c-4.43.77-8.85,1.62-13.27,2.47s-8.83,1.7-13.23,2.63-8.81,1.84-13.21,2.76c-8.81,1.88-17.58,3.91-26.35,5.95s-17.54,4.21-26.29,6.46-17.49,4.55-26.31,6.73c8.26-3.79,16.7-7.13,25.2-10.33s17.13-6,25.82-8.68,17.46-5,26.29-7.23,17.71-4.11,26.64-5.83,17.9-3.21,26.9-4.44c4.51-.61,9-1.2,13.53-1.7s9-1,13.42-1.53a146.81,146.81,0,0,0,26.14-5.19A125.38,125.38,0,0,0,2038.48,1887.5Z"/><path class="cls-7" d="M2354.76,2098.86c-28.18-28.36-57.17-55.88-87.2-82.2-3.74-3.3-7.55-6.53-11.32-9.79l-5.67-4.89-2.83-2.44-2.88-2.4c-7.68-6.36-15.28-12.84-23.1-19l-11.63-9.42-11.78-9.23c-7.81-6.21-15.84-12.12-23.77-18.16q-47.92-35.85-98.59-67.73c-16.94-10.48-33.82-21.24-51.35-30.33s-35.89-16.49-55.09-19.54l.87,0-105.25,11.81-52.67,5.83-52.69,5.69-52.71,5.6c-8.79.93-17.54,1.77-26.13,3.29-2.15.39-4.29.8-6.4,1.29l-1.59.37-.76.18c-.12.07-.29.08-.4.15a1.68,1.68,0,0,0-.93,1.18,2.21,2.21,0,0,0,0,.85,2.06,2.06,0,0,0,.31.76,1.61,1.61,0,0,0,.57.53,1.53,1.53,0,0,0,.39.17,3.78,3.78,0,0,0,.58.13l6.5,1.1a388.35,388.35,0,0,0,105.41,2.14,367.43,367.43,0,0,1-105.92,1.4l-6.59-.93a3.46,3.46,0,0,1-.46-.07l-.58-.14a5.2,5.2,0,0,1-1.14-.45A5.42,5.42,0,0,1,1668,1863a5.88,5.88,0,0,1-1-4.69,5.69,5.69,0,0,1,3-3.9,6.59,6.59,0,0,1,1.14-.45c.33-.11.56-.15.84-.23l1.63-.42c2.18-.55,4.37-1,6.56-1.47,8.78-1.76,17.62-2.8,26.37-3.92l52.62-6.56,52.62-6.48,52.65-6.34,26.32-3.17,26.33-3.09,26.33-3.08,13.17-1.54,6.58-.78c2.2-.24,4.35-.54,6.66-.69l.48,0,.39.06a156.17,156.17,0,0,1,29.69,7.81,237.3,237.3,0,0,1,27.75,12.52c17.94,9.39,34.79,20.22,51.79,30.82,8.42,5.44,16.89,10.8,25.16,16.46l12.46,8.39,12.32,8.61c8.26,5.67,16.3,11.65,24.44,17.49,2,1.46,4,3,6,4.47l6,4.52c4,3,8,6,12,9.09,7.87,6.19,15.84,12.25,23.58,18.62l11.68,9.44,11.52,9.64c7.71,6.39,15.19,13,22.75,19.6l2.83,2.47,2.79,2.51,5.58,5c3.71,3.36,7.46,6.67,11.13,10.07C2299.57,2040.93,2327.88,2069.26,2354.76,2098.86Z"/><path class="cls-7" d="M1768.66,1917.63a21,21,0,0,1-6.74-2.76,45.4,45.4,0,0,1-6-4.19,49,49,0,0,1-5.4-5.11,22.79,22.79,0,0,1-4.45-6.72l-.54-1.37,1.19-1.43c3-3.55,6.08-7,9.31-10.29s6.6-6.5,10.07-9.57c1.75-1.52,3.51-3,5.29-4.51s3.62-2.89,5.45-4.31q5.52-4.21,11.34-8l.51-.33.36-.11a90.72,90.72,0,0,1,21.32-4,80.9,80.9,0,0,1,10.79.07,71,71,0,0,1,10.6,1.59c-3.55.31-7,.66-10.51,1.16s-6.88,1.08-10.25,1.82a132.34,132.34,0,0,0-19.66,6l.86-.44q-5.42,4.07-10.69,8.27c-1.77,1.4-3.51,2.82-5.25,4.25s-3.48,2.87-5.19,4.32q-5.18,4.36-10.21,8.87c-3.38,3-6.7,6.06-10,9.15l.65-2.79a12.31,12.31,0,0,0,1.08,2.68,12.6,12.6,0,0,0,.78,1.43c.27.48.56,1,.88,1.41a60.71,60.71,0,0,0,4.12,5.51c1.49,1.78,3.08,3.49,4.75,5.13A27.34,27.34,0,0,0,1768.66,1917.63Z"/><path class="cls-7" d="M1840.66,1880.05c-1.68.77-3.38,1.45-5.09,2.11s-3.41,1.28-5.13,1.88c-3.44,1.18-6.9,2.24-10.38,3.23s-7,1.87-10.48,2.73-7,1.59-10.57,2.29l1.9-1c-2.48,2.41-5,4.79-7.54,7.11s-5.18,4.6-7.83,6.83-5.39,4.38-8.19,6.47c-1.4,1-2.8,2.07-4.26,3.06s-2.9,2-4.43,2.89c.94-1.51,1.95-3,3-4.38s2.06-2.83,3.12-4.22c2.13-2.76,4.34-5.44,6.6-8.07s4.58-5.21,7-7.73,4.78-5,7.23-7.43l.8-.79,1.1-.23q5.31-1.07,10.65-2c3.56-.56,7.14-1.11,10.73-1.52s7.21-.78,10.85-1c1.81-.11,3.64-.21,5.47-.25S1838.8,1880,1840.66,1880.05Z"/><path class="cls-7" d="M1768.66,1917.63c1.75,1.5,3,2.39,4.2,3.45a23,23,0,0,1,3.07,3.26,22,22,0,0,1,2.44,3.91,27.19,27.19,0,0,1,1.9,5.31,9.36,9.36,0,0,1-6-.93,12.49,12.49,0,0,1-4.36-3.59,12.29,12.29,0,0,1-2.38-5.26,9.73,9.73,0,0,1-.07-3.1A6.31,6.31,0,0,1,1768.66,1917.63Z"/><path class="cls-7" d="M1850.05,1896.82c-3.61,1.09-7.17,2-10.69,3s-7,2-10.44,3-6.86,2.14-10.25,3.28l-5.06,1.76-5,1.86,1.31-.86c-2.25,2.27-4.57,4.48-6.92,6.65s-4.74,4.3-7.19,6.38-5,4.09-7.52,6c-1.28,1-2.58,1.94-3.92,2.86s-2.67,1.86-4.07,2.72c.84-1.42,1.74-2.78,2.66-4.12s1.85-2.67,2.81-4c1.91-2.61,3.9-5.15,5.94-7.63s4.12-4.91,6.26-7.29,4.31-4.74,6.54-7l.55-.56.76-.3,2.64-1,2.67-.93c.9-.29,1.79-.6,2.7-.87l2.71-.78a89.08,89.08,0,0,1,11.07-2.28,81.41,81.41,0,0,1,11.24-.84A63.16,63.16,0,0,1,1850.05,1896.82Z"/><path class="cls-7" d="M1783.23,1933.43a30.79,30.79,0,0,1,5.26,3.85,39.15,39.15,0,0,1,3.88,4,37.46,37.46,0,0,1,3.28,4.48,30.21,30.21,0,0,1,2.92,5.84,12.09,12.09,0,0,1-6.85-1.26,16.36,16.36,0,0,1-8.38-9.93A12.17,12.17,0,0,1,1783.23,1933.43Z"/><path class="cls-7" d="M746.53,1163.28a65.15,65.15,0,0,1-4.74,16.6,48.89,48.89,0,0,1-9.75,14.8,34.83,34.83,0,0,1-15.66,9.31,26.66,26.66,0,0,1-9.1.88,19.22,19.22,0,0,1-8.48-2.67,34.91,34.91,0,0,0,15.49-3.87,47,47,0,0,0,12.27-9,96.23,96.23,0,0,0,10-12.36C739.73,1172.49,742.76,1167.74,746.53,1163.28Z"/><path class="cls-7" d="M703.45,1177.74a163.84,163.84,0,0,1-13.15,35.53,189.89,189.89,0,0,1-20.52,32.11,194.94,194.94,0,0,1-26.47,27.49,179.39,179.39,0,0,1-31.4,21.46l-2.85,1.52.19-3c.2-3.21.33-6.42.59-9.63s.48-6.42.81-9.63c.44,3.2.81,6.4,1.14,9.6s.62,6.4.93,9.6l-2.66-1.44a299.58,299.58,0,0,0,28.59-23.73,282.39,282.39,0,0,0,25.21-27,293.4,293.4,0,0,0,21.56-30.1A352.79,352.79,0,0,0,703.45,1177.74Z"/><path class="cls-7" d="M754,1163.42a74.15,74.15,0,0,0,.32,23.24,93.38,93.38,0,0,0,6.93,21.84,123.29,123.29,0,0,0,11.46,19.82c1.08,1.58,2.27,3.08,3.39,4.62s2.38,3,3.61,4.5c2.46,3,5,5.9,7.61,8.74,10.45,11.44,22,22.11,32.88,33.65a177.64,177.64,0,0,1,15.45,18.25,61.64,61.64,0,0,1,6,10.51,37.62,37.62,0,0,1,3.09,11.55c-2.4-7.58-6.84-14-12-19.72-2.57-2.88-5.31-5.62-8.15-8.3s-5.69-5.36-8.59-8c-11.52-10.59-23.51-20.94-34.31-32.78a153.17,153.17,0,0,1-15-18.94,108.79,108.79,0,0,1-11-21.63,84.35,84.35,0,0,1-5.08-23.71A60.63,60.63,0,0,1,754,1163.42Z"/><path class="cls-7" d="M843,1318.13A67.73,67.73,0,0,0,859.84,1300a74.39,74.39,0,0,0,5.76-10.92,78.51,78.51,0,0,0,4-11.62c4.11-15.9,3.2-32.76-1.45-48.34a112.3,112.3,0,0,0-23.56-42.28,107.15,107.15,0,0,0-8.5-8.68c-3.07-2.66-6.13-5.33-9.43-7.72a144.16,144.16,0,0,0-20.72-12.83,169.12,169.12,0,0,0-22.59-9.4,186.89,186.89,0,0,0-23.72-6.28c-8-1.57-16.17-2.79-24.35-3.57s-16.43-1.1-24.67-1.17c-16.51-.09-33.07.93-49.61,2.47s-33.12,3.53-49.74,5.3l2.46-2.56a67,67,0,0,1-3.13,14.65,111.58,111.58,0,0,1-5.61,13.62c-4.24,8.77-9.09,17.07-13.36,25.59a89.73,89.73,0,0,0-8.85,26.87,50.5,50.5,0,0,0-.09,14.16,36.41,36.41,0,0,0,4.65,13.46,37,37,0,0,1-5.67-13.27,50.43,50.43,0,0,1-.8-14.56c.78-9.76,3.77-19.2,7.65-28.12s8.49-17.36,12.26-26.06,6.75-17.66,7.36-26.8l.15-2.24,2.31-.32c16.52-2.22,33-4.68,49.72-6.48s33.44-3.24,50.33-3.16c8.44,0,16.88.3,25.33,1.07a227.89,227.89,0,0,1,25.18,3.64,194.73,194.73,0,0,1,24.6,6.66,176.22,176.22,0,0,1,23.55,10,149.25,149.25,0,0,1,21.57,13.85c3.42,2.57,6.61,5.44,9.8,8.3a115.76,115.76,0,0,1,32.43,54.52,101.53,101.53,0,0,1,3.24,25.36,84.54,84.54,0,0,1-3.82,25.19A77,77,0,0,1,861.24,1301,65.84,65.84,0,0,1,843,1318.13Z"/><path class="cls-7" d="M607.25,1273.47a34.62,34.62,0,0,0-13.75-16.68,30.6,30.6,0,0,0-19.88-4.78,32.38,32.38,0,0,0-18.07,8.62,30.37,30.37,0,0,0-8.93,17.61,61.12,61.12,0,0,0-.76,10.57c0,3.61.22,7.29.44,11,.45,7.51.84,14.89,2.17,22s3.65,14,8,19.74a30,30,0,0,0,17.69,12.13A24.71,24.71,0,0,1,563,1351a34.35,34.35,0,0,1-9.42-7,42.59,42.59,0,0,1-6.81-9.74,56.77,56.77,0,0,1-4.15-11.06c-2.05-7.59-2.81-15.29-3.55-22.78s-1.31-15.39,0-23.45a39.88,39.88,0,0,1,3.86-11.79,35.55,35.55,0,0,1,7.72-9.89,37,37,0,0,1,22.53-9.27,32.26,32.26,0,0,1,12.12,1.85,35.59,35.59,0,0,1,10.44,5.9C601.79,1258.85,606.15,1265.93,607.25,1273.47Z"/><path class="cls-7" d="M837.37,1318.34c-.25.06-.58.16-.81-.07a1.08,1.08,0,0,1-.25-.81,2.93,2.93,0,0,1,.64-1.59,1.38,1.38,0,0,1,1.7-.44,2.63,2.63,0,0,1,1.26,1.29,6,6,0,0,1,.28,3.48,25.4,25.4,0,0,1-.88,3.28c-1.34,4.25-2.63,8.52-4,12.76s-3,8.4-4.56,12.6l-5,12.42c-1.82,4.09-3.71,8.14-5.56,12.22s-4,8-6,12-4.31,7.85-6.47,11.78c-1.06,2-2.24,3.88-3.4,5.79l-3.5,5.75a368,368,0,0,1-31.7,43.46,376,376,0,0,1-37.77,38.38c-3.43,2.92-6.76,5.93-10.33,8.67l-5.28,4.19-2.63,2.1c-.91.69-1.82,1.38-2.75,2.05a45.25,45.25,0,0,1-12.76,6.89,25.25,25.25,0,0,1-7.73,1.14,25.76,25.76,0,0,1-7.59-1.31,50.65,50.65,0,0,1-12.68-6.64c-1.91-1.29-3.67-2.67-5.51-4s-3.66-2.66-5.4-4.11a197.47,197.47,0,0,1-20.11-18.12c-25.2-25.79-43.78-58-52.69-92.5a230.15,230.15,0,0,0,56.92,88.25c1.53,1.57,3.2,3,4.82,4.47s3.22,3,4.94,4.34l5,4.22,5.19,4c1.72,1.36,3.51,2.61,5.31,3.87s3.56,2.56,5.37,3.72a43.84,43.84,0,0,0,11,5.53,19.86,19.86,0,0,0,5.52.88,17.79,17.79,0,0,0,5.41-.84,38.06,38.06,0,0,0,10.55-5.88c.86-.63,1.72-1.29,2.59-1.95l2.57-2.07,5.14-4.15c3.48-2.7,6.72-5.69,10.06-8.55a386,386,0,0,0,37.34-37.34,406.91,406.91,0,0,0,32.17-42l3.63-5.54c1.22-1.85,2.44-3.69,3.55-5.6l3.42-5.67c1.12-1.9,2.35-3.75,3.4-5.69,2.15-3.86,4.37-7.69,6.47-11.58l6.07-11.81,5.72-12,5.31-12.2c1.7-4.1,3.27-8.25,4.93-12.38a24.39,24.39,0,0,0,1.12-3.08,5.31,5.31,0,0,0,0-3.08,2.17,2.17,0,0,0-.93-1.14,1,1,0,0,0-1.28.26,2.62,2.62,0,0,0-.72,1.4,1,1,0,0,0,.16.75C836.79,1318.43,837.11,1318.38,837.37,1318.34Z"/><path class="cls-7" d="M570.57,1348c-3.17,12.57-7.1,24.84-11.19,37-1,3-2.08,6.1-3.16,9.13s-2.16,6.06-3.31,9.12a87.61,87.61,0,0,1-8.92,18,62.41,62.41,0,0,1-6.5,7.92,97.32,97.32,0,0,1-7.36,6.78q-3.79,3.15-7.65,6.06c-2.54,2-5.11,3.9-7.69,5.83-10.34,7.68-20.8,15.21-31.77,22.11,8.93-9.39,18.38-18.16,27.94-26.78,4.76-4.32,9.74-8.5,14.39-12.71a76.86,76.86,0,0,0,12.29-13.53,96,96,0,0,0,8.54-16.38c2.48-5.83,5-11.82,7.59-17.69C559,1371.1,564.41,1359.41,570.57,1348Z"/><path class="cls-7" d="M637.83,1474.93c-1.49,8.21-2.74,16.19-3.38,24.18a173,173,0,0,0-.36,23.87,176.07,176.07,0,0,0,2.94,23.68c1.51,7.88,3.61,15.67,6,23.68a74.33,74.33,0,0,1-11.8-22.12,93.07,93.07,0,0,1-2.7-50A74.22,74.22,0,0,1,637.83,1474.93Z"/><path class="cls-7" d="M643.58,1573.12a94.58,94.58,0,0,1-1.49,16.82,45.24,45.24,0,0,1-6.17,16.11,32.76,32.76,0,0,1-13.25,11.83,25.11,25.11,0,0,1-9,2.29,30.33,30.33,0,0,1-9.19-1,58.4,58.4,0,0,1-16-7.32,141.93,141.93,0,0,1-14-9.94c-8.92-7.13-16.95-15.07-24.95-22.88-16-15.7-31.64-32.13-44.39-51l-4.59-7.16c-1.42-2.46-2.87-4.91-4.24-7.4l-3.78-7.63-3.32-7.85a102,102,0,0,1-6.84-33,120.58,120.58,0,0,0,10.31,31.55l3.78,7.35,4.21,7.11,4.53,6.9,4.83,6.7c13.26,17.64,29,33.3,44.89,49,4,3.92,7.94,7.84,11.94,11.66s8.06,7.55,12.23,11.09a134.28,134.28,0,0,0,13,9.88c4.55,3,9.17,5.69,14,7.23a24.86,24.86,0,0,0,7.38,1.19,22,22,0,0,0,7.25-1.38,28.72,28.72,0,0,0,12.16-9.41,36.42,36.42,0,0,0,4.22-6.81,58.09,58.09,0,0,0,3-7.64,77,77,0,0,0,2-8.05C642.66,1578.64,643.11,1575.88,643.58,1573.12Z"/><path class="cls-7" d="M478.94,1466.25c-16.37-7.54-32.76-15-49.08-22.64l-24.51-11.39c-8.18-3.76-16.31-7.69-24.54-11.21a127.8,127.8,0,0,0-25.32-8.24,59.69,59.69,0,0,0-26,.24,62.78,62.78,0,0,0-23.12,11.77,130.55,130.55,0,0,0-18.88,18.59c-2.89,3.38-5.72,6.87-8.45,10.39s-5.25,7.14-7.75,10.82c-4.93,7.43-9.54,15.11-14,22.9-8.83,15.6-17,31.62-24.77,47.8-15.63,32.35-29.92,65.38-43.45,98.71q-40.63,100-72.2,203.32c-20.82,68.82-39.07,138.57-50.57,209.52l0-.52c.34,12.25,1.26,24.66,2.44,37s2.75,24.61,4.58,36.85A569.83,569.83,0,0,0,89,2192.7c6.8,23.8,15.42,47.15,27,69.07a229.51,229.51,0,0,0,19.81,31.38,168.47,168.47,0,0,0,25.32,27.19,169.31,169.31,0,0,1-26.24-26.47,229.36,229.36,0,0,1-20.69-31.12c-12.17-21.81-21.41-45.15-28.82-69a572.43,572.43,0,0,1-16.94-72.87c-2.08-12.3-3.75-24.67-5.11-37.08s-2.42-24.81-2.92-37.4v-.23l0-.29q4-26.82,9.3-53.39t11.63-52.91c8.33-35.14,18-69.94,28.41-104.49s21.74-68.84,33.9-102.81,25-67.72,38.78-101.08,28.39-66.39,44.4-98.78c8-16.17,16.43-32.19,25.55-47.84,4.57-7.82,9.32-15.55,14.46-23.07,2.6-3.73,5.22-7.46,8.12-11s5.76-7,8.77-10.43a135.23,135.23,0,0,1,19.91-18.92,67.06,67.06,0,0,1,24.92-12.12,56.5,56.5,0,0,1,13.88-1.43,71.13,71.13,0,0,1,13.75,1.7,130.87,130.87,0,0,1,25.77,9.06c8.25,3.76,16.25,7.87,24.35,11.83l24.23,12C446.71,1450.13,462.81,1458.22,478.94,1466.25Z"/><path class="cls-7" d="M640,1558.67a82.17,82.17,0,0,1,26.21,13.53,119.09,119.09,0,0,1,21.13,21,182.32,182.32,0,0,1,16.26,24.91c4.79,8.65,9,17.52,13.19,26.36,8.18,17.71,16.54,35.19,25.34,52.57s18,34.56,27.07,51.88a487,487,0,0,1-32.37-49c-9.85-16.93-18.81-34.46-27-52.2s-16.35-35.22-27.33-50.93q-4.11-5.88-8.75-11.36a110.73,110.73,0,0,0-9.95-10.37A98.18,98.18,0,0,0,640,1558.67Z"/><path class="cls-7" d="M773.72,1313.58a64.56,64.56,0,0,0-6.94-21,52.47,52.47,0,0,0-31.94-26,64.71,64.71,0,0,0-22-2.57,39.7,39.7,0,0,1,23.24-3.33,45.05,45.05,0,0,1,36.16,29.47A39.81,39.81,0,0,1,773.72,1313.58Z"/><path class="cls-7" d="M823.36,1353.63c.2-.16.41-.29.61-.43s.41-.24.61-.36l-.32,1.73a20.27,20.27,0,0,1-5.69,1,22.94,22.94,0,0,1-5.2-.48,22.36,22.36,0,0,1-5-1.63,18.61,18.61,0,0,1-5-3.38,13.6,13.6,0,0,1,5.7-2.45,17,17,0,0,1,5.65-.08,17.5,17.5,0,0,1,5.36,1.68,14.71,14.71,0,0,1,4.71,3.7l5.39,6.49-5.71-4.76c-.18-.16-.36-.28-.54-.46A6.57,6.57,0,0,1,823.36,1353.63Z"/><path class="cls-7" d="M747.1,1342.6a74.46,74.46,0,0,0-5.69-20.37,59.07,59.07,0,0,0-27.19-29,75.37,75.37,0,0,0-20-7,40.94,40.94,0,0,1,22.32,1.4,47.24,47.24,0,0,1,30.52,32.51A41.07,41.07,0,0,1,747.1,1342.6Z"/><path class="cls-7" d="M812.27,1382.14a52.39,52.39,0,0,0-7.25-5.5,46,46,0,0,0-7.16-3.65,48.46,48.46,0,0,0-7.66-2.4,52.59,52.59,0,0,0-9-1.16,14.14,14.14,0,0,1,9.09-4.88,20.4,20.4,0,0,1,18.92,7.74A14.17,14.17,0,0,1,812.27,1382.14Z"/><path class="cls-7" d="M794.52,1334.6c-5.94,2.37-10,7-12.71,12.07s-3.79,10.9-4.46,16.84c-.31,3-.55,6-.74,9.07-.1,1.52-.18,3-.22,4.56s-.12,3-.12,4.53a107.45,107.45,0,0,0,1.21,17.95l.83,5.3-4.72-1.56c-2.2-.73-4.4-1.5-6.59-2.28s-4.38-1.59-6.56-2.43-4.34-1.71-6.5-2.63-4.31-1.85-6.43-2.9c2.36.15,4.69.42,7,.69s4.64.61,7,1,4.6.75,6.89,1.16,4.57.86,6.85,1.32l-3.89,3.74a74.09,74.09,0,0,1-2.67-19.31c0-1.62,0-3.23.06-4.84s.17-3.22.29-4.82c.29-3.19.64-6.36,1.23-9.58,1.15-6.38,3.26-13,7.43-18.46a26.9,26.9,0,0,1,7.5-6.7A19,19,0,0,1,794.52,1334.6Z"/><path class="cls-7" d="M735.61,1448.69a18.26,18.26,0,0,0,4.18-7.26,21.71,21.71,0,0,0,.76-8,23.88,23.88,0,0,0-6-14.09,24.54,24.54,0,0,0-6-4.57,30.15,30.15,0,0,0-7.18-2.76,40.33,40.33,0,0,0-15.65-.63c-.66.07-1.31.2-2,.32s-1.3.24-1.95.4l-1,.23c-.3.07-.55.15-.83.23a17,17,0,0,0-1.6.61,10.16,10.16,0,0,0-2.68,1.63,4.65,4.65,0,0,0-.79.86,2.07,2.07,0,0,0-.3.64c-.06.09,0,.18-.06.28s0,.23,0,.33a2.55,2.55,0,0,0,.38.86,19,19,0,0,0,2.41,2.72q3,3,6,6c8.19,7.91,16.94,15.28,26,22.57a132.24,132.24,0,0,1-30-18c-2.3-1.81-4.56-3.69-6.75-5.65a22.61,22.61,0,0,1-3.52-3.58,10,10,0,0,1-1.51-3,11.08,11.08,0,0,1-.33-1.81,9.11,9.11,0,0,1,.08-1.88,8.83,8.83,0,0,1,1.23-3.37,11.85,11.85,0,0,1,2-2.43,17.25,17.25,0,0,1,4.56-3,21.89,21.89,0,0,1,2.43-1l1.25-.37,1.13-.28c.76-.19,1.52-.36,2.29-.49s1.53-.31,2.3-.4a48.78,48.78,0,0,1,9.36-.41,42,42,0,0,1,9.33,1.63,31.32,31.32,0,0,1,15.88,10.5,26.52,26.52,0,0,1,5.17,18,21.69,21.69,0,0,1-2.57,8.84,22.46,22.46,0,0,1-1.22,1.93c-.49.59-.91,1.21-1.44,1.75s-1.08,1-1.65,1.5S736.21,1448.29,735.61,1448.69Z"/><path class="cls-7" d="M914.4,1381.51a15.61,15.61,0,0,1,6.34,4.41,23.62,23.62,0,0,1,4,6.81,55.07,55.07,0,0,1,3.1,15.32c.62,10.24,1.18,20.37,1.61,30.56.21,5.09.46,10.15.56,15.31a115.18,115.18,0,0,1-.55,15.7,69,69,0,0,1-3.6,15.65,101.13,101.13,0,0,1-6.56,14.42,231.58,231.58,0,0,1-16.89,26,240.47,240.47,0,0,1-20,23.52,222.19,222.19,0,0,1-48.26,37.91,339.55,339.55,0,0,0,43.81-42c6.59-7.62,12.82-15.52,18.61-23.73l4.28-6.19,4.1-6.32,4-6.4q1.93-3.23,3.71-6.49c4.79-8.69,8.46-17.69,9.69-27.29s1-19.82,1.19-30,.41-20.4.66-30.53a56.1,56.1,0,0,0-1.37-14.78,22.28,22.28,0,0,0-2.88-6.77A15.73,15.73,0,0,0,914.4,1381.51Z"/><path class="cls-7" d="M914.29,1381.35A7.16,7.16,0,0,0,908,1383a9.82,9.82,0,0,0-2,2.23,10.54,10.54,0,0,0-.66,1.23c-.1.21-.15.42-.23.62l-.22.69c-1,3.74-.38,8.17,0,13.16a131.8,131.8,0,0,1,.25,14.88,77.39,77.39,0,0,1-1.94,15,77.22,77.22,0,0,1-4.08-14.6,129.49,129.49,0,0,1-1.89-14.76,55.29,55.29,0,0,1-.13-7.78,20,20,0,0,1,2.31-8.37c.19-.33.37-.65.6-1s.46-.67.72-1a12.38,12.38,0,0,1,1.67-1.65,12.08,12.08,0,0,1,4-2.11,9.28,9.28,0,0,1,4.37-.28A6,6,0,0,1,914.29,1381.35Z"/><path class="cls-7" d="M904,1467.62c-2.18-9.28-3.58-18.59-5.12-27.8s-3-18.35-5-27.33a210,210,0,0,0-7.5-26.46c-1.54-4.29-3.21-8.32-6.22-11.21a11.89,11.89,0,0,0-5.45-3,9,9,0,0,0-6.52.79,7.86,7.86,0,0,1,3-2.13,11,11,0,0,1,3.74-.78,13.49,13.49,0,0,1,7.53,2.07,20.75,20.75,0,0,1,5.65,5.39,44.09,44.09,0,0,1,3.84,6.42,114.43,114.43,0,0,1,9.45,27.22,162.51,162.51,0,0,1,3.52,28.37A195.48,195.48,0,0,1,904,1467.62Z"/><path class="cls-7" d="M862.48,1517.24l1.3-2.07.66-1,.57-1.08,1.15-2.14,1-2.22.49-1.1.42-1.14.84-2.26c.44-1.55,1-3.06,1.32-4.63a87,87,0,0,0,1.77-9.46c.35-3.19.65-6.38.75-9.61.3-6.42.15-12.89-.05-19.38s-.33-13-.5-19.55-.33-13-.4-19.55-.14-13-.64-19.32c-.26-3.16-.62-6.27-1.13-9.34a61.93,61.93,0,0,0-2.22-8.9,40.37,40.37,0,0,0-3.73-8.07l-1.19-1.84-1.33-1.71a20.2,20.2,0,0,0-1.45-1.62l-.74-.79c-.25-.25-.46-.44-.7-.64a11.79,11.79,0,0,0-3.06-1.92,7.86,7.86,0,0,0-1.42-.39,3.44,3.44,0,0,0-1,0,1.64,1.64,0,0,0-.67.34,2.28,2.28,0,0,0-.6.76A10.53,10.53,0,0,0,851,1372a170.09,170.09,0,0,0-1.32,19c-.13,6.41,0,12.86.26,19.34l.44,9.73.38,9.78c.23,6.54.45,13.11.29,19.7a194.25,194.25,0,0,1-1.41,19.72c-1.74,13.06-5.34,26.08-12,37.35a110.62,110.62,0,0,0,8.25-37.7,191.71,191.71,0,0,0,.13-19.33c-.25-6.45-.68-12.9-1.23-19.38-1.12-12.94-2.26-26-2.37-39.26a164.52,164.52,0,0,1,1.07-20,17.72,17.72,0,0,1,1.72-6,10,10,0,0,1,2.43-3,9.36,9.36,0,0,1,3.64-1.87,10.61,10.61,0,0,1,3.85-.24,14.65,14.65,0,0,1,3.3.86,19,19,0,0,1,5.22,3.2c.38.32.77.68,1.09,1l.93,1a24.77,24.77,0,0,1,1.8,2l1.66,2.15,1.46,2.27a46.41,46.41,0,0,1,4.41,9.66,79.61,79.61,0,0,1,3.39,20.16c.35,6.69.19,13.29.12,19.78s-.2,13-.35,19.55-.24,13-.45,19.56-.46,13.11-1.23,19.68a89.3,89.3,0,0,1-4.22,19.38A50.92,50.92,0,0,1,862.48,1517.24Z"/><path class="cls-7" d="M842.2,1394.83a3.08,3.08,0,0,0,.7-1.7,3.62,3.62,0,0,0-.37-1.74,5.61,5.61,0,0,0-2.49-2.45,4,4,0,0,0-3.18-.3,6.81,6.81,0,0,0-2.81,1.81,16.88,16.88,0,0,0-3.38,6.2,62.58,62.58,0,0,0-1.87,7.21l-.39,1.82c-.13.6-.18,1.22-.28,1.84-.16,1.23-.36,2.45-.49,3.69l-.29,3.73c-.11,1.23-.09,2.5-.14,3.74l-.05,1.87v1.89c0,1.26,0,2.51,0,3.77.06,2.52.13,5,.23,7.59.18,5.08.45,10.2.44,15.4a108.66,108.66,0,0,1-.87,15.74l-.25,2c-.09.66-.24,1.32-.37,2-.27,1.31-.48,2.64-.82,3.95l-1.1,3.91c-.35,1.31-.86,2.57-1.31,3.85a76.62,76.62,0,0,1-7.49,14.24c-5.91,8.87-13.1,16.49-20.21,23.83s-14.16,14.51-20,22.49-10.49,16.82-11.92,26.62a45.37,45.37,0,0,0-.65,7.37c0,1.23,0,2.48.16,3.7l.18,1.85.29,1.84a14.12,14.12,0,0,0,.37,1.83l.43,1.82.59,1.79.29.89.37.87a33.76,33.76,0,0,0,3.59,6.69,32.54,32.54,0,0,1-7.71-13.39,44,44,0,0,1-1.66-15.67,54.51,54.51,0,0,1,3.42-15.54c.44-1.27,1-2.46,1.52-3.69s1.12-2.4,1.75-3.56c1.22-2.36,2.58-4.63,4-6.84,5.76-8.85,12.82-16.56,19.72-24.07,3.45-3.75,6.88-7.45,10.1-11.28a120.91,120.91,0,0,0,9-11.79,70.57,70.57,0,0,0,6.85-12.77c.4-1.13.88-2.23,1.21-3.38l1-3.44c.33-1.16.53-2.36.81-3.54.12-.59.27-1.18.38-1.78l.28-1.81a115.8,115.8,0,0,0,1.3-14.8c.19-5,.2-10.1.3-15.23s.25-10.32.8-15.51c.16-1.3.25-2.59.47-3.89l.62-3.88c.23-1.29.56-2.57.83-3.85a33.88,33.88,0,0,1,1-3.8,66.09,66.09,0,0,1,2.77-7.38,18,18,0,0,1,4.7-6.66,8.6,8.6,0,0,1,3.83-1.84,5,5,0,0,1,2.22,0,5.83,5.83,0,0,1,2,.87,6.46,6.46,0,0,1,2.46,3.22,4,4,0,0,1,.12,2A3.21,3.21,0,0,1,842.2,1394.83Z"/><path class="cls-7" d="M765.94,1594a559.46,559.46,0,0,1,6.47,56.27,545,545,0,0,1,.81,56.74,433.93,433.93,0,0,1-5.82,56.52A312.38,312.38,0,0,1,753,1818.43c3.46-18.57,6.37-37.1,8.4-55.72s3.37-37.27,4.12-56,.94-37.45.85-56.23S765.93,1612.93,765.94,1594Z"/><path class="cls-7" d="M832.2,1584.3c.17,35.79,4.26,71.33,10,106.54,2.87,17.62,6.18,35.16,9.55,52.7s7,35,10.31,52.64,6.58,35.2,9.39,52.92,5,35.56,6.59,53.47l1,13.46.71,13.48c.14,4.51.2,9,.31,13.51l-.07,13.52a397.6,397.6,0,0,1-4.62,53.91l-.49,3.14-3.16,0c-23-.19-45.66-6-66.41-15.25a232.57,232.57,0,0,1-56.83-37c-17-14.93-32.13-31.72-46-49.36l-5.17-6.65-5.08-6.71-5-6.78-4.91-6.82c-6.53-9.12-12.83-18.38-19.15-27.63q10.18,13.37,20.5,26.62l5.2,6.59,5.25,6.53,5.31,6.5,5.38,6.42c14.5,17,29.89,33.22,47,47.38A229.64,229.64,0,0,0,808,1992.34c20.19,8.74,42,14,63.82,13.87l-3.64,3.11a390.1,390.1,0,0,0,4.31-52.91v-13.3l-.35-13.31-.64-13.3-1-13.29c-1.46-17.71-3.68-35.38-6.31-53s-5.56-35.23-8.69-52.81-6.3-35.19-9.36-52.82-5.88-35.33-8.25-53.09C833.17,1656,830.36,1620.06,832.2,1584.3Z"/><path class="cls-7" d="M741.5,1317.52a11.53,11.53,0,0,1-2.39,7,11.38,11.38,0,0,1-7,4.3,11.52,11.52,0,0,1-4.63-.15,11.33,11.33,0,0,1-7.49-6.15,11.62,11.62,0,0,1,3.11-14,11,11,0,0,1,4.37-2.18,11.22,11.22,0,0,1,4.64-.15,11.41,11.41,0,0,1,7,4.31A11.6,11.6,0,0,1,741.5,1317.52Zm0,0a7.84,7.84,0,0,0-3.13-6.28,7.28,7.28,0,0,0-3.12-1.35,7.38,7.38,0,0,0-7.47,3.32,8,8,0,0,0,0,8.64,7.48,7.48,0,0,0,4.33,3.18,7.58,7.58,0,0,0,3.16.14,7.42,7.42,0,0,0,3.12-1.36A7.85,7.85,0,0,0,741.5,1317.52Z"/><path class="cls-7" d="M802.19,1377.56a9.86,9.86,0,0,1-1.87,5.79,9.66,9.66,0,0,1-5.8,3.79,9.79,9.79,0,0,1-4,0,9.51,9.51,0,0,1-3.8-1.8,9.9,9.9,0,0,1-3.75-7.76,10.08,10.08,0,0,1,1-4.36,9.79,9.79,0,0,1,2.74-3.42,9.5,9.5,0,0,1,3.81-1.81,9.47,9.47,0,0,1,9.77,3.79A9.87,9.87,0,0,1,802.19,1377.56Zm0,0a6.13,6.13,0,0,0-2.62-5.06,5.57,5.57,0,0,0-8.13,2,6.66,6.66,0,0,0-.76,3.08,6.5,6.5,0,0,0,.75,3.09,5.57,5.57,0,0,0,8.15,2A6.15,6.15,0,0,0,802.19,1377.56Z"/><path class="cls-7" d="M705.21,1709.36c-8.71,23.3-17.23,46.65-25.32,70.14-3.9,11.8-8,23.51-11.76,35.36s-7.48,23.68-11.19,35.52l-5.3,17.85-2.63,8.93-2.52,9c-1.68,6-3.46,11.92-5,17.92l-4.85,18c-6.22,24-12.28,48.09-17.68,72.31-1.39,6-2.63,12.12-3.95,18.18l-2,9.1-1.87,9.11c-1.23,6.08-2.52,12.15-3.7,18.24L604,2067.24c-1.19,6.09-2.17,12.21-3.27,18.32s-2.18,12.21-3.17,18.32c-2,12.22-3.74,24.43-4.53,36.67q-.6,9.18-.41,18.34l.16,4.58L593,2168l.73,9.26c.52,6.17,1.12,12.32,2,18.41a163.16,163.16,0,0,0,3.28,18.07,101.75,101.75,0,0,0,5.92,17.27,141.92,141.92,0,0,0,8.63,16.29q4.82,7.93,10,15.7l10.29,15.57c-7.69-9.79-15.43-19.52-22.51-29.83a144.25,144.25,0,0,1-9.73-16.14,91,91,0,0,1-3.89-8.67c-1.17-2.95-2.19-6-3.08-9-3.59-12.18-5.27-24.68-6.73-37.08l-1-9.3-.4-4.74-.27-4.74c-.28-6.32-.18-12.64.14-18.93.65-12.6,2.24-25.06,4.1-37.4.92-6.18,1.94-12.32,3-18.46s2-12.29,3.2-18.41q6.58-36.8,14.9-73.25,16.63-72.89,40-144l6-17.7c1-3,2-5.9,3.07-8.82l3.13-8.8c2.09-5.87,4.16-11.73,6.37-17.56s4.34-11.67,6.56-17.48Q690.09,1743.49,705.21,1709.36Z"/><path class="cls-7" d="M2464.1,1910.59c32.69,69.33,55.33,143.47,68.23,219.22a912,912,0,0,1,12.13,114.6,931,931,0,0,1-18.73,229.38l-6.34,28.13-7.2,27.92-8.05,27.68-9,27.39c-25,72.65-59.4,142.13-102.92,205.23A937.51,937.51,0,0,0,2489.48,2583l8.49-27.34,7.73-27.57,6.88-27.78,6-28a976.1,976.1,0,0,0,7.83-341.56A937.51,937.51,0,0,0,2464.1,1910.59Z"/><path class="cls-7" d="M238.57,1910.59a937,937,0,0,0-62.33,220.18,978.42,978.42,0,0,0,7.82,341.56l6,28,6.88,27.78,7.72,27.57,8.5,27.34a937.48,937.48,0,0,0,97.23,207.14c-43.51-63.1-77.89-132.58-102.91-205.23l-9-27.39-8.06-27.68-7.19-27.92-6.35-28.13a931,931,0,0,1-18.73-229.38,913.85,913.85,0,0,1,12.14-114.6C183.24,2054.06,205.89,1979.92,238.57,1910.59Z"/><path class="cls-7" d="M1270.7,1008.5a7.87,7.87,0,0,1-.87,3.82,4.38,4.38,0,0,1-1.86,1.88,4.28,4.28,0,0,1-2.61.41,7.89,7.89,0,0,1-3.6-1.55,8,8,0,0,1,.86-3.83,4.32,4.32,0,0,1,1.87-1.87,4.44,4.44,0,0,1,2.61-.4A8.08,8.08,0,0,1,1270.7,1008.5Z"/><path class="cls-7" d="M1107.71,894.09l.68,15.16,1.17,15.12,1.57,15.08,2,15a481.8,481.8,0,0,0,12.84,59.12,488.08,488.08,0,0,0,46.58,111.12q7.47,13.11,15.92,25.57c5.62,8.31,11.55,16.4,17.89,24.14a231.69,231.69,0,0,0,43.1,41.22,180.57,180.57,0,0,0,25.38,15.42,164,164,0,0,0,27.62,10.74c19,5.38,39.07,7.16,58.46,4.11l3.63-.56c1.2-.23,2.39-.53,3.59-.78l3.58-.8c1.2-.25,2.35-.67,3.53-1a106.83,106.83,0,0,0,13.84-4.9,143.73,143.73,0,0,0,25.72-14.52,199.7,199.7,0,0,0,23.05-18.89c3.58-3.47,7.26-6.85,10.63-10.54l5.15-5.44,4.93-5.64,2.47-2.82c.82-.94,1.57-1.94,2.36-2.9l4.7-5.85c.8-1,1.53-2,2.27-3l2.23-3c1.47-2,3-4,4.41-6.06l4.22-6.21c.7-1,1.42-2.07,2.1-3.12l2-3.18,4-6.37c1.29-2.14,2.51-4.33,3.77-6.5,5.06-8.65,9.54-17.63,13.93-26.66,4.2-9.11,8.27-18.3,11.84-27.7.89-2.34,1.82-4.68,2.69-7l2.52-7.11,1.25-3.55c.42-1.19.79-2.39,1.18-3.59l2.32-7.17c.79-2.39,1.45-4.82,2.18-7.23s1.46-4.82,2.12-7.24l2-7.29,1-3.65.92-3.67c4.93-19.53,8.94-39.33,12.16-59.26s6-40,8.24-60.07q1.69-15.08,3.21-30.18l3.09-30.2-1.94,30.3c-.7,10.1-1.5,20.19-2.34,30.28-1.7,20.18-3.8,40.34-6.54,60.43s-6.43,40.09-11,59.89a472.91,472.91,0,0,1-17.43,58.48c-3.47,9.57-7.47,19-11.6,28.29-4.35,9.22-8.85,18.4-13.92,27.26-1.27,2.22-2.49,4.46-3.79,6.66l-4,6.54-2,3.27c-.69,1.07-1.41,2.13-2.12,3.2l-4.25,6.38c-1.42,2.13-3,4.16-4.46,6.25l-2.25,3.1c-.75,1-1.49,2.08-2.3,3.07l-4.76,6c-.8,1-1.56,2-2.39,3l-2.51,2.91-5,5.83c-1.73,1.89-3.51,3.74-5.26,5.61-3.45,3.8-7.22,7.28-10.89,10.86a208.06,208.06,0,0,1-23.81,19.62,150.78,150.78,0,0,1-27,15.35,115.2,115.2,0,0,1-14.73,5.27c-1.25.35-2.49.8-3.76,1.07l-3.82.87c-1.28.28-2.55.59-3.83.84l-3.87.6c-20.65,3.18-41.81,1.21-61.7-4.48a174.81,174.81,0,0,1-55.2-27.52,238,238,0,0,1-44-42.84,355.1,355.1,0,0,1-33.79-51,475.07,475.07,0,0,1-45-113.09,486.81,486.81,0,0,1-11.23-59.81l-1.62-15.13-1.14-15.15-.59-15.19Z"/><path class="cls-7" d="M1344.36,983.44c3.21,11.9,5.6,24,7.74,36.07s3.73,24.29,5,36.51,2.22,24.47,2.78,36.75.76,24.56.43,36.85l0,2-1.73.19c-4.2.44-8.41.71-12.62,1.07s-8.43.58-12.67.73c4.08-1.14,8.19-2.15,12.29-3.16s8.22-2,12.35-2.81l-1.78,2.16c-1.25-12.19-2.3-24.37-3.38-36.54l-3.11-36.51q-1.55-18.26-3-36.55C1345.8,1008,1344.85,995.75,1344.36,983.44Z"/><path class="cls-7" d="M1356.61,1191.36a97.38,97.38,0,0,1,18-16.12,128.33,128.33,0,0,1,44.06-19.76,96.83,96.83,0,0,1,24-2.73c-7.54,3-15,5.62-22.26,8.5s-14.5,5.84-21.61,9-14.13,6.56-21.12,10.12S1363.83,1187.7,1356.61,1191.36Z"/><path class="cls-7" d="M1188.63,980.71a.7.7,0,0,0,0-.65.88.88,0,0,0-.53-.28,1.55,1.55,0,0,0-1.16.19.43.43,0,0,0-.24.29c0,.08,0,.15,0,.34a1.67,1.67,0,0,0,.44.84,6.76,6.76,0,0,0,2,1.35l2.7,1.23c.91.41,1.78.86,2.69,1.25l2.72,1.16c1.78.82,3.63,1.5,5.43,2.23a166.19,166.19,0,0,0,22.19,7.06,177.7,177.7,0,0,0,22.94,4c7.77.87,15.65,1.2,23.8,1.39a73.67,73.67,0,0,1-24,4.65,91.55,91.55,0,0,1-24.55-2.58,89.14,89.14,0,0,1-23-9.09c-1.77-1.05-3.56-2.05-5.24-3.25l-2.54-1.74c-.83-.6-1.63-1.25-2.43-1.89s-1.59-1.26-2.4-1.94a8,8,0,0,1-2.22-2.79,3.45,3.45,0,0,1-.23-2,2,2,0,0,1,.51-1,1.68,1.68,0,0,1,1-.53,2.45,2.45,0,0,1,1.76.37,1.28,1.28,0,0,1,.57.7A.85.85,0,0,1,1188.63,980.71Z"/><path class="cls-7" d="M1405.33,989.9c-1.56.38-3.11.75-4.68,1.07s-3.12.67-4.68.95l.14-2.72c8.51.44,16.92.52,25.27.13a217.58,217.58,0,0,0,24.87-2.55,231.6,231.6,0,0,0,24.49-5.34c8.11-2.21,16.13-4.89,24.3-7.77a95.49,95.49,0,0,1-22.41,13.19,116.87,116.87,0,0,1-25.1,7.43,119.36,119.36,0,0,1-26.14,1.8,105.52,105.52,0,0,1-25.75-4.19L1385,988.74l10.8.44c1.59.07,3.18.2,4.77.3S1403.73,989.73,1405.33,989.9Z"/><path class="cls-7" d="M1411.81,997a29.57,29.57,0,0,0,11.33,5.63,36.67,36.67,0,0,0,23-2,29.8,29.8,0,0,0,10.21-7.46c-.17,4.8-3.06,9.45-7,12.57a26.62,26.62,0,0,1-28.55,2.44C1416.44,1005.78,1412.81,1001.7,1411.81,997Z"/><path class="cls-7" d="M1208.75,999.42c.21-.28.18-.55,0-.64a1.27,1.27,0,0,0-.65-.19,1.11,1.11,0,0,0-.61.12c-.14.09-.1.19,0,.18s.1.2.17.28a1.46,1.46,0,0,0,.26.32,5.51,5.51,0,0,0,.95.76c.2.12.41.26.63.38l.74.41,1.57.94,3.07,1.87a82.68,82.68,0,0,0,11.86,6.49,27.11,27.11,0,0,0,3,1.06,19.38,19.38,0,0,0,2.94.72,23.42,23.42,0,0,0,6.16.26,18,18,0,0,0,11.92-5.41,12,12,0,0,1-3.54,7,17.78,17.78,0,0,1-7,4.28,21.59,21.59,0,0,1-8.27,1.09,23.19,23.19,0,0,1-4.18-.65,31.58,31.58,0,0,1-3.89-1.27,39.61,39.61,0,0,1-12.69-8.88c-.88-.89-1.73-1.8-2.54-2.73-.41-.47-.82-.92-1.21-1.4l-.64-.77a9,9,0,0,1-.65-.9,6.4,6.4,0,0,1-1-2.29,3.58,3.58,0,0,1,0-1.46,3,3,0,0,1,.72-1.43,1.86,1.86,0,0,1,1.61-.53,2.49,2.49,0,0,1,1.16.49,2.07,2.07,0,0,1,.69,1,.73.73,0,0,1-.08.63A.83.83,0,0,1,1208.75,999.42Z"/><path class="cls-7" d="M1158.35,927.9a148.67,148.67,0,0,1,34.26-5.15,182.69,182.69,0,0,1,68.46,10.65,148.24,148.24,0,0,1,31.07,15.35c-11-3.49-21.87-6.81-32.84-9.58s-22-5-33.13-6.79-22.33-2.93-33.62-3.62S1169.89,927.92,1158.35,927.9Z"/><path class="cls-7" d="M1379.33,944a116.12,116.12,0,0,1,22.8-16.93,147.71,147.71,0,0,1,53.73-18.27,115.87,115.87,0,0,1,28.4-.46c-9.25,2.09-18.31,4.05-27.25,6.39s-17.74,4.92-26.43,7.86-17.27,6.25-25.76,9.86S1387.93,940,1379.33,944Z"/><path class="cls-7" d="M1111.28,892.39a97.15,97.15,0,0,1-2.85-37.36l.61-4.7c.27-1.56.6-3.1.89-4.66s.71-3.08,1.09-4.62.77-3.07,1.29-4.57a100,100,0,0,1,7.22-17.6c.77-1.39,1.45-2.84,2.31-4.18l2.52-4.07c1.82-2.61,3.59-5.28,5.67-7.71s4.18-4.83,6.36-7.18l3.47-3.32.87-.83.92-.77,1.84-1.55a95.71,95.71,0,0,1,15.86-10.82c.71-.39,1.39-.81,2.11-1.16l2.16-1.06c1.45-.69,2.86-1.46,4.36-2.05l4.44-1.86,4.55-1.6a101.25,101.25,0,0,1,38.09-5.24c3.22.28,6.46.48,9.63,1.06,1.58.28,3.2.44,4.76.81l4.7,1c6.22,1.51,12.35,3.31,18.31,5.4s11.85,4.29,17.69,6.5,11.64,4.35,17.47,6.33c2.93.89,5.84,1.91,8.79,2.66,1.47.38,2.94.83,4.41,1.17l4.44,1a89.28,89.28,0,0,0,17.85,1.91,78.43,78.43,0,0,0,17.78-1.82,117.66,117.66,0,0,0,17.34-5.29c11.38-4.4,22.33-10.22,33.45-15.94s22.45-11.43,34.54-15.67a109,109,0,0,1,18.64-4.9,84.9,84.9,0,0,1,19.36-1,98.93,98.93,0,0,1,37,9.84,112.64,112.64,0,0,1,30.83,22.33,105.68,105.68,0,0,1,21.08,31.4,92.49,92.49,0,0,1,5.54,18,86.56,86.56,0,0,1,1.54,18.71,85.49,85.49,0,0,0-2.67-18.46,92.61,92.61,0,0,0-6.35-17.42,104.85,104.85,0,0,0-21.8-29.61,108.83,108.83,0,0,0-30.3-20.44,95.48,95.48,0,0,0-35.19-8.42,78.82,78.82,0,0,0-18,1.38,105,105,0,0,0-17.49,4.89c-11.47,4.21-22.44,9.93-33.45,15.79s-22.18,11.78-34.09,16.49a125.75,125.75,0,0,1-18.46,5.71,84.82,84.82,0,0,1-19.42,2.07,96.14,96.14,0,0,1-19.34-2.16l-4.71-1.06c-1.56-.37-3.09-.84-4.63-1.25-3.11-.81-6.1-1.87-9.14-2.81-12-4.09-23.57-8.94-35.18-13.1-5.8-2.13-11.66-3.93-17.56-5.45l-4.44-1c-1.48-.37-3-.54-4.46-.82-3-.59-6-.81-9-1.13a104.05,104.05,0,0,0-18.08.48,101.13,101.13,0,0,0-17.76,3.75l-4.33,1.41-4.24,1.66c-1.43.52-2.78,1.22-4.17,1.84l-2.07,1c-.69.32-1.34.71-2,1.06a97.26,97.26,0,0,0-15.33,9.85l-1.79,1.41-.9.7-.85.77-3.41,3c-2.14,2.17-4.35,4.28-6.28,6.64s-3.83,4.75-5.67,7.2l-2.55,3.82c-.44.63-.82,1.29-1.2,2l-1.16,2A102.6,102.6,0,0,0,1111.28,892.39Z"/><path class="cls-7" d="M1561.88,919.14a58.64,58.64,0,0,1,15.74-20.25,57.74,57.74,0,0,1,5.27-3.89c.92-.6,1.84-1.2,2.8-1.74a24.81,24.81,0,0,1,3-1.61,13.43,13.43,0,0,1,7.68-1.27,8.82,8.82,0,0,1,4.2,2,9.84,9.84,0,0,1,2.53,3.72,22.06,22.06,0,0,1,1.26,7.18l.23,6.49c.14,2.17,0,4.33-.07,6.49l-.11,3.25-.06,1.62-.15,1.62-.65,6.47c-.09,1.08-.28,2.14-.46,3.21l-.53,3.21c-.61,4.3-1.76,8.48-2.71,12.71-.56,2.09-1.24,4.15-1.85,6.23l-1,3.1c-.35,1-.74,2-1.11,3.06l-2.3,6.07-2.65,5.93c-.46,1-.87,2-1.36,2.94l-1.51,2.87c-1,1.91-2,3.85-3.07,5.71-2.26,3.69-4.42,7.43-7,10.89a131.38,131.38,0,0,1-36.7,35.55c12.3-11.71,23.15-24.55,31.65-38.85,2.25-3.49,4.1-7.21,6.1-10.83,1-1.83,1.78-3.74,2.7-5.59l1.34-2.8c.44-.93.8-1.91,1.2-2.86l2.38-5.72,2.07-5.84c.34-1,.71-1.94,1-2.92l.88-3c.57-2,1.2-4,1.73-6,.94-4,2-8,2.68-12.07l.57-3.05c.19-1,.4-2,.5-3l.78-6.14.21-1.54.11-1.54.21-3.09c.12-2.06.39-4.12.35-6.18l.1-6.2a17.32,17.32,0,0,0-.48-5.33,3.19,3.19,0,0,0-2.22-2.4,8.83,8.83,0,0,0-4.72.49,21.07,21.07,0,0,0-2.68,1.1c-.93.42-1.84.89-2.75,1.36-1.8,1-3.57,2-5.28,3.14A68.52,68.52,0,0,0,1561.88,919.14Z"/><path class="cls-7" d="M1103.36,949.66a36.11,36.11,0,0,0-15.14-18.24,34.85,34.85,0,0,0-5.21-2.63,31.3,31.3,0,0,0-5.53-1.58c-3.69-.75-7.57-.7-10.34.71a7.61,7.61,0,0,0-3.18,3,10.65,10.65,0,0,0-1.33,4.46,30.53,30.53,0,0,0,1.51,10.87l.44,1.39.48,1.45,1,2.9,1,2.9,1,2.87c1.33,3.85,2.83,7.63,4.32,11.42A323,323,0,0,0,1094,1013a389.51,389.51,0,0,0,27.89,40.66,202.6,202.6,0,0,1-33-37.41A228.52,228.52,0,0,1,1065.23,972c-1.5-3.91-3-7.82-4.35-11.8l-1-3-.93-3-.92-3-.45-1.51-.43-1.58a35.33,35.33,0,0,1-1.21-13.61,16.73,16.73,0,0,1,2.65-7.16,13.88,13.88,0,0,1,6.1-5,17.44,17.44,0,0,1,7.25-1.23,24.84,24.84,0,0,1,6.74,1.14,36.64,36.64,0,0,1,6.16,2.46c1,.55,2,1,2.85,1.65l1.37.9,1.31,1a36.49,36.49,0,0,1,8.58,9.57A32.3,32.3,0,0,1,1103.36,949.66Z"/><path class="cls-7" d="M1480.55,1169.88a.88.88,0,0,0,.76.22,1,1,0,0,0,.56-.53,2.58,2.58,0,0,0,.21-1.57,1.27,1.27,0,0,0-.83-1.09,2.35,2.35,0,0,0-1.45.18,5,5,0,0,0-2.06,2.28,23.48,23.48,0,0,0-1.21,3,64.56,64.56,0,0,0-3.06,12.92,73.21,73.21,0,0,0,1.41,26.19,94.66,94.66,0,0,0,9.52,24.41,116.6,116.6,0,0,0,34.89,38.52,176.09,176.09,0,0,0,22.78,13.25,242.38,242.38,0,0,0,24.48,10.22c8.34,3,16.82,5.8,25.38,8.39l25.81,7.64q6.46,1.93,12.93,3.94c4.41,1.38,8.71,3,12.94,4.65,8.47,3.36,16.66,7.25,24.74,11.31s16,8.38,23.85,12.89a449.12,449.12,0,0,1,45.19,29.81,253.29,253.29,0,0,1,20.76,17.38c6.56,6.18,12.79,12.83,17.66,20.41a86.08,86.08,0,0,0-8.87-10.09c-3.19-3.15-6.52-6.15-9.94-9s-7-5.63-10.54-8.32-7.21-5.29-10.9-7.83a495.51,495.51,0,0,0-45.92-27.75,419.74,419.74,0,0,0-48.43-22.64c-4.14-1.58-8.31-3-12.5-4.26s-8.62-2.44-12.94-3.63c-8.66-2.35-17.32-4.77-26-7.32s-17.31-5.26-25.86-8.36a247.78,247.78,0,0,1-25.16-10.73,159.43,159.43,0,0,1-23.58-14.16,115.47,115.47,0,0,1-35.61-41.77,94.63,94.63,0,0,1-8.73-26.13,73.38,73.38,0,0,1,.27-27.4,67,67,0,0,1,4.2-13,21.89,21.89,0,0,1,1.58-3.08,5.7,5.7,0,0,1,2.66-2.37,2.85,2.85,0,0,1,1.85,0,1.71,1.71,0,0,1,1,1.52,2.85,2.85,0,0,1-.4,1.69,1.07,1.07,0,0,1-.68.53A.92.92,0,0,1,1480.55,1169.88Z"/><path class="cls-7" d="M1217.84,1194.48l-13.17-7.28,1-.73c5.08,16.18,4.68,34,0,50.41s-13,31.79-23.66,45.19a149.54,149.54,0,0,1-17.7,18.59c-3.22,2.84-6.57,5.55-10,8.07s-6.93,5-10.46,7.38c-7.17,4.61-14.57,8.82-22.11,12.73s-15.24,7.44-23,10.72c-15.6,6.5-31.38,12.32-47.14,18-7.88,2.84-15.73,5.71-23.5,8.7s-15.48,6.15-23.09,9.52-15,7.07-22.37,11a246.58,246.58,0,0,0-21.26,13,193.36,193.36,0,0,0-19.51,15.5c-3,2.91-6.05,5.74-8.79,8.89-2.93,3-5.47,6.32-8.15,9.55,2.37-3.45,4.63-7,7.29-10.27s5.41-6.46,8.2-9.63a179.29,179.29,0,0,1,18.8-17,236.93,236.93,0,0,1,21-14.27c7.25-4.37,14.75-8.28,22.33-12s15.3-7.15,23.1-10.36,15.63-6.24,23.46-9.25l23.47-8.94c7.79-3,15.53-6.09,23.18-9.36s15.2-6.69,22.59-10.42,14.57-7.8,21.53-12.2c3.4-2.31,6.91-4.49,10.19-7s6.6-4.87,9.72-7.52,6.13-5.43,9-8.33,5.65-5.94,8.31-9.06a129.44,129.44,0,0,0,24.37-42.43,100,100,0,0,0,4.82-24.13,96.35,96.35,0,0,0,0-12.37,91.78,91.78,0,0,0-1.86-12.3l-.35-1.62,1.33.9Z"/><path class="cls-7" d="M1283.34,632.72a167.54,167.54,0,0,0-47-14.51l-3-.45c-1-.16-2-.3-3-.39l-6.12-.65c-4.09-.27-8.17-.58-12.27-.6a185.64,185.64,0,0,0-24.51,1.11,221.79,221.79,0,0,0-24.19,4,242.41,242.41,0,0,0-23.56,6.7c-7.72,2.68-15.3,5.75-22.72,9.13a243.78,243.78,0,0,0-21.66,11.37,234.78,234.78,0,0,0-20.38,13.49c-1.62,1.24-3.29,2.4-4.88,3.68l-4.79,3.78c-3.11,2.63-6.26,5.21-9.23,8a303.82,303.82,0,0,0-33.11,35.95A370.67,370.67,0,0,0,995.61,754a433.55,433.55,0,0,0-21.68,44l-4.74,11.34-4.37,11.48-1.1,2.88-1,2.9-2,5.8-2,5.81c-.65,1.95-1.25,3.91-1.88,5.86-1.22,3.92-2.53,7.81-3.67,11.75l-3.43,11.82c-1.12,4-2.12,7.94-3.19,11.9s-2,8-3,12c-8,31.88-13.54,64.5-21.85,96.62a438.9,438.9,0,0,1-14.83,47.55,271.15,271.15,0,0,1-21.86,44.82l-3.39,5.25-1.7,2.61-1.8,2.55-3.61,5.09-3.82,4.93c-.65.82-1.26,1.66-1.93,2.45l-2,2.38c-1.36,1.57-2.67,3.19-4.07,4.73-2.85,3-5.62,6.12-8.69,8.93l-2.25,2.15c-.74.73-1.49,1.44-2.3,2.1l-4.72,4.06c-.77.7-1.59,1.33-2.42,2l-2.47,1.89c-1.65,1.25-3.25,2.57-5,3.68l-5.16,3.46c-1.75,1.12-3.57,2.12-5.34,3.17l-2.68,1.57c-.9.5-1.84.94-2.76,1.41l-5.54,2.78a154.33,154.33,0,0,0,39.14-29.74c11.46-11.76,21-25.22,29.29-39.34a268.17,268.17,0,0,0,20.38-44.63,457.12,457.12,0,0,0,13.73-47.25c1.87-8,3.67-16,5.33-24.1s3.34-16.13,5-24.23c3.26-16.17,6.46-32.41,10.31-48.56s8.15-32.18,13.24-48c.63-2,1.22-4,1.88-5.93l2-5.9,2-5.89,1-3,1.1-2.92,4.41-11.67L966.87,795a438.85,438.85,0,0,1,22.24-44.72,362,362,0,0,1,28-41.45,311.33,311.33,0,0,1,34.32-36.46c3.1-2.82,6.36-5.45,9.59-8.11l5-3.84c1.64-1.29,3.38-2.46,5.07-3.69a234.63,234.63,0,0,1,21.15-13.46,241.17,241.17,0,0,1,45.8-20.09,243.71,243.71,0,0,1,24.22-6.24A217.56,217.56,0,0,1,1187,613.5a190.75,190.75,0,0,1,25-.34c4.16.15,8.3.6,12.43,1l6.18.86c1,.14,2,.32,3.07.52l3.06.58,3.06.58,3,.71c2,.5,4,.9,6,1.51l6,1.71,5.9,2A171.79,171.79,0,0,1,1283.34,632.72Z"/><path class="cls-7" d="M1298.45,632.6l6-3.12,3-1.57,1.5-.78,1.54-.71,6.14-2.85,3.08-1.42,3.13-1.28,6.29-2.55,1.57-.63,1.6-.56,3.2-1.13,6.4-2.25,6.49-2a272.51,272.51,0,0,1,53.3-10.32,300.23,300.23,0,0,1,159,29.4,281.8,281.8,0,0,1,46.46,28.83c1.8,1.4,3.65,2.74,5.42,4.19l5.25,4.41c3.55,2.88,6.81,6.09,10.2,9.16,1.71,1.52,3.29,3.17,4.9,4.8l4.82,4.87c1.58,1.66,3.08,3.39,4.62,5.08s3.1,3.36,4.55,5.13a313.5,313.5,0,0,1,31.62,44.6,419.65,419.65,0,0,1,24.31,48.83c7.07,16.73,13.28,33.8,18.78,51.06S1732,876.5,1736.58,894s8.78,35,13.43,52.38,9.75,34.59,15.69,51.52a349.87,349.87,0,0,0,21.31,49.3c8.44,15.76,18.45,30.79,30.7,43.89a152.76,152.76,0,0,0,42.76,32.35,147.47,147.47,0,0,1-23.53-13.38,157.5,157.5,0,0,1-20.76-17.5,175.14,175.14,0,0,1-17.67-20.69,239,239,0,0,1-14.8-22.85c-4.51-7.88-8.58-16-12.33-24.27s-7.2-16.65-10.41-25.12c-6.39-17-11.75-34.28-16.73-51.66q-3.72-13-7.19-26.12c-2.33-8.73-4.57-17.43-7-26.1-4.75-17.36-9.77-34.62-15.36-51.68-11.15-34.08-24.63-67.48-42.78-98.22a307.66,307.66,0,0,0-30.71-43.65,258,258,0,0,0-38.5-36.75,273.78,273.78,0,0,0-45-28.57A305.93,305.93,0,0,0,1508,617.13l-3.2-1c-1.07-.32-2.15-.58-3.23-.87l-6.48-1.7c-2.15-.61-4.34-1-6.52-1.53l-6.54-1.45c-2.19-.44-4.39-.81-6.59-1.21s-4.39-.84-6.6-1.15l-6.64-.94-3.32-.48c-1.1-.16-2.22-.24-3.33-.37a300.79,300.79,0,0,0-53.6-1.26,275.67,275.67,0,0,0-53,8.62l-6.51,1.73-6.43,2-3.22,1-1.61.51-1.58.57-6.34,2.3-3.18,1.14-3.12,1.29-6.24,2.57-1.56.65-1.53.71-3.06,1.43Z"/></g></g></svg>