<svg width="300" height="300" viewBox="0 0 300 300" fill="none" xmlns="http://www.w3.org/2000/svg">
<path d="M210.72 224.638C200.365 211.712 202.449 192.838 215.375 182.483C216.814 181.331 218.326 180.332 219.892 179.486C220.479 180.103 221.045 180.751 221.588 181.428C231.943 194.354 229.858 213.227 216.932 223.583C215.493 224.735 212.633 227.026 212.633 227.026C212.046 226.409 211.262 225.315 210.72 224.638Z" fill="#FEF2F2"/>
<path d="M214.547 229.414C224.902 242.341 243.775 244.425 256.702 234.07C258.14 232.918 259.444 231.66 260.612 230.316C260.138 229.608 259.63 228.915 259.087 228.238C248.732 215.312 229.859 213.227 216.932 223.582C215.494 224.735 212.633 227.026 212.633 227.026C213.108 227.734 214.004 228.737 214.547 229.414Z" fill="#FCCCCA"/>
<path d="M147.937 162.474L156.304 155.636L235.323 252.328C237.211 254.638 236.868 258.042 234.558 259.93V259.93C232.247 261.818 228.844 261.476 226.956 259.166L147.937 162.474Z" fill="white"/>
<path d="M92.0923 80.2939L152.127 159.328" stroke="white" stroke-width="13"/>
<path d="M102.198 166.951L118.381 114.579L172.863 113.273" stroke="white" stroke-width="13"/>
<circle cx="121.609" cy="119.609" r="48.9899" transform="rotate(-31.4771 121.609 119.609)" stroke="white" stroke-width="11"/>
</svg>
