<svg width="531" height="337" viewBox="0 0 531 337" fill="none" xmlns="http://www.w3.org/2000/svg">
<path d="M273.184 280.114L276.801 277.074C274.227 272.405 270.431 268.524 265.82 265.847C261.21 263.169 255.957 261.796 250.626 261.874C229.346 261.874 216.912 278.078 216.912 299.176C216.912 320.274 229.346 336.386 250.626 336.386C255.892 336.243 261.036 334.776 265.585 332.119C270.133 329.462 273.938 325.702 276.649 321.186L272.91 318.724C256.706 342.467 232.386 333.498 232.538 299.328C232.69 265.157 256.98 255.976 273.184 280.114Z" fill="#F95F59"/>
<path d="M456.166 7.72043C452.352 7.68441 448.612 8.78106 445.422 10.8715C442.231 12.962 439.732 15.9522 438.242 19.4637C436.752 22.9751 436.337 26.8498 437.05 30.5971C437.763 34.3445 439.572 37.7959 442.248 40.5145C444.924 43.233 448.346 45.0964 452.082 45.8687C455.818 46.6409 459.698 46.2874 463.233 44.8528C466.767 43.4181 469.797 40.9669 471.937 37.8096C474.078 34.6522 475.234 30.9307 475.258 27.1162C475.282 22.0172 473.288 17.1156 469.711 13.4817C466.134 9.84773 461.265 7.77659 456.166 7.72043Z" fill="#2A516D"/>
<path d="M314.559 261.447C305.743 261.447 294.464 263.332 288.111 274.884L292.154 276.039C299.389 265.49 309.938 265.916 314.863 265.916C324.409 265.916 328.179 270.263 328.179 279.231V286.315C308.783 293.55 282.578 290.935 282.578 316.138C282.578 348.393 320.487 335.655 328.179 323.799V334.409H342.65V283.335C342.771 269.989 335.414 261.447 314.559 261.447ZM328.179 319.877C315.137 335.077 298.356 334.074 298.356 314.83C298.356 295.587 313.556 295.161 328.179 290.51V319.877Z" fill="#F95F59"/>
<path d="M368.824 280.996V262.178H354.354V334.41H368.824V291.119C372.594 269.292 384.025 270.873 394.604 270.873V262.178C381.866 262.178 373.02 265.522 368.824 280.996Z" fill="#F95F59"/>
<path d="M431.359 262.054C409.075 262.054 396.033 278.106 396.033 299.235C396.033 320.363 409.075 336.567 431.359 336.567C452.183 336.567 460.27 323.95 461.151 322.096L458.689 319.785C436.132 346.113 411.963 325.866 411.963 299.235V295.89H461.303V290.388C461.303 282.453 457.959 262.054 431.359 262.054ZM412.388 290.388C414.273 272.147 422.36 267.101 431.48 267.101C440.6 267.101 443.64 274.64 443.944 290.388H412.388Z" fill="#F95F59"/>
<path d="M505.293 292.151C494.866 287.226 485.898 284.46 485.898 276.646C485.898 268.833 492.707 265.52 501.524 265.52C506.722 265.52 519.764 267.982 519.764 278.957H524.811C524.811 262.905 506.753 261.477 501.524 261.477C482.858 261.477 473.038 270.445 473.038 280.994C473.038 294.613 487.631 300.815 495.9 304.433C508.911 310.209 516.724 311.82 516.724 321.214C516.724 327.872 509.063 331.915 499.061 331.915C490.671 331.642 478.814 328.176 478.814 316.016H473.038C473.038 331.49 488.239 336.566 498.788 336.566C516.299 336.566 529.888 329.331 529.888 317.444C529.736 304.159 520.342 299.234 505.293 292.151Z" fill="#F95F59"/>
<path d="M68.556 70.565C49.7683 70.565 25.7516 74.5779 12.1929 99.2025L20.8267 101.665C36.2095 79.1988 58.7062 80.1108 69.164 80.1108C89.5022 80.1108 97.5279 89.2311 97.5279 108.444V123.645C56.2436 139.028 0.488525 133.495 0.488525 187.091C0.488525 255.767 81.2027 228.649 97.5279 203.417V226.187H128.324L128.628 117.473C128.628 88.7447 112.911 70.565 68.556 70.565ZM97.4367 194.995C69.7112 227.342 33.9598 225.183 33.9598 184.203C33.9598 142.341 66.3063 142.341 97.4367 132.522V194.995Z" fill="#2A516D"/>
<path d="M234.879 72.0828C208.704 72.0828 192.986 83.1791 184.079 94.8834V72.0828H153.252V292.945H184.079V207.306C193.199 218.706 209.312 230.41 234.879 230.41C282.334 230.41 301.76 195.905 301.76 150.942C301.76 105.98 282.334 72.0828 234.879 72.0828ZM184.079 191.923V110.601C219.8 59.1624 268.168 77.9501 267.833 150.942C267.833 223.327 219.8 243.361 184.079 191.923Z" fill="#2A516D"/>
<path d="M357.18 112.151V72.0828H326.384V226.093H357.18V133.766C365.175 87.2528 389.496 90.6273 411.901 90.6273V72.0828C384.905 72.0828 366.087 79.1966 357.18 112.151Z" fill="#2A516D"/>
<path d="M471.123 71.7755H440.327V226.09H471.123V71.7755Z" fill="#2A516D"/>
<path d="M530.557 0.641998H499.761V226.094H530.557V0.641998Z" fill="#2A516D"/>
</svg>
