<svg width="320" height="320" viewBox="0 0 320 320" fill="none" xmlns="http://www.w3.org/2000/svg">
<path d="M319.519 167.454C319.519 167.454 330.011 224.49 253.033 254.593C176.056 284.695 88.5856 301.177 43.6057 256.488C-10.9308 202.304 -11.8096 178.174 27.0637 129.759C65.937 81.3441 72.2226 5.08032 185.921 49.2844C299.62 93.4886 312.362 112.277 319.519 167.454Z" fill="#F2E1DE"/>
<path d="M193.395 249.212H135.962L128.489 198.338H200.868L193.395 249.212Z" fill="white"/>
<path d="M193.396 249.589C193.396 252.989 180.538 255.744 164.676 255.744C148.815 255.744 135.962 252.98 135.962 249.589C135.962 246.199 148.82 243.435 164.658 243.435C180.496 243.435 193.396 246.199 193.396 249.589Z" fill="white"/>
<path d="M164.676 206.096C184.662 206.096 200.863 202.623 200.863 198.338C200.863 194.054 184.662 190.58 164.676 190.58C144.691 190.58 128.489 194.054 128.489 198.338C128.489 202.623 144.691 206.096 164.676 206.096Z" fill="#E0B0AA"/>
<path d="M197.472 201.623C204.88 198.541 179.791 195.491 172.319 194.252C161.203 192.372 142.591 194.538 133.064 202.139C133.064 202.139 144.328 206.585 166.892 206.119C166.892 206.119 186.715 206.119 197.472 201.623Z" fill="#51312C"/>
<path d="M140.311 143.802C140.311 143.802 149.745 150.74 151.238 154.352C151.238 154.352 158.65 139.656 150.777 131.778L140.311 143.802Z" fill="#1C5170"/>
<path d="M125.5 146.986C125.5 146.986 140.624 146.525 145.387 141.886C148.211 139.176 150.095 135.635 150.764 131.778C150.764 131.778 139.988 127.277 133.792 130.65C127.596 134.022 125.5 146.986 125.5 146.986Z" fill="#668290"/>
<path d="M148.073 147.935C149.271 149.894 150.436 151.869 151.57 153.859C152.703 155.849 153.836 157.844 154.919 159.848C157.139 163.864 159.125 168.004 160.866 172.25C161.304 173.309 161.645 174.41 162.004 175.502L162.423 177.179C162.548 177.741 162.64 178.308 162.751 178.87C163.147 181.132 163.437 183.412 163.672 185.692C163.907 187.973 164.133 190.263 164.262 192.552C164.391 194.842 164.556 197.127 164.626 199.43H163.787C163.824 194.865 163.653 190.281 163.262 185.725C163.055 183.444 162.801 181.173 162.428 178.916C162.327 178.354 162.244 177.787 162.129 177.23L161.719 175.576C161.368 174.489 161.032 173.397 160.595 172.351C158.883 168.106 156.903 163.975 154.665 159.982C152.482 155.96 150.132 152.021 147.695 148.151L148.073 147.935Z" fill="#1C5170"/>
<path d="M144.82 98.4247C144.82 98.4247 157.867 99.4981 161.99 104.414C166.113 109.329 165.468 122.749 165.468 122.749C160.95 122.075 156.708 120.156 153.219 117.207C147.612 112.342 144.82 98.4247 144.82 98.4247Z" fill="#668290"/>
<path d="M165.008 199.508C164.819 191.557 165.372 183.642 165.607 175.714C165.842 167.785 166.109 159.862 166.215 151.938C166.275 147.971 166.312 144.009 166.284 140.048C166.256 136.086 166.183 132.124 165.888 128.185C165.819 127.199 165.708 126.218 165.593 125.241C165.481 124.274 165.287 123.319 165.013 122.385L164.575 120.975L164.05 119.593C163.888 119.132 163.663 118.672 163.465 118.243L163.156 117.571L162.815 116.93C161.903 115.187 160.805 113.548 159.54 112.042C158.293 110.526 156.842 109.189 155.228 108.071L155.426 107.744C157.094 108.861 158.598 110.206 159.894 111.738C161.207 113.252 162.35 114.905 163.303 116.668L163.663 117.327L163.985 118.004C164.192 118.464 164.446 118.902 164.603 119.386L165.16 120.768L165.621 122.196C166.247 124.135 166.404 126.149 166.583 128.125C166.911 132.096 166.998 136.067 167.044 140.038C167.09 144.009 167.09 147.981 167.044 151.947C166.934 159.885 166.703 167.818 166.422 175.746C166.141 183.675 165.998 191.612 165.008 199.508Z" fill="#1C5170"/>
<path d="M174.176 178.478C174.176 178.478 181.261 165.395 191.525 166.791C201.789 168.187 204.365 174.263 204.332 178.363C204.3 182.463 201.458 188.461 198.749 191.723C196.04 194.985 198.256 183.495 196.049 183.486C193.842 183.477 192.281 184.582 186.951 182.878C181.62 181.173 178.852 175.797 174.176 178.478Z" fill="#668290"/>
<path d="M193.926 172.554C193.049 172.224 192.148 171.963 191.23 171.775C190.32 171.578 189.396 171.448 188.466 171.384C186.619 171.245 184.761 171.428 182.975 171.923C182.095 172.183 181.24 172.523 180.423 172.941C179.608 173.368 178.837 173.872 178.119 174.447C176.695 175.631 175.464 177.03 174.471 178.593C172.449 181.732 170.866 185.133 169.767 188.701C169.259 190.483 168.892 192.302 168.671 194.141C168.439 195.977 168.439 197.834 168.671 199.67L167.841 199.799C167.747 198.84 167.724 197.877 167.772 196.915C167.795 196.454 167.814 195.961 167.86 195.491C167.906 195.021 167.952 194.542 168.017 194.072C168.275 192.201 168.68 190.352 169.228 188.544C170.34 184.921 171.934 181.464 173.969 178.266C174.99 176.643 176.264 175.194 177.742 173.973C178.495 173.376 179.305 172.855 180.16 172.416C181.016 171.982 181.915 171.638 182.841 171.388C184.698 170.918 186.625 170.795 188.526 171.024C190.399 171.228 192.224 171.745 193.926 172.554Z" fill="#1C5170"/>
<path d="M197.569 123.841C197.569 123.841 183.141 130.318 180.183 140.757C177.225 151.196 175.917 152.362 175.917 152.362C175.917 152.362 191.023 151.477 195.266 143.659C199.509 135.842 197.569 123.841 197.569 123.841Z" fill="#1C5170"/>
<path d="M190.802 136.45C189.133 138.875 187.285 141.172 185.274 143.323C183.307 145.507 181.284 147.644 179.188 149.708C178.668 150.229 178.129 150.731 177.599 151.242C177.069 151.754 176.498 152.237 175.996 152.744C175.037 153.802 174.283 155.028 173.77 156.36C172.715 159.077 171.901 161.881 171.338 164.74C170.189 170.486 169.343 176.288 168.804 182.122C168.21 187.954 167.763 193.81 167.496 199.665H167.118C167.318 193.793 167.686 187.93 168.224 182.076C168.741 176.216 169.57 170.388 170.707 164.616C171.276 161.714 172.107 158.869 173.19 156.116C173.739 154.705 174.545 153.409 175.567 152.293C176.102 151.758 176.645 151.298 177.18 150.791C177.714 150.284 178.244 149.786 178.764 149.27C180.851 147.22 182.869 145.092 184.836 142.922C186.803 140.752 188.715 138.532 190.802 136.45Z" fill="#668290"/>
<path d="M185.577 118.128C185.577 118.128 175.958 125.098 173.696 136.722C171.434 148.345 173.508 154.412 173.508 154.412C177.223 151.397 180.674 148.069 183.822 144.466C188.388 139.066 189.401 131.253 185.577 118.128Z" fill="#668290"/>
<path d="M180.892 130.106C179.51 135.832 177.948 141.513 176.285 147.151C175.441 149.971 174.559 152.783 173.641 155.587C172.743 158.397 171.642 161.142 170.918 163.962C170.531 165.372 170.246 166.814 169.933 168.242C169.619 169.67 169.38 171.126 169.168 172.577C168.707 175.474 168.339 178.395 168.002 181.33C167.376 187.171 166.851 193.036 166.546 198.905L165.708 198.863C166.021 192.971 166.482 187.093 167.173 181.238C167.532 178.308 167.91 175.382 168.408 172.485C168.633 171.029 168.937 169.582 169.209 168.131C169.481 166.68 169.831 165.238 170.237 163.81L170.522 162.741L170.868 161.677C171.098 160.972 171.328 160.263 171.577 159.576C172.079 158.194 172.558 156.812 173.033 155.43C173.954 152.643 174.876 149.837 175.737 147.027C177.502 141.402 179.174 135.759 180.892 130.106Z" fill="#1C5170"/>
<path d="M120.469 181.56C120.469 181.56 125.665 166.749 135.026 163.69C144.388 160.631 152.717 167.449 152.717 167.449C152.717 167.449 149.603 177.045 144.973 178.722C140.343 180.399 133.875 177.22 128.314 178.966C122.754 180.712 120.469 181.56 120.469 181.56Z" fill="#668290"/>
<path d="M134.441 172.309C136.271 171.064 138.195 169.963 140.195 169.016C142.184 168.025 144.289 167.286 146.461 166.818C147.554 166.591 148.672 166.506 149.787 166.565C150.915 166.606 152.015 166.931 152.984 167.509L153.339 167.739C153.454 167.822 153.565 167.911 153.67 168.007C153.887 168.183 154.093 168.373 154.288 168.573C154.679 168.96 155.08 169.352 155.444 169.771C155.628 169.974 155.822 170.176 156.001 170.388L156.522 171.038C156.886 171.462 157.185 171.932 157.513 172.383C158.753 174.24 159.718 176.266 160.378 178.4C161.032 180.534 161.514 182.717 161.82 184.928C162.394 189.327 162.678 193.759 162.672 198.195H161.834C161.948 193.791 161.757 189.384 161.263 185.006C160.997 182.825 160.558 180.668 159.95 178.556C159.337 176.448 158.422 174.44 157.232 172.595C156.918 172.134 156.633 171.674 156.283 171.25L155.776 170.6C155.601 170.388 155.416 170.186 155.237 169.978C154.882 169.559 154.495 169.168 154.108 168.776C153.925 168.573 153.726 168.386 153.514 168.214C153.408 168.126 153.311 168.034 153.201 167.956L152.86 167.739C151.923 167.177 150.86 166.86 149.768 166.818C148.675 166.76 147.578 166.845 146.507 167.071C144.347 167.53 142.245 168.23 140.241 169.158C138.24 170.079 136.303 171.131 134.441 172.309Z" fill="#1C5170"/>
</svg>
