<svg width="713" height="672" viewBox="0 0 713 672" fill="none" xmlns="http://www.w3.org/2000/svg">
<g clip-path="url(#clip0_41_1489)">
<path d="M110.803 407.101C110.803 407.101 93.3197 312.108 221.529 261.969C349.739 211.83 495.432 184.39 570.379 258.853C661.183 349.035 662.673 389.214 597.959 469.843C533.244 550.472 522.741 677.513 333.34 603.863C143.939 530.213 122.729 498.978 110.803 407.101Z" fill="#F2E1DE"/>
<path d="M600.539 376.882C569.682 366.701 529.365 248.511 512.364 188.11C512.197 187.515 511.543 187.24 510.983 187.503L495.721 194.68C495.299 194.879 495.066 195.322 495.166 195.778C509.569 261.685 542.436 392 560.053 392C576.161 392 592.793 383.96 600.88 378.865C601.649 378.381 601.402 377.166 600.539 376.882Z" fill="#E3C9C4"/>
<path d="M424.249 521.881C420.876 509.258 417.381 496.684 414.162 484.005C409.464 465.562 405.286 446.981 404.937 427.848C404.677 413.095 407.099 398.538 409.237 383.997C412.837 359.613 417.495 335.358 422.534 311.21C422.7 310.133 422.803 309.048 422.843 307.959C424.469 303.992 424.948 299.741 425.818 295.588C428.484 293.905 431.467 293.068 434.474 292.272C445.823 289.283 457.412 287.293 469.108 286.322C484.185 285.054 499.255 283.835 514.397 284.127C516.104 289.362 516.925 294.873 519.169 299.945C520.095 305.868 521.478 311.71 523.306 317.42C523.46 318.477 523.55 319.549 523.769 320.598C526.858 335.074 530.182 349.509 533.019 364.034C539.521 397.181 545.723 430.376 552.055 463.546C553.534 471.674 555.011 479.781 556.485 487.865C554.997 493.181 555.615 498.708 555.176 504.122C554.363 514.688 556.403 525.572 551.746 535.756C547.251 537.382 542.325 537.447 537.928 539.381C530.231 540.3 530.125 540.34 527.118 532.74C522.591 521.28 518.226 509.754 513.788 498.253C513.585 497.44 513.438 496.676 513.178 495.92C502.189 464.075 492.045 431.952 482.292 399.725C479.52 390.613 477.415 381.29 473.757 372.455C474.058 368.716 472.18 365.416 471.603 361.84C471.376 360.385 471.717 358.101 469.807 357.833C468.181 357.597 467.157 359.458 466.109 360.661C465.848 360.97 465.686 361.36 465.45 361.685C458.216 371.691 455.696 383.306 455.298 395.197C454.729 412.047 455.193 428.929 455.209 445.803C455.209 449.306 456.444 452.744 455.851 456.255C454.022 467.09 453.648 477.925 455.989 488.711C457.696 496.562 458.793 504.65 464.003 511.266L464.442 514.599C464.8 524.035 465.052 533.488 465.572 542.917C465.727 545.737 465.336 547.623 462.134 547.794L439.31 551.988C435.108 553.451 433.621 551.346 432.531 547.558C429.939 538.958 427.004 530.448 424.249 521.881Z" fill="#668290"/>
<path d="M514.381 284.152C499.239 283.859 484.169 285.078 469.092 286.346C457.396 287.317 445.807 289.308 434.458 292.296C431.45 293.109 428.467 293.922 425.801 295.612C420.567 296.913 423.317 294.684 419.602 298C418.182 291.666 421.044 291.887 419.602 285.558C419.602 285.558 418.314 281.215 418 280.5C415.293 266.682 411.791 256.248 406.744 243.146C403.289 234.205 398.616 225.8 394.121 217.339C382.619 195.678 362.833 173.374 358.924 148.933C357.997 143.089 357.623 137.156 356.835 131.287C356.38 127.881 357.249 126.077 361.053 126.768C361.864 126.842 362.681 126.842 363.492 126.768H372.229C376.147 126.036 378.073 127.898 379.927 131.328C387.689 145.682 396.378 159.467 407.456 171.578C413.406 178.08 419.86 183.721 428.646 186.469C439.034 189.72 449.145 193.833 459.923 195.808C461.955 202.562 463.394 203.537 469.01 201.733C471.054 201.083 472.947 200.029 474.575 198.632C476.203 197.236 477.534 195.526 478.488 193.605C491.639 193.363 504.564 190.134 516.283 184.16C526.85 178.747 532.807 169.302 538.473 159.557C544.138 149.811 549.364 139.943 553.103 129.328C554.054 126.63 555.33 126.321 557.614 127.402C558.612 127.807 559.636 128.147 560.679 128.418L567.807 130.856C573.895 133.88 573.83 133.864 572.976 140.13C569.953 162.19 553.539 183.697 547.451 205.066C541.299 226.678 534.788 248.201 531.382 270.488C530.383 276.991 529.302 283.493 528.261 289.996C520.58 285.517 523.224 283.778 514.381 284.152Z" fill="#FE8C8C"/>
<path d="M537.887 539.397C542.309 537.463 547.235 537.43 551.705 535.772L562.036 533.943C564.889 544.591 567.726 555.239 570.619 565.862C571.066 567.488 572.107 568.91 572.871 570.438C573.846 575.161 574.911 579.875 575.748 584.63C576.089 586.556 576.943 589.312 575.366 590.32C573.602 591.466 571.806 589.133 570.237 588.003C564.336 583.769 560.321 577.778 555.859 572.21L537.887 539.397Z" fill="#CD786C"/>
<path d="M478.528 193.597C477.575 195.518 476.244 197.228 474.616 198.624C472.988 200.021 471.095 201.075 469.051 201.725C463.434 203.529 461.996 202.538 459.964 195.8C460.564 194.449 461.042 193.049 461.394 191.614C461.646 190.045 461.947 188.192 461.394 186.834C460.581 184.9 458.842 186.834 457.477 186.737C454.095 186.395 452.055 184.453 450.974 181.486C447.829 173.025 447.251 164.523 450.974 156.037C452.089 154.966 453.44 154.173 454.919 153.721C456.397 153.269 457.961 153.172 459.484 153.436C464.792 154.33 467.385 158.028 469.344 162.548C469.717 163.426 469.441 165.579 471.367 164.734C473.895 163.621 475.269 164.417 475.919 166.815C476.569 169.213 476.651 171.838 473.928 173.09C471.571 174.171 471.205 175.626 472.123 177.772C472.887 183.591 473.635 189.443 478.528 193.597Z" fill="#CD786C"/>
<path d="M472.034 177.788C471.115 175.642 471.481 174.187 473.838 173.106C476.561 171.854 476.488 169.294 475.83 166.831C475.171 164.368 473.806 163.637 471.278 164.75C469.351 165.563 469.652 163.442 469.254 162.564C467.295 158.045 464.702 154.346 459.395 153.452C457.871 153.188 456.307 153.285 454.829 153.737C453.351 154.189 451.999 154.982 450.885 156.053C452.266 150.234 454.583 148.616 462.955 147.616C462.369 145.178 461.589 142.74 461.573 140.13C461.524 134.14 464.483 129.832 469.652 128.483C475.968 126.857 481.519 128.93 484.397 134.034C487.274 139.139 486.307 144.674 481.958 148.762C481.503 149.26 480.974 149.685 480.389 150.022C477.951 151.185 477.293 152.16 479.073 154.98C483.754 162.426 480.056 174.789 472.034 177.788Z" fill="#071E20"/>
<path d="M439.253 552.037L462.077 547.842L465.637 583.996C454.802 586.077 444.431 589.986 433.06 592.693C436.14 588.735 440.513 587.906 443.626 585.288C444.894 583.265 449.015 585.337 448.967 581.972C448.967 579.786 447.658 577.624 446.943 575.47L439.253 552.037Z" fill="#CD786C"/>
<path d="M443.642 585.288C440.513 587.906 436.14 588.735 433.076 592.693C444.455 589.986 454.819 586.077 465.653 583.996C466.629 592.872 466.629 592.864 457.891 594.815L431.117 600.805C430.479 601.011 429.824 601.155 429.158 601.236C427.012 601.276 424.517 601.545 423.469 599.269C422.42 596.993 424.143 595.384 425.623 594.083C430.751 589.507 436.482 585.882 443.642 585.288Z" fill="#0D2223"/>
<path d="M555.924 572.235C560.386 577.803 564.401 583.793 570.302 588.028C571.871 589.157 573.667 591.49 575.431 590.344C577.008 589.312 576.154 586.556 575.813 584.655C575 579.9 573.911 575.185 572.936 570.463C578.918 578.68 582.689 587.532 580.08 597.911C578.536 604.032 574.764 605.162 570.668 600.35C563.662 592.108 556.996 583.582 555.924 572.235Z" fill="#0D2223"/>
<path d="M562.06 533.943L551.729 535.772C556.387 525.588 554.314 514.729 555.16 504.138C555.599 498.733 554.981 493.206 556.468 487.882C558.831 501.428 561.193 515.008 563.556 528.62C563.889 530.587 565.084 532.887 562.06 533.943Z" fill="#1F5371"/>
<path d="M372.27 126.776H363.532C362.142 121.899 360.882 120.875 354.721 120.404C350.657 120.087 347.406 118.599 345.61 114.779C345.163 113.828 344.529 112.739 345.545 111.796C346.561 110.853 347.569 111.3 348.577 111.723C350.861 112.682 352.576 114.974 355.55 114.6C355.746 112.56 352.389 111.682 354.104 109C361.273 113.861 368.165 118.827 372.27 126.776Z" fill="#D07C71"/>
<path d="M567.831 130.816L560.703 128.377C564.767 122.997 570.709 120.249 576.317 117.039C577.308 116.47 578.698 115.299 579.568 116.51C580.438 117.721 578.674 118.461 577.983 119.355C577.674 119.753 577.325 120.127 576.74 120.802C579.69 121.761 581.616 119.875 583.787 119.29C584.957 118.973 586.225 118.234 587.152 119.445C588.078 120.656 587.306 122.005 586.477 123.119C584.039 126.418 580.552 127.118 576.723 126.784C572.992 126.492 569.636 126.922 567.831 130.816Z" fill="#D07C71"/>
<path d="M473.7 372.488C471.047 383.726 469.159 395.132 468.051 406.626C464.304 441.43 463.987 476.372 463.946 511.315C458.736 504.699 457.639 496.611 455.932 488.76C453.591 477.974 453.965 467.139 455.794 456.304C456.387 452.793 455.152 449.355 455.152 445.852C455.152 428.978 454.672 412.096 455.241 395.246C455.648 383.355 458.159 371.74 465.393 361.734C465.629 361.409 465.791 361.019 466.052 360.71C467.1 359.491 468.157 357.646 469.75 357.882C471.66 358.15 471.318 360.434 471.546 361.889C472.123 365.432 474.001 368.732 473.7 372.488Z" fill="#1F5371"/>
<path d="M393 457.945L418.931 308.5L417.5 278.5L516.172 275L528.211 289.034C537.627 340.493 556.365 444.011 555.995 446.417C555.624 448.823 551.827 450.427 549.975 450.928L518.5 314.5L528.211 457.945C470.793 485.211 414.146 469.306 393 457.945Z" fill="#FE8C8C"/>
<path d="M390 402.305C400.642 394.293 423.878 255.43 434.165 187L439.486 191.006H448L444.275 406.811C424.694 418.027 399.933 408.48 390 402.305Z" fill="#E3C9C4"/>
<path d="M285.671 640.33C270.49 653.421 253.916 664.363 233.918 667.922C221.388 670.157 208.815 668.772 199.088 658.62C198.781 658.228 198.396 657.905 197.957 657.671C197.519 657.437 197.036 657.297 196.54 657.261C189.157 646.532 184.391 634.536 179.643 622.524C179.668 621.12 179.577 619.717 179.371 618.328C175.488 601.295 174.367 584.016 174.444 566.617C173.713 555.947 171.521 545.507 169.958 534.82C167.902 535.737 167.528 537.368 166.798 538.668C160.664 549.763 157.555 561.835 155.372 574.195C152.076 592.961 148.185 611.693 150.725 630.926C152.11 641.392 156.357 650.295 165.43 656.369C174.503 662.443 184.12 662.435 194.033 659.002C175.285 676.435 143.147 677.123 125.571 656.242C119.114 648.596 116.948 638.988 115.088 629.414C111.894 612.993 111.826 596.342 112.692 579.793C113.774 556.539 116.772 533.413 121.655 510.651C121.858 509.245 121.958 507.825 121.952 506.404C123.328 501.306 124.701 496.209 126.072 491.112C127.205 487.148 128.337 483.183 129.47 479.219C130.329 478.316 131.38 477.616 132.545 477.172C151.761 470.503 171.564 466.977 191.825 465.61C201.622 464.922 211.457 464.939 221.252 465.661C222.628 471.726 224.01 477.792 225.398 483.857C226.27 489.374 227.148 494.884 228.031 500.389C229.467 510.201 230.452 520.064 231.489 529.935C233.256 546.807 233.026 563.78 234.674 580.643C234.827 582.181 234.725 583.735 234.742 585.281C234.98 591.228 235.498 597.09 237.401 602.739C237.979 604.438 238.361 606.868 241.275 606.137C244.062 610.979 248.403 609.085 252.106 608.252C262.904 605.823 271.781 599.366 280.99 593.641C286.707 590.064 292.476 586.445 297.598 582.113C300.996 579.267 302.806 581.943 305.295 582.707C307.928 586.955 312.388 589.503 315.489 593.352C313.714 597.599 312.091 601.898 309.067 605.636C303.732 612.33 297.173 618.09 293.138 625.769C290.615 630.595 286.75 634.732 285.671 640.33Z" fill="#E3C9C4"/>
<path d="M221.286 465.661C211.491 464.939 201.657 464.922 191.859 465.61C171.598 466.986 151.796 470.503 132.58 477.172C131.415 477.616 130.364 478.315 129.504 479.219C124.781 480.187 122.453 484.435 118.877 486.975C118.197 477.732 118.163 468.439 116.796 459.247C116.235 455.5 115.776 451.712 114.867 448.042C113.831 443.794 110.79 441.951 106.465 441.721C96.5516 441.186 87.2069 443.905 77.8792 446.58C65.7141 450.038 53.583 453.725 41.5538 457.684C37.9348 458.873 36.1084 458.482 35.2164 454.71C34.97 453.674 34.1205 452.79 33.5174 451.839C33.1759 449.063 31.9897 446.459 30.1193 444.38C29.1169 441.509 30.3486 440.09 32.9482 438.671C60.3451 423.703 87.6741 408.743 114.612 393.12C130.801 383.849 148.457 377.416 166.815 374.1C167.903 376.699 167.079 380.547 171.564 380.896C176.958 381.295 183.61 376.963 185.496 371.653C186.704 371.312 187.885 370.884 189.03 370.37C204.508 361.926 220.377 354.331 236.093 346.473C244.376 342.336 252.718 338.292 260.602 333.408C270.32 328.914 279.478 323.392 288.492 317.692C292.357 315.254 294.302 315.508 296.035 319.527C296.455 320.247 296.963 320.912 297.548 321.506C298.771 323.715 299.739 326.102 301.94 327.614C301.949 328.163 302.041 328.707 302.211 329.228C305.312 335.549 305.321 335.54 300.011 340.518C293.461 346.652 286.419 352.208 280.413 358.961C258.852 376.368 244.657 397.419 246.942 426.608C247.944 440.201 248.981 453.852 249.907 467.487C250.034 469.416 250.263 471.437 249.448 473.332C247.282 472.363 245.837 470.426 243.501 469.458C236.374 466.459 228.703 466.901 221.286 465.661Z" fill="#FE8C8C"/>
<path d="M260.627 333.408C252.744 338.293 244.401 342.336 236.118 346.473C220.377 354.331 204.508 361.926 189.064 370.353C187.919 370.867 186.737 371.295 185.53 371.636C181.46 367.151 180.297 361.501 179.141 355.852C178.657 353.499 178.215 351.494 181.469 350.22C183.873 349.285 184.102 346.473 183.295 343.933C182.803 342.387 182.047 340.382 180.305 341.181C176.78 342.795 176.822 340.204 175.973 338.284C172.048 329.407 164.733 327.334 156.952 332.745C158.039 327.487 161.488 324.666 166.628 324.25C169.423 324.004 169.635 323.12 169.244 320.614C168.047 312.968 171.572 308.619 178.436 308.721C182.327 308.772 185.232 310.462 186.931 313.954C188.63 317.445 188.078 320.835 185.521 323.774C184.707 324.538 183.816 325.216 182.862 325.796C190.703 333.79 196.361 334.436 204.805 328.107C215.959 319.739 227.742 315.526 241.496 321.175C248.54 324.102 255.015 328.242 260.627 333.408Z" fill="#071E20"/>
<path d="M246.967 426.608C244.682 397.419 258.861 376.368 280.438 358.961C288.526 379.146 282.987 403.748 267.245 418.3C261.785 423.542 254.536 426.512 246.967 426.608Z" fill="#071E20"/>
<path d="M156.952 332.745C164.768 327.334 172.048 329.432 175.973 338.284C176.822 340.204 176.78 342.795 180.305 341.181C182.005 340.382 182.803 342.387 183.296 343.933C184.103 346.482 183.873 349.285 181.469 350.22C178.216 351.494 178.657 353.499 179.142 355.852C180.297 361.501 181.461 367.151 185.53 371.636C183.644 376.946 176.992 381.278 171.598 380.879C167.112 380.547 167.936 376.699 166.849 374.083C167.282 372.469 167.818 370.871 168.14 369.232C168.735 366.174 169.568 363.464 164.241 364.407C159.993 365.154 157.853 361.391 156.663 357.789C153.928 349.455 153.75 341.062 156.952 332.745Z" fill="#CD786C"/>
<path d="M221.286 465.661C228.702 466.901 236.374 466.459 243.552 469.458C245.863 470.426 247.307 472.363 249.499 473.332C247.698 476.585 244.138 477.002 241.199 478.318C236.136 480.651 230.866 482.506 225.457 483.857C224.053 477.792 222.662 471.726 221.286 465.661Z" fill="#FE5253"/>
<path d="M30.1616 444.38C32.0319 446.46 33.2182 449.063 33.5596 451.839C26.2283 453.156 19.2198 456.087 11.6591 456.172C10.079 456.172 7.51342 457.123 7.09715 455.416C6.58744 453.334 9.4588 453.717 10.7501 452.867C10.9794 452.714 11.1918 452.536 11.6421 452.196C9.59474 450.599 7.24156 450.675 4.99034 450.497C3.19786 450.369 1.15902 450.072 0.989119 448.161C0.77674 445.935 3.20637 445.859 4.71852 445.536C8.04862 444.814 11.6591 444.448 14.7683 445.68C20.3157 447.906 25.2089 446.903 30.1616 444.38Z" fill="#D07C71"/>
<path d="M301.965 327.614C299.764 326.102 298.796 323.715 297.573 321.506C298.512 320.879 299.511 320.347 300.555 319.917C304.802 318.618 306.561 315.67 306.917 311.422C307.291 306.877 309.899 303.955 314.079 302.332C315.047 301.95 316.067 301.712 316.763 302.689C317.324 303.488 316.763 304.303 316.356 305.034C315.2 306.954 313.578 308.636 313.408 311.04C313.093 311.363 312.881 311.728 313.408 312.025C313.527 312.093 313.858 311.83 314.096 311.719C315.693 311.329 317.027 308.559 318.343 309.868C320.043 311.49 317.494 313.036 316.644 314.455C313.059 320.291 307.589 324.046 301.965 327.614Z" fill="#D07C71"/>
<path d="M118.86 486.975C122.436 484.427 124.806 480.179 129.487 479.219C128.355 483.184 127.222 487.148 126.089 491.112C124.721 491.053 123.345 490.891 121.986 490.959C118.962 491.146 118.112 489.719 118.86 486.975Z" fill="#FE5253"/>
<path d="M179.677 622.49C184.425 634.502 189.191 646.497 196.574 657.227C196.398 657.756 196.053 658.213 195.593 658.527C195.133 658.842 194.582 658.997 194.025 658.968C184.094 662.366 174.486 662.366 165.422 656.335C156.357 650.303 152.101 641.358 150.717 630.892C148.168 611.659 152.067 592.927 155.363 574.161C157.547 561.801 160.656 549.729 166.789 538.634C167.52 537.309 167.894 535.703 169.95 534.786C171.513 545.473 173.705 555.913 174.435 566.583C172.643 569.132 172.923 572.165 172.379 574.985C169.751 588.114 167.879 601.382 166.773 614.725C166.016 625.243 170.612 627.766 179.677 622.49Z" fill="#EFDEDB"/>
<path d="M315.498 593.36C312.38 589.537 307.92 586.997 305.303 582.716L324.902 569.744L360.777 572.479C354.312 575.656 348.281 574.722 342.776 576.353C341.442 576.259 340.227 575.979 339.038 577.253C332.93 583.642 326.686 589.877 320.484 596.172C318.191 596.325 317.248 594.125 315.498 593.36Z" fill="#CB776B"/>
<path d="M241.309 606.145C238.396 606.868 238.013 604.446 237.436 602.747C235.533 597.098 235.014 591.211 234.777 585.29L241.683 579.165C253.118 579.598 264.476 577.602 276.921 577.466C272.86 580.762 268.477 580.549 265.096 582.648C264.765 582.903 264.365 583.429 264.102 583.37C258.113 581.994 255.76 586.36 252.999 590.217C249.159 595.569 245.209 600.844 241.309 606.145Z" fill="#CB776B"/>
<path d="M342.759 576.353C348.263 574.722 354.295 575.656 360.76 572.479L324.885 569.744C329.455 560.45 329.438 560.543 339.59 561.996C347.533 563.126 355.527 563.942 363.478 565.02C366.791 565.471 371.447 565.607 371.761 569.387C372.101 573.414 367.454 574.289 364.115 575.249C357.107 577.279 349.929 577.202 342.759 576.353Z" fill="#0D2223"/>
<path d="M265.096 582.648C268.494 580.549 272.86 580.762 276.921 577.466C264.476 577.593 253.135 579.589 241.683 579.165C243.17 571.612 247.426 569.013 255.275 569.735C263.66 570.517 272.198 569.582 280.676 569.565C283.573 569.565 287.345 569.344 288.092 572.878C288.789 576.157 285.314 577.338 282.902 578.723C277.805 581.671 272.002 582.257 266.396 583.455C266.047 583.523 265.538 582.928 265.096 582.648Z" fill="#071E20"/>
<path d="M315.498 593.36C317.248 594.125 318.191 596.325 320.467 596.172C320.552 596.58 320.467 597.2 320.739 597.378C325.182 600.564 323.449 603.172 320.544 606.528C310.221 618.376 299.1 629.505 287.26 639.837C286.886 640.169 286.206 640.152 285.671 640.296C286.75 634.732 290.615 630.594 293.147 625.778C297.182 618.132 303.74 612.338 309.075 605.644C312.066 601.906 313.722 597.642 315.498 593.36Z" fill="#EFDEDB"/>
<path d="M179.677 622.49C170.612 627.766 166.017 625.243 166.815 614.726C167.922 601.382 169.794 588.114 172.422 574.985C172.966 572.165 172.685 569.107 174.478 566.583C174.401 583.982 175.523 601.261 179.405 618.294C179.611 619.683 179.702 621.086 179.677 622.49Z" fill="#F9F2F1"/>
<path d="M314.062 311.728C313.824 311.839 313.493 312.102 313.374 312.034C312.881 311.737 313.093 311.371 313.374 311.048L314.062 311.728Z" fill="#FEFEFE"/>
<path d="M268.286 262.066C283.022 259.086 292.495 244.446 289.445 229.368C289.106 227.69 288.626 226.077 288.02 224.54C287.251 224.627 286.48 224.748 285.709 224.904C270.973 227.885 261.499 242.525 264.549 257.603C264.888 259.281 265.563 262.617 265.563 262.617C266.332 262.53 267.514 262.223 268.286 262.066Z" fill="#FFABA9"/>
<path d="M583.259 424.713C597.995 421.732 607.469 407.093 604.419 392.015C604.079 390.336 603.599 388.724 602.993 387.187C602.225 387.274 601.454 387.395 600.682 387.551C585.946 390.531 576.472 405.171 579.522 420.249C579.862 421.927 580.537 425.263 580.537 425.263C581.305 425.176 582.487 424.869 583.259 424.713Z" fill="white"/>
<path d="M400.904 92.1817C405.699 101.2 417.067 104.534 426.295 99.6278C427.322 99.0818 428.279 98.4567 429.163 97.7645C428.957 97.2808 428.729 96.8022 428.478 96.3298C423.683 87.3111 412.315 83.9774 403.087 88.8837C402.06 89.4298 400.018 90.5154 400.018 90.5154C400.223 90.999 400.653 91.7093 400.904 92.1817Z" fill="#FCCCCA"/>
<path d="M569.903 196.039C559.825 194.372 550.273 201.379 548.567 211.69C548.377 212.837 548.293 213.978 548.306 215.1C548.815 215.23 549.334 215.34 549.862 215.427C559.939 217.094 569.491 210.087 571.197 199.776C571.387 198.628 571.765 196.347 571.765 196.347C571.255 196.216 570.43 196.126 569.903 196.039Z" fill="#FCCCCA"/>
<path d="M349.903 465.039C339.825 463.372 330.273 470.379 328.567 480.69C328.377 481.837 328.293 482.978 328.306 484.1C328.815 484.23 329.334 484.34 329.862 484.427C339.939 486.094 349.491 479.087 351.197 468.776C351.387 467.628 351.765 465.347 351.765 465.347C351.255 465.216 350.43 465.126 349.903 465.039Z" fill="#FFABA9"/>
<path d="M121.903 579.039C111.825 577.372 102.273 584.379 100.567 594.69C100.377 595.837 100.293 596.978 100.306 598.1C100.815 598.23 101.334 598.34 101.862 598.427C111.939 600.094 121.491 593.087 123.197 582.776C123.387 581.628 123.765 579.347 123.765 579.347C123.255 579.216 122.43 579.126 121.903 579.039Z" fill="white"/>
<path d="M640.903 468.039C630.825 466.372 621.273 473.379 619.567 483.69C619.377 484.837 619.293 485.978 619.306 487.1C619.815 487.23 620.334 487.34 620.862 487.427C630.939 489.094 640.491 482.087 642.197 471.776C642.387 470.628 642.765 468.347 642.765 468.347C642.255 468.216 641.43 468.126 640.903 468.039Z" fill="#FCCCCA"/>
<path d="M97.9026 358.039C87.8254 356.372 78.2733 363.379 76.5674 373.69C76.3775 374.837 76.2928 375.978 76.3062 377.1C76.8152 377.23 77.334 377.34 77.8619 377.427C87.9391 379.094 97.4912 372.087 99.1972 361.776C99.387 360.628 99.7645 358.347 99.7645 358.347C99.2555 358.216 98.4305 358.126 97.9026 358.039Z" fill="#FCCCCA"/>
<path d="M410.567 419.887C410.265 430.097 418.489 438.624 428.936 438.932C430.098 438.967 431.239 438.898 432.35 438.734C432.411 438.212 432.45 437.683 432.466 437.149C432.767 426.939 424.543 418.412 414.097 418.103C412.934 418.069 410.622 418.001 410.622 418.001C410.561 418.523 410.582 419.352 410.567 419.887Z" fill="#FCCCCA"/>
<path d="M389.049 321.264C387.429 311.179 377.751 304.347 367.432 306.005C366.283 306.189 365.175 306.471 364.115 306.84C364.153 307.364 364.214 307.891 364.299 308.419C365.919 318.504 375.598 325.336 385.917 323.678C387.065 323.494 389.349 323.127 389.349 323.127C389.31 322.603 389.134 321.792 389.049 321.264Z" fill="#FFABA9"/>
<path d="M532.281 11.1477C533.584 6.56935 530.843 1.77691 526.158 0.443464C525.637 0.295061 525.113 0.195756 524.593 0.14277C524.506 0.371609 524.428 0.606081 524.36 0.845898C523.056 5.42423 525.798 10.2167 530.482 11.5501C531.004 11.6985 532.04 11.9936 532.04 11.9936C532.127 11.7647 532.213 11.3875 532.281 11.1477Z" fill="#FFABA9"/>
<path d="M83.0492 504.264C81.4292 494.179 71.7508 487.347 61.4318 489.005C60.2834 489.189 59.1754 489.471 58.1153 489.84C58.1534 490.364 58.2145 490.891 58.2993 491.419C59.9193 501.504 69.5977 508.336 79.9167 506.678C81.0651 506.494 83.3485 506.127 83.3485 506.127C83.3105 505.603 83.1341 504.792 83.0492 504.264Z" fill="#FCCCCA"/>
<path d="M621.291 128.965C631.385 127.402 638.272 117.763 636.674 107.435C636.496 106.285 636.22 105.176 635.857 104.114C635.333 104.149 634.806 104.207 634.277 104.289C624.183 105.851 617.296 115.49 618.895 125.819C619.073 126.968 619.426 129.253 619.426 129.253C619.951 129.218 620.763 129.047 621.291 128.965Z" fill="#FCCCCA"/>
<path d="M617.049 257.264C615.429 247.179 605.751 240.347 595.432 242.005C594.283 242.189 593.175 242.471 592.115 242.84C592.153 243.364 592.214 243.891 592.299 244.419C593.919 254.504 603.598 261.336 613.917 259.678C615.065 259.494 617.349 259.127 617.349 259.127C617.31 258.603 617.134 257.792 617.049 257.264Z" fill="#FFABA9"/>
<path d="M491.397 68.9525C497.057 60.45 494.593 48.8624 485.893 43.0709C484.925 42.4263 483.92 41.8807 482.892 41.4317C482.564 41.8423 482.251 42.2703 481.954 42.7157C476.294 51.2182 478.758 62.8058 487.458 68.5973C488.426 69.2419 490.351 70.5234 490.351 70.5234C490.679 70.1129 491.101 69.3978 491.397 68.9525Z" fill="#FFABA9"/>
<path d="M292.294 406.172C291.143 398.933 284.205 394.019 276.797 395.197C275.973 395.328 275.178 395.529 274.416 395.793C274.443 396.169 274.486 396.547 274.547 396.926C275.698 404.166 282.636 409.08 290.043 407.902C290.868 407.771 292.507 407.51 292.507 407.51C292.48 407.134 292.354 406.552 292.294 406.172Z" fill="white"/>
<path d="M334.96 166.11C333.809 158.871 326.871 153.957 319.464 155.135C318.639 155.266 317.844 155.467 317.082 155.731C317.109 156.107 317.152 156.485 317.213 156.864C318.364 164.104 325.302 169.018 332.709 167.84C333.534 167.709 335.173 167.448 335.173 167.448C335.146 167.072 335.021 166.49 334.96 166.11Z" fill="white"/>
<path d="M399 376.5C326.751 410.005 318.5 474.5 211.305 512.879C153 533.754 104 527 93.5511 524.79C70.6232 519.481 45.2357 507.905 40.0002 485C37.8775 475.699 39.6924 466.135 43.8948 457.5M541.5 362.5C564.479 374.711 573.468 397.898 559.292 425.015C527.77 485.268 388.78 449.255 348.002 423.127C323.209 407.245 292.139 381.204 289.5 350M285 318.5C298.597 276.158 363.523 260.315 411.5 256.5M536.5 246.5C657.557 211.112 624.252 80.3382 713 70.1324" stroke="#FFC74C" stroke-width="2" stroke-linecap="round"/>
<path d="M574.96 40.1104C573.809 32.871 566.871 27.9571 559.464 29.1349C558.639 29.266 557.844 29.467 557.082 29.7307C557.109 30.1069 557.152 30.485 557.213 30.8642C558.364 38.1036 565.302 43.0175 572.709 41.8397C573.534 41.7086 575.173 41.448 575.173 41.448C575.146 41.0718 575.021 40.4896 574.96 40.1104Z" fill="#FCCCCA"/>
<path d="M457.301 239.797C442.004 236.078 442.901 207.262 445.262 193.318C444.129 188.98 439.124 188.929 436.763 189.445C435.064 186.966 432.278 186.863 431.098 187.121C424.488 213.201 421.041 267.529 460.134 276.205C499.227 284.881 509 220.431 509 187.121C506.734 186.501 502.862 188.412 501.21 189.445C497.81 188.206 494.6 189.961 493.42 190.994C487.754 208.811 472.598 243.515 457.301 239.797Z" fill="#E3C9C4"/>
<path d="M500 195.5C489.6 260.3 460.333 256.167 447 246C447.686 246.701 446.83 248.368 447.5 249C480.854 280.464 496.896 226.543 500 195.5Z" fill="#F2E1DE"/>
</g>
<defs>
<clipPath id="clip0_41_1489">
<rect width="712.024" height="672" fill="white" transform="translate(0.976074)"/>
</clipPath>
</defs>
</svg>
