<svg width="663" height="675" viewBox="0 0 663 675" fill="none" xmlns="http://www.w3.org/2000/svg">
<g clip-path="url(#clip0_41_1490)">
<path d="M611.197 375.101C611.197 375.101 628.68 280.108 500.471 229.969C372.261 179.83 226.568 152.39 151.621 226.853C60.8174 317.035 59.3266 357.214 124.041 437.843C188.756 518.472 199.259 645.513 388.66 571.863C578.061 498.213 599.271 466.978 611.197 375.101Z" fill="#F2E1DE"/>
<path d="M338.675 557.709C344.169 562.09 347.51 567.837 349.241 574.542C349.467 575.434 349.512 576.362 349.372 577.271C349.233 578.18 348.912 579.051 348.429 579.834H345.177C335.188 572.315 326.645 563.171 317.209 555.027C316.119 554.084 316.396 553.19 316.745 552.166C317.558 549.727 318.436 547.354 319.281 544.956C327.507 551.963 334.408 560.359 342.731 567.967C342.95 565.122 341.227 563.7 340.561 561.871C340.016 560.432 337.765 559.766 338.675 557.709Z" fill="#0D2223"/>
<path d="M320.931 276.413C325.898 299.757 331.035 323.06 335.79 346.444C340.171 367.992 344.584 389.572 346.12 411.55C346.933 423.409 345.665 435.3 344.86 447.151C343.788 463.042 342.357 478.908 341.081 494.79C340.772 498.553 340.349 502.316 340.195 506.088C340.114 508.144 339.008 508.526 337.35 508.591C330.132 508.469 322.923 508.217 315.713 508.827C313.925 508.827 312.836 508.388 312.584 506.153C310.552 488.271 308.365 470.332 306.228 452.426C307.52 450.744 307.707 448.761 307.805 446.737C308.048 441.657 308.178 436.609 308.032 431.497C307.691 419.239 306.837 407.007 306.78 394.741C306.74 387.426 305.927 379.932 303.009 373.007C295.604 355.385 288.135 337.804 281.535 319.857C280.544 317.189 279.017 314.752 277.048 312.697C276.17 311.762 275.374 310.258 273.797 310.738C272.423 311.152 272.545 312.745 272.285 313.826C271.285 318.004 270.489 322.231 269.619 326.433C265.255 345.231 259.193 363.595 251.51 381.298C243.382 399.708 233.628 417.102 218.997 431.228C204.229 445.485 187.062 453.174 165.986 449.224C157.652 447.534 149.442 445.277 141.415 442.469C125.541 435.813 110.528 427.701 96.8406 417.175C95.4182 416.078 93.4024 415.159 95.093 412.794C99.9699 407.259 104.034 401.154 108.049 395.034C109.195 394.051 110.366 393.246 111.756 394.676C118.9 400.862 127.248 404.812 136.14 407.844C145.893 411.184 155.273 410.55 163.987 404.95C169.01 401.699 173.106 397.505 174.61 391.393L175.081 390.791L176.276 389.523C178.893 385.004 181.681 380.582 183.803 375.787C188.558 365.017 191.931 353.841 195.247 342.551C201.213 322.109 207.35 301.724 213.413 281.314C216.226 273.804 218.908 266.245 221.086 258.515C222.574 257.466 224.337 257.288 226.044 256.954C241.26 254.012 256.533 251.622 272.074 250.964C287.021 250.322 301.7 250.964 315.9 256.15C317.569 262.907 319.246 269.661 320.931 276.413Z" fill="#668290"/>
<path d="M315.868 256.15C301.668 250.972 286.989 250.322 272.041 250.972C256.5 251.631 241.228 254.02 226.012 256.963C224.313 257.296 222.541 257.475 221.054 258.523C217.063 258.206 213.47 260.555 209.487 260.246L210.3 256.142C215.177 243.055 220.054 229.994 223.305 216.395L224.118 215.583C226.816 210.454 227.751 204.724 229.653 199.326C230.068 198.14 229.864 196.441 227.938 197.555C224.476 199.562 220.363 201.22 218.632 204.992C216.299 210.064 212.414 213.656 208.805 217.639C205.594 221.183 202.302 224.881 202.197 230.156C190.817 237.992 179.438 245.713 168.205 253.728C165.165 255.914 162.654 256.451 159.695 254.126C159.175 251.549 156.931 250.452 155.2 248.924C151.396 244.169 151.38 244.153 155.371 239.113C164.49 227.604 174.496 216.842 183.99 205.658C194.556 193.19 206.561 182.087 217.656 170.139C218.698 169.546 219.703 168.889 220.664 168.172C231.506 159.093 244.097 154.354 258.053 153.143C259.833 157.467 264.141 160.547 268.286 159.979C272.187 159.45 275.089 157.483 275.447 153.086L287.728 153.712C299.108 154.11 310.438 153.5 321.053 148.835C328.255 145.665 332.652 139.293 337.155 133.245C345.025 122.606 351.8 111.198 357.378 99.1968C358.776 96.2219 360.352 95.0921 363.417 96.2382C366.018 97.8638 368.537 99.6682 371.829 99.4894C374.804 101.042 375.967 103.033 375.251 106.74C372.431 121.63 369.862 136.578 364.937 150.997C360.962 162.645 354.923 172.943 345.933 181.477C344.308 181.233 343.072 182.193 341.975 183.103C334.79 189.175 326.166 187.98 317.786 187.98C310.113 187.98 309.755 188.5 312.364 195.831C312.405 195.937 312.559 196.01 312.665 196.1C313.112 204.602 315.599 212.746 317.136 221.061C319.574 234.123 322.248 247.136 324.833 260.173C321.565 259.458 318.924 257.353 315.868 256.15Z" fill="#E3C9C4"/>
<path d="M258.093 153.167C244.105 154.403 231.515 159.117 220.704 168.196C219.743 168.913 218.739 169.57 217.697 170.163C202.993 167.92 192.5 156.703 190.297 140.821C187.859 123.264 196.523 108.861 212.397 104.139C220.013 101.879 226.621 103.968 231.49 110.186C236.481 116.55 240.829 117.379 248.023 113.567C251.558 111.698 254.306 108.959 257.126 106.252C261.694 101.822 266.798 98.4815 273.553 98.6847C282.632 98.9611 288.183 106.813 284.932 115.225C284.119 117.387 284.355 118.55 285.891 120.102C293.093 127.361 295.799 144.795 287.818 153.76L275.528 153.135C274.813 150.843 273.772 148.689 273.415 146.226C273.09 143.926 273.577 143.34 275.853 143.552C279.104 143.852 281.413 142.097 282.299 139.097C284.737 130.75 284.323 122.516 280.12 114.786C278.194 111.243 274.528 110.21 270.651 111.462C265.88 112.998 263.612 116.664 262.434 121.216C261.979 122.979 262.198 125.142 259.182 124.044C257.825 123.565 256.988 124.678 256.655 126.028C255.915 128.962 256.655 131.416 259.15 133.123C260.776 134.245 261.913 135.472 261.832 137.651C261.531 143.048 261.036 148.388 258.093 153.167Z" fill="#071E20"/>
<path d="M316.518 518.191L315.705 508.827C322.915 508.217 330.124 508.469 337.342 508.591C337.049 512.607 336.754 516.619 336.456 520.629C335.594 529.716 334.977 538.836 333.766 547.874C333.132 552.589 336.488 554.718 338.642 557.709C337.732 559.766 339.984 560.432 340.512 561.871C341.178 563.7 342.901 565.122 342.682 567.967C334.359 560.359 327.458 551.963 319.233 544.956C318.338 536.032 317.434 527.11 316.518 518.191Z" fill="#CD786C"/>
<path d="M108.09 395.034C104.026 401.154 99.9617 407.226 95.1337 412.794C87.2901 404.885 79.3977 397.042 71.6435 389.052C68.5549 385.866 65.4906 382.793 60.947 381.818C57.3381 378.859 52.3963 377.843 48.6411 373.495C52.0549 374.454 54.6071 375.267 57.2 375.892C65.328 377.851 73.131 380.964 81.4866 381.94C90.1221 386.761 99.0017 391.132 108.09 395.034Z" fill="#CD786C"/>
<path d="M81.4541 381.94C73.0985 380.964 65.2793 377.876 57.1675 375.893C54.5746 375.267 52.0224 374.454 48.6086 373.495C52.3638 377.843 57.3056 378.859 60.9145 381.818C53.8544 380.672 47.2552 377.575 41.8623 372.877C40.2773 371.544 38.2535 369.626 39.2776 367.407C40.4724 364.806 43.3416 365.009 45.7232 365.489C53.2497 367.025 60.6625 369.439 68.246 370.179C76.0652 370.918 79.983 374.73 81.4541 381.94Z" fill="#0D2223"/>
<path d="M114.17 395.05C125.427 399.35 137.026 402.252 149.12 402.618C159.256 402.918 167.555 398.407 174.61 391.393C173.106 397.505 169.01 401.724 163.987 404.95C155.273 410.551 145.869 411.185 136.14 407.844C127.288 404.812 118.941 400.862 111.796 394.677L114.17 395.05Z" fill="#1F5371"/>
<path d="M202.205 230.156C202.31 224.881 205.602 221.215 208.813 217.639C212.422 213.656 216.307 210.064 218.64 204.992C220.371 201.22 224.484 199.562 227.946 197.555C229.873 196.441 230.076 198.14 229.661 199.326C227.759 204.723 226.825 210.454 224.126 215.583L223.313 216.395C217.299 220.389 211.281 224.374 205.261 228.352C204.318 229.026 203.245 229.555 202.205 230.156Z" fill="#EFDEDB"/>
<path d="M371.862 99.4732C368.611 99.6845 366.05 97.8476 363.449 96.222C363.606 91.9304 363.766 87.636 363.929 83.339C363.929 82.5912 363.539 81.5183 364.563 81.2501C365.823 80.9168 365.977 82.136 366.351 82.957C367.001 84.3875 367.05 86.1351 368.83 87.3543C370.358 84.5826 371.781 81.7947 373.422 79.1368C374.081 78.072 374.926 76.609 376.536 77.0966C377.787 77.4787 378.072 78.8523 378.405 80.0309C380.087 85.8912 377.869 90.8412 374.755 95.5636C373.878 96.9373 372.829 98.1646 371.862 99.4732Z" fill="#D07C71"/>
<path d="M312.673 196.108C312.568 196.018 312.413 195.945 312.373 195.839C309.763 188.524 310.121 188.004 317.794 187.988C326.174 187.988 334.798 189.199 341.983 183.111C343.08 182.176 344.291 181.217 345.941 181.485C339.309 188.801 330.831 192.865 321.452 195.303C318.588 196.046 315.624 196.317 312.673 196.108Z" fill="#EFDEDB"/>
<path d="M155.233 248.948C156.964 250.476 159.207 251.574 159.727 254.15C156.801 257.719 153.062 260.425 149.649 263.473C148.689 264.335 147.446 265.912 146.259 264.961C144.772 263.758 146.877 262.758 147.275 261.62C147.405 261.246 147.56 260.88 147.795 260.263C145.081 259.751 143.585 261.766 141.699 262.799C140.391 263.514 138.879 264.424 137.635 263.075C136.603 261.888 137.635 260.466 138.261 259.336C139.048 257.913 140.18 256.711 141.554 255.842C142.928 254.973 144.498 254.463 146.121 254.362C149.966 253.988 153.68 253.272 155.233 248.948Z" fill="#D07C71"/>
<path d="M315.868 256.15C318.924 257.353 321.557 259.458 324.808 260.214C324.808 261.295 324.808 262.376 324.865 263.465C324.662 268.139 324.223 272.739 320.899 276.47C319.241 269.68 317.564 262.907 315.868 256.15Z" fill="#EFDEDB"/>
<path d="M306.228 452.426C304.911 443.64 303.448 434.87 302.31 426.051C298.856 399.366 290.597 374.104 279.779 349.59C276.381 341.876 273.854 333.773 269.619 326.425C270.489 322.223 271.245 317.996 272.285 313.818C272.545 312.737 272.423 311.144 273.797 310.73C275.374 310.258 276.17 311.754 277.048 312.689C279.017 314.744 280.544 317.181 281.535 319.849C288.135 337.796 295.604 355.377 303.009 372.999C305.927 379.924 306.74 387.394 306.78 394.733C306.837 406.999 307.691 419.231 308.032 431.488C308.178 436.601 308.032 441.648 307.805 446.729C307.707 448.761 307.52 450.744 306.228 452.426Z" fill="#1F5371"/>
<path d="M213.381 281.314C211.121 280.404 210.568 278.291 209.902 276.307C208.114 271 208.276 265.627 209.487 260.238C213.47 260.547 217.063 258.198 221.054 258.515C218.875 266.245 216.193 273.804 213.381 281.314Z" fill="#EFDEDB"/>
<path d="M175.049 390.775L176.236 389.507L175.049 390.775Z" fill="#1F5371"/>
<path d="M258.093 153.167C261.036 148.388 261.531 143.048 261.727 137.61C261.808 135.432 260.702 134.204 259.044 133.083C256.508 131.376 255.793 128.921 256.549 125.987C256.882 124.638 257.719 123.548 259.077 124.004C262.125 125.101 261.905 122.939 262.328 121.175C263.507 116.64 265.774 112.974 270.545 111.421C274.423 110.17 278.088 111.202 280.015 114.746C284.217 122.476 284.631 130.709 282.193 139.057C281.307 142.056 279.031 143.812 275.747 143.511C273.496 143.3 273.008 143.885 273.309 146.185C273.667 148.624 274.707 150.802 275.422 153.094C275.073 157.491 272.171 159.458 268.27 159.987C264.149 160.572 259.873 157.499 258.093 153.167Z" fill="#CB776B"/>
<path d="M223.338 216.42L224.15 215.607L223.338 216.42Z" fill="#FEFEFE"/>
<path d="M636.259 452.713C650.995 449.732 660.469 435.093 657.419 420.015C657.079 418.336 656.599 416.724 655.993 415.187C655.225 415.274 654.454 415.395 653.682 415.551C638.946 418.531 629.472 433.171 632.522 448.249C632.862 449.927 633.537 453.263 633.537 453.263C634.305 453.176 635.487 452.869 636.259 452.713Z" fill="#FFABA9"/>
<path d="M193.64 578.816C208.537 580.845 222.296 570.134 224.373 554.891C224.604 553.195 224.681 551.514 224.614 549.863C223.859 549.693 223.091 549.553 222.311 549.447C207.414 547.418 193.655 558.129 191.578 573.372C191.347 575.068 190.888 578.441 190.888 578.441C191.642 578.611 192.86 578.71 193.64 578.816Z" fill="#FFABA9"/>
<path d="M114.845 497.326C115.121 487.115 106.875 478.609 96.4278 478.327C95.265 478.296 94.124 478.367 93.014 478.534C92.9543 479.056 92.9167 479.585 92.9023 480.12C92.6265 490.33 100.872 498.836 111.32 499.118C112.482 499.15 114.794 499.212 114.794 499.212C114.854 498.69 114.831 497.86 114.845 497.326Z" fill="#FCCCCA"/>
<path d="M385.049 141.264C383.429 131.179 373.751 124.347 363.432 126.005C362.283 126.189 361.175 126.471 360.115 126.84C360.153 127.364 360.214 127.891 360.299 128.419C361.919 138.504 371.598 145.336 381.917 143.678C383.065 143.494 385.349 143.127 385.349 143.127C385.31 142.603 385.134 141.792 385.049 141.264Z" fill="#FFABA9"/>
<path d="M272.965 14.887C279.328 14.3713 284.058 8.67552 283.53 2.16515C283.472 1.4406 283.35 0.736485 283.172 0.0579554C282.844 0.0560084 282.513 0.0682739 282.179 0.0952888C275.817 0.611029 271.087 6.30681 271.614 12.8172C271.673 13.5417 271.79 14.9823 271.79 14.9823C272.118 14.9843 272.632 14.9141 272.965 14.887Z" fill="#FFABA9"/>
<path d="M253.642 68.7073C255.244 63.0778 251.873 57.1849 246.113 55.5453C245.472 55.3628 244.828 55.2407 244.189 55.1756C244.081 55.4569 243.985 55.7452 243.901 56.0401C242.299 61.6697 245.67 67.5626 251.43 69.2022C252.071 69.3847 253.346 69.7475 253.346 69.7475C253.453 69.4661 253.558 69.0022 253.642 68.7073Z" fill="#FFABA9"/>
<path d="M443.656 172.929C435.977 170.451 427.697 174.811 425.161 182.669C424.879 183.543 424.68 184.424 424.56 185.302C424.942 185.464 425.335 185.61 425.737 185.739C433.416 188.217 441.696 183.857 444.232 176C444.514 175.125 445.075 173.386 445.075 173.386C444.693 173.225 444.059 173.058 443.656 172.929Z" fill="#FCCCCA"/>
<path d="M323.35 204.315C320.897 197.516 313.27 194.039 306.313 196.549C305.539 196.828 304.806 197.17 304.118 197.566C304.213 197.925 304.325 198.283 304.453 198.639C306.906 205.438 314.533 208.915 321.489 206.405C322.264 206.126 323.803 205.571 323.803 205.571C323.707 205.211 323.478 204.671 323.35 204.315Z" fill="white"/>
<path d="M203.049 363.264C201.429 353.179 191.751 346.347 181.432 348.005C180.283 348.189 179.175 348.471 178.115 348.84C178.153 349.364 178.214 349.891 178.299 350.419C179.919 360.504 189.598 367.336 199.917 365.678C201.065 365.494 203.349 365.127 203.349 365.127C203.31 364.603 203.134 363.792 203.049 363.264Z" fill="#FFABA9"/>
<path d="M99.9214 133.093C101.509 146.697 114.081 156.409 128.002 154.784C129.551 154.604 131.052 154.29 132.493 153.857C132.472 153.152 132.421 152.443 132.338 151.731C130.75 138.126 118.178 128.414 104.258 130.039C102.708 130.22 99.6281 130.579 99.6281 130.579C99.6488 131.283 99.8383 132.38 99.9214 133.093Z" fill="#FCCCCA"/>
<path d="M154.213 303.55C144.656 299.943 133.918 304.946 130.227 314.724C129.817 315.812 129.511 316.913 129.304 318.017C129.778 318.244 130.265 318.453 130.766 318.642C140.322 322.249 151.06 317.246 154.751 307.468C155.162 306.38 155.978 304.216 155.978 304.216C155.505 303.989 154.713 303.739 154.213 303.55Z" fill="white"/>
<path d="M182.851 55.3096C192.848 57.4074 202.691 50.8161 204.838 40.5876C205.077 39.4492 205.21 38.3138 205.245 37.1919C204.742 37.0398 204.228 36.9082 203.705 36.7983C193.708 34.7006 183.864 41.2919 181.718 51.5204C181.479 52.6587 181.004 54.922 181.004 54.922C181.507 55.0741 182.328 55.1997 182.851 55.3096Z" fill="#FFABA9"/>
<path d="M336.268 448.819C335.116 441.579 328.178 436.665 320.771 437.843C319.946 437.974 319.151 438.175 318.39 438.439C318.417 438.815 318.46 439.193 318.52 439.572C319.671 446.812 326.609 451.726 334.017 450.548C334.841 450.417 336.48 450.156 336.48 450.156C336.454 449.78 336.328 449.198 336.268 448.819Z" fill="white"/>
<path d="M325.942 70.2237C324.527 61.322 315.996 55.2798 306.887 56.7281C305.874 56.8892 304.896 57.1364 303.96 57.4607C303.993 57.9233 304.046 58.3881 304.12 58.8544C305.535 67.7561 314.066 73.7983 323.175 72.35C324.188 72.1888 326.204 71.8684 326.204 71.8684C326.171 71.4058 326.017 70.69 325.942 70.2237Z" fill="#FCCCCA"/>
<path d="M567.156 220.056C568.044 212.142 562.199 204.991 554.101 204.083C553.2 203.982 552.309 203.962 551.436 204.018C551.355 204.42 551.291 204.828 551.244 205.243C550.357 213.157 556.202 220.308 564.299 221.216C565.2 221.317 566.992 221.518 566.992 221.518C567.073 221.117 567.11 220.471 567.156 220.056Z" fill="#FCCCCA"/>
<path d="M198.96 134.11C197.809 126.871 190.871 121.957 183.464 123.135C182.639 123.266 181.844 123.467 181.082 123.731C181.109 124.107 181.152 124.485 181.213 124.864C182.364 132.104 189.302 137.018 196.709 135.84C197.534 135.709 199.173 135.448 199.173 135.448C199.146 135.072 199.021 134.49 198.96 134.11Z" fill="#FFABA9"/>
<path d="M553.28 377.166C556.247 387.943 559.36 398.681 562.148 409.507C567.837 431.583 573.226 453.724 582.403 474.727C589.003 489.821 595.643 504.882 602.772 519.732C600.731 522.845 602.682 525.738 603.487 528.551C606.502 539.166 611.672 549.082 613.858 559.958C615.328 566.955 617.919 573.669 621.531 579.839C618.459 584.212 613.078 586.065 609.973 590.405C608.347 591.039 607.169 590.966 605.909 589.333C603.332 586.041 600.341 583.082 597.578 579.936C580.46 560.429 564.318 540.109 549.004 519.236C532.878 497.233 520.662 472.971 510.185 447.855C505.674 437.053 501.553 426.088 497.261 415.205C497.257 414.932 497.227 414.66 497.172 414.392C496.302 411.027 495.424 405.516 493.108 405.394C489.369 405.183 488.507 410.312 487.337 413.628C482.72 426.755 478.225 439.971 470.959 451.887C463.343 464.372 460.083 477.832 459.864 492.259C459.653 506.556 459.23 520.862 459.051 535.159C459.051 538.727 459.051 542.434 461.246 545.603C460.612 550.521 459.913 555.43 459.368 560.364C458.165 571.158 456.247 581.871 455.629 592.738C454.369 595.347 454.816 598.249 454.329 600.996C453.93 603.256 452.849 603.532 451.077 603.435C447.631 603.922 444.071 603.744 440.722 604.361C437.057 605.028 433.22 604.101 429.725 605.751C426.644 606.011 425.555 604.573 425.58 601.533C425.58 598.899 424.994 596.266 424.661 593.624C422.418 572.418 421.532 551.114 421.069 529.819C420.744 514.977 421.377 500.127 422.207 485.293C423.184 469.55 425.131 453.882 428.034 438.378C431.562 418.729 436.7 399.403 443.396 380.596C443.892 379.214 444.209 377.751 444.559 376.32C445.9 374.938 446.184 373.069 446.867 371.378C450.346 372.793 453.012 371.378 455.654 369.135C461.4 364.339 464.692 364.348 470.739 368.834C475.714 372.516 484.793 373.532 489.507 370.062C495.359 365.754 500.707 365.933 506.698 369.541C512.493 373.028 518.37 372.85 524.238 369.046C528.627 366.201 533.569 365.981 538.056 368.777C542.056 371.343 546.787 372.528 551.524 372.151C552.126 373.809 552.703 375.491 553.28 377.166Z" fill="#FE8C8C"/>
<path d="M607.388 348.587C605.535 349.237 604.901 351.619 602.747 351.838L562.92 326.089C563.237 324.171 562.18 322.748 561.221 321.269C556.141 313.506 549.224 307.045 545.282 298.429C544.209 296.08 541.77 294.487 538.446 293.552C539.348 300.055 540.202 306.11 541.047 312.182L543.339 330.787C514.176 330.974 484.98 329.974 455.857 332.412C456.355 326.994 456.854 321.575 457.352 316.156C458.336 308.443 459.336 300.713 460.303 293.032C460.628 290.415 458.978 290.829 457.499 291.358C454.751 292.341 453.435 294.82 451.963 297.047C446.144 305.655 438.804 312.206 427.921 312.767C422.694 313.043 417.785 313.702 413.184 316.213C405.056 312.889 399.7 306.646 395.433 299.282C391.027 291.691 387.727 283.603 384.598 275.418C383.411 272.322 383.631 270.485 386.768 269.274C389.537 268.626 392.194 267.572 394.652 266.144C398.261 263.917 400.903 265.153 403.788 267.932C409.102 273.145 415.3 277.373 422.093 280.417C430.912 284.294 433.757 283.823 440.357 276.946C447.558 269.452 454.394 261.503 463.676 256.439C467.561 254.302 471.593 252.424 475.551 250.433C480.607 249.709 485.492 247.994 490.661 247.994C493.839 254.342 496.863 256.025 502.252 254.318C503.817 253.874 505.263 253.088 506.488 252.017C507.712 250.946 508.683 249.616 509.331 248.124C523.369 249.49 535.926 254.415 546.72 263.568C553.41 269.257 559.4 275.63 565.561 281.848C566.651 282.945 567.447 284.571 569.382 284.497C569.008 286.18 570.454 286.838 571.308 287.749C585.272 303.241 598.938 318.99 612.306 334.997C614.972 338.2 615.988 340.687 611.965 343.255L607.388 348.587Z" fill="#668290"/>
<path d="M551.557 372.134C546.819 372.512 542.089 371.327 538.088 368.761C533.61 365.965 528.668 366.185 524.271 369.029C518.402 372.833 512.526 373.012 506.73 369.525C500.74 365.916 495.351 365.738 489.539 370.045C484.825 373.516 475.722 372.484 470.772 368.818C464.724 364.331 461.433 364.323 455.686 369.119C453.044 371.33 450.378 372.776 446.9 371.362L437 362.421L436.187 361.608C437.52 358.032 440.308 355.439 442.494 352.448C446.835 346.507 451.338 340.679 455.775 334.81C471.357 334.306 486.93 333.754 502.512 333.298C516.378 332.9 530.229 333.689 544.087 333.981L558.717 353.554C559.977 355.407 561.156 357.341 562.521 359.097C564.009 360.975 564.44 362.795 562.96 364.835C559.668 368.022 556.19 370.972 551.557 372.134Z" fill="#668290"/>
<path d="M490.678 247.978C485.508 247.978 480.623 249.701 475.568 250.416C477.258 246.93 480.119 244.41 482.761 241.711C488.524 235.827 489.068 232.25 485.272 225.122C479.363 214.003 485.329 201.599 497.733 199.559C499.149 199.304 500.42 198.534 501.301 197.397C506.926 191.561 515.338 189.464 521.621 192.236C529.156 195.568 532.48 203.452 530.204 213.182C529.123 217.79 527.083 222.391 531.432 226.357C536.455 230.966 542.266 233.291 549.2 232.112C567.285 229.04 580.346 237.501 583.004 254.302C585.053 267.209 580.355 277.288 569.422 284.473C567.488 284.546 566.691 282.921 565.602 281.823C559.441 275.605 553.451 269.217 546.761 263.543C535.943 254.367 523.385 249.441 509.372 248.1C507.436 245.318 506.625 241.905 507.104 238.549C513.03 239.175 515.761 237.379 517.094 231.673C518.648 225.34 518.323 218.691 516.159 212.54C513.501 205.062 505.967 203.599 500.431 209.353C498.882 211.056 497.744 213.091 497.107 215.303C496.505 217.165 496.725 219.79 493.254 218.457C492.011 217.977 491.035 219.335 490.816 220.619C490.344 223.439 490.531 226.227 493.563 227.495C494.199 227.707 494.748 228.122 495.127 228.675C495.505 229.228 495.693 229.89 495.66 230.56C495.481 236.778 495.335 243.044 490.678 247.978Z" fill="#071E20"/>
<path d="M624.01 604.882L609.989 590.397C613.094 586.065 618.475 584.212 621.547 579.831C624.872 579.384 626.424 576.108 629.261 574.954C633.414 584.529 637.186 594.283 642.428 603.353L645.086 608.929C647.777 619.406 650.467 629.892 653.418 641.368C648.695 637.085 647.728 631.777 644.94 627.624L645.046 627.697C644.298 627.429 644.347 626.884 644.485 626.242C644.174 625.371 643.739 624.55 643.192 623.804C636.812 617.472 630.407 611.181 624.01 604.882Z" fill="#CD786C"/>
<path d="M429.766 605.735C433.261 604.109 437.081 605.012 440.763 604.345C444.112 603.727 447.672 603.906 451.118 603.418C449.964 615.562 448.807 627.7 447.647 639.832L424.995 662.079C424.604 657.47 428.644 655.503 428.872 651.992C433.635 648.367 433.277 643.539 432.659 638.255C431.408 627.445 430.7 616.578 429.766 605.735Z" fill="#CD786C"/>
<path d="M413.201 316.205C417.801 313.693 422.711 313.035 427.937 312.759C438.82 312.198 446.16 305.647 451.98 297.039C453.475 294.812 454.768 292.333 457.515 291.349C458.994 290.821 460.644 290.407 460.319 293.024C459.352 300.729 458.352 308.467 457.369 316.148C446.518 321.545 435.268 324.227 423.231 320.968C419.589 319.993 415.981 318.944 413.201 316.205Z" fill="#1F5371"/>
<path d="M428.872 651.992C428.644 655.503 424.604 657.47 424.995 662.079L447.648 639.832C447.74 639.93 447.82 640.039 447.883 640.157C451.134 648.643 451.134 648.651 444.518 654.739C438.382 660.372 432.253 666.021 426.051 671.589C423.97 673.458 421.402 675.888 418.679 673.921C416.184 672.109 417.492 668.874 418.533 666.468C420.939 660.941 423.783 655.641 428.872 651.992ZM424.808 662.046L424.564 661.77C424.467 661.923 424.388 662.087 424.328 662.257C424.328 662.322 424.458 662.42 424.539 662.509L424.808 662.046Z" fill="#0D2223"/>
<path d="M644.94 627.616C647.761 631.769 648.695 637.077 653.418 641.36C650.467 629.883 647.777 619.414 645.086 608.921C647.826 610.002 650.54 611.156 653.32 612.124C654.84 612.652 655.287 613.668 655.588 615.099C657.628 624.852 659.758 634.525 661.814 644.246C662.018 645.301 662.049 646.383 661.903 647.448C661.375 651.577 659.189 652.512 655.897 649.968C652.605 647.424 650.67 643.856 648.972 640.214C647.102 636.175 645.249 632.135 644.94 627.616Z" fill="#0D2223"/>
<path d="M394.669 266.136C392.21 267.563 389.553 268.618 386.784 269.265C381.753 263.755 377.713 257.886 379.412 249.815C379.713 248.393 379.876 246.686 381.696 246.409C383.322 246.165 384.021 247.572 384.687 248.718C385.703 250.457 386.589 252.278 387.573 254.033C388.012 254.846 388.061 256.114 389.158 256.122C390.466 256.122 390.621 254.765 391.003 253.798C391.255 253.172 391.434 252.522 391.677 251.896C391.921 251.27 392.303 250.563 393.043 250.612C394.254 250.685 393.937 251.725 393.945 252.457C393.978 257.033 393.783 261.617 394.669 266.136Z" fill="#D07C71"/>
<path d="M544.152 333.94C530.294 333.648 516.444 332.859 502.577 333.258C486.996 333.713 471.422 334.266 455.841 334.77L455.898 332.412C485.02 329.974 514.216 330.974 543.38 330.787C543.616 331.835 543.876 332.892 544.152 333.94Z" fill="#1F5371"/>
<path d="M607.388 348.587L612.005 343.296C612.818 346.913 615.037 348.685 618.751 348.912C622.588 349.14 626.067 350.384 628.505 353.529C628.692 354.033 628.863 354.529 629.058 355.025C629.497 356.138 630.074 357.341 628.936 358.276C627.798 359.211 626.684 358.398 625.685 357.87C623.506 356.772 621.856 354.439 618.955 355.073L618.711 354.643C618.711 354.724 618.662 354.838 618.711 354.87C618.803 354.939 618.904 354.993 619.012 355.033C619.288 356.862 622.433 358.625 620.93 359.755C619.044 361.186 617.337 358.357 615.898 357.016C612.964 354.326 609.258 352.342 607.388 348.587Z" fill="#D07C71"/>
<path d="M644.469 626.258C644.33 626.868 644.282 627.445 645.029 627.713L644.469 626.258Z" fill="#0D2223"/>
<path d="M437.008 362.389L446.908 371.33C446.258 373.028 445.941 374.89 444.599 376.271C440.419 372.758 437.71 367.804 437.008 362.389Z" fill="#1F5371"/>
<path d="M629.245 574.946C626.376 576.116 624.856 579.392 621.531 579.823C617.919 573.653 615.328 566.939 613.858 559.942C611.672 549.066 606.543 539.15 603.487 528.535C602.674 525.722 600.732 522.845 602.772 519.716C611.626 537.056 620.48 554.374 629.334 571.67C629.919 572.833 630.31 573.889 629.245 574.946Z" fill="#FE5253"/>
<path d="M551.557 372.134C556.19 370.972 559.685 368.022 562.936 364.819C561.513 370.354 558.408 374.573 553.239 377.19C552.703 375.491 552.125 373.809 551.557 372.134Z" fill="#1F5371"/>
<path d="M497.237 415.197C480.347 457.316 465.822 500.086 461.246 545.604C459.059 542.434 459.019 538.727 459.051 535.159C459.197 520.862 459.62 506.556 459.864 492.259C460.083 477.832 463.343 464.372 470.959 451.887C478.225 439.971 482.72 426.755 487.337 413.628C488.507 410.312 489.369 405.183 493.108 405.394C495.4 405.516 496.278 411.027 497.172 414.392C497.218 414.658 497.24 414.927 497.237 415.197Z" fill="#FE5253"/>
<path d="M490.678 247.978C495.335 243.044 495.481 236.778 495.66 230.576C495.693 229.906 495.505 229.244 495.127 228.691C494.748 228.138 494.199 227.724 493.563 227.512C490.531 226.244 490.312 223.448 490.816 220.635C491.035 219.351 492.011 217.994 493.254 218.473C496.725 219.806 496.505 217.181 497.107 215.319C497.744 213.108 498.882 211.072 500.431 209.37C505.95 203.599 513.501 205.078 516.159 212.54C518.322 218.689 518.647 225.334 517.094 231.665C515.761 237.355 513.03 239.167 507.104 238.541C506.618 241.894 507.42 245.306 509.348 248.092C508.7 249.584 507.728 250.913 506.504 251.984C505.28 253.055 503.833 253.841 502.268 254.285C496.879 256.009 493.856 254.326 490.678 247.978Z" fill="#CB776B"/>
<path d="M562.912 326.081L541.039 312.182C540.226 306.11 539.34 300.038 538.438 293.552C541.762 294.479 544.201 296.072 545.274 298.429C549.216 307.045 556.133 313.507 561.213 321.269C562.172 322.74 563.229 324.162 562.912 326.081Z" fill="#1F5371"/>
<path d="M424.808 662.022L424.539 662.485C424.458 662.396 424.312 662.298 424.328 662.233C424.388 662.062 424.467 661.899 424.564 661.745L424.808 662.022Z" fill="#CD786C"/>
<path d="M619.003 355.065C618.896 355.026 618.795 354.971 618.703 354.903C618.703 354.903 618.703 354.756 618.703 354.675L618.947 355.106L619.003 355.065Z" fill="#F9F2F1"/>
<path d="M0 35.9754C37.7948 26.2182 81.2006 16.8961 120.26 22.5309C188.312 32.3375 152.444 88.3692 127.768 126.735C103.802 164.014 81.8427 218.78 98.2212 263.048C139.414 374.351 381.724 305.314 345.5 240C338.987 228.255 329.571 223.484 317.404 221M557.5 374.467C589.112 378.032 618.39 387.986 635.736 410.305C658.377 439.448 650 481.5 619.703 508.707C567.417 554.132 486.661 563.078 421.552 546.46C370.243 533.362 357.984 480.227 414.637 462.294C417.865 461.27 421.156 460.358 424.5 459.551M442 380.079C382.83 388.879 322.9 404.458 263.991 404.236C205.689 404.008 145.717 384.216 163.31 313.89C167.376 297.634 185.463 277.075 209 259.325M482.5 454.719C493.352 455.181 504.122 456.277 514.5 457.82" stroke="#FFC74C" stroke-width="2" stroke-linecap="round"/>
<path d="M312.259 304.713C326.995 301.732 336.469 287.093 333.419 272.015C333.079 270.336 332.599 268.724 331.993 267.187C331.225 267.274 330.454 267.395 329.682 267.551C314.946 270.531 305.472 285.171 308.522 300.249C308.862 301.927 309.537 305.263 309.537 305.263C310.305 305.176 311.487 304.869 312.259 304.713Z" fill="#FFABA9"/>
<path d="M464.567 475.887C464.265 486.097 472.489 494.624 482.936 494.932C484.098 494.967 485.239 494.898 486.35 494.734C486.411 494.212 486.45 493.683 486.466 493.149C486.767 482.939 478.543 474.412 468.097 474.103C466.934 474.069 464.622 474.001 464.622 474.001C464.561 474.523 464.582 475.352 464.567 475.887Z" fill="white"/>
<path d="M456.049 351.264C454.429 341.179 444.751 334.347 434.432 336.005C433.283 336.189 432.175 336.471 431.115 336.84C431.153 337.364 431.214 337.891 431.299 338.419C432.919 348.504 442.598 355.336 452.917 353.678C454.065 353.494 456.349 353.127 456.349 353.127C456.31 352.603 456.134 351.792 456.049 351.264Z" fill="#FFABA9"/>
</g>
<defs>
<clipPath id="clip0_41_1490">
<rect width="662.947" height="674.651" fill="white"/>
</clipPath>
</defs>
</svg>
