<svg width="320" height="320" viewBox="0 0 320 320" fill="none" xmlns="http://www.w3.org/2000/svg">
<path d="M311.24 167.048C311.24 167.048 321.191 221.132 248.219 249.694C175.248 278.256 92.2804 293.873 49.6217 251.49C-2.11223 200.125 -2.94145 177.229 33.9127 131.3C70.7668 85.3704 76.7556 13.0902 184.554 55.0118C292.352 96.9333 304.468 114.715 311.24 167.048Z" fill="#F2E1DE"/>
<path d="M188.7 217.677H131.3L123.791 166.772H196.163L188.7 217.677Z" fill="white"/>
<path d="M188.7 218.045C188.7 221.454 175.847 224.218 160 224.218C144.153 224.218 131.3 221.454 131.3 218.045C131.3 214.636 144.153 211.872 160 211.872C175.847 211.872 188.7 214.636 188.7 218.045Z" fill="white"/>
<path d="M160 174.511C179.972 174.511 196.163 171.046 196.163 166.772C196.163 162.498 179.972 159.033 160 159.033C140.028 159.033 123.837 162.498 123.837 166.772C123.837 171.046 140.028 174.511 160 174.511Z" fill="#E0B0AA"/>
<path d="M192.8 170.089C200.217 167.002 175.11 163.962 167.647 162.718C156.545 160.829 137.933 162.994 128.397 170.595C128.397 170.595 139.684 175.018 162.211 174.557C162.211 174.557 182.02 174.557 192.8 170.089Z" fill="#51312C"/>
<path d="M166.081 140.605C165.159 132.175 160.507 127.522 152.076 126.601C160.46 125.68 165.159 121.027 166.081 112.55C167.002 120.981 171.701 125.68 180.131 126.601C171.701 127.476 167.002 132.129 166.081 140.605Z" fill="#FF5051"/>
<path d="M148.759 154.426C148.206 149.358 145.396 146.548 140.329 145.995C145.396 145.443 148.206 142.632 148.759 137.565C149.312 142.632 152.122 145.443 157.189 145.995C152.122 146.548 149.312 149.358 148.759 154.426Z" fill="#FF5051"/>
<path d="M166.08 170.503C165.62 166.311 163.27 163.962 159.078 163.501C163.27 163.04 165.62 160.691 166.08 156.499C166.541 160.691 168.891 163.04 173.083 163.501C168.891 163.962 166.587 166.311 166.08 170.503Z" fill="#FF5051"/>
<path d="M142.586 133.465C142.125 129.135 139.684 126.739 135.354 126.232C139.684 125.772 142.079 123.33 142.586 119C143.047 123.33 145.488 125.772 149.819 126.232C145.488 126.739 143.093 129.135 142.586 133.465Z" fill="#FF8C8C"/>
<path d="M151.339 119C150.74 113.702 147.838 110.8 142.54 110.201C147.792 109.602 150.74 106.7 151.339 101.402C151.938 106.7 154.84 109.602 160.138 110.201C154.886 110.8 151.938 113.702 151.339 119Z" fill="#FF5051"/>
<path d="M165.205 107.529C164.791 103.843 162.764 101.817 159.078 101.402C162.764 100.987 164.791 98.9603 165.205 95.2749C165.62 98.9603 167.647 100.987 171.332 101.402C167.693 101.817 165.666 103.843 165.205 107.529Z" fill="#FF8C8C"/>
<path d="M173.774 152.859C173.359 149.174 171.332 147.147 167.647 146.733C171.332 146.318 173.359 144.291 173.774 140.605C174.189 144.291 176.216 146.318 179.901 146.733C176.262 147.147 174.189 149.174 173.774 152.859Z" fill="#FF8C8C"/>
</svg>
