<svg width="34" height="33" viewBox="0 0 34 33" fill="none" xmlns="http://www.w3.org/2000/svg">
<path d="M12.0639 9.65928C11.9101 9.65942 11.757 9.63722 11.6095 9.5934C11.3767 9.52318 11.1633 9.39981 10.9863 9.23304C10.8093 9.06626 10.6734 8.86063 10.5894 8.63238C10.5114 8.39195 10.4022 8.16281 10.2646 7.9508L10.0146 7.59865L10.9439 6.94207L11.2006 7.30785C11.3944 7.60315 11.5473 7.92338 11.655 8.25978C11.6778 8.32133 11.7147 8.37664 11.7629 8.42124C11.8111 8.46584 11.869 8.49848 11.9321 8.51651C11.995 8.53643 12.0619 8.54022 12.1266 8.52751C12.1913 8.51481 12.2518 8.48602 12.3025 8.44381C13.6962 7.40672 15.3799 6.83271 17.1169 6.80256C18.8538 6.7724 20.5565 7.28761 21.9854 8.27569C22.0345 8.31151 22.0913 8.33531 22.1513 8.34517C22.2113 8.35504 22.2727 8.35069 22.3307 8.33248C22.392 8.31416 22.4485 8.28244 22.496 8.23961C22.5436 8.19678 22.581 8.14392 22.6056 8.08484C22.6442 7.98715 22.6806 7.88719 22.7192 7.78722C22.8439 7.45118 22.9865 7.12204 23.1463 6.80121L23.3394 6.42407L24.3504 6.94207L24.1573 7.31921C24.0178 7.60292 23.8942 7.89418 23.787 8.19162C23.7484 8.29613 23.7075 8.39837 23.6666 8.50061C23.5784 8.71712 23.4428 8.91112 23.2699 9.06838C23.0969 9.22564 22.8909 9.34216 22.667 9.40937C22.4451 9.4771 22.2108 9.49347 21.9817 9.45726C21.7527 9.42105 21.5348 9.3332 21.3447 9.20036C20.1099 8.34693 18.6384 7.90256 17.1376 7.92987C15.6368 7.95718 14.1824 8.45479 12.9795 9.35257C12.7155 9.55117 12.3943 9.65879 12.0639 9.65928V9.65928Z" fill="#1C5170"/>
<path d="M27.722 18.4403H26.5861V14.4622C26.5861 13.2374 26.3448 12.0247 25.8761 10.8932C25.4075 9.76168 24.7205 8.73356 23.8545 7.86754C22.9885 7.00152 21.9603 6.31456 20.8288 5.84587C19.6973 5.37719 18.4846 5.13596 17.2598 5.13596C16.0351 5.13596 14.8224 5.37719 13.6909 5.84587C12.5593 6.31456 11.5312 7.00152 10.6652 7.86754C9.79919 8.73356 9.11222 9.76168 8.64354 10.8932C8.17485 12.0247 7.93362 13.2374 7.93362 14.4622V18.4403H6.78857V14.4622C6.78857 11.6874 7.89084 9.02634 9.85288 7.0643C11.8149 5.10226 14.476 4 17.2508 4C20.0255 4 22.6866 5.10226 24.6486 7.0643C26.6107 9.02634 27.7129 11.6874 27.7129 14.4622L27.722 18.4403Z" fill="#1C5170"/>
<path d="M8.83341 29.3454C7.47062 29.3442 6.15119 28.8662 5.10372 27.9945C4.05624 27.1227 3.34671 25.912 3.09804 24.572C2.84937 23.2321 3.07722 21.8474 3.74213 20.6578C4.40704 19.4683 5.46712 18.5487 6.73871 18.0586V18.0313L7.28851 17.8813L7.44982 18.4402L7.98599 18.2926L10.7668 28.4571L10.2329 28.6048L10.3829 29.1523H10.3601L9.8376 29.2932V29.2682C9.50579 29.3234 9.16976 29.3492 8.83341 29.3454V29.3454ZM7.04996 19.1695C5.99309 19.6087 5.13265 20.4183 4.62991 21.4465C4.12717 22.4747 4.01662 23.6509 4.31899 24.7547C4.62135 25.8586 5.31588 26.8143 6.27241 27.4427C7.22894 28.0712 8.38181 28.3293 9.51499 28.1686L7.04996 19.1695Z" fill="#1C5170"/>
<path d="M11.2848 29.4952C10.8827 29.4952 10.4918 29.3631 10.172 29.1193C9.8523 28.8755 9.62145 28.5334 9.51496 28.1457L7.06584 19.1762C6.93773 18.7074 7.00097 18.207 7.24166 17.7848C7.48235 17.3626 7.88081 17.0533 8.34947 16.9247L8.55621 16.8679C9.0253 16.7399 9.52603 16.8034 9.94826 17.0446C10.3705 17.2857 10.6796 17.6847 10.8077 18.1538L13.2613 27.1211C13.3251 27.3532 13.3424 27.5956 13.3124 27.8344C13.2824 28.0733 13.2056 28.3038 13.0863 28.513C12.9671 28.7221 12.8078 28.9056 12.6176 29.0531C12.4274 29.2006 12.2099 29.3092 11.9777 29.3726L11.771 29.4293C11.6125 29.4724 11.449 29.4946 11.2848 29.4952V29.4952ZM9.04013 17.9403C8.9779 17.9396 8.91591 17.948 8.8561 17.9653L8.64936 18.0221C8.56071 18.045 8.4776 18.0857 8.405 18.1415C8.33239 18.1973 8.27178 18.2672 8.22678 18.3469C8.13342 18.5068 8.1065 18.6968 8.15181 18.8763L10.6055 27.8458C10.6549 28.0238 10.7726 28.175 10.9331 28.2665C11.0935 28.358 11.2837 28.3824 11.462 28.3343L11.6687 28.2775C11.8472 28.2284 11.9991 28.1108 12.0913 27.9503C12.1366 27.8708 12.1657 27.7831 12.177 27.6922C12.1884 27.6014 12.1816 27.5092 12.1572 27.421L9.71262 18.4537C9.66354 18.2752 9.54596 18.1234 9.38546 18.0311C9.28047 17.9707 9.16127 17.9393 9.04013 17.9403V17.9403Z" fill="#1C5170"/>
<path d="M25.4317 29.3455C25.1066 29.3454 24.7821 29.318 24.4615 29.2638V29.291L23.9254 29.1456H23.9004L24.0481 28.5981L23.5142 28.4504L26.2973 18.2858L26.8312 18.4335L26.9788 17.886L27.5286 18.0337V18.0609C28.7999 18.5508 29.8599 19.4697 30.5252 20.6585C31.1906 21.8474 31.4195 23.2314 31.1723 24.5711C30.9251 25.9109 30.2174 27.1221 29.1716 27.9952C28.1258 28.8683 26.8076 29.3484 25.4453 29.3524L25.4317 29.3455ZM24.7637 28.1619C25.8961 28.3232 27.0484 28.0662 28.0048 27.4389C28.9612 26.8116 29.6561 25.8571 29.9592 24.7542C30.2624 23.6513 30.1531 22.4757 29.6517 21.4477C29.1503 20.4197 28.2913 19.6097 27.2356 19.1696L24.7637 28.1619Z" fill="#1C5170"/>
<path d="M22.9925 29.4956C22.8275 29.4951 22.6632 29.4729 22.504 29.4297L22.2973 29.3729C22.065 29.3095 21.8476 29.201 21.6574 29.0535C21.4671 28.906 21.3078 28.7224 21.1886 28.5133C21.0694 28.3042 20.9926 28.0736 20.9625 27.8348C20.9325 27.596 20.9499 27.3536 21.0136 27.1214L23.4673 18.1519C23.5969 17.6839 23.9064 17.2862 24.3283 17.0457C24.7501 16.8052 25.25 16.7414 25.7188 16.8683L25.9255 16.9251C26.3939 17.0542 26.7921 17.3635 27.0331 17.7854C27.2741 18.2073 27.3382 18.7075 27.2114 19.1765L24.7555 28.1461C24.65 28.5331 24.4203 28.8747 24.1018 29.1185C23.7833 29.3623 23.3936 29.4948 22.9925 29.4956ZM22.5971 28.2778L22.8039 28.3346C22.9822 28.3828 23.1723 28.3584 23.3328 28.2669C23.4932 28.1754 23.611 28.0242 23.6604 27.8462L26.1141 18.8766C26.1385 18.7885 26.1452 18.6964 26.1338 18.6056C26.1225 18.5148 26.0932 18.4272 26.0478 18.3478C26.0024 18.2684 25.9417 18.1987 25.8692 18.1429C25.7968 18.087 25.714 18.0461 25.6256 18.0224L25.4189 17.9656C25.3307 17.9396 25.2382 17.9317 25.1469 17.9423C25.0556 17.953 24.9674 17.982 24.8875 18.0276C24.8077 18.0732 24.738 18.1346 24.6825 18.2078C24.627 18.2811 24.5869 18.3649 24.5646 18.4541L22.1087 27.4213C22.0606 27.5997 22.0849 27.7898 22.1764 27.9502C22.2679 28.1107 22.4192 28.2284 22.5971 28.2778V28.2778Z" fill="#1C5170"/>
</svg>
