<svg xmlns="http://www.w3.org/2000/svg" viewBox="0 0 2610.68 2655.92"><defs><style>.cls-1{fill:#eaf3f4;}.cls-10,.cls-2{fill:#1c5170;}.cls-3{fill:none;stroke:#faf3f2;stroke-width:3px;}.cls-3,.cls-9{stroke-miterlimit:10;}.cls-4{fill:#ff5e62;}.cls-5{fill:#d88e87;}.cls-6{fill:#ff8c8c;}.cls-7{fill:#cf786c;}.cls-8{fill:#99473c;}.cls-9{fill:#fff;stroke:#1c5170;stroke-width:3.2px;}.cls-10{font-size:67.99px;font-family:Roboto-Bold, Roboto;font-weight:700;}</style></defs><g id="Layer_4" data-name="Layer 4"><path class="cls-1" d="M1612,1038.77s60-91.62,142.08-122.55,99.45-47.72,99.45-47.72,12.37-12.73,27.54-1c0,0,38.46-50,48.23-85.65,0,0-17.4-1.9-23.33-13.06s-27.84-56-24.9-122.66,7.79-102.57,7.79-102.57,12.77-55.51,23.51-72.63,20.86-39,89.36-75.74c0,0-.13-19.87-18.57-29.23l32.18-.31L2017,337.9l12.76,15.53s40.31-27,144-9.71V337.9s65.17,11.53,113.66,40.54c0,0,91.15,53.23,113.78,112.69l-18.35-9.61s46.88,58.45,54.92,113.72c0,0-60.5,13.28-65.48,10.13,0,0,1.4,17-5,33.42s-40.62,93.4-40.62,93.4-.23,118.92-16.33,136.31-18.62,26.06-38.86,13l-20.25-13s-23.43,53.38-69.56,86.65c0,0-15,22.45-48.79-4.8L2088,920.78l-43,58.13s112.2,77.26,120.86,98c0,0-184.2,78.78-228.85,156l-179.07,192-72.42,66.74-91,55L1533.81,1574l-96.69,28-52,8.2-51.89,2.95-58.83-4.14s-54.86-9.68-64.27-16.68l-1.11-33.24-24.63-52.54L1353,1467.33s119.25-32.55,140.86-51.33,83-51.18,102.22-82,49-79.5,50.87-119.48S1644.76,1092,1612,1038.77Z"/><path class="cls-1" d="M1301.33,478.06c.69-26.12,21.43-88.87,29.21-113.81-21.24-24.81-46.42-63.87-67.66-88.67l-98,5.88h0a208.08,208.08,0,0,0-130.2-4.87c-110.93,31.85-175.05,147.6-143.2,258.53S1039,710.16,1150,678.31C1241.46,652,1301.11,568.7,1301.33,478.06ZM1145.54,662.91c-102.42,29.4-209.3-29.79-238.7-132.22s29.79-209.3,132.22-238.7,209.3,29.79,238.7,132.22S1248,633.51,1145.54,662.91Z"/><path class="cls-2" d="M1262.88,275.58c-8.11,1.52-16.25,2.55-24.4,3.41s-16.3,1.53-24.47,2-16.35.82-24.54.92-16.4.07-24.63-.48c8.11-1.53,16.24-2.56,24.39-3.42s16.31-1.52,24.48-2,16.35-.83,24.54-.92S1254.65,275,1262.88,275.58Z"/><path class="cls-2" d="M1262.88,275.58a213.5,213.5,0,0,1,18.87,20.69c5.91,7.21,11.51,14.66,17,22.17s10.8,15.12,16.06,22.78,10.51,15.28,15.75,23a211,211,0,0,1-18.87-20.69c-5.92-7.21-11.51-14.66-17-22.18s-10.8-15.12-16-22.77S1268.12,283.32,1262.88,275.58Z"/><path class="cls-2" d="M1330.54,364.25c-2,9.67-4.42,19.18-7,28.65s-5.18,18.91-7.85,28.32-5.31,18.82-7.88,28.24l-1,3.54c-.3,1.18-.58,2.37-.9,3.55l-.93,3.54-.83,3.57c-.28,1.18-.6,2.37-.85,3.56s-.48,2.39-.74,3.59l-.39,1.8c-.12.6-.19,1.2-.29,1.81l-.63,3.64a73.24,73.24,0,0,1-.07-7.41c0-1.24.13-2.47.2-3.71s.24-2.46.35-3.69l.43-3.69.54-3.67c.34-2.45.81-4.87,1.27-7.29,1.81-9.71,4.21-19.27,6.87-28.74s5.67-18.84,8.95-28.1S1326.62,373.3,1330.54,364.25Z"/><path class="cls-2" d="M1270.14,284.39c-4.42,3.74-8.93,7.17-13.4,10.64s-9,6.87-13.38,10.34-8.81,7-13.15,10.57-8.61,7.26-13,11a71,71,0,0,1,10.32-13.87,109.83,109.83,0,0,1,12.76-11.64,125.91,125.91,0,0,1,14.27-9.67A95.4,95.4,0,0,1,1270.14,284.39Z"/><path class="cls-2" d="M1319.56,350.69a67.88,67.88,0,0,1-12.13,12.06,118.7,118.7,0,0,1-14.14,9.54,159.13,159.13,0,0,1-15.11,7.72,146,146,0,0,1-15.87,6.09,147.73,147.73,0,0,1,14-9.56c4.79-3,9.62-5.77,14.44-8.57s9.64-5.58,14.42-8.44S1314.72,353.74,1319.56,350.69Z"/><path class="cls-2" d="M1145.54,662.91A194.22,194.22,0,0,1,970.63,324.58a194.23,194.23,0,1,1,241.91,303.93A193.24,193.24,0,0,1,1145.54,662.91Zm0,0a191.73,191.73,0,0,0-31.72-374.81,191.73,191.73,0,0,0-43.29,381A193.13,193.13,0,0,0,1145.54,662.91Z"/><path class="cls-2" d="M1301.33,478.06c.53,44.15-13.87,88.34-39.92,124.22A209.41,209.41,0,0,1,1155,678.76l-4,1.25c-1.33.41-2.69.73-4,1.1-2.69.68-5.36,1.48-8.08,2.08l-8.16,1.73c-1.36.32-2.74.49-4.11.72l-4.13.66c-1.37.21-2.74.47-4.12.63l-4.16.44c-2.77.27-5.53.66-8.31.75s-5.56.33-8.34.44l-8.36.05a223.25,223.25,0,0,1-33.25-3,214.45,214.45,0,0,1-32.35-8.31l-4-1.38-2-.69c-.66-.24-1.3-.51-2-.77l-7.75-3.14-7.58-3.51c-1.28-.57-2.51-1.22-3.75-1.87L993,664a218.88,218.88,0,0,1-28.21-17.92A210.81,210.81,0,0,1,881,471.89c1.32-44.57,17-88.65,44.63-123.62a204,204,0,0,1,22.56-24.53,200.67,200.67,0,0,1,26.1-20.67,215.66,215.66,0,0,1,29-16.27,229.54,229.54,0,0,1,31.21-11.45,210.16,210.16,0,0,1,65.75-7.43,205.28,205.28,0,0,1,64.57,13.53,208.7,208.7,0,0,0-129.65-3.74,229.44,229.44,0,0,0-30.69,11.64,211.62,211.62,0,0,0-28.45,16.34,196.19,196.19,0,0,0-25.48,20.6,199.65,199.65,0,0,0-21.9,24.33,217.3,217.3,0,0,0-17.8,27.46A209.25,209.25,0,0,0,897.59,408l-1.35,3.86-.67,1.93-.58,2c-.77,2.61-1.57,5.22-2.31,7.84l-1.94,7.95c-.35,1.32-.58,2.66-.84,4l-.78,4a206.68,206.68,0,0,0,33.56,155.65,206.87,206.87,0,0,0,45,47,213.4,213.4,0,0,0,27.53,17.55l3.62,1.9c1.21.64,2.41,1.28,3.66,1.83l7.41,3.44,7.56,3.1c.63.25,1.26.53,1.9.77l1.92.68,3.85,1.37a210.15,210.15,0,0,0,31.6,8.29,217.81,217.81,0,0,0,32.53,3.14h8.18c2.73-.1,5.45-.26,8.18-.39s5.43-.45,8.15-.69l4.07-.41c1.36-.14,2.7-.39,4.05-.58l4-.6c1.35-.21,2.71-.36,4-.66l8-1.62c2.67-.56,5.29-1.32,8-2,1.32-.35,2.65-.65,4-1l3.92-1.19a209,209,0,0,0,136.23-132.24,211.55,211.55,0,0,0,11.24-64.8Z"/><path class="cls-1" d="M1012.39,195.93C986,186.34,928.9,143.82,906.07,127.4c-32.55,13.26-81,25.7-113.57,39L765.18,268.5h0a224,224,0,0,0-49.24,131.33C710.74,524,807.17,628.8,931.3,634s229-91.23,234.16-215.36C1169.74,316.23,1104.89,227,1012.39,195.93Zm135.84,222C1143.44,532.51,1046.64,621.54,932,616.75S728.37,515.16,733.17,400.55,834.76,196.9,949.37,201.69,1153,303.28,1148.23,417.89Z"/><path class="cls-2" d="M794.46,163.93c-1.27,8.78-3,17.43-5,26s-4,17.17-6.29,25.68-4.7,17-7.36,25.4-5.44,16.78-8.72,25c1.27-8.78,3-17.44,5-26s4-17.17,6.3-25.68,4.7-17,7.37-25.39S791.19,172.17,794.46,163.93Z"/><path class="cls-2" d="M794.46,163.93a237.21,237.21,0,0,1,27.6-12.1c9.39-3.56,18.9-6.73,28.43-9.77s19.11-5.9,28.71-8.69L908,125a236.33,236.33,0,0,1-27.59,12.1c-9.39,3.56-18.9,6.73-28.44,9.76s-19.11,5.9-28.7,8.69Z"/><path class="cls-2" d="M908,125c9.17,5.34,18,11.13,26.82,17s17.52,11.77,26.23,17.69,17.43,11.82,26.2,17.62l3.29,2.17,3.33,2.12,3.31,2.14,3.37,2.05c1.12.68,2.23,1.4,3.36,2.07s2.29,1.28,3.43,2l1.71,1c.57.32,1.17.6,1.75.91l3.52,1.84a75.26,75.26,0,0,1-7.57-2.49c-1.25-.48-2.48-1-3.71-1.48s-2.43-1.09-3.64-1.64l-3.62-1.7-3.55-1.81c-1.18-.6-2.36-1.23-3.53-1.85l-3.47-1.94c-9.28-5.18-18.22-10.89-27-16.83S941,151.57,932.59,145.1,916,132,908,125Z"/><path class="cls-2" d="M805.94,159.51c2.23,5.79,4.17,11.59,6.16,17.34s3.94,11.5,6,17.21,4.14,11.37,6.36,17,4.56,11.24,7,17a79.18,79.18,0,0,1-10.52-15.32,121.85,121.85,0,0,1-7.51-17,140.35,140.35,0,0,1-5-17.84A106.17,106.17,0,0,1,805.94,159.51Z"/><path class="cls-2" d="M890.45,131.58a75.9,75.9,0,0,1,8.06,16.52,135.08,135.08,0,0,1,4.89,17.68,178.88,178.88,0,0,1,2.78,18.05,170.72,170.72,0,0,1,1,18.26,171.77,171.77,0,0,1-4.85-17.61c-1.36-5.9-2.58-11.8-3.8-17.68s-2.44-11.75-3.76-17.6S892,137.52,890.45,131.58Z"/><path class="cls-2" d="M1150.19,415.46A209,209,0,0,1,745.32,479a209,209,0,1,1,392.5-143.68A208.19,208.19,0,0,1,1150.19,415.46Zm0,0a206.5,206.5,0,0,0-393.79-95.1A206.49,206.49,0,0,0,1131,494.19,208.12,208.12,0,0,0,1150.19,415.46Z"/><path class="cls-2" d="M1014.35,193.49c45.26,14.52,85.47,44.25,113.23,83.07a225.26,225.26,0,0,1,41.86,134.63l-.07,4.49c0,1.49-.17,3-.26,4.48-.21,3-.31,6-.62,8.95l-1,8.93c-.13,1.49-.43,3-.66,4.44l-.73,4.43c-.26,1.47-.46,3-.76,4.42l-1,4.39c-.67,2.92-1.21,5.87-2.06,8.74s-1.56,5.79-2.39,8.67l-2.79,8.54a239.27,239.27,0,0,1-14.4,32.91,230.78,230.78,0,0,1-19.47,30.19l-2.75,3.56-1.38,1.78c-.46.58-1,1.14-1.44,1.72l-5.84,6.84-6.17,6.55c-1,1.11-2.09,2.15-3.17,3.19l-3.23,3.12a234.24,234.24,0,0,1-27.87,22.7A226.82,226.82,0,0,1,865.2,620.55c-45.05-16.48-84.69-47.49-111-87.52l-4.85-7.56-4.48-7.77c-.78-1.28-1.45-2.62-2.13-4l-2.05-4c-.67-1.34-1.4-2.65-2-4l-1.86-4.08A215.75,215.75,0,0,1,724.54,468a230.91,230.91,0,0,1-6.76-35.16,248.14,248.14,0,0,1-1.1-35.75,223,223,0,0,1,50.45-131,224.71,224.71,0,0,0-48,131.14,248.12,248.12,0,0,0,1.45,35.33,229,229,0,0,0,7,34.63,212.66,212.66,0,0,0,12.38,33l1.87,4c.62,1.33,1.35,2.61,2,3.92l2.06,3.91c.68,1.3,1.36,2.61,2.13,3.86l4.49,7.6,4.83,7.39a237,237,0,0,0,22,27.53,226.79,226.79,0,0,0,26,23.75l3.49,2.7,1.74,1.34,1.81,1.26c2.41,1.67,4.81,3.38,7.24,5l7.46,4.69c1.23.8,2.52,1.5,3.8,2.22l3.84,2.16a222.49,222.49,0,0,0,170.52,18.67,222.34,222.34,0,0,0,63.36-30A229.77,229.77,0,0,0,1096,568l3.18-3.06c1.06-1,2.12-2,3.11-3.11l6-6.41,5.74-6.68c.47-.56,1-1.1,1.43-1.67l1.35-1.74,2.71-3.47a225.17,225.17,0,0,0,19.22-29.48A233.45,233.45,0,0,0,1153,480.23l2.78-8.36c.83-2.82,1.59-5.66,2.38-8.49s1.4-5.71,2.07-8.57l1-4.3c.31-1.43.52-2.89.79-4.33l.75-4.35c.24-1.45.55-2.89.7-4.35l1.07-8.76c.33-2.92.46-5.86.7-8.79.09-1.47.24-2.93.29-4.4l.11-4.42a222.36,222.36,0,0,0-40-133.14,226.35,226.35,0,0,0-111.24-84.48Z"/><path class="cls-3" d="M1184.43,1506.5c80.46-17.09,231.09-48.48,303.6-87.3s135.91-102.53,154.86-182.57c26.92-113.71-39.51-227.82-113.17-318.54s-160.58-178.93-185.78-293c-29.64-134.26,45-284.24,170-341.55,138.79-63.62,299.56-15.73,451.3,1.11,184.1,20.43,378.26-12.72,539.31-100.91l13-8.55"/><path class="cls-1" d="M1561.75,2562.22l83.58-170.29c17.65-42.74,54-132.7,54.13-132.88l139.93-260.45c.19-.24.37-.46.57-.69,4-4.52,47.61-52.59,77.76-62.13a9.55,9.55,0,0,0,1.12-.43c4-1.81,32.47-13.58,85.84-8.06a10.85,10.85,0,0,0,5.91-1l1.46-.71q.43-.21.9-.39l5.14-1.94a10.82,10.82,0,0,0,5.92-14.82c-8.07-16.62-28.72-47.14-73.66-54.65a12.87,12.87,0,0,0-1.51-.15c-7-.19-60-1.59-91.28,0-24.76,1.28-39.58-8.95-45.63-14.38a10.79,10.79,0,0,1-3.55-7c-1.87-19.86-10-112.18-3.82-153.88a10.88,10.88,0,0,0-4.75-10.7L1774.58,1651a10.82,10.82,0,0,1-4.34-5.68h0a10.83,10.83,0,0,1,4.29-12.38l5.59-3.73a9.88,9.88,0,0,0,1.39-1.1c4.18-3.91,26.4-25.46,28.88-43.52,2.75-19.93,12-57.2,12-57.2l12.46-55.26a10.34,10.34,0,0,1,.65-2l6.36-14.49a10.84,10.84,0,0,0,.66-6.67l-2.28-10.38a10.79,10.79,0,0,1,.07-5c3-11.74,16.59-61.46,38.65-78.74,25.09-19.66,53.67-73.24,186.23-60.18s195.44,145.92,195.44,145.92,37.83,70,16.33,181.94a10.82,10.82,0,0,0,13.58,12.5c17.12-4.89,44.29-2.77,73.84,37.74a10.44,10.44,0,0,1,1.09,1.85c5,10.94,48.46,109.4,13.31,179.2a12.53,12.53,0,0,1-.65,1.12c-4.89,7.46-57.85,84.56-142.75,58.93a10.68,10.68,0,0,1-2-.84c-4.67-2.5-24.95-13.65-38.24-25.82a10.82,10.82,0,0,0-17.71,5.16,91.71,91.71,0,0,0-1.4,43.17,10.78,10.78,0,0,0,8.71,8.38l28.55,5a10.7,10.7,0,0,1,4.05,1.61l155.47,101.81s61.53,40.61,85.35,107.49c22.51,63.2,54,190.63,57.36,204.44a10.34,10.34,0,0,1,.31,2.48h0c1.1,127.69-102.11,231.8-229.81,231.8H1545.48C1536.23,2598.67,1555.73,2569.24,1561.75,2562.22Z"/><path class="cls-2" d="M1972.88,1327.12a87.68,87.68,0,0,0-9.33,30.32,102.68,102.68,0,0,0-.78,15.77A143.24,143.24,0,0,0,1964,1389a205.76,205.76,0,0,0,6.84,30.92c3,10.15,6.55,20.18,10.55,30a291.38,291.38,0,0,0,13.18,28.93c2.44,4.7,5,9.31,7.8,13.8l2.13,3.35,2.19,3.29c1.47,2.19,3,4.35,4.56,6.47a146.5,146.5,0,0,0,10.09,12.16,115.82,115.82,0,0,0,11.46,10.91,103.39,103.39,0,0,0,27.23,16.44,89.44,89.44,0,0,1-29.32-13.71,116.37,116.37,0,0,1-12.63-10.41,133.12,133.12,0,0,1-11.13-12,179.16,179.16,0,0,1-18.22-27.13,281.21,281.21,0,0,1-13.84-29.48,303.47,303.47,0,0,1-10.41-30.83,182.86,182.86,0,0,1-5.89-32.13,113.65,113.65,0,0,1,1.56-32.67A78.11,78.11,0,0,1,1972.88,1327.12Z"/><path class="cls-2" d="M1968.61,1335.58a270.13,270.13,0,0,1-20.07,18.14q-10.39,8.58-21.25,16.54t-22.13,15.32a264,264,0,0,1-23.33,13.71,267.93,267.93,0,0,1,20.07-18.14q10.39-8.6,21.25-16.53t22.15-15.32A267.67,267.67,0,0,1,1968.61,1335.58Z"/><path class="cls-2" d="M1883.31,1399.81A193.25,193.25,0,0,0,1829.09,1506c-2.33,13.27-3.91,26.77-6,40.31-1.1,6.76-2.35,13.53-3.93,20.27a161.35,161.35,0,0,1-6,20,126,126,0,0,1-8.94,18.91c-.91,1.5-1.75,3-2.76,4.47s-1.91,2.94-3,4.32-2.1,2.82-3.27,4.14l-1.71,2c-.57.67-1.21,1.29-1.81,1.93l-1.83,1.9c-.63.61-1.29,1.2-1.94,1.8l-2,1.78-2.06,1.66c-.69.54-1.36,1.11-2.07,1.63l-2.17,1.51c-.72.49-1.45,1-2.16,1.47s-1.39.9-2.06,1.36a24.17,24.17,0,0,0-3.61,2.94,7.67,7.67,0,0,0-2.08,3.35,4.56,4.56,0,0,0,.57,3.46,12.27,12.27,0,0,0,3.07,3.14l16.59,11.81c5.54,4,11.06,8,16.54,12-5.91-3.41-11.76-6.9-17.6-10.39l-8.75-5.28-4.36-2.65c-1.47-.9-2.9-1.73-4.41-2.71a15.18,15.18,0,0,1-4.22-3.91,8.53,8.53,0,0,1-1.37-6.29,11.77,11.77,0,0,1,2.84-5.45,28.42,28.42,0,0,1,4.08-3.74l4.11-3.07,2-1.49c.64-.51,1.24-1.07,1.86-1.6l1.86-1.62,1.75-1.73c.58-.59,1.17-1.15,1.74-1.75l1.63-1.84c8.65-9.92,14.91-21.82,19.29-34.36a168.62,168.62,0,0,0,5.53-19.2c1.47-6.53,2.64-13.16,3.68-19.84,2.19-13.34,3.8-26.89,6.4-40.4s6.29-27,11.87-39.62A171.94,171.94,0,0,1,1883.31,1399.81Z"/><path class="cls-2" d="M1805.79,1671.54a961.69,961.69,0,0,0-.28,115c.57,9.55,1.32,19.1,2.17,28.63.45,4.78.74,9.56,1.81,13.78a21.24,21.24,0,0,0,2.3,5.81,14.38,14.38,0,0,0,1.76,2.4,16.17,16.17,0,0,0,2.22,2.06,36.21,36.21,0,0,0,11.82,5.59l6.74,1.79c1.11.34,2.28.48,3.42.71l3.44.63a169.5,169.5,0,0,0,28.11,2c9.48,0,19-.52,28.64-1s19.28-.91,29-.6a158.47,158.47,0,0,1,29.19,3.34l7.17,1.88c1.2.3,2.36.75,3.54,1.12s2.34.83,3.5,1.28a96.09,96.09,0,0,1,13.35,6.47,105.55,105.55,0,0,1,39.89,42.3,102.93,102.93,0,0,1,9.67,27.45,91.65,91.65,0,0,1,1.14,28.84,100.45,100.45,0,0,0-13.83-54.64,104.72,104.72,0,0,0-17.19-22.35,100.15,100.15,0,0,0-22.38-16.84,93.82,93.82,0,0,0-26.16-9.51,151.39,151.39,0,0,0-28-2.71c-18.93-.3-38.07,1.79-57.52,1.91a176.24,176.24,0,0,1-29.29-2.26l-3.64-.7c-1.21-.25-2.44-.4-3.63-.77l-7.18-2c-4.74-1.48-9.67-3.41-14-6.89a22.46,22.46,0,0,1-5.43-6.34,27.64,27.64,0,0,1-2.89-7.57,58.65,58.65,0,0,1-1.15-7.54c-.24-2.46-.38-4.84-.57-7.25-.37-4.81-.66-9.62-.93-14.43s-.44-9.64-.58-14.45A688.15,688.15,0,0,1,1805.79,1671.54Z"/><path class="cls-2" d="M1833.35,1473.57a3.46,3.46,0,0,1,.66-2.18,3.35,3.35,0,0,1,2.32-1.2,8.17,8.17,0,0,1,4.76,1.25,14.08,14.08,0,0,1,3.69,3.07,12.28,12.28,0,0,1,2.52,4.47,13.31,13.31,0,0,1,.31,1.36l.17,1.09c.1.73.2,1.47.28,2.2a43.93,43.93,0,0,1,.17,4.44,45.24,45.24,0,0,1-1,8.83,44,44,0,0,1-7.11,16.1,35.45,35.45,0,0,1-13,11.39,96.21,96.21,0,0,0,8.22-14.17,72,72,0,0,0,5-14.81c.27-1.27.53-2.54.72-3.83l.29-1.92c.09-.64.12-1.29.2-1.94.19-1.29.18-2.59.3-3.89l0-2,0-1c0-.26,0-.45,0-.69a11.35,11.35,0,0,0-2.94-6,7.19,7.19,0,0,0-2.77-2,1.9,1.9,0,0,0-1.53.05A3.29,3.29,0,0,0,1833.35,1473.57Z"/><path class="cls-2" d="M1852.5,1559.18a93.86,93.86,0,0,1,21.4-23.28,69.59,69.59,0,0,1,13.94-8.28,56.59,56.59,0,0,1,15.88-4.4,44,44,0,0,1,16.69,1.28,45.82,45.82,0,0,1,14.94,7.15,37.33,37.33,0,0,1,10.93,12.26,27.24,27.24,0,0,1,3.32,15.59,31.47,31.47,0,0,0-6.21-13.73,39.12,39.12,0,0,0-11.07-9.53,45.25,45.25,0,0,0-27.77-6.07c-9.67,1.13-19,5-27.55,10.26S1860.43,1552.31,1852.5,1559.18Z"/><path class="cls-2" d="M1844.85,1596.28c4.71-7.71,12.19-13.79,20.6-17.66a62.36,62.36,0,0,1,54,1.36c8.21,4.29,15.38,10.75,19.68,18.69a68.24,68.24,0,0,0-22-13.69,75.47,75.47,0,0,0-49.7-1.26A67.76,67.76,0,0,0,1844.85,1596.28Z"/><path class="cls-2" d="M1861.37,1594.89a22.07,22.07,0,0,0,7,13.48,17.12,17.12,0,0,0,24.73.14,22.07,22.07,0,0,0,7.11-13.38,15.25,15.25,0,0,1,.74,8.7,20.67,20.67,0,0,1-3.73,8.33,21.8,21.8,0,0,1-7.11,6.15c-.72.37-1.46.69-2.2,1l-2.33.77-2.43.46-2.49.15a19.74,19.74,0,0,1-9.41-2.52,21.57,21.57,0,0,1-7-6.24,20.5,20.5,0,0,1-3.63-8.37A15.39,15.39,0,0,1,1861.37,1594.89Z"/><path class="cls-2" d="M1811,1707.29a7.83,7.83,0,0,1,5.11-3.29,12.23,12.23,0,0,1,6.38.63,13.87,13.87,0,0,1,5.54,3.64,9.53,9.53,0,0,1,1.1,1.35,12.93,12.93,0,0,1,.91,1.46,18,18,0,0,1,1.34,3.05,31.82,31.82,0,0,1,1.13,12.65c-.34,4.09-.9,7.87-1.42,11.76q-1.61,11.63-3.72,23.15c-1.42,7.69-3,15.35-4.88,23l-.42,1.74-1.45-.1c-2.71-.16-5.42-.39-8.13-.63s-5.42-.55-8.13-1c2.69-.52,5.39-.91,8.08-1.3s5.39-.71,8.09-1l-1.88,1.65c.51-7.83,1.3-15.62,2.26-23.37s2.1-15.49,3.41-23.2c.62-3.83,1.41-7.75,2-11.42a31.57,31.57,0,0,0,.25-10.63,13.45,13.45,0,0,0-1.74-4.6,11.83,11.83,0,0,0-8.61-5.18A7.83,7.83,0,0,0,1811,1707.29Z"/><path class="cls-2" d="M2056.78,1551.92a115.58,115.58,0,0,1,4.39,30.1,119.61,119.61,0,0,1-3.51,30.45c-1.22,5-2.65,9.82-3.79,14.65a68.43,68.43,0,0,0-2.15,14.43,35.33,35.33,0,0,0,2.36,13.74,21.61,21.61,0,0,0,8.05,10.32l-4.7,1.87a149.08,149.08,0,0,1,4.38-16,79.33,79.33,0,0,1,7-15.37c5.85-9.77,14.72-18.24,25.93-22.25a36.91,36.91,0,0,1,8.71-2,27.14,27.14,0,0,1,9.24.5,16.57,16.57,0,0,1,8.72,5.08,21,21,0,0,1,4.12,8.67c.39,1.42.63,2.77.88,4.14l.77,4.12c.13.68.27,1.37.38,2l.23,2.08.47,4.15a120.65,120.65,0,0,1,.32,16.68,125.14,125.14,0,0,1-20.34,62.39c-1.42,2.37-3.16,4.52-4.77,6.74s-3.45,4.29-5.22,6.4-3.75,4-5.67,6-4,3.73-6.07,5.54a43.26,43.26,0,0,1-6.59,5,16.73,16.73,0,0,1-8,2.68,8.72,8.72,0,0,1-4.23-.83,9.49,9.49,0,0,1-3.27-2.68,7.81,7.81,0,0,1-1.65-3.81,5.18,5.18,0,0,1,1-3.9,5.07,5.07,0,0,0-.66,3.84,7.28,7.28,0,0,0,1.85,3.4,8.58,8.58,0,0,0,3.16,2.16,7.49,7.49,0,0,0,3.7.44,15,15,0,0,0,7-3,46,46,0,0,0,6-5.24c1.9-1.89,3.88-3.69,5.59-5.76s3.6-4,5.15-6.13,3.34-4.16,4.76-6.43,3-4.37,4.3-6.73a126.55,126.55,0,0,0,17.61-60.37,115.29,115.29,0,0,0-.63-15.77l-.47-3.91-.24-2c-.11-.65-.24-1.29-.37-1.94l-.75-3.86c-.24-1.29-.49-2.61-.82-3.8a14.38,14.38,0,0,0-2.73-5.9,9.7,9.7,0,0,0-5.16-2.85,20.56,20.56,0,0,0-6.91-.29,33.58,33.58,0,0,0-7.1,1.59,39.32,39.32,0,0,0-12.77,7.55,49.31,49.31,0,0,0-9.71,11.63,80.72,80.72,0,0,0-6.66,14,144.56,144.56,0,0,0-4.5,15.23l-1,4.33-3.65-2.46a27.08,27.08,0,0,1-10.08-13.37,40.92,40.92,0,0,1-2.22-16,72.39,72.39,0,0,1,2.82-15.43c1.42-4.94,3.08-9.72,4.5-14.51a125,125,0,0,0,5.05-29.43A128.21,128.21,0,0,0,2056.78,1551.92Z"/><path class="cls-2" d="M1839.66,1444.39a146.85,146.85,0,0,1,3.49-23.48,153.93,153.93,0,0,1,7.25-22.69,173.22,173.22,0,0,1,24.34-41,182.51,182.51,0,0,1,34.9-32.74,193.4,193.4,0,0,1,42.49-22.26,218,218,0,0,1,46.6-11.5,248.3,248.3,0,0,1,48-1.39l6,.54,3,.27c1,.1,2,.25,3,.37l6,.79c2,.26,3.94.69,5.92,1l5.91,1.07,3,.54c1,.18,1.95.45,2.93.68l11.68,2.83a272.37,272.37,0,0,1,44.95,16.87l5.39,2.66,2.69,1.34c.9.45,1.75,1,2.63,1.45l10.46,5.91,10.14,6.45c1.72,1,3.33,2.22,5,3.38l4.89,3.49a276.13,276.13,0,0,1,36.18,31.53,267.56,267.56,0,0,1,29.62,37.73l3.21,5.07,1.61,2.54c.53.85,1,1.74,1.48,2.61l5.81,10.5,5.18,10.83c.91,1.78,1.65,3.64,2.4,5.49l2.28,5.55a270.76,270.76,0,0,1,13.71,45.83,278.74,278.74,0,0,1,5,47.48l0,6,0,3c0,1-.08,2-.12,3L2286,1568l-1.21,11.86c-.12,1-.17,2-.34,3l-.46,2.94-.93,5.88-.46,2.94c-.15,1-.3,2-.53,2.93l-1.25,5.82-1.25,5.81c-.19,1-.46,1.93-.72,2.88l-.8,2.87-1.6,5.72-.8,2.86c-.26,1-.63,1.88-.94,2.82l-3.85,11.23,3.35-11.38c.26-1,.59-1.88.8-2.85l.67-2.88,1.35-5.77.68-2.88c.23-1,.47-1.92.62-2.89l1-5.83,1.05-5.81c.2-1,.32-2,.43-2.93l.37-2.93.72-5.87.37-2.93c.13-1,.15-2,.23-2.94l.81-11.78.18-11.8c0-1,.06-2,0-3l-.11-2.95-.23-5.89a262.69,262.69,0,0,0-20.36-91.34l-2.33-5.39c-.77-1.8-1.52-3.6-2.44-5.33l-5.24-10.49-5.79-10.19c-.5-.84-.94-1.71-1.47-2.53l-1.6-2.46-3.18-4.92a261.45,261.45,0,0,0-29.27-36.49,277.79,277.79,0,0,0-35.41-30.58l-4.78-3.38c-1.59-1.13-3.17-2.28-4.85-3.29l-9.9-6.25-10.21-5.72c-.86-.47-1.7-1-2.57-1.41l-2.63-1.29-5.25-2.58a266.27,266.27,0,0,0-43.71-16.58l-11.36-2.79c-.95-.23-1.89-.49-2.85-.68l-2.88-.53-5.75-1.06c-1.92-.34-3.83-.76-5.76-1l-5.8-.79c-1.93-.29-3.87-.48-5.81-.67l-5.82-.58a241.53,241.53,0,0,0-46.72.87,222.77,222.77,0,0,0-45.51,10.55,192.09,192.09,0,0,0-41.75,20.9,179.65,179.65,0,0,0-34.87,31.16,170.62,170.62,0,0,0-25.28,39.54,155.62,155.62,0,0,0-7.92,22.21A146.23,146.23,0,0,0,1839.66,1444.39Z"/><path class="cls-2" d="M2269.07,1647.62a42.77,42.77,0,0,1,15.3-10.52,48.76,48.76,0,0,1,9-2.66,59,59,0,0,1,18.82-.41,66.71,66.71,0,0,1,9.28,1.91,71.87,71.87,0,0,1,25.33,12.74,66.42,66.42,0,0,1,7.05,6.46,95.44,95.44,0,0,1,11.61,15c.81,1.36,1.71,2.67,2.45,4.07l2.28,4.16c1.38,2.85,2.79,5.68,4,8.6a165.12,165.12,0,0,1,6.36,17.78c1.79,6,3.35,12.09,4.73,18.19s2.53,12.23,3.67,18.34c2.26,12.23,4.32,24.56,5.51,37.07a175.6,175.6,0,0,1-.28,37.86,112.37,112.37,0,0,1-11,36.57,122.66,122.66,0,0,1-9.94,16.35,132.29,132.29,0,0,1-12.38,14.55,126.88,126.88,0,0,1-14.37,12.55,124.22,124.22,0,0,1-16,10.36,139.56,139.56,0,0,1-17.33,7.92,132.92,132.92,0,0,1-18.33,5.22,111.63,111.63,0,0,1-18.93,2.3,107.26,107.26,0,0,1-19-.94,111.73,111.73,0,0,1-36.08-11.55,98.21,98.21,0,0,1-29.59-23.42,85.51,85.51,0,0,1-17.28-33.28,80.39,80.39,0,0,1-2.59-18.55,72.37,72.37,0,0,1,2.07-18.51,72,72,0,0,0-1,18.46,79,79,0,0,0,3.41,18.07,83.77,83.77,0,0,0,18,31.55,94.5,94.5,0,0,0,29.07,21.59,109.07,109.07,0,0,0,34.7,10.22c24,2.71,48.74-2.93,69.73-14.88a126.41,126.41,0,0,0,15.13-9.94,119.65,119.65,0,0,0,13.57-12,125.6,125.6,0,0,0,11.65-13.8,117.44,117.44,0,0,0,9.3-15.43,99.71,99.71,0,0,0,6.68-16.69,110.08,110.08,0,0,0,3.75-17.63,174.9,174.9,0,0,0,.48-36.4c-1-12.21-2.87-24.39-5-36.58s-4.34-24.29-7.6-36.09a160,160,0,0,0-5.78-17.37c-1.09-2.85-2.39-5.59-3.65-8.36l-2.08-4c-.67-1.37-1.49-2.64-2.23-4a91.16,91.16,0,0,0-10.65-14.7,60.91,60.91,0,0,0-6.46-6.29,75.67,75.67,0,0,0-7.31-5.35,68.59,68.59,0,0,0-34.39-10.81,58.11,58.11,0,0,0-9.13.5,48.87,48.87,0,0,0-8.91,2.17A42.34,42.34,0,0,0,2269.07,1647.62Z"/><path class="cls-2" d="M2077.4,1757.07a191.35,191.35,0,0,0,13.84,36.43,274.8,274.8,0,0,0,20.43,32.94q2.79,4,5.67,8l5.72,8c3.86,5.36,7.44,10.68,11.81,15a32.81,32.81,0,0,0,3.48,2.9,26,26,0,0,0,3.84,2.24,32.57,32.57,0,0,0,2,.82l1,.29a8.69,8.69,0,0,0,1,.2,15.62,15.62,0,0,0,2.17.19,18.23,18.23,0,0,0,2.21-.15,16.79,16.79,0,0,0,4.37-1.1,17.73,17.73,0,0,0,3.94-2.3,12.5,12.5,0,0,0,2.95-3.54,11,11,0,0,0,1.15-4.63,10.74,10.74,0,0,1-.17,5,14,14,0,0,1-2.57,4.53,18.44,18.44,0,0,1-9,5.38,7.42,7.42,0,0,1-1.32.3c-.45.07-.89.15-1.34.21a18,18,0,0,1-2.75.08,13.18,13.18,0,0,1-1.4-.1l-1.39-.23c-.48-.07-.88-.22-1.33-.32s-.87-.23-1.29-.39a30.08,30.08,0,0,1-9.26-5.31,55.94,55.94,0,0,1-7.3-7.3c-2.21-2.58-4.19-5.21-6.22-7.78s-4-5.22-6-7.86-3.9-5.33-5.82-8c-7.58-10.83-14.59-22.29-19.65-34.69A115.52,115.52,0,0,1,2077.4,1757.07Z"/><path class="cls-2" d="M2186.33,1872.53a72.81,72.81,0,0,0-8.6,25.27,97.92,97.92,0,0,0-.24,26.27,190.33,190.33,0,0,0,5.37,26.2c2.31,8.73,5,17.46,7.08,26.48a165.54,165.54,0,0,1-12.3-24.77,110.05,110.05,0,0,1-7.09-27.07,74.75,74.75,0,0,1,1.82-28.25C2174.83,1887.53,2179.44,1878.78,2186.33,1872.53Z"/><path class="cls-2" d="M2019.58,1926.84a494,494,0,0,0-45.47,146.73c-.42,3.17-.91,6.36-1.27,9.52s-.65,6.31-.85,9.47a145.84,145.84,0,0,0,0,18.93,91.43,91.43,0,0,0,3,18.42,55.42,55.42,0,0,0,7.49,16.59,40.7,40.7,0,0,0,12.87,12.19,41.12,41.12,0,0,0,16.86,5.5,59.42,59.42,0,0,0,18.18-1.12,104.59,104.59,0,0,0,17.86-5.52c5.84-2.34,11.57-5.06,17.2-8,2.82-1.46,5.62-3,8.43-4.58s5.62-3.1,8.4-4.71c11.15-6.34,22.12-13,32.79-20.07s21.07-14.54,31-22.56a296.79,296.79,0,0,0,28.28-25.81,246.22,246.22,0,0,0,24.25-29.56c1.76-2.66,3.6-5.27,5.31-8s3.31-5.44,4.84-8.23,2.93-5.63,4.25-8.52,2.44-5.84,3.45-8.83a69.82,69.82,0,0,0,3.68-18.51,49.39,49.39,0,0,0-.34-9.42c-.14-1.58-.54-3.11-.81-4.66-.42-1.52-.73-3.08-1.29-4.56a45.94,45.94,0,0,0-9.35-16.42,39.54,39.54,0,0,0-7.2-6.27,36.74,36.74,0,0,0-8.68-4.11,36.88,36.88,0,0,1,9,3.66,40.05,40.05,0,0,1,7.69,6,47.33,47.33,0,0,1,10.41,16.5c.64,1.52,1,3.12,1.56,4.68.36,1.61.82,3.2,1,4.84a52.56,52.56,0,0,1,.72,9.86,73.24,73.24,0,0,1-3.11,19.45c-.94,3.15-2.07,6.24-3.3,9.28s-2.63,6-4.12,8.92-3.05,5.78-4.72,8.58-3.46,5.52-5.18,8.29a240.56,240.56,0,0,1-24.08,30.74c-2.25,2.35-4.42,4.79-6.74,7.08l-7,6.84-7.23,6.56c-2.43,2.17-5,4.22-7.43,6.33-10,8.3-20.49,16-31.23,23.33s-21.85,14-33.08,20.5c-2.79,1.64-5.62,3.21-8.45,4.78s-5.65,3.17-8.55,4.7a192,192,0,0,1-17.83,8.36,111.38,111.38,0,0,1-19.08,5.81,66.76,66.76,0,0,1-20.28,1.14,48,48,0,0,1-19.59-6.5A46.43,46.43,0,0,1,1977,2150.2a61.74,61.74,0,0,1-8.14-18.61,97,97,0,0,1-3-19.72,142.67,142.67,0,0,1,.3-19.73c.27-3.27.64-6.52,1.08-9.76s1-6.42,1.49-9.63A446.08,446.08,0,0,1,2019.58,1926.84Z"/><path class="cls-2" d="M2211.83,1947.09c39.41,23.87,78.45,48.33,117.36,73,9.73,6.16,19.48,12.26,29.14,18.64s19.21,13,28.37,20.16q6.87,5.4,13.34,11.34c4.23,4,8.46,8.08,12.39,12.42a251.85,251.85,0,0,1,21.88,27.33,303.2,303.2,0,0,1,17.87,30,338.83,338.83,0,0,1,14.55,31.67,514.76,514.76,0,0,1,21,66.18c11.37,44.81,18.8,90.26,30,135-14-43.94-23-89.33-35.3-133.56-1.52-5.54-3.14-11-4.79-16.53l-2.51-8.22-2.64-8.17q-5.41-16.3-11.95-32.15a326.11,326.11,0,0,0-32.05-60.24,229.17,229.17,0,0,0-46-49.88c-17.69-14.34-37.25-26.52-56.34-39.41C2287.88,1999.12,2249.67,1973.39,2211.83,1947.09Z"/><path class="cls-2" d="M1857.56,2152.09a12.44,12.44,0,0,0-5.07,3.72,20.77,20.77,0,0,0-3.12,5.42,63.15,63.15,0,0,0-3,12.31,111.32,111.32,0,0,1-7.75,25c-1.77,4-3.76,7.91-5.86,11.74s-4.3,7.6-6.66,11.25c-4.7,7.32-9.64,14.43-14.64,21.43s-10,14-14.56,21.1c-2.33,3.56-4.58,7.15-6.69,10.81s-4.09,7.38-5.9,11.17l-2.74,5.88c-1,2-2.07,4-3.15,5.87-2.17,3.8-4.42,7.49-6.66,11.17-4.49,7.36-9,14.67-13.29,22.07-8.63,14.79-16.83,29.83-23.55,45.51a229.14,229.14,0,0,0-8.79,24,143.16,143.16,0,0,0-5.33,24.84,93.62,93.62,0,0,0,.29,25.25,67.48,67.48,0,0,0,8.34,23.73,72.11,72.11,0,0,0,16.56,19.22,106.63,106.63,0,0,0,21.74,13.66,104.1,104.1,0,0,1-22.52-12.67,73.2,73.2,0,0,1-17.75-19,70.18,70.18,0,0,1-9.52-24.39,94,94,0,0,1-1.08-26.2c1.6-17.47,6.75-34.32,13.27-50.4a392.64,392.64,0,0,1,23.07-46.55c4.28-7.52,8.7-14.93,13.09-22.32,2.19-3.69,4.38-7.38,6.43-11.08,1-1.85,2-3.71,2.9-5.54.21-.46.42-.91.62-1.36l.64-1.49c.43-1,.88-2,1.34-3,1.86-4,3.89-7.89,6-11.71s4.44-7.54,6.79-11.22c4.77-7.29,9.88-14.29,15-21.24s10.28-13.76,15.06-20.81a191,191,0,0,0,13.23-21.72,120.21,120.21,0,0,0,9.33-23.58,57.28,57.28,0,0,1,4.38-12.36,20,20,0,0,1,3.93-5.33A12.91,12.91,0,0,1,1857.56,2152.09Z"/><path class="cls-2" d="M2258.32,2248.82l-.51,9.95c-.2,3.32-.53,6.62-.79,9.93-.51,6.63-1.29,13.22-1.95,19.82s-1.56,13.18-2.34,19.78-1.74,13.15-2.61,19.73-1.81,13.14-2.81,19.7-2,13.12-3,19.67c-2,13.11-4.28,26.19-6.45,39.27-2.34,13.06-4.63,26.12-7.1,39.16q-1.86,9.77-3.8,19.53c-1.27,6.51-2.57,13-4,19.5s-2.69,13-4.17,19.47-2.89,13-4.43,19.4-3.08,12.92-4.83,19.33c-.87,3.21-1.67,6.42-2.59,9.62l-2.87,9.54,1.84-9.78c.62-3.26,1.15-6.53,1.73-9.79,1.17-6.52,2.25-13.07,3.35-19.6l6.6-39.2,6.61-39.2,6.73-39.17,6.82-39.16,6.94-39.14,6.94-39.14c1.16-6.52,2.34-13.05,3.42-19.58.55-3.27,1.15-6.53,1.66-9.81Z"/><path class="cls-2" d="M2032.16,1919.8a23.17,23.17,0,0,0-19.33,5.9l0,0-.06,0a38.41,38.41,0,0,1-6.26,3,11.55,11.55,0,0,1-3.56.59,18.78,18.78,0,0,1-3.53-.36c-2.3-.48-4.46-1-6.68-1.48l-3.33-.61-3.35-.49a110.63,110.63,0,0,0-27-.09,137.49,137.49,0,0,0-26.28,5.92,156.43,156.43,0,0,0-24.72,10.71,179.26,179.26,0,0,0-22.67,14.54,217.89,217.89,0,0,0-20.41,17.65,363.78,363.78,0,0,0-35.5,40.92c-5.48,7.22-10.8,14.57-16.07,22l-7.9,11.14c-2.64,3.72-5.29,7.44-7.81,11.13-10.11,14.91-18.94,30.77-27.29,46.86-16.55,32.3-31.27,65.6-45.47,99.12-7.12,16.75-14,33.61-21,50.45l-20.69,50.59c-13.73,33.77-27.66,67.47-42.16,100.95q-10.83,25.13-22.42,49.92c-7.73,16.53-15.68,33-24.2,49.11q-6.35,12.13-13.12,24c-4.5,7.94-9.16,15.79-14,23.5-9.74,15.41-20.33,30.4-32.69,43.81a250.72,250.72,0,0,0,16.6-21.68q7.71-11.26,14.71-23t13.43-23.76q6.45-12,12.48-24.27c2-4.07,4-8.18,6-12.28l5.82-12.34c3.88-8.24,7.62-16.53,11.34-24.84,7.4-16.63,14.52-33.38,21.56-50.18,14.06-33.59,27.45-67.48,41-101.31s26.94-67.75,41.11-101.38q10.59-25.23,21.81-50.23c7.51-16.65,15.38-33.16,23.8-49.42s17.44-32.25,27.83-47.5c2.63-3.82,5.28-7.51,7.93-11.21s5.3-7.42,8-11.11c5.37-7.39,10.82-14.73,16.44-22,11.21-14.47,23.2-28.5,36.65-41.11a221.22,221.22,0,0,1,21.25-17.7A171.65,171.65,0,0,1,1906,1939c16.47-8.29,34.37-14.09,52.8-15.58a112.91,112.91,0,0,1,27.55,1.07l3.4.62,3.36.74c2.23.53,4.47,1.19,6.62,1.71a12.13,12.13,0,0,0,6.41,0,41.34,41.34,0,0,0,6.16-2.68l-.11.07A23.7,23.7,0,0,1,2032.16,1919.8Z"/><path class="cls-2" d="M2171.23,338.27a268.24,268.24,0,0,1,70,15.15l8.43,3.15L2258,360l8.22,3.69,8.11,3.92a296.15,296.15,0,0,1,31.21,18.06,301.8,301.8,0,0,1,54.92,46.54,277.93,277.93,0,0,1,41.66,58.42l1.72,3.25-3.11-1.8c-6-3.48-11.94-7-17.86-10.54,6.31,2.83,12.57,5.76,18.83,8.69l-1.38,1.45a343.07,343.07,0,0,0-44.23-55.3,347.84,347.84,0,0,0-54.37-45c-9.78-6.57-19.95-12.54-30.33-18.12l-7.86-4-8-3.83-8.05-3.66-8.15-3.45A356.49,356.49,0,0,0,2171.23,338.27Z"/><path class="cls-2" d="M2384.75,484.53a244.63,244.63,0,0,1,18.81,24.37,256.76,256.76,0,0,1,15.7,26.6l3.43,6.93,3.24,7,3,7.14,2.79,7.23a252.56,252.56,0,0,1,9.05,29.67l.66,2.8-2.79.83a213.78,213.78,0,0,1-33.31,7.14,219,219,0,0,1-34.06,1.58,208.3,208.3,0,0,1-66.57-13.45c-21.3-7.85-41.22-18.77-60.13-30.9-2.35-1.54-4.73-3-7.06-4.61l-7-4.72c-4.59-3.22-9.18-6.45-13.71-9.76-9.07-6.59-18-13.4-26.81-20.28,18.85,12.11,37.52,24.5,56.8,35.7,9.67,5.56,19.42,10.93,29.42,15.76a298.65,298.65,0,0,0,30.64,12.82c2.6.91,5.2,1.85,7.86,2.6l4,1.2c1.32.41,2.64.81,4,1.14l8,2.09c2.7.57,5.37,1.24,8.08,1.72a215.32,215.32,0,0,0,98.18-3.92l-2.13,3.63a289.82,289.82,0,0,0-8-29.3l-2.51-7.18-2.69-7.12-2.87-7.06-3.06-7a297.18,297.18,0,0,0-14.07-27.09A302.75,302.75,0,0,0,2384.75,484.53Z"/><path class="cls-2" d="M2188.18,523.25a88.9,88.9,0,0,1-10.41,26.86,108.54,108.54,0,0,1-41.14,40.3,88.86,88.86,0,0,1-27.08,9.84,210.37,210.37,0,0,0,24.17-14.51,169.84,169.84,0,0,0,39.46-38.63A207.21,207.21,0,0,0,2188.18,523.25Z"/><path class="cls-2" d="M2105.25,599.16c-6.44-5.6-10.78-13.24-16.16-19.45a39.31,39.31,0,0,0-4.2-4.34,32.19,32.19,0,0,0-4.8-3.45,20.93,20.93,0,0,0-10.65-3.16,12.81,12.81,0,0,0-9.17,4.09,17.15,17.15,0,0,0-2.95,4.42,27.19,27.19,0,0,0-1.92,5.33,58.27,58.27,0,0,0-1.61,11.8l-.24,6.23-.09,6.25a350.32,350.32,0,0,0,3.22,49.9c.53,4.15,1.24,8.27,1.93,12.4s1.48,8.25,2.34,12.36c.39,2.06.87,4.11,1.31,6.17a28.33,28.33,0,0,0,1.7,5.82,6,6,0,0,0,4,3.68,5.22,5.22,0,0,0,2.9-.15,4.12,4.12,0,0,0,1.28-.78A3.5,3.5,0,0,0,2073,695a3.5,3.5,0,0,1-.62,1.48,4.47,4.47,0,0,1-1.25,1.08,6.1,6.1,0,0,1-3.28.71,6,6,0,0,1-3.26-1.23,9.74,9.74,0,0,1-2.33-2.55,26.45,26.45,0,0,1-2.62-6c-.67-2-1.4-4-2-6q-1.9-6.09-3.51-12.26c-.54-2.06-1-4.13-1.49-6.21s-.93-4.16-1.34-6.25a247.21,247.21,0,0,1-4.83-50.87l.14-6.4.3-6.4a61.86,61.86,0,0,1,2.12-13.19,33.2,33.2,0,0,1,2.58-6.47,22.27,22.27,0,0,1,4.31-5.86,19.59,19.59,0,0,1,6.29-4,18,18,0,0,1,7.33-1.14,22.08,22.08,0,0,1,7,1.51,27.4,27.4,0,0,1,6.07,3.25,37,37,0,0,1,5.09,4.41,39,39,0,0,1,4.14,5.14C2096.7,584.81,2100,592.52,2105.25,599.16Z"/><path class="cls-2" d="M2372.3,605.37c2.22,5.46,2.45,11.71,1.69,17.62a94.75,94.75,0,0,1-4.3,17.26q-5.49,16.62-12.24,32.77t-14.68,31.74a313.31,313.31,0,0,1-17.51,30.33c3.85-11.06,8.18-21.84,12.5-32.61s8.77-21.47,13.24-32.16,9-21.36,13.56-32a131.77,131.77,0,0,0,6.07-16A42.1,42.1,0,0,0,2372.3,605.37Z"/><path class="cls-2" d="M2325.81,736.86a193.87,193.87,0,0,1,2.47,45.35,378,378,0,0,1-5.29,45.12c-1.29,7.45-2.67,14.84-4.14,22.25s-3.26,15.13-7,22.24a37.46,37.46,0,0,1-7.11,9.72,27.28,27.28,0,0,1-10.41,6.14,28.11,28.11,0,0,1-5.86,1.2l-1.5.06a8.25,8.25,0,0,1-1.49,0l-1.48-.09-1.47-.25a16.16,16.16,0,0,1-9.88-5.71l1.14.84.56.41c.2.13.41.23.61.35l1.21.67,1.29.49.63.25.66.17,1.32.34a20.28,20.28,0,0,0,2.68.27,23.11,23.11,0,0,0,5.32-.47,25.73,25.73,0,0,0,5-1.72,27.34,27.34,0,0,0,4.55-2.63,22.49,22.49,0,0,0,3.78-3.5,34.23,34.23,0,0,0,5.49-8.9,50.83,50.83,0,0,0,1.85-5c.55-1.7,1-3.46,1.44-5.22.82-3.54,1.5-7.16,2.11-10.84l3.76-22.23c2.52-14.8,5-29.56,6.77-44.4A403.11,403.11,0,0,0,2325.81,736.86Z"/><path class="cls-2" d="M2271.5,879.52a16.67,16.67,0,0,1-6.38-.35,21.76,21.76,0,0,1-5.42-2.09,21.51,21.51,0,0,1-4.7-3.41,16.47,16.47,0,0,1-3.75-5.17,16.48,16.48,0,0,1,6.38.34,21.4,21.4,0,0,1,5.42,2.1,22,22,0,0,1,4.7,3.41A17,17,0,0,1,2271.5,879.52Z"/><path class="cls-2" d="M2251.08,873.33a252.79,252.79,0,0,1-53.48,71.83c-5.48,5.17-11.15,10.15-17.11,14.78-1.47,1.17-2.93,2.34-4.58,3.5a29.08,29.08,0,0,1-5.44,3.09,17.75,17.75,0,0,1-6.62,1.41,21.8,21.8,0,0,1-6.48-1,54.56,54.56,0,0,1-10.78-4.93l-4.93-2.71-4.89-2.78c-6.51-3.73-13-7.55-19.31-11.56-12.66-8-25-16.59-37-25.67-5.94-4.58-11.83-9.23-17.57-14.05s-11.42-9.67-16.94-14.83a189.23,189.23,0,0,1-15.65-16.38,122.49,122.49,0,0,1-13-18.65,74.38,74.38,0,0,1-8-21.24,55.57,55.57,0,0,1-1-11.27,52.07,52.07,0,0,1,1.43-11.15,54.22,54.22,0,0,0,1.5,22,73.75,73.75,0,0,0,9.07,19.93,120.77,120.77,0,0,0,13.45,17.38,201.56,201.56,0,0,0,15.86,15.34c11.26,9.58,22.86,18.9,34.83,27.64s24.15,17.2,36.71,25.06c6.24,4,12.59,7.81,19,11.55l4.81,2.78,4.86,2.71a55,55,0,0,0,9.44,4.53,15.36,15.36,0,0,0,4.52.79,11.1,11.1,0,0,0,4.27-.82c2.86-1.11,5.73-3.28,8.68-5.54,5.9-4.42,11.62-9.09,17.18-14A303.1,303.1,0,0,0,2251.08,873.33Z"/><path class="cls-2" d="M2173.77,343.72c-12.23-.34-24.41-1-36.56-1.47s-24.25-.62-36.29-.21a241.13,241.13,0,0,0-35.76,3.73,163.78,163.78,0,0,0-34.26,10.17l-2.51,1.07-1.11-2.29a47,47,0,0,0-5-8.16c-1-1.27-2-2.53-3.08-3.71a48.42,48.42,0,0,0-3.46-3.41l3.23-1.52c-.15,2.52-.28,5-.47,7.54l-.54,7.53c-.4,5-.82,10.05-1.35,15.07-.41-5-.7-10.07-1-15.1l-.35-7.54c-.13-2.52-.19-5-.28-7.55l-.14-4,3.37,2.49c1.41,1,2.77,2.16,4.08,3.34a45.65,45.65,0,0,1,3.72,3.77,51.93,51.93,0,0,1,6.17,8.66l-3.62-1.22A138.71,138.71,0,0,1,2063.85,339a195.54,195.54,0,0,1,36.94-3.53,296.61,296.61,0,0,1,36.78,2.29Q2155.81,339.95,2173.77,343.72Z"/><path class="cls-2" d="M2015.35,365.62a76.54,76.54,0,0,1-8,1.79c-2.67.46-5.35.82-8,1.11s-5.36.5-8,.65-5.37.22-8,.26l1.61-6.58,1.92,1.12,1.85,1.24,1.73,1.37c.55.49,1.11,1,1.64,1.47a32.15,32.15,0,0,1,5.4,6.87,30.12,30.12,0,0,1,3.25,7.95,24.07,24.07,0,0,1,.61,8.39,59.6,59.6,0,0,0-3.79-7.06,47.31,47.31,0,0,0-4.55-6.09,44.15,44.15,0,0,0-5.33-5.1c-.49-.35-1-.74-1.44-1.11l-1.49-1-1.52-1-1.57-.88-11.67-6.53,13.28-.05c2.69,0,5.37,0,8,.11s5.37.25,8,.49,5.37.54,8.06.95A76.71,76.71,0,0,1,2015.35,365.62Z"/><path class="cls-2" d="M2001.74,395.16c-15.47,8.71-31.07,17.29-45.14,27.9a138.87,138.87,0,0,0-35.49,38.23A169.57,169.57,0,0,0,1909,484.48a210.24,210.24,0,0,0-8.85,24.69c-2.49,8.4-4.45,17-6.2,25.58s-3.14,17.3-4.29,26c-2.26,17.48-3.81,35.11-5,52.76l-.43,6.62-.34,6.61c-.25,4.41-.39,8.82-.56,13.23s-.18,8.81-.28,13.22l0,6.61c0,2.2,0,4.4.12,6.6.57,17.58,2.09,35.16,5.83,52.33l1.52,6.41.76,3.2.93,3.16,1.86,6.32c.65,2.1,1.46,4.14,2.18,6.21l1.12,3.1.55,1.55.65,1.52,2.58,6.07c.81,2.05,1.84,4,2.83,6l3,5.9-2.17.22,7.73-20.74,1.07-2.87,0,3-.1,14.8-1-14.77,1,.16-6.48,21.15-.8,2.61-1.37-2.39-3.32-5.83c-1.11-1.94-2.26-3.87-3.19-5.91l-2.93-6-.74-1.52-.63-1.55-1.27-3.12c-.82-2.08-1.73-4.14-2.47-6.25l-2.16-6.38-1.07-3.19-.9-3.24-1.81-6.48c-.57-2.17-1-4.38-1.49-6.56s-1-4.38-1.37-6.59c-.73-4.42-1.61-8.83-2.11-13.28l-.87-6.67-.63-6.69c-.47-4.46-.61-8.93-.88-13.4a490.16,490.16,0,0,1,.76-53.54c1.12-17.77,2.5-35.54,5-53.26s5.82-35.37,11.22-52.53a215.91,215.91,0,0,1,9.54-25.25,171.53,171.53,0,0,1,13.16-23.62c2.56-3.72,5.18-7.4,8.07-10.87s5.93-6.82,9.07-10,6.52-6.24,10-9.05c.85-.72,1.73-1.42,2.63-2.1s1.77-1.39,2.67-2.06c1.81-1.31,3.62-2.64,5.49-3.88C1969.57,410.38,1985.65,402.64,2001.74,395.16Z"/><path class="cls-2" d="M2050.2,674.92a134.12,134.12,0,0,1-21,26.65,162.06,162.06,0,0,1-57.13,36.61,133.79,133.79,0,0,1-33,7.93c10.58-4,20.87-8.17,30.84-13A275.78,275.78,0,0,0,1998.8,717a272.57,272.57,0,0,0,26.71-19.5C2034.06,690.47,2042.18,682.87,2050.2,674.92Z"/><path class="cls-2" d="M1939.18,760.09a.77.77,0,0,0,.65-.78,1.74,1.74,0,0,0-.36-1,1.83,1.83,0,0,0-.77-.63.88.88,0,0,0-.79.07c-1.15.56-1.52,2.1-1.75,3.57-.52,3.15-1.11,6.33-1.7,9.5s-1.43,6.28-2.24,9.41c-.41,1.55-.87,3.1-1.32,4.65s-.88,3.11-1.4,4.63a205.76,205.76,0,0,1-36.9,67.74,171.17,171.17,0,0,1-27.5,27c8.14-9.95,15.93-20,23.15-30.34a361.35,361.35,0,0,0,19.86-32.18,356.86,356.86,0,0,0,16.27-34.13c1.26-2.9,2.27-5.89,3.5-8.82s2.17-6,3.29-8.93l3.12-9a11.14,11.14,0,0,1,1.08-2.37,3.82,3.82,0,0,1,2.2-1.74,1.83,1.83,0,0,1,1.51.23,2.48,2.48,0,0,1,.87,1.07,2,2,0,0,1,.16,1.29A.91.91,0,0,1,1939.18,760.09Z"/><path class="cls-2" d="M2082.3,922c-.27.1-.64.21-.89,0a1,1,0,0,1-.1-.92,3.22,3.22,0,0,1,1-1.61,1.48,1.48,0,0,1,.92-.39,1.31,1.31,0,0,1,.95.42,2.89,2.89,0,0,1,.84,1.77,6.43,6.43,0,0,1-1,3.7,29.88,29.88,0,0,1-2.16,3.06l-4.47,5.86-4.36,5.94c-5.75,8-11.3,16.06-16.56,24.35s-10.29,16.68-15,25.25-9.3,17.23-13.47,26.08-8.1,17.81-11.8,26.85l-2.7,6.82c-.89,2.32-1.82,4.64-2.81,6.94a108.66,108.66,0,0,1-6.82,13.6,50.61,50.61,0,0,1-10,12.19,31.75,31.75,0,0,1-6.89,4.54,25.77,25.77,0,0,1-8.09,2.38,26.88,26.88,0,0,1-8.4-.26,36.16,36.16,0,0,1-7.77-2.48,79.45,79.45,0,0,1-13.22-7.87,271.53,271.53,0,0,1-23.58-18.34,271.94,271.94,0,0,1-40.65-43.6,263.36,263.36,0,0,1-16.61-24.76c-2.49-4.3-5-8.6-7.24-13s-4.49-8.87-6.52-13.41A181.55,181.55,0,0,1,1845,937a126.65,126.65,0,0,1-4.15-29.47c0-2.49,0-5,.16-7.44l.23-3.71.46-3.69c.25-2.46.83-4.87,1.28-7.3.2-1.22.58-2.4.89-3.59l1-3.57-.7,3.63c-.22,1.21-.51,2.4-.63,3.63-.27,2.44-.68,4.85-.75,7.31l-.23,3.66v3.67c-.06,2.44.14,4.88.28,7.31A127.93,127.93,0,0,0,1848.3,936c5.6,18.68,14.72,36.09,25,52.63a290.79,290.79,0,0,0,80.16,83.8,73.75,73.75,0,0,0,12,7.3,29.77,29.77,0,0,0,6.24,2,20.15,20.15,0,0,0,6.29.23,21.4,21.4,0,0,0,11.42-5.27,46.45,46.45,0,0,0,8.72-10.54,101.77,101.77,0,0,0,6.61-12.66c1-2.2,1.92-4.44,2.84-6.7l2.85-6.86q5.79-13.68,12.57-26.92a427.75,427.75,0,0,1,30.55-50.83c5.71-8.06,11.64-16,17.87-23.61l4.72-5.7,4.83-5.6a27.19,27.19,0,0,0,2.3-2.81,5.79,5.79,0,0,0,1.16-3.23,2.47,2.47,0,0,0-.61-1.55,1,1,0,0,0-.66-.37,1.25,1.25,0,0,0-.76.28,3.07,3.07,0,0,0-1,1.43,1,1,0,0,0,0,.85C2081.65,922.18,2082,922.12,2082.3,922Z"/><path class="cls-2" d="M1850,876.18a10.23,10.23,0,0,1,0-5.49,14.24,14.24,0,0,1,2.57-5.11,19,19,0,0,1,20.87-5.85,13.93,13.93,0,0,1,4.85,3,10.27,10.27,0,0,1,2.83,4.72,20.76,20.76,0,0,0-8.91-2.38,27.77,27.77,0,0,0-15.81,4.43A20.54,20.54,0,0,0,1850,876.18Z"/><path class="cls-2" d="M2054.34,985.92a289.69,289.69,0,0,1,31.23,18.38q15.06,10.1,29.13,21.56t27,24.13a286.74,286.74,0,0,1,24.34,26.85c-9.54-7.45-18.76-15.14-28-22.76s-18.48-15.24-27.76-22.8-18.59-15.06-28-22.56S2063.58,993.75,2054.34,985.92Z"/><path class="cls-2" d="M1829.2,881.53c-20.51,10.32-41.21,20.16-61.5,30.68-10.16,5.23-20.18,10.7-30.1,16.3-4.94,2.84-9.86,5.71-14.7,8.71s-9.66,6-14.42,9.11q-14.2,9.4-27.59,19.93a325.33,325.33,0,0,0-25.43,22.51c-4.06,4-7.84,8.1-11.83,12.29s-8.1,8.2-12.09,12.23a72.66,72.66,0,0,0-5.64,6.18c-1.72,2.18-3.37,4.5-5,6.84-3.22,4.72-6.49,9.47-9.86,14.13,1.19-2.62,2.4-5.23,3.66-7.81s2.5-5.18,3.84-7.74,2.66-5.14,4.28-7.62a76.7,76.7,0,0,1,5.26-7.1c3.72-4.45,7.47-8.72,11.16-13.09l2.8-3.24,2.9-3.23c1.92-2.18,3.94-4.26,5.93-6.37a304.57,304.57,0,0,1,53.88-43.62c19.41-12.57,39.9-23.25,60.76-32.9S1807.69,889.53,1829.2,881.53Z"/><path class="cls-4" d="M1210.17,1592.28a319.68,319.68,0,0,0,45.45,12.62c7.76,1.27,15.47,2.82,23.3,3.61l5.84.72c1,.11,2,.25,2.93.35l2.94.23,11.74.91c2,.19,3.92.18,5.88.27l5.89.21,5.88.22c2,0,3.93,0,5.89,0l11.77,0,11.77-.48c2-.09,3.92-.13,5.88-.26l5.87-.44c3.91-.32,7.82-.56,11.73-.93l11.7-1.3c1.94-.24,3.9-.39,5.84-.69l5.82-.84c3.88-.58,7.77-1.08,11.65-1.71l11.59-2c1.93-.35,3.87-.64,5.79-1l5.76-1.19c3.84-.8,7.69-1.56,11.52-2.4l11.44-2.72c1.91-.46,3.82-.89,5.72-1.38l5.68-1.52,11.36-3,11.27-3.37a666.38,666.38,0,0,0,87.8-33.51c56.65-26.67,110.14-60.75,154-105.59,44.84-44,86.36-91.35,128.74-138.06q15.92-17.49,32.12-34.77t32.89-34.12c11.14-11.21,22.44-22.28,34-33s23.38-21.36,35.61-31.43c3-2.58,6.12-5,9.2-7.53s6.14-5,9.3-7.39l9.42-7.26,9.56-7.06c12.86-9.29,26-18.2,39.5-26.52s27.42-16,41.59-23.15,28.72-13.49,43.44-19.38a575.46,575.46,0,0,1,185-39.82c63.19-2.88,126.86,4.5,187.18,22.9A574.81,574.81,0,0,0,2340.45,1042q-23.49,1.59-46.8,4.91c-15.51,2.29-30.93,5.23-46.2,8.72s-30.4,7.66-45.34,12.36c-7.49,2.3-14.87,4.93-22.26,7.51l-11,4.13c-3.67,1.37-7.27,2.91-10.91,4.36-14.46,6-28.73,12.44-42.64,19.61s-27.53,14.86-40.81,23.11-26.16,17.18-38.79,26.43l-9.4,7-9.25,7.24c-3.1,2.39-6.11,4.89-9.15,7.37s-6.08,4.94-9,7.5c-23.95,20.21-46.81,41.75-68.86,64.11q-16.58,16.74-32.64,34t-31.95,34.73c-42.43,46.5-84.1,94-129.48,138.1-2.81,2.77-5.71,5.47-8.56,8.2l-4.3,4.09c-1.43,1.36-2.94,2.67-4.41,4-3,2.65-5.89,5.37-8.91,8l-9.16,7.65-2.29,1.91-2.36,1.82-4.71,3.65c-3.15,2.44-6.27,4.9-9.52,7.17l-9.67,7-9.88,6.65c-1.65,1.1-3.28,2.23-5,3.3l-5,3.16c-3.37,2.1-6.7,4.26-10.1,6.29-6.86,4-13.63,8.13-20.65,11.82-13.86,7.7-28.15,14.59-42.54,21.22-7.26,3.16-14.46,6.47-21.83,9.36-3.68,1.48-7.32,3-11,4.45l-11.12,4.17c-1.85.69-3.69,1.43-5.56,2.06l-5.62,1.94-11.23,3.85-11.33,3.55-5.67,1.76-5.71,1.61-11.43,3.22-11.51,2.9-5.76,1.45c-1.92.46-3.86.86-5.79,1.3l-11.59,2.55c-3.87.79-7.77,1.5-11.65,2.25l-5.83,1.1c-1.94.38-3.91.64-5.86,1l-11.72,1.86c-3.91.58-7.85,1-11.77,1.51l-5.89.73c-2,.26-3.93.38-5.9.58l-11.82,1.07c-3.94.29-7.89.46-11.84.7l-5.92.33c-2,.09-4,.09-5.93.14l-11.86.24-11.86-.21c-2,0-3.95,0-5.93-.13l-5.92-.35-5.91-.36c-2-.14-3.95-.17-5.92-.42l-11.79-1.21-3-.3c-1-.12-2-.28-2.93-.42l-5.86-.87c-7.84-1-15.56-2.72-23.31-4.21A320.7,320.7,0,0,1,1210.17,1592.28Z"/><path class="cls-4" d="M2517.55,175.15l-12.94,8.65h0a833.89,833.89,0,0,1-75.45,37.06c-25.77,11.07-52.14,20.74-78.87,29.26s-53.92,15.64-81.34,21.62c-13.71,3-27.51,5.6-41.34,8l-10.39,1.68c-3.47.54-6.93,1.16-10.41,1.62-7,.95-13.89,2-20.87,2.83-27.87,3.42-55.89,5.75-84,6.73s-56.2.79-84.27-.59-56.08-4.28-83.91-7.92-55.55-7.89-83.25-12-55.39-8.1-83.15-11.12c-13.88-1.51-27.77-2.87-41.68-3.76l-5.22-.37-5.22-.27c-3.47-.17-7-.38-10.43-.52-7-.22-13.92-.48-20.88-.48-3.48,0-7-.08-10.43,0l-10.43.17c-6.94.29-13.89.49-20.81,1.06-3.46.23-6.93.45-10.38.83s-6.9.67-10.35,1l-10.31,1.37-2.58.34-2.56.42-5.13.86-5.12.85c-1.71.28-3.4.68-5.1,1-3.38.71-6.79,1.36-10.16,2.12l-10.08,2.47-2.52.62-2.49.72-5,1.43-5,1.44c-1.66.49-3.29,1.08-4.93,1.61-3.27,1.11-6.57,2.15-9.82,3.32l-9.68,3.7-2.42.93-2.38,1-4.75,2.06A264.24,264.24,0,0,0,1485,304.25a298.24,298.24,0,0,0-33.34,24.44,308.22,308.22,0,0,0-29.51,29l-3.42,3.89c-1.14,1.29-2.29,2.58-3.35,3.94l-6.51,8.05-6.19,8.31-1.55,2.08-1.46,2.13-2.92,4.28c-31,45.69-50.09,99.59-53.9,154.65a298.18,298.18,0,0,0,.05,41.31,289.82,289.82,0,0,0,6.26,40.81,348.32,348.32,0,0,0,28.48,77.72c12.39,24.81,27.27,48.37,43.39,71.08s33.52,44.56,51.25,66.19,35.89,43,53.68,64.68,35,44.09,50.7,67.48a562.65,562.65,0,0,1,42.18,73.29c12.05,25.54,21.75,52.34,27.61,80.1s7.69,56.47,4.12,84.7c-.34,3.54-1,7-1.57,10.54s-1.33,7-2.06,10.45a206.19,206.19,0,0,1-5.55,20.58c-2.17,6.77-4.75,13.39-7.51,19.93l-2.18,4.85-1.1,2.43-1.17,2.39-2.36,4.77-2.5,4.69a282.43,282.43,0,0,1-51.35,67.21,355.9,355.9,0,0,1-67.07,51.28q-9.08,5.43-18.47,10.28l-9.5,4.66c-1.6.75-3.15,1.6-4.78,2.28l-4.85,2.08-9.7,4.16c-3.27,1.3-6.56,2.53-9.84,3.79s-6.55,2.56-9.86,3.73l-10,3.46c-26.57,9.12-53.55,16.84-80.68,23.9s-54.44,13.44-81.8,19.47-54.83,11.61-82.28,17.2c27.36-6,54.71-12.11,82-18.56s54.45-13.17,81.44-20.58,53.83-15.42,80.16-24.81,52.13-20.16,75.8-34.94a372.71,372.71,0,0,0,34.38-23.66c5.46-4.3,10.88-8.66,16.08-13.28,2.64-2.26,5.16-4.66,7.74-7l3.76-3.61q1.9-1.78,3.72-3.64a277.2,277.2,0,0,0,49.74-66.29l2.4-4.61,2.25-4.67,1.13-2.33,1-2.37,2.09-4.75c1.27-3.21,2.64-6.38,3.78-9.65.58-1.62,1.21-3.23,1.75-4.87l1.61-4.92a197.56,197.56,0,0,0,5.26-20c.69-3.38,1.47-6.74,1.94-10.17s1.16-6.8,1.46-10.24c3.29-27.43,1.35-55.36-4.55-82.38s-15.55-53.25-27.55-78.28a561.65,561.65,0,0,0-41.9-72.08c-15.64-23.07-32.67-45.15-50.51-66.66s-36-42.84-53.91-64.47-35.44-43.62-51.79-66.58-31.5-46.88-44.19-72.2-22.9-52-29.31-79.71A298.59,298.59,0,0,1,1333.7,587a306.76,306.76,0,0,1-.12-42.66c4-56.79,23.69-112.15,55.65-159.1l3-4.39,1.51-2.2,1.59-2.14,6.38-8.53,6.71-8.28c1.09-1.4,2.28-2.72,3.45-4.05l3.52-4a317.38,317.38,0,0,1,30.44-29.82c21.74-18.29,46-33.85,72.2-44.92l4.9-2.1,2.44-1,2.49-.94,10-3.77c3.34-1.19,6.73-2.24,10.09-3.37,1.69-.54,3.36-1.14,5.07-1.63l5.11-1.45,5.12-1.46,2.56-.72,2.58-.63,10.34-2.49c3.46-.76,6.94-1.41,10.41-2.13,1.74-.33,3.47-.73,5.21-1l5.24-.85,5.24-.86,2.63-.42,2.63-.34,10.52-1.35c3.52-.37,7-.68,10.56-1s7-.58,10.57-.81c7-.54,14.1-.73,21.15-1l10.59-.13c3.52-.07,7,0,10.57,0,7.06,0,14.1.32,21.14.57,3.52.15,7,.38,10.55.56l5.27.3,5.26.39c14,1,28,2.38,42,3.95,27.93,3.22,55.68,7.4,83.38,11.69s55.34,8.73,83,12.53,55.47,6.77,83.36,8.45,55.83,2.06,83.76,1.33,55.82-2.79,83.58-6c7-.72,13.87-1.72,20.8-2.59,3.47-.42,6.92-1,10.38-1.49l10.37-1.56c13.79-2.26,27.56-4.66,41.24-7.53,27.39-5.63,54.55-12.43,81.31-20.59s53.19-17.42,79.06-28.11,51.24-22.6,75.95-35.81h0Z"/><path class="cls-4" d="M565.54,61.9c-6.39,8.55-12.53,17.3-18.27,26.3s-11,18.26-15.91,27.75S522,135.12,518.15,145c-.52,1.23-1,2.48-1.43,3.73l-1.37,3.75L514,156.27c-.45,1.25-.83,2.52-1.25,3.79-.81,2.53-1.67,5.05-2.45,7.59l-2.18,7.67a273.86,273.86,0,0,0-9.53,62.87l-.14,4c0,1.32,0,2.65,0,4,0,2.65,0,5.3,0,7.95.27,5.3.38,10.61.92,15.89.36,5.29,1.09,10.54,1.74,15.81.36,2.62.83,5.23,1.24,7.85l.64,3.92.79,3.9a327.71,327.71,0,0,0,18.3,60.82c4,9.81,8.49,19.44,13.28,28.9,1.21,2.36,2.48,4.69,3.72,7l1.87,3.51,2,3.46,3.94,6.9L551,418.9A484.73,484.73,0,0,0,631.57,517c31.12,28.86,65.32,54.4,101,77.56l6.68,4.37,6.76,4.24,13.55,8.45c9.14,5.47,18.22,11,27.47,16.32,18.4,10.75,37.07,21.08,55.78,31.35,37.46,20.48,75.17,40.65,112.32,62s73.46,44.1,109,68q53.2,36,103.91,75.59l12.59,10,6.3,5,6.22,5.07L1205.64,895l12.33,10.3c8.25,6.83,16.3,13.89,24.43,20.86,4.07,3.48,8,7.08,12,10.62s8,7.09,12,10.71c7.88,7.24,15.84,14.39,23.64,21.76s15.55,14.79,23,22.5,14.92,15.52,22,23.71c3.58,4,6.94,8.26,10.38,12.42l5,6.41c.82,1.08,1.67,2.13,2.46,3.23l2.37,3.29c1.56,2.22,3.2,4.37,4.68,6.63l4.49,6.78c.77,1.11,1.46,2.28,2.16,3.44l2.11,3.48,2.11,3.48c.69,1.16,1.31,2.37,2,3.56,1.3,2.38,2.62,4.75,3.89,7.15l3.57,7.33c1.25,2.42,2.25,5,3.32,7.45l1.6,3.75c.26.63.54,1.25.78,1.89l.7,1.92a194.78,194.78,0,0,1,12.83,63.74,222.23,222.23,0,0,1-7.37,64.46,235.36,235.36,0,0,1-25.1,59.72,232.51,232.51,0,0,1-18.44,26.67c-.83,1.07-1.69,2.12-2.57,3.14l-2.61,3.11c-1.74,2.06-3.61,4-5.4,6s-3.75,3.9-5.62,5.85-4,3.74-6,5.6a174.8,174.8,0,0,1-26.6,18.65,307.33,307.33,0,0,1-28.74,14.7q-14.74,6.53-29.88,12c-2.51.94-5,1.78-7.58,2.67s-5.06,1.77-7.62,2.58l-7.64,2.49-7.69,2.34c-2.56.8-5.13,1.53-7.71,2.26l-7.73,2.18c-5.18,1.37-10.34,2.79-15.54,4-10.38,2.63-20.85,4.89-31.34,7s-21,3.92-31.61,5.58-21.19,3-31.84,4-21.32,1.72-32,2a265.51,265.51,0,0,1-32-.86,263,263,0,0,0,32,.16c10.66-.52,21.29-1.48,31.89-2.71s21.15-2.82,31.67-4.58,21-3.83,31.41-6.13,20.78-4.76,31.08-7.52c5.16-1.32,10.28-2.82,15.41-4.25l7.66-2.29c2.55-.76,5.1-1.53,7.63-2.36l7.61-2.44,7.55-2.58c2.53-.84,5-1.76,7.53-2.67s5-1.8,7.48-2.77c10-3.77,19.75-7.91,29.4-12.34a309.57,309.57,0,0,0,28.11-14.82,169.6,169.6,0,0,0,25.61-18.39c1.88-1.8,3.78-3.57,5.65-5.4s3.64-3.82,5.41-5.78,3.52-3.92,5.19-6l2.52-3.06c.84-1,1.67-2,2.46-3.09a226.86,226.86,0,0,0,17.67-26.21,232.78,232.78,0,0,0,23.86-58.32,215.33,215.33,0,0,0,6.63-62.49,187.47,187.47,0,0,0-12.87-61.24l-.68-1.84c-.24-.61-.52-1.2-.77-1.81l-1.56-3.6c-1-2.41-2-4.84-3.24-7.17l-3.48-7.06-3.8-6.9c-.65-1.15-1.25-2.31-1.94-3.44l-2.06-3.36-2.06-3.37c-.68-1.12-1.36-2.24-2.11-3.33l-4.4-6.56c-1.45-2.19-3.07-4.28-4.59-6.43l-2.33-3.2c-.77-1.06-1.61-2.09-2.41-3.13L1339,1033c-3.39-4.06-6.69-8.18-10.23-12.12-6.93-8-14.25-15.66-21.71-23.21s-15.17-14.86-22.93-22.15-15.74-14.35-23.62-21.52q-47.62-42.68-98-82.06t-103.51-75q-53-35.7-108.39-67.8-27.71-16-55.82-31.3c-18.71-10.29-37.5-20.46-56.2-30.85s-37.37-20.83-55.81-31.74c-9.27-5.36-18.38-11-27.54-16.55l-13.6-8.58-6.8-4.3-6.7-4.44c-18-11.7-35.45-24.22-52.49-37.28l-12.65-10c-4.18-3.37-8.24-6.9-12.36-10.34l-6.16-5.2-6-5.36-3-2.69-3-2.75c-2-1.84-3.94-3.66-5.89-5.52Q615,511,604,499.21c-7.24-7.95-14.38-16-21.11-24.4l-2.55-3.12-2.47-3.19-5-6.37c-3.18-4.34-6.45-8.61-9.49-13.05-6.25-8.76-12-17.83-17.6-27l-4.1-7-3.92-7-2-3.53L534,400.92c-1.23-2.39-2.49-4.77-3.69-7.17-4.75-9.66-9.16-19.48-13.13-29.48a329.73,329.73,0,0,1-17.84-62l-.73-4-.59-4c-.38-2.66-.82-5.32-1.15-8-.58-5.35-1.24-10.69-1.52-16.07-.47-5.36-.51-10.74-.69-16.12,0-2.68.05-5.37.07-8.06,0-1.35,0-2.69.06-4l.21-4a271.34,271.34,0,0,1,10.64-63.42l2.34-7.7c.83-2.55,1.74-5.07,2.6-7.61.45-1.26.86-2.54,1.33-3.79l1.46-3.75,1.45-3.75c.47-1.26,1-2.5,1.51-3.73l3.16-7.38c1.08-2.46,2.27-4.86,3.39-7.29l1.72-3.63,1.83-3.58c1.24-2.37,2.4-4.78,3.71-7.12,5.08-9.42,10.69-18.54,16.56-27.48S559,70.31,565.54,61.9Z"/><path class="cls-4" d="M1092.24,1719.35l6.08-1.34,3-.67,3.05-.59,6.12-1.18,6.14-1,3.07-.51,3.09-.43,6.17-.85,6.19-.7c2.06-.25,4.13-.47,6.2-.63l6.21-.53,6.23-.38c4.14-.3,8.3-.37,12.46-.54,8.31-.16,16.63-.19,25,.14s16.62.85,24.91,1.58c4.14.46,8.29.8,12.41,1.36l6.2.78,6.18.91a477.45,477.45,0,0,1,49,10,519.23,519.23,0,0,1,179.39,86.16,454.92,454.92,0,0,1,73.39,68.19,410.58,410.58,0,0,1,30.34,40.06c4.56,7,9,14.13,13.14,21.47,2.13,3.62,4,7.36,6,11.05,1,1.86,1.9,3.75,2.85,5.62s1.89,3.75,2.76,5.67a338.79,338.79,0,0,1,18.16,47,255.88,255.88,0,0,1,10.08,49.56,174.94,174.94,0,0,1-2.2,50.88,151.14,151.14,0,0,1-18.35,47.65,191.85,191.85,0,0,1-31.73,39.72,295.57,295.57,0,0,1-39.28,31.71c-13.86,9.49-28.26,18-42.9,26.05s-29.58,15.43-44.5,22.72L1357.67,2322l-89.46,43.58c-14.77,7.36-29.26,15.33-43.59,23.58s-28.46,16.88-42.44,25.76c-28,17.75-55.26,36.53-82.09,56s-53,39.8-78.57,60.92q-19.14,15.86-37.63,32.51c-12.32,11.1-24.36,22.51-36,34.37,22.62-24.28,47-46.92,72.11-68.63s51.07-42.48,77.61-62.47,53.71-39.13,81.53-57.35,56.3-35.48,86-50.68l89-44.61,89.11-44.37c14.84-7.36,29.57-14.86,44-22.83s28.57-16.39,42.08-25.68a287.07,287.07,0,0,0,38-30.82,182.66,182.66,0,0,0,30.14-37.88,144.87,144.87,0,0,0,17.28-44.78,166,166,0,0,0,2.18-48.21,246.57,246.57,0,0,0-9.63-47.83c-2.34-7.83-5-15.58-7.93-23.23-1.52-3.8-3-7.63-4.61-11.37-.82-1.88-1.6-3.77-2.44-5.64l-2.56-5.57c-.84-1.87-1.76-3.7-2.66-5.54s-1.8-3.68-2.74-5.5c-1.93-3.61-3.76-7.27-5.82-10.82-3.94-7.18-8.29-14.14-12.7-21a397.69,397.69,0,0,0-29.45-39.43,433.84,433.84,0,0,0-34-35.72,469.68,469.68,0,0,0-37.61-32q-19.62-15-40.68-28t-43.2-24c-14.77-7.34-29.87-14-45.28-19.94s-31.09-11.14-47-15.51a474.45,474.45,0,0,0-48.33-10.83l-6.12-1-6.13-.89c-4.08-.64-8.2-1.06-12.3-1.59-8.21-.88-16.45-1.68-24.7-2.12s-16.53-.69-24.81-.72c-4.13.07-8.27,0-12.41.24l-6.2.24-6.2.37c-2.07.1-4.13.27-6.19.45l-6.19.52-6.18.68-3.09.34-3.08.42-6.16.84-6.13,1-3.07.5-3.06.58Z"/><path class="cls-4" d="M770.69,2198.54c-.71-47.94-3.65-111.31-20.35-135.19s-34.88-105.68-32.06-131.46,2.23-6.3,2.23-6.3l14.83-7.06L743,1935.2l9.92-23.57s21.22-58.86,25.3-108.49l-29.45,7.9L762.93,1708l10.32-2.13h27.23s-66.39-34.26-82.93-58.95-35.71-59.66-18.14-87.3l-6.07-19.43,8.64-35,23.3-33.2,41-30.62,13.8-4.26-18.89-20.83-41.46-32.83-42.71-34.71-40.32-26.94-17.57-8L592.09,1309,563,1298.82l-12.57-9.14-65.74,9.68-84.23,48.39-80.59,73a17.06,17.06,0,0,0-16.68,1.18,101.09,101.09,0,0,0-38.55,48.85c-21.77,28.89-19,69-16.85,104A791.91,791.91,0,0,0,265,1698.35q5,22.38,11.27,44.37l-21.44,117.71a21.72,21.72,0,0,0,0,7.71,803.55,803.55,0,0,1-35.1,114.64,12.42,12.42,0,0,0-.8,4.81l-9.24,16.94a18.38,18.38,0,0,0-2,10.41,30,30,0,0,0-2.74,5.46,842.44,842.44,0,0,0-33,104.35c-4.32,17.59-8,35.33-11.26,53.17-2.95,16-5.91,31.71-14,45.44-4.65,7.9-1.57,19,5.82,23.61a15,15,0,0,0,11.68,1.83c.13,0,.25.08.38.1,3.17.62,6.35,1.17,9.53,1.68a14.07,14.07,0,0,0,8,5.38c16.3,3.74,33.17,5.38,49.8,3.6,2.05-.21,4.12-.51,6.19-.89,15.74,4.59,27.79-8,35.11-21.4a330.64,330.64,0,0,0,18.14-39.73c10.34-26.78,16.49-54.78,19.59-83.5a14.35,14.35,0,0,0-3.21-10.38c9.75-54.06,20.06-109.08,42.15-159q1.74,4.66,3.23,9.4a20.69,20.69,0,0,0,.33,2.81q5.93,31.5,9.55,63.44c1.05,12.89,2.63,29.69,4,45.06q1.57,25,1.75,50.08l-9.79,137.74-.53,3.43c-4.05,4.06-4.56,11.12-2.56,16.56l-2.6,16.82s4.14-3.71,13.92-7a12.33,12.33,0,0,0,10.07-1.91c.51-.37,1-.72,1.55-1.08,29.31-5.54,86.81-3,187.48,48,0,0,67.49,18.8,107.76,8.14s84.65-21.36,126.49-65.65C800.48,2270.49,771.41,2246.49,770.69,2198.54Zm-585.33,17.18.87,2c-.47-.07-.95-.12-1.42-.18C185,2216.93,185.18,2216.33,185.36,2215.72Z"/><path class="cls-5" d="M738.43,1038.26c-1.07-37.6-14.54-72.33-25.93-107.36a954.32,954.32,0,0,1-30.72-121.24c-1.12-6.06-5.31-11.07-10.55-14a18.25,18.25,0,0,0-7.78-4.13,21.87,21.87,0,0,0-26.61,16.07,163.15,163.15,0,0,1-5.19,17.16c-.25.65-.6,1.53-.78,2q-.95,2.19-2,4.35-2.24,4.74-4.76,9.32c-2.92,5.3-6.17,10.33-9.54,15.32-.19.27-.34.5-.47.7l-.64.78c-.79,1-1.55,2-2.33,3q-3.57,4.49-7.37,8.73-6.06,6.76-12.65,12.94-3.12,2.92-6.35,5.74c-.28.25-2.16,1.83-2.74,2.34-1.05.84-2.09,1.68-3.15,2.5a270.18,270.18,0,0,1-33.33,21.89c-6.39,3.59-12.89,7-19.46,10.16-3.29,1.6-6.6,3.14-9.92,4.68l-1.36.61q-3.24,1.44-6.51,2.83c-13.8,5.91-27.78,11.34-41.77,16.74-14.28,5.51-28.69,10.78-42.67,17.14-12.59,5.73-24.89,14.42-31.25,27.78-8,16.75-6.17,36.41,2.94,52.24,8.34,14.5,21.39,24.22,35.25,32.06,4,2.24,7.94,4.4,11.85,6.71a24.47,24.47,0,0,0,4.46,13c4.82,6.63,14,10.65,22,8.71q2,2.17,3.87,4.44c1.41,1.68,2.77,3.41,4.1,5.16.17.26,2,2.74,2.23,3.12q1.6,2.38,3.14,4.83a183.9,183.9,0,0,1,9.37,16.91c1.28,2.62,2.5,5.28,3.67,8,.4.93.79,1.87,1.18,2.8.21.58,1.11,2.89,1.34,3.52a217.7,217.7,0,0,1,10.41,40.34c.1.62.38,2.87.45,3.35.11,1,.23,2.1.31,3.16.32,3.83.5,7.67.51,11.51s-.2,7.64-.51,11.45c0,.45-.06.83-.08,1.15-.05.15-.12.36-.19.65-.68,2.54-1,5.22-1.66,7.78q-.57,2.2-1.26,4.38c.06-.18-.88,2.3-1.26,3.37l-.85,1.85c-.55,1.11-1.12,2.21-1.73,3.29-.9,1.62-1.89,3.17-2.88,4.73a97.67,97.67,0,0,1-7.25,7.82l-.06.06c-1.58,1.12-3.15,2.23-4.81,3.22-.63.37-1.26.73-1.9,1.07.24-.19-2.41,1-3.24,1.23-1.08.33-2.16.59-3.24.83-.19,0-1.39.26-2.7.42-5.87.7-11,1.48-16.25,4.58-11.93,7-17.24,21.89-13.35,35.72a103.52,103.52,0,0,0,9.86,22.68c14,24.45,36.33,43.7,61.9,52.77a19,19,0,0,0,1.28,1.43,16.21,16.21,0,0,0,7,4.76,15.5,15.5,0,0,0,8.33,2l5.76-.83a21.35,21.35,0,0,0,9.54-5.91l3.38-4.66a23.73,23.73,0,0,0,2.62-7.64,21.11,21.11,0,0,0,.27-14.08l-5.79-18.43c-.07-1.42-.21-2.88-.42-4.41a71,71,0,0,0-5.34-18.86,17.15,17.15,0,0,0,1.22-4.5q1.23-9.3,3.05-18.48c.45-1.27.89-2.55,1.36-3.81.37-1,.75-2,1.13-3,.79-1.91,1.58-3.83,2.4-5.74q5.4-12.54,11.87-24.52c3.86-7.15,7.8-13.75,11.8-19.93a79.83,79.83,0,0,0,30.68,2,108.16,108.16,0,0,0,46.54-17.44c26.81-18.09,45.37-46.77,58.07-77.21C726.7,1110.91,739.48,1074.83,738.43,1038.26Z"/><path d="M643.38,830.31l-13.19,22.07a19.4,19.4,0,0,1-3.1,3.92L591.23,891a18.2,18.2,0,0,1-3.49,2.64l-45.46,26.5a18.25,18.25,0,0,0-4,3.17l-29.49,30.88a18.6,18.6,0,0,0-2.4,3.1l-25.52,41c-5.23,8.4-15.65,11.1-23.93,6.21l-11-6.52a17.56,17.56,0,0,0-5.68-2.14l-12.89-2.4a17.73,17.73,0,0,0-18.59,8.92l-2.25,3.9a20.23,20.23,0,0,0-2.67,10.06v17.83a20.12,20.12,0,0,0,3,10.67l6.82,10.92a18.58,18.58,0,0,0,6.3,6.17l11,6.5a17.44,17.44,0,0,0,6.24,2.23l4.92.75A17.53,17.53,0,0,1,449,1074l12.53,8.09a18.38,18.38,0,0,1,2.2,1.66l35.45,31.39a18.91,18.91,0,0,1,3.07,3.48c6.17,9.06,31.09,47.17,32.72,74,1.84,30.26,9.6,76.52-47.76,105.49a17.72,17.72,0,0,0-4.45,3.17L460.8,1323a19.68,19.68,0,0,0-5.59,11.34l-5.39,39.55a20.9,20.9,0,0,1-1,4.21L437,1410.35a19.42,19.42,0,0,1-3,5.35c-5.66,7.19-65.4,67.27-139.07,23-.22-.13-.45-.23-.67-.35-3.44-1.85-35.59-18.27-56.37,1.7a16.71,16.71,0,0,0-2,2.41c-5.55,7.81-38.25,50-85.61,34.7,0,0-42.07-14.7-45.72-47.47s-7.24-53,22.1-87.15,37-64.16,19.63-92.63-26.06-27.34-2.22-98.8c0,0,14.22-47.31,77.37-56.86a17.46,17.46,0,0,0,3.55-.91c9.75-3.72,55.44-23.09,60.32-61.78,5-39.7,5.7-90.71,5.78-99a20.79,20.79,0,0,1,.16-2.36l6-47.53a19.81,19.81,0,0,1,1.36-5.17l16.56-40.17a19.55,19.55,0,0,1,2.63-4.54l33.71-43.38a18.33,18.33,0,0,1,3.48-3.45l41.47-31.28c.38-.29.77-.55,1.17-.81,8.74-5.57,103-62,245.82-4.59a16.88,16.88,0,0,0,10.62.66c10.32-2.7,34.07-6.7,52.58,7.05.45.34.91.66,1.38.95,5.23,3.15,42.13,26.83,57.27,76.49q.3,1,.69,1.92c2.56,6.06,17.36,44.69,6,103.77,0,0-5.3,23.68,22.35,63.25a18.67,18.67,0,0,1,1.28,2.1c5,9.59,36.93,75.58,4.9,145.52a20.25,20.25,0,0,1-1.67,2.94c-7.51,10.94-57.38,84.86-53.07,112,3.7,23.27,24.48,81.3,16.38,117.85-3,13.42-18.05,19.06-28.44,10.81L688,1358.15l-42.16-32.37a17.73,17.73,0,0,0-5.31-2.81l-38.2-12.43c-.47-.15-1-.28-1.44-.4l-25.1-5.81a17.74,17.74,0,0,1-4.36-1.66c-1.61-.87-4-2.16-6.66-3.51-8.65-4.41-12.61-15.21-9-24.66,6.26-16.33,15.78-38,23.76-42.49,13.18-7.5,40.37-.32,57.17-17.26,16.16-16.3,39.4-50.74,59.38-118.42a19.05,19.05,0,0,1,9.64-11.75l.8-.39c8.2-4.07,12.33-13.94,9.66-23.13-6.32-21.81-15.93-61.92-11.82-93,4.57-34.57-10.94-99.93-29.85-136.73C667.94,818.49,650.76,818,643.38,830.31Z"/><path class="cls-4" d="M343.42,1505.12c-11.32,0-22.15,10.58-21.63,23s9.5,23,21.63,23c11.31,0,22.15-10.58,21.63-23S355.55,1505.12,343.42,1505.12Z"/><path class="cls-6" d="M321.35,2040.73l43.69,3.4s8.13,217.32-11.83,245.86l24-8.92,40.42-4.21,54.86,13.55,68.67,30.24,55.24,18.75h47.14l53.22-9.4,43.43-15.69s16.7,182-66.19,331.64c-19.8,35.75,31.17-59.68-4.65,8.06l-418.44-2s-7.49-10-16.1-45.76S182.35,2367.37,209.1,2260l34.88-2.22a25.49,25.49,0,0,0,18.66-10.23c13.45-17.71,39.68-57.38,38.43-95.83C299.4,2100.12,321.35,2040.73,321.35,2040.73Z"/><path class="cls-5" d="M349.85,1944.65s-25.42,71.82-28.5,96.08l43.69,3.4S356.71,1959.14,349.85,1944.65Z"/><ellipse cx="665.88" cy="1008.03" rx="11.07" ry="13.99"/><path d="M654.81,801.09a260.32,260.32,0,0,1,34.83,63,273.79,273.79,0,0,1,10.73,34.57l1.07,4.4c.33,1.48.61,3,.92,4.44.59,3,1.28,5.91,1.72,8.9s1,6,1.4,9l1.13,9,.81,9c.25,3,.35,6,.53,9,.29,6.05.27,12.08.25,18.08s-.09,12,0,17.93.16,11.87.55,17.79,1,11.82,1.73,17.71,1.68,11.75,2.84,17.58,2.48,11.62,4,17.37,3.25,11.46,5.11,17.12l.38,1.16-1.06.43c-5.4,2.19-10.79,4.39-16.22,6.53s-10.84,4.28-16.27,6.39c5.22-2.58,10.45-5.16,15.7-7.68s10.51-5,15.77-7.55l-.67,1.59a245.1,245.1,0,0,1-16.5-70.26c-.51-6-.81-12.09-.92-18.11s-.06-12-.08-18,0-11.92-.38-17.84c-.16-3-.22-5.92-.45-8.88l-.74-8.86-1-8.84c-.36-2.94-.89-5.86-1.32-8.79s-1-5.85-1.52-8.77c-.28-1.46-.53-2.92-.82-4.37l-1-4.35c-.64-2.9-1.26-5.8-2-8.66l-1.11-4.32-.56-2.15-.61-2.14c-.84-2.85-1.62-5.72-2.51-8.55l-2.78-8.48A317.39,317.39,0,0,0,654.81,801.09Z"/><path d="M695.45,1094c-2.39,9.26-5,18.44-7.64,27.62s-5.33,18.31-8.27,27.44a261.5,261.5,0,0,1-10.17,27,131.61,131.61,0,0,1-14.81,25.16L652.2,1204l-1.19,1.41c-.4.47-.84.9-1.26,1.35l-2.56,2.68c-.87.87-1.81,1.68-2.71,2.52-1.78,1.72-3.79,3.18-5.73,4.72a18,18,0,0,1-1.51,1.08l-1.55,1c-1.05.67-2.05,1.4-3.14,2l-3.27,1.76c-.55.29-1.09.6-1.64.86l-1.7.75-3.39,1.49c-1.16.43-2.33.83-3.49,1.24-2.3.89-4.7,1.43-7.07,2.09-1.18.33-2.4.49-3.6.74s-2.4.51-3.61.64a107,107,0,0,1-29,.1,141.14,141.14,0,0,1-27.94-6.76,187.18,187.18,0,0,0,28.2,3.93c2.36.09,4.72.19,7.07.2s4.7,0,7-.23l3.51-.22,3.48-.4c2.33-.2,4.61-.7,6.9-1.07a79,79,0,0,0,25.73-9.83A76.78,76.78,0,0,0,650,1197.63a131.54,131.54,0,0,0,14.42-23.91c4.09-8.47,7.5-17.3,10.87-26.18l9.84-26.85C688.49,1111.76,691.85,1102.82,695.45,1094Z"/><path d="M657,807.5A192.77,192.77,0,0,1,620.37,868a195.6,195.6,0,0,1-26.06,24.42,198.07,198.07,0,0,1-30.18,19.21c-5.3,2.68-10.59,5.19-15.63,8a93.2,93.2,0,0,0-14.21,9.56c-8.91,7.21-16.42,16.13-23.4,25.45s-13.26,19.28-19.68,29.16-12.93,19.69-19.61,29.41c5.58-10.39,11.39-20.64,17.18-30.9s11.68-20.5,18.43-30.3a157.67,157.67,0,0,1,10.84-14.24,115.67,115.67,0,0,1,12.73-12.8,93.85,93.85,0,0,1,15-10.29c5.24-2.95,10.57-5.53,15.76-8.2,2.62-1.29,5.14-2.71,7.67-4.12s5-2.91,7.49-4.43,4.86-3.15,7.27-4.77,4.71-3.39,7.07-5.08a211.7,211.7,0,0,0,26.06-23.12A231.22,231.22,0,0,0,657,807.5Z"/><path d="M466.13,1013.48a73.61,73.61,0,0,0-11.12-9c-1-.64-2-1.24-3-1.86s-2.08-1.12-3.1-1.69-2.11-1-3.16-1.54-2.16-.91-3.24-1.37a65.87,65.87,0,0,0-13.42-3.65,61,61,0,0,0-13.75-.57l1.73-.79L415,995.44l-1.9,2.56-1.74,2.68-1.54,2.8a50.59,50.59,0,0,0-2.9,37.47,42.38,42.38,0,0,0,2.49,5.9,43.85,43.85,0,0,0,3.3,5.55,48.61,48.61,0,0,0,8.84,9.52,44.78,44.78,0,0,0,24.29,10c-9.11.85-18.58-2-26.33-7.28a45.93,45.93,0,0,1-10.38-9.6,44.42,44.42,0,0,1-7.08-12.39,51.16,51.16,0,0,1-2-28.28,52.76,52.76,0,0,1,4.8-13.5l1.78-3.13,2-3,2.26-2.81,2.48-2.64.71-.74,1,0a57.37,57.37,0,0,1,14.92,1.32,60.87,60.87,0,0,1,14,4.92c1.09.59,2.19,1.14,3.26,1.74s2.12,1.25,3.16,1.91,2,1.39,3,2.12,1.94,1.5,2.88,2.27A57.25,57.25,0,0,1,466.13,1013.48Z"/><path d="M451.89,1076.91l7,3.51,1.75.88c.58.31,1.12.66,1.69,1l3.35,2,3.36,2c1.1.7,2.14,1.49,3.21,2.23l3.21,2.27c1.05.77,2.16,1.47,3.15,2.33l6.08,5c1,.81,1.94,1.76,2.91,2.64l2.86,2.7c.94.91,1.93,1.78,2.84,2.72l2.67,2.88,2.69,2.88,1.33,1.45,1.25,1.52,5,6.12c1.56,2.11,3.05,4.27,4.58,6.41s2.92,4.36,4.31,6.6,2.85,4.43,4,6.78l3.73,7,3.27,7.2c1.16,2.37,2,4.86,3,7.32s1.94,4.91,2.65,7.45l2.34,7.56,1.85,7.71c.69,2.55,1,5.17,1.49,7.78s1,5.2,1.13,7.84l.78,7.9c.15,2.64.28,5.29.29,8a130.36,130.36,0,0,1-.83,15.91,91.82,91.82,0,0,1-8.94,30.77,64.24,64.24,0,0,1-9.1,13.48,58.11,58.11,0,0,1-5.73,5.8c-2,1.79-4.11,3.5-6.27,5.07-8.63,6.34-17.94,11.2-26.52,16.77a92.08,92.08,0,0,0-12.09,9.1,49.85,49.85,0,0,0-9.4,11.33,48.64,48.64,0,0,0-5.34,13.72,96.4,96.4,0,0,0-2.09,15c-.74,10.24-.67,20.8-2.65,31.34a67.26,67.26,0,0,1-13,29.12,63.22,63.22,0,0,1-25,19.57,57.83,57.83,0,0,1-31.21,3.79,60.36,60.36,0,0,1-15.1-4.41,58,58,0,0,1-13.28-8.23,59.19,59.19,0,0,0,28.59,11,56.06,56.06,0,0,0,29.84-4.79,60.3,60.3,0,0,0,23.09-19.25A64.18,64.18,0,0,0,446.2,1384c1.64-10,1.39-20.37,2-30.88a103.07,103.07,0,0,1,2-15.88A54.19,54.19,0,0,1,456,1322a53.51,53.51,0,0,1,10.36-12.69,97.69,97.69,0,0,1,12.78-9.72c8.86-5.78,18-10.66,26.18-16.68,2.05-1.49,4-3.07,5.87-4.72a51.31,51.31,0,0,0,5.26-5.27,58.87,58.87,0,0,0,8.37-12.29,88.29,88.29,0,0,0,8.54-28.85,126.86,126.86,0,0,0,1-15.23c0-2.55-.07-5.1-.18-7.66l-.65-7.64c-.14-2.56-.64-5.08-1-7.61s-.71-5.08-1.32-7.57l-1.63-7.52-2.12-7.39a166.21,166.21,0,0,0-28.4-54.41l-1.17-1.54-1.26-1.47-2.52-2.93-2.53-2.94c-.86-1-1.8-1.85-2.69-2.78l-2.72-2.76c-.92-.91-1.78-1.89-2.77-2.72l-5.79-5.17c-.93-.9-2-1.64-3-2.45l-3.06-2.39c-1-.78-2-1.62-3.09-2.36l-3.23-2.17-3.22-2.18c-.54-.36-1.07-.74-1.62-1.08l-1.69-1Z"/><path class="cls-7" d="M579.56,1232c-5.11,9.81-10,19.51-14.34,29.43s-8.24,20-11.61,30.18-6.23,20.63-8.62,31.18-4.32,21.26-6.15,32.16a139,139,0,0,1,.29-33.18,170.35,170.35,0,0,1,20.8-63A135.72,135.72,0,0,1,579.56,1232Z"/><path d="M636.73,744.46q-20.18-6.59-40.87-11.25a371.85,371.85,0,0,0-41.79-6.77l-10.53-1L533,725l-2.64-.13h-2.64l-5.29,0-5.28,0-5.28.2-5.28.21-2.64.1c-.88.06-1.76.15-2.63.22l-10.52.91c-7,.94-14,1.75-20.86,3.21A233.18,233.18,0,0,0,429.37,741a173.48,173.48,0,0,0-19.31,8.34,204.75,204.75,0,0,0-18.35,10.28,218.39,218.39,0,0,0-61,57c-16.37,22.67-28.14,48.73-33.37,76.14a197.37,197.37,0,0,0-2.71,20.74c-.53,7-.78,14-.88,21-.19,14.07.17,28.21.08,42.41s-.62,28.5-3,42.71a123.28,123.28,0,0,1-5.34,21,85.67,85.67,0,0,1-9.81,19.55,73.15,73.15,0,0,1-14.89,16.13,85.11,85.11,0,0,1-18.7,11.32c-13.21,6-27.06,9.56-40.19,14.27a132.18,132.18,0,0,0-19,8.24,75,75,0,0,0-16.37,12.09c-9.72,9.56-16.68,21.79-21.68,34.7s-8.4,26.58-11,40.37c-1.33,6.87-2.42,13.72-2.22,20.42a37.47,37.47,0,0,0,1.57,9.69,27.59,27.59,0,0,0,4.46,8.54c3.94,5.33,9.54,9.9,13.91,16.1a43.68,43.68,0,0,1,7.42,21.07c.15.93.1,1.86.16,2.79s.09,1.86.06,2.78l-.13,2.77-.06,1.39-.16,1.37-.33,2.74c-.11.91-.32,1.81-.47,2.71s-.31,1.81-.53,2.7l-.67,2.66a89.59,89.59,0,0,1-8.09,20.21,150.77,150.77,0,0,1-11.85,18c-4.25,5.71-8.63,11.27-12.8,16.91a158.74,158.74,0,0,0-11.47,17.44,89.37,89.37,0,0,0-4.44,9.33c-.31.8-.67,1.59-.95,2.4l-.79,2.44-.79,2.44c-.29.8-.41,1.66-.62,2.49l-.58,2.51a19.34,19.34,0,0,0-.49,2.52l-.73,5.1-.32,5.15a24.65,24.65,0,0,0,0,2.58l0,2.58a84.78,84.78,0,0,0,3.23,20.37,79.24,79.24,0,0,0,8.31,18.89,69.91,69.91,0,0,0,13,15.93,64.94,64.94,0,0,0,37.37,15.86,69.87,69.87,0,0,0,40-8.67c1.47-.91,3-1.75,4.42-2.71l4.19-3.07c1.33-1.11,2.6-2.29,3.9-3.43s2.49-2.43,3.7-3.69c4.78-5.1,9.15-10.74,14.44-15.63a45.39,45.39,0,0,1,8.71-6.45,40.42,40.42,0,0,1,10.19-3.76,45.4,45.4,0,0,1,10.78-.72,66.21,66.21,0,0,1,10.62,1.59,150,150,0,0,1,20.22,6.67c6.6,2.57,13.12,5.29,19.79,7.6q5,1.75,10.11,3.07a70.68,70.68,0,0,0,10.41,1.74,47.56,47.56,0,0,0,10.53-.38,40.44,40.44,0,0,0,10.05-3.25,40.25,40.25,0,0,1-10,3.46,48.19,48.19,0,0,1-10.6.61,73.23,73.23,0,0,1-10.53-1.54c-3.45-.82-6.87-1.77-10.24-2.88-6.74-2.2-13.32-4.84-19.94-7.3a150.31,150.31,0,0,0-20.13-6.3,63.68,63.68,0,0,0-10.36-1.39,43.89,43.89,0,0,0-10.31.84,38.29,38.29,0,0,0-9.59,3.71,43.17,43.17,0,0,0-8.2,6.27c-5,4.81-9.29,10.46-14.09,15.75-1.21,1.31-2.41,2.65-3.75,3.86s-2.65,2.45-4,3.63l-4.31,3.27c-1.48,1-3,1.93-4.57,2.9a72.83,72.83,0,0,1-41.64,9.46,70.5,70.5,0,0,1-21.05-5A66.56,66.56,0,0,1,125,1465.07a74.18,74.18,0,0,1-13.9-16.65,83.36,83.36,0,0,1-8.9-19.75,89,89,0,0,1-3.6-21.38l-.07-2.72c0-.9-.08-1.81,0-2.72l.29-5.44.72-5.41a22.51,22.51,0,0,1,.49-2.68l.59-2.67c.22-.88.34-1.79.64-2.65l.82-2.61.82-2.61c.29-.87.65-1.7,1-2.55a92.7,92.7,0,0,1,4.58-9.85,162.68,162.68,0,0,1,11.64-18.1c4.19-5.77,8.56-11.33,12.71-17a146.53,146.53,0,0,0,11.39-17.45,84.11,84.11,0,0,0,7.54-19.11,59.19,59.19,0,0,0,1.89-20.11,38.41,38.41,0,0,0-6.57-18.46c-3.79-5.41-9.33-9.9-13.89-15.9a33.24,33.24,0,0,1-5.35-10.15,42.73,42.73,0,0,1-1.85-11.18c-.23-7.46,1-14.68,2.28-21.67,2.65-14,6-27.94,11.25-41.38a122.63,122.63,0,0,1,9.47-19.5,89.43,89.43,0,0,1,13.46-17.22A80.77,80.77,0,0,1,180,1105.1a134.59,134.59,0,0,1,19.85-8.64c6.74-2.41,13.54-4.48,20.21-6.67a200.21,200.21,0,0,0,19.55-7.36,79.48,79.48,0,0,0,17.51-10.55A67.73,67.73,0,0,0,271,1057c7.72-11.25,12-24.65,14.31-38.3s2.86-27.77,3.05-41.83-.13-28.24.12-42.45c.13-7.1.42-14.22,1-21.35a199,199,0,0,1,2.89-21.29A193,193,0,0,1,297.68,871a198.27,198.27,0,0,1,7.7-20.05,212,212,0,0,1,9.88-19c3.61-6.17,7.61-12.11,11.81-17.89a222.59,222.59,0,0,1,62.72-57.51,204.08,204.08,0,0,1,18.75-10.27,178.74,178.74,0,0,1,19.69-8.3,232.43,232.43,0,0,1,41.17-11.07c7-1.36,14.06-2.08,21.11-2.92l10.63-.76c.88,0,1.77-.13,2.65-.17l2.67-.07,5.32-.12,5.32-.13,5.32.12,5.32.11,2.66.06,2.65.17,10.62.69,10.57,1.11c3.53.31,7,.92,10.53,1.41l5.26.78c1.75.25,3.49.63,5.23.93,3.48.67,7,1.25,10.43,2l10.36,2.33Q616.69,737.43,636.73,744.46Z"/><path d="M649,751.47a64.5,64.5,0,0,1,33-4.1,82.5,82.5,0,0,1,31.85,11.26,104.1,104.1,0,0,1,25.59,22.24,148.12,148.12,0,0,1,18.49,28.32c1.25,2.52,2.46,5.07,3.59,7.65s2.16,5.19,3.24,7.79,1.94,5.28,2.91,7.92,1.75,5.34,2.53,8a195.8,195.8,0,0,1,6.47,33A185.25,185.25,0,0,1,772,940.07a226.7,226.7,0,0,0,.12-65.9,213.85,213.85,0,0,0-7.24-32,192.84,192.84,0,0,0-12.18-30.38,147.73,147.73,0,0,0-17.53-27.43,105.78,105.78,0,0,0-23.78-21.91,83.89,83.89,0,0,0-29.89-12.28A68.79,68.79,0,0,0,649,751.47Z"/><path d="M768.39,1700a23.7,23.7,0,0,1,4.51,2.21,33.75,33.75,0,0,1,3.51,2.5,34.21,34.21,0,0,1,3.14,2.93,25.17,25.17,0,0,1,3.08,4,9.42,9.42,0,0,1-5.37,0,12.57,12.57,0,0,1-4.53-2.39,12.77,12.77,0,0,1-3.22-4A9.58,9.58,0,0,1,768.39,1700Z"/><path d="M772.61,938.25a43.78,43.78,0,0,0-.14,15.44,64.73,64.73,0,0,0,4.41,14.77c4,9.49,9.58,18.28,15,27.19,1.34,2.24,2.66,4.48,4,6.76s2.43,4.65,3.66,7l1.81,3.51,1.57,3.62,1.56,3.62.78,1.81a17.11,17.11,0,0,1,.72,1.84l2.62,7.44.65,1.87.53,1.9,1,3.8,1.06,3.81c.38,1.26.57,2.57.87,3.85l1.61,7.74a187.36,187.36,0,0,1,2.6,31.47c0,2.64-.19,5.27-.28,7.91l-.18,4-.41,3.94-.41,3.94c-.17,1.31-.22,2.63-.48,3.93l-1.31,7.81-.33,1.95L813,1121l-.91,3.86-.92,3.86c-.27,1.29-.74,2.53-1.1,3.8l-2.33,7.59-2.81,7.42a162.79,162.79,0,0,1-14.57,28.15c-5.75,8.83-12,17.16-18,25.62a181.23,181.23,0,0,0-15.92,26.21c-1,2.32-2.13,4.6-3,7-.43,1.19-.93,2.35-1.29,3.56l-1.09,3.61c-.4,1.19-.61,2.43-.9,3.66s-.61,2.44-.77,3.68l-.56,3.73c-.16,1.25-.22,2.51-.34,3.76a91.66,91.66,0,0,0,.17,15.18,140.45,140.45,0,0,0,2.18,15.18c1.95,10.1,4.76,20.08,7.36,30.17,1.28,5,2.6,10.09,3.66,15.24a151.52,151.52,0,0,1,2.48,15.55,119.91,119.91,0,0,1,.65,15.74,83.07,83.07,0,0,1-1.74,15.65,38.84,38.84,0,0,1-.93,3.83,37.2,37.2,0,0,1-1.13,3.77c-.45,1.24-.87,2.48-1.34,3.71l-1.64,3.57a52.48,52.48,0,0,1-9,12.72,52.07,52.07,0,0,0,8.25-13.09l1.44-3.58c.41-1.23.76-2.47,1.14-3.69a77.51,77.51,0,0,0,1.67-7.53,86.94,86.94,0,0,0,1.08-15.37,118.24,118.24,0,0,0-1.23-15.38c-.67-5.1-1.73-10.15-2.9-15.17s-2.66-10-4.09-15c-2.89-10-5.88-20-8.13-30.26s-3.67-20.89-3-31.61c.1-1.33.16-2.67.31-4l.55-4c.16-1.33.51-2.63.76-4s.51-2.65.92-3.92l1.11-3.87c.37-1.29.88-2.53,1.32-3.8.84-2.55,2-5,3-7.42a181.17,181.17,0,0,1,16.26-27.14c6-8.58,12.18-16.9,17.76-25.52a156.08,156.08,0,0,0,14.17-27.11l2.75-7.15,2.28-7.32c.36-1.23.82-2.42,1.09-3.68l.9-3.72.91-3.73.46-1.86.34-1.89,1.37-7.55c.27-1.26.34-2.54.52-3.81l.45-3.81.45-3.82.22-3.83c.12-2.56.34-5.12.38-7.68l0-7.69V1076l-.12-1.92-.25-3.83c-.16-5.14-1-10.21-1.58-15.31a183,183,0,0,0-7.49-29.84,16.23,16.23,0,0,0-.65-1.81l-.71-1.79-1.42-3.58-1.43-3.59-1.66-3.48c-1.13-2.31-2.17-4.66-3.38-6.94s-2.47-4.55-3.71-6.82c-2.52-4.55-5.07-9.09-7.48-13.73a123.43,123.43,0,0,1-6.5-14.29,64.8,64.8,0,0,1-3.79-15.24A44.2,44.2,0,0,1,772.61,938.25Z"/><path class="cls-8" d="M718.28,1931.89a163.54,163.54,0,0,0,4.51,43.24c1.66,7,3.66,14,6,20.86s4.71,13.7,7.38,20.46,5.43,13.5,8.19,20.25,5.58,13.52,8.31,20.34,5.36,13.7,7.83,20.67,4.7,14.05,6.68,21.22a209.38,209.38,0,0,1,4.79,21.88,189.37,189.37,0,0,1,2.19,22.34c.56,14.88-.16,29.53-.24,44,0,7.25.18,14.47.8,21.61a132.35,132.35,0,0,0,3.49,21.21,96.18,96.18,0,0,0,7.4,20.18,72,72,0,0,0,5.68,9.2,65.69,65.69,0,0,0,7.11,8.29,59.72,59.72,0,0,1-8.19-7.4,70.32,70.32,0,0,1-6.82-8.8,93.53,93.53,0,0,1-9.55-20.19,134.21,134.21,0,0,1-5.16-21.76,207.87,207.87,0,0,1-2-22.18c-.19-3.69-.29-7.37-.39-11l-.2-11c-.15-7.29-.27-14.54-.72-21.72-.26-3.58-.5-7.15-.92-10.69-.17-1.78-.43-3.54-.69-5.3s-.49-3.53-.83-5.28a205.49,205.49,0,0,0-4.7-21c-7.53-27.77-19.52-54.51-28.84-82.47a261.35,261.35,0,0,1-11-42.92C716.15,1961.35,715.76,1946.35,718.28,1931.89Z"/><path class="cls-8" d="M459.52,1333.05c5.51,5.8,11,11.51,16.76,16.85s11.7,10.47,17.84,15.28,12.5,9.27,19,13.44l4.93,3a51.47,51.47,0,0,0,4.83,2.52,41.48,41.48,0,0,0,10.14,3.27,19.23,19.23,0,0,0,9.45-.28,10.4,10.4,0,0,0,6.15-5.33c1.37-2.61,1.93-6.14,2.3-9.93s.58-7.67.66-11.52a158.94,158.94,0,0,0-6.36-46.37,108.5,108.5,0,0,1,13.65,46.16,116.75,116.75,0,0,1,.22,12.27c-.14,4.08-.48,8.62-2.54,13.22a19.82,19.82,0,0,1-4.46,6.17,19,19,0,0,1-6.62,4,28,28,0,0,1-14.07.76,49.48,49.48,0,0,1-12.41-4.13,60.9,60.9,0,0,1-5.64-3.14c-1.74-1.13-3.41-2.21-5.08-3.38a170.44,170.44,0,0,1-18.92-15.24A156.32,156.32,0,0,1,459.52,1333.05Z"/><path class="cls-8" d="M286.32,1437c-3.68,7.38-7.17,14.84-10.62,22.33s-6.86,15-10.14,22.53-6.52,15.12-9.51,22.76c-1.49,3.82-2.92,7.66-4.16,11.52a58,58,0,0,0-1.57,5.75c-.09.46-.21,1-.25,1.37a11.55,11.55,0,0,0-.11,1.41l-.11,3.07c-1.39,32.78.94,65.49,5.57,97.86s11.72,64.43,19.75,96.29c3.93,16,8.24,31.83,12.49,47.75s8.64,31.82,12.62,47.86c-6.22-15.31-12-30.78-17.46-46.36s-10.57-31.31-15.28-47.18c-9.33-31.73-16.8-64.16-21.09-97.13-1-8.25-2-16.51-2.54-24.8-.38-4.14-.52-8.3-.78-12.45s-.38-8.3-.37-12.46l-.06-6.24.07-6.23c0-4.16.24-8.31.35-12.46.51-8.3,1.1-16.58,2.12-24.82l.38-3.09c.06-.48.15-1.08.24-1.66a16.18,16.18,0,0,1,.36-1.66,60.26,60.26,0,0,1,1.91-6.1c1.43-3.94,3-7.77,4.68-11.57,3.31-7.6,6.82-15.07,10.48-22.48C270.6,1466.05,278.14,1451.37,286.32,1437Z"/><path class="cls-8" d="M310.84,1816.4l12.12,6.89c2,1.15,4,2.35,6,3.47l6.1,3.34c4.09,2.2,8.09,4.53,12.19,6.69l12.3,6.46c4.07,2.21,8.25,4.21,12.37,6.31s8.24,4.21,12.44,6.14,8.35,4,12.52,6,8.41,3.83,12.62,5.74l6.31,2.85,6.38,2.71,12.75,5.43c8.59,3.38,17.09,7,25.77,10.14,17.24,6.6,34.73,12.52,52.35,18l13.24,4,13.33,3.71c2.23.61,4.43,1.29,6.67,1.85l6.71,1.71,6.7,1.71c2.24.57,4.47,1.16,6.72,1.67l13.48,3.14c2.24.55,4.51,1,6.77,1.47l6.77,1.43c4.52,1,9,1.91,13.56,2.74,2.26.46,4.53.86,6.79,1.26s4.53.81,6.8,1.14c4.54.75,9.09,1.33,13.65,1.91l6.84.7c2.29.22,4.57.36,6.86.56a204.44,204.44,0,0,0,27.45.13,130.47,130.47,0,0,0,52.87-14.4l-5.91,3.71a32.46,32.46,0,0,1-3,1.7l-3.11,1.63c-2.05,1.14-4.23,2-6.38,2.91l-3.23,1.38-3.32,1.16c-2.22.76-4.42,1.61-6.71,2.16l-3.4.92c-1.13.31-2.27.64-3.42.85l-6.91,1.44-7,1.07c-18.7,2.31-37.66,1.67-56.24-.66a663.11,663.11,0,0,1-109.29-24.18c-2.22-.69-4.47-1.33-6.68-2.07L497,1911.1l-6.64-2.21c-2.21-.75-4.44-1.45-6.62-2.28l-13.15-4.81-3.29-1.2-3.25-1.28-6.51-2.59c-8.71-3.36-17.24-7.14-25.81-10.83-4.25-1.92-8.48-3.89-12.71-5.85l-6.33-3-6.26-3.12c-16.79-8.13-33.06-17.27-49.08-26.74l-11.89-7.33c-4-2.45-7.83-5-11.71-7.59C325.94,1827.27,318.42,1821.78,310.84,1816.4Z"/><path class="cls-8" d="M419.12,1490.47a275.5,275.5,0,0,1,19.44,37.38,368.82,368.82,0,0,1,14.44,39.6,367.4,367.4,0,0,1,9.85,41,276.28,276.28,0,0,1,4.49,41.9c-4.14-13.47-7.79-26.9-11.6-40.26s-7.64-26.68-11.63-39.94-8.12-26.49-12.36-39.72S423.15,1504,419.12,1490.47Z"/><path class="cls-8" d="M477.1,1655.65c23.76,3.72,47.34,7.85,71,11.68s47.22,7.62,70.86,11.14,47.31,6.84,71,10,47.47,6.15,71.28,9.53c-24.05.5-48.07-.51-72-2.27s-47.86-4.54-71.63-8.09-47.42-7.93-70.88-13.18S500,1663.13,477.1,1655.65Z"/><path class="cls-8" d="M766.64,1698c-2.1,4.62-2.56,9.65-3,14.63l-1.41,15.05c-1,10-2,20-3.14,30.06l-1.65,15-1.79,15c-1.18,10-2.36,20-3.64,30q-3.81,30-8,59.87l-2.12,15c-.73,5-1.45,9.84-1.77,14.64-.15,2.38-.23,4.74-.16,7.07a43.58,43.58,0,0,0,.73,6.75,27.57,27.57,0,0,0,2,6.1,20.54,20.54,0,0,0,3.44,5l-7,1.27q7.26-15.36,13.33-31.26c4.1-10.57,7.65-21.36,10.94-32.24l2.37-8.19,2.2-8.24,2.07-8.29,1.93-8.33,1.77-8.37,1.65-8.41c.49-2.81,1-5.63,1.51-8.44l1.4-8.48-.37,8.59c-.19,2.86-.4,5.73-.62,8.59l-.83,8.58-1.06,8.56-1.26,8.53c-.48,2.84-1,5.68-1.47,8.51l-1.69,8.48-1.87,8.44c-2.6,11.24-5.87,22.32-9.5,33.29s-7.88,21.74-12.6,32.3l-2.56,5.74-4.45-4.47a29.13,29.13,0,0,1-5.27-7.25,36.07,36.07,0,0,1-2.8-8.19,53,53,0,0,1-1-8.22c-.11-2.71-.07-5.38.08-8,.33-5.26,1.08-10.42,1.77-15.35l2.13-15q4.27-29.9,9-59.73c1.55-10,3.2-19.88,4.85-29.81l2.46-14.91,2.6-14.88c1.69-9.93,3.53-19.83,5.35-29.74l2.83-14.85c.47-2.48,1-5,1.72-7.42A28.05,28.05,0,0,1,766.64,1698Z"/><path class="cls-8" d="M557.93,1295.32a66.23,66.23,0,0,0,13.87,6.43,96.92,96.92,0,0,0,14.78,3.43c10,1.67,20.28,2.39,30.67,4.41,2.59.46,5.18,1.11,7.78,1.75l3.87,1.14c1.29.38,2.56.91,3.84,1.36a78,78,0,0,1,14.49,7.29c4.55,2.82,8.79,6,12.94,9.13s8.13,6.37,12.19,9.56q24.21,19.18,47.8,39.17c15.69,13.36,31.21,26.94,46.15,41.25-17.34-11.28-34.1-23.3-50.69-35.53s-32.89-24.82-49-37.62l-12.05-9.61c-4-3.18-8-6.22-12.08-9a77.23,77.23,0,0,0-12.79-7.1,90.79,90.79,0,0,0-14-4.72c-9.7-2.6-20-4.2-30-7.07-1.26-.34-2.52-.75-3.76-1.16s-2.51-.77-3.73-1.27-2.47-.92-3.68-1.41-2.4-1.1-3.59-1.65-2.31-1.26-3.47-1.88c-.57-.33-1.15-.62-1.7-1l-1.63-1.11A54.24,54.24,0,0,1,557.93,1295.32Z"/><path class="cls-8" d="M275.93,1742.41c-4.22,37.84-9.4,75.57-16.46,113.07l-2.72,14-3,14c-2.1,9.31-4.25,18.62-6.62,27.88q-7.12,27.77-16.46,55l-2.43,6.77c-.82,2.25-1.6,4.51-2.5,6.73l-5.23,13.39c-3.62,8.87-7.38,17.63-11.13,26.34S202,2037,198.7,2045.83c-1.62,4.43-3.26,8.85-4.76,13.32s-3,8.94-4.51,13.43c-11.5,36-19.78,73.19-29,110.14,5.39-37.67,11.69-75.32,22-112.22,1.32-4.6,2.61-9.21,4-13.78s3-9.11,4.51-13.66c3.17-9.06,6.63-18,10.23-26.85s7.35-17.55,10.83-26.32l5-13.23c1.68-4.4,3.16-8.89,4.76-13.33,6.3-17.81,11.75-35.92,16.75-54.17s9.48-36.66,13.73-55.15C260.76,1817,267.92,1779.64,275.93,1742.41Z"/><path class="cls-8" d="M648.82,1421.1A231.35,231.35,0,0,1,665.31,1450q7.26,14.94,13,30.52c3.85,10.37,7.22,20.92,10,31.63a227.19,227.19,0,0,1,6.35,32.67c-5-10-9.14-20.2-13.28-30.38s-8-20.42-11.81-30.69-7.5-20.58-11-31S651.61,1431.93,648.82,1421.1Z"/><path class="cls-8" d="M162.62,2174.26c0,1.5,0,3-.06,4.52s-.16,3-.24,4.51l-.38,4.52-.56,4.49a145.11,145.11,0,0,1-3.56,17.84,157.27,157.27,0,0,1-5.71,17.36,158.52,158.52,0,0,1-7.72,16.63l-2.12-6.26a255.56,255.56,0,0,0,26.2,9,267.37,267.37,0,0,0,27,6.2q13.71,2.39,27.7,3.4c9.32.73,18.72.9,28.24.89a146.89,146.89,0,0,1-28.27,4.41,172.07,172.07,0,0,1-28.79-.67,179.37,179.37,0,0,1-28.39-5.35,184.64,184.64,0,0,1-27.23-9.74l-4.61-2.06,2.49-4.21c3-5,5.7-10.17,8.24-15.43s4.88-10.64,7-16.12,4.09-11,5.88-16.71q1.28-4.26,2.52-8.56c.38-1.44.75-2.89,1.17-4.33S162.21,2175.71,162.62,2174.26Z"/><path class="cls-8" d="M349.75,1936.36c-6.73,27-13.36,53.81-19.19,80.82s-11.13,54.1-15.65,81.33-8.09,54.92-15.9,81.93a186.73,186.73,0,0,1-15.82,39c-6.93,12.23-15.77,23.52-26.72,32.13a124.7,124.7,0,0,0,22.66-34.2,165.28,165.28,0,0,0,7.36-19.09c2.09-6.5,3.89-13.09,5.46-19.75,6.32-26.66,9.24-54.11,13.81-81.6s10.48-54.68,17.73-81.53A708.6,708.6,0,0,1,349.75,1936.36Z"/><path class="cls-8" d="M350.41,1939.81a871.92,871.92,0,0,1,14.42,86.91l2.28,21.94,1.72,22,1.23,22,.7,22.07c.52,29.43-.16,58.9-2.42,88.28s-5.68,58.68-10.69,87.72l-6.57-4.74a106.53,106.53,0,0,1,29.25-10.5,132.86,132.86,0,0,1,30.78-2.47c20.55.71,40.57,5.41,59.68,12s37.36,14.85,55.54,22.81,36.45,15.52,55.36,20.64c37.71,10.42,78.31,9.84,116.33-.38a238.19,238.19,0,0,0,102.46-57.61,225.68,225.68,0,0,1-21.83,20.43,230.49,230.49,0,0,1-79.25,42,228.51,228.51,0,0,1-59.54,9.74,219,219,0,0,1-60.18-6.59c-19.63-5.05-38.36-12.58-56.75-20.32s-36.49-15.85-55.08-22.18S430.11,2283,410.8,2282.3a123.59,123.59,0,0,0-28.65,2.16,97.6,97.6,0,0,0-26.81,9.5l-8.14,4.34,1.57-9.08c5-28.77,8.88-57.74,11.43-86.85s3.95-58.33,4-87.57l-.14-21.93-.59-21.94L362.39,2049l-1.49-21.91Q357.41,1983.32,350.41,1939.81Z"/><path class="cls-8" d="M286.32,1437c-.31,1-.67,2-1.06,3s-.88,1.89-1.35,2.82c-1,1.82-2,3.62-3,5.37l-6.21,10.31a228.53,228.53,0,0,0-11.09,20.63,199,199,0,0,0-8.6,21.72c-2.69,7.44-4.49,15.16-7.15,23.06q-.47-3.06-.72-6.16c-.09-1-.15-2.07-.23-3.1s0-2.07,0-3.1c.05-2.07.12-4.15.23-6.23,0-1,.23-2.06.36-3.09s.26-2.06.42-3.09a87.12,87.12,0,0,1,7.29-23.94,93.23,93.23,0,0,1,13.59-21c.65-.81,1.38-1.54,2.07-2.31s1.39-1.53,2.11-2.26c1.44-1.46,2.9-2.92,4.39-4.31C280.33,1442.52,283.43,1440,286.32,1437Z"/><path class="cls-8" d="M207.26,2266c-1,31.65-1.42,63.2-.63,94.7s2.74,62.93,5.87,94.24,7.44,62.51,12.82,93.55,12,61.89,19.31,92.71a692.9,692.9,0,0,1-26.42-91.31,813.38,813.38,0,0,1-18.79-189.16A701.2,701.2,0,0,1,207.26,2266Z"/><path class="cls-8" d="M573.33,2356.85a578.07,578.07,0,0,1,1.65,71.37,707.71,707.71,0,0,1-6.21,71.2,702.86,702.86,0,0,1-13.36,70.21,570.82,570.82,0,0,1-21,68.22c4.81-23.31,9.67-46.48,13.9-69.75s8.06-46.57,11.31-70,5.94-46.85,8.14-70.39S571.61,2380.59,573.33,2356.85Z"/><path class="cls-8" d="M742.68,2311.18a527.22,527.22,0,0,1,2,86.52,600.83,600.83,0,0,1-11.2,86A594.65,594.65,0,0,1,710,2567.25a514.48,514.48,0,0,1-36,78.7c10.77-26.74,20.66-53.66,29.08-81s15.57-55.05,21.31-83.05,10.06-56.28,13-84.75S742,2340,742.68,2311.18Z"/><path class="cls-8" d="M320.66,2037.33a66.28,66.28,0,0,1,10.9.15c3.41.27,6.68.69,9.95,1.18s6.51,1.06,9.84,1.81a66.44,66.44,0,0,1,10.45,3.08,25.12,25.12,0,0,1-10.56,4.22,35.67,35.67,0,0,1-21.73-3.31A25.48,25.48,0,0,1,320.66,2037.33Z"/><path d="M620.86,991.62a198,198,0,0,1,10.74-18.88c3.94-6.06,8.38-12.1,14.3-17a43.39,43.39,0,0,1,4.7-3.34,33.83,33.83,0,0,1,5.27-2.57,26.4,26.4,0,0,1,11.64-1.6,23,23,0,0,1,11,3.7,17,17,0,0,1,6.77,8.82,19.48,19.48,0,0,0-8.14-6.32,23.11,23.11,0,0,0-9.72-1.65l-1.23.06-1.22.15c-.82.06-1.61.28-2.41.41a25.39,25.39,0,0,0-4.58,1.53,36.21,36.21,0,0,0-8.37,5.3c-5.24,4.27-9.75,9.67-14.31,15.16S626,986.48,620.86,991.62Z"/><path d="M637.67,1005.16a21,21,0,0,1,8.6-10.57,23.37,23.37,0,0,1,27.09,1.08,21.22,21.22,0,0,1,7.78,11.19,39.63,39.63,0,0,0-10.2-7.33,28.34,28.34,0,0,0-11.19-2.94,27.92,27.92,0,0,0-11.37,2A38.39,38.39,0,0,0,637.67,1005.16Z"/><path d="M657.24,999.79c.6,3.9.7,7.67,1.54,11a20.62,20.62,0,0,0,.73,2.34,11.32,11.32,0,0,0,1,2,10.32,10.32,0,0,0,1.33,1.73,8,8,0,0,0,1.57,1.36,5.18,5.18,0,0,0,3.27,1,5.43,5.43,0,0,0,3.36-1.57,16.5,16.5,0,0,0,3-4c.92-1.56,1.71-3.27,2.62-5a18.28,18.28,0,0,1,.27,3,18.92,18.92,0,0,1-.19,3,14.34,14.34,0,0,1-2.16,6,9.19,9.19,0,0,1-10,4,11.69,11.69,0,0,1-3.41-1.57,13.71,13.71,0,0,1-5.54-8.52,16.43,16.43,0,0,1-.33-3.18A25.18,25.18,0,0,1,657.24,999.79Z"/><path class="cls-8" d="M620.46,1139.55c5.29-.7,10.19-.91,15-1.26s9.55-.63,14.27-1,9.43-.82,14.24-1.28,9.7-1,15-1.1a39.84,39.84,0,0,1-13.32,8.19,54.81,54.81,0,0,1-30.8,2.45A40,40,0,0,1,620.46,1139.55Z"/><ellipse class="cls-2" cx="952.28" cy="1581.7" rx="157.19" ry="262.85" transform="translate(-675.82 2452.29) rotate(-87.08)"/><ellipse class="cls-9" cx="951.62" cy="1550.4" rx="157.19" ry="262.85" transform="translate(-645.18 2421.91) rotate(-87.08)"/><text class="cls-10" transform="matrix(0.89, 0.55, -0.86, 0.5, 1052.77, 1465.68)">N</text><text class="cls-10" transform="matrix(0.89, 0.55, -0.86, 0.5, 767.69, 1639.28)">S</text><text class="cls-10" transform="matrix(0.89, 0.55, -0.86, 0.5, 1073.94, 1646.06)">E</text><text class="cls-10" transform="matrix(0.89, 0.55, -0.86, 0.5, 765.43, 1456.64)">W</text><polygon class="cls-4" points="1022.96 1508.69 919.84 1532.28 880.28 1592.1 984.91 1570.83 1022.96 1508.69"/><polygon class="cls-5" points="762.93 1707.97 828.06 1703.53 867.99 1690.86 901.36 1650.33 938.39 1614.4 970.96 1603.06 1004.57 1604.69 1017.87 1609.55 1006.89 1623.75 991.07 1633.56 984.37 1638.51 989.25 1640.4 1012.2 1639.3 1042.24 1632.77 1067.1 1622.55 1093.41 1605.88 1106.61 1594.51 1121.68 1589.55 1130.24 1590.34 1130.24 1598.16 1118.62 1618.49 1130.24 1616.19 1145.74 1609.71 1138.58 1630.02 1116.42 1661.78 1125.27 1656.6 1136.34 1655.93 1133.4 1667.69 1118.83 1683.22 1098.5 1699.41 1099.91 1707.97 1096.6 1716.83 1083.23 1728.37 1057.95 1738.14 1012.23 1747.44 965.08 1755.81 916.6 1763.34 873.68 1769.1 866.66 1771.04 851.83 1777.15 807.48 1793.11 771.32 1803.96 748.77 1811.04 762.93 1707.97"/><path class="cls-7" d="M762.93,1708a252.16,252.16,0,0,1,26.7-4.07l26.51-2.61c8.77-1,17.45-2.09,26.08-3.72a223.66,223.66,0,0,0,25.76-6.71,80.89,80.89,0,0,1-24.26,12.46,134.22,134.22,0,0,1-26.78,5.49,222.87,222.87,0,0,1-27.06,1A249.52,249.52,0,0,1,762.93,1708Z"/><path class="cls-7" d="M760.94,1806.26c8.88-3.78,17.84-7,26.8-10.21s17.93-6.25,26.91-9.27,18-6,27.05-8.85,18.18-5.68,27.55-8a198.66,198.66,0,0,1-25.42,13.55A285.39,285.39,0,0,1,817.06,1794q-13.63,4.58-27.67,7.79A199.9,199.9,0,0,1,760.94,1806.26Z"/><path class="cls-7" d="M873.68,1683.22q3.18-4.56,6.44-9t6.58-8.92c4.38-5.94,8.92-11.78,13.56-17.58,9.36-11.48,19.59-22.59,31.85-31.62a96.92,96.92,0,0,1,19.87-11.4,79,79,0,0,1,11-3.7,73.41,73.41,0,0,1,11.38-2.06,79.58,79.58,0,0,1,44.67,8.23l2.54,1.31-1.32,2.33a51.7,51.7,0,0,1-7.2,9.76,49.49,49.49,0,0,1-9.16,7.77,45.84,45.84,0,0,1-22.09,7.74,50.6,50.6,0,0,0,20.19-10.3,54,54,0,0,0,7.76-8,50.44,50.44,0,0,0,5.79-9.41l1.22,3.64a80.5,80.5,0,0,0-41.55-5.76,75.74,75.74,0,0,0-10.33,2,76.88,76.88,0,0,0-10,3.42A98.51,98.51,0,0,0,936.35,1622c-11.73,8.21-22.15,18.48-32.23,29.1-5.09,5.29-10,10.78-15.08,16.15-2.52,2.7-5,5.39-7.62,8S876.29,1680.6,873.68,1683.22Z"/><path class="cls-7" d="M984.37,1640.1a246.06,246.06,0,0,0,33.87-4.63,207.79,207.79,0,0,0,32.28-9.64,215.67,215.67,0,0,0,30.34-14.68A279.79,279.79,0,0,0,1109.2,1592a119.06,119.06,0,0,1-25.09,24.15,138.73,138.73,0,0,1-30.85,16.75,137,137,0,0,1-34.08,8.45A113.73,113.73,0,0,1,984.37,1640.1Z"/><path class="cls-8" d="M1110,1595.25a23.6,23.6,0,0,1,9.8-6.52,25.59,25.59,0,0,1,6-1.28,9.44,9.44,0,0,1,3.45.24,6.11,6.11,0,0,1,1.86.86,5.37,5.37,0,0,1,.81.69,4.94,4.94,0,0,1,.68.82,6.73,6.73,0,0,1,1.1,3.93,10.93,10.93,0,0,1-.68,3.48,17.67,17.67,0,0,1-1.37,3,29.3,29.3,0,0,1-1.71,2.6c-2.23,3.14-4.51,6.23-6.8,9.32q-6.91,9.24-14.26,18.15c-4.93,5.91-10,11.75-15.42,17.28,3.77-6.79,7.95-13.27,12.24-19.66s8.79-12.64,13.4-18.79q3.46-4.6,7-9.16a23.53,23.53,0,0,0,1.57-2.13,15,15,0,0,0,1.19-2.18c.65-1.48.84-2.91.39-3.69a2.16,2.16,0,0,0-1.15-1,7,7,0,0,0-2.25-.42,23,23,0,0,0-5.41.37A28.49,28.49,0,0,0,1110,1595.25Z"/><path class="cls-8" d="M1098.5,1638.51a35.67,35.67,0,0,1-6.09,12.12,49.34,49.34,0,0,1-9.89,9.58,66.87,66.87,0,0,1-11.83,7,112.3,112.3,0,0,1-12.72,5,140.35,140.35,0,0,1-26.54,5.43,211.65,211.65,0,0,1-26.86,1.31c8.76-2,17.56-3.46,26.25-5.2a254.41,254.41,0,0,0,25.63-6.35c8.31-2.7,16.51-5.83,23.87-10.39S1094.19,1646.42,1098.5,1638.51Z"/><path class="cls-8" d="M1118.62,1618.49c2.52-1,5-2,7.57-3s5-2,7.6-2.89l7.61-2.84L1149,1607l3.29-1.19-1.39,3.34c-2.46,5.92-5.21,11.72-8.1,17.46s-6.13,11.32-9.57,16.79a174,174,0,0,1-11.33,15.73,135.31,135.31,0,0,1-13.34,14.17,103.34,103.34,0,0,1-32.93,20.55c-12.14,4.55-25.43,6.48-38.09,4.33a84.1,84.1,0,0,0,36.76-7.59,111.64,111.64,0,0,0,30.94-20.87,147.32,147.32,0,0,0,12.78-13.76,175.54,175.54,0,0,0,11.19-15.18c3.53-5.23,6.79-10.64,9.9-16.15s6.06-11.13,8.95-16.79l1.9,2.14-7.81,2.23-7.84,2.16c-2.61.73-5.23,1.41-7.85,2.11S1121.24,1617.82,1118.62,1618.49Z"/><path class="cls-8" d="M1123.22,1657.66a15.78,15.78,0,0,1,6.31-2.82,16.11,16.11,0,0,1,7.11.11l.62.15.1.75a19.14,19.14,0,0,1-.69,8.13,28,28,0,0,1-3.49,7.36,59.88,59.88,0,0,1-10.69,11.72c-3.85,3.5-7.93,6.73-12.06,9.88s-8.47,6.06-12.93,8.75a166.61,166.61,0,0,1-27.91,13.83,147.39,147.39,0,0,1-29.91,8.15,302.92,302.92,0,0,0,28.46-11.55,252.62,252.62,0,0,0,26.72-14.68c4.31-2.67,8.48-5.58,12.62-8.5s8.16-6.06,12.07-9.31a62.34,62.34,0,0,0,10.72-10.35A27.16,27.16,0,0,0,1134,1663a18.5,18.5,0,0,0,1.38-7l.72.89a16,16,0,0,0-6.37-.94A17.07,17.07,0,0,0,1123.22,1657.66Z"/><path class="cls-7" d="M1095.69,1700.83l1,.17c.33.11.66.27,1,.41s.59.42.87.66.49.55.69.85a8.54,8.54,0,0,1,1.23,4.17,17.64,17.64,0,0,1-1.83,8.47,16.78,16.78,0,0,1-1.14,2c-.43.57-.88,1.12-1.32,1.69a39.41,39.41,0,0,1-2.82,3.24l-.73.79-.78.73-1.58,1.47c-1.08,1-2.21,1.84-3.34,2.73a72,72,0,0,1-15,8.28,121.43,121.43,0,0,1-16.17,5.25c-2.73.73-5.46,1.38-8.18,2s-5.44,1.2-8.16,1.8l-16.34,3.5q-16.35,3.36-32.8,6.29-32.89,5.87-66.07,9.9c-22.11,2.71-44.29,4.8-66.56,5.84,21.9-4.17,43.81-7.88,65.7-11.68s43.74-7.64,65.6-11.5l32.78-5.86,16.39-3c5.45-1,10.92-2,16.29-3.06a136.61,136.61,0,0,0,15.79-4.15,69.63,69.63,0,0,0,14.68-6.71c1.12-.73,2.25-1.46,3.35-2.25l1.59-1.24.8-.61.75-.68a36.83,36.83,0,0,0,2.93-2.79l1.41-1.47a15.37,15.37,0,0,0,3.65-9,7.79,7.79,0,0,0-.6-3.88A4.23,4.23,0,0,0,1095.69,1700.83Z"/><polygon class="cls-7" points="876.65 1395.35 916.79 1382.05 954.43 1369.21 978.67 1366.3 1001.1 1375.46 1020.58 1390.06 1023.28 1402.83 1011.23 1402.83 997.9 1393.76 986.43 1392.81 973.24 1396.81 960.41 1399.48 945 1399.04 936.91 1392.81 928.5 1390.71 876.65 1395.35"/><path class="cls-7" d="M935.38,1389.72a15.69,15.69,0,0,0,9.27,8.28,21.47,21.47,0,0,0,6.12,1.18,23.48,23.48,0,0,0,6.17-.54,69.63,69.63,0,0,0,12.07-4.11,83.34,83.34,0,0,1,12.7-4.46,28.54,28.54,0,0,1,14.34,0,24.05,24.05,0,0,1,6.69,3.26c2,1.33,3.69,2.71,5.34,3.91a26.28,26.28,0,0,0,2.44,1.58,14.07,14.07,0,0,0,2.43,1.09,7,7,0,0,0,4.32.24l.43-.17.28-.16a3.69,3.69,0,0,0,.58-.5,4.51,4.51,0,0,0,.91-1.55,3.53,3.53,0,0,0,.2-1.57,1.32,1.32,0,0,0-.34-.77l-2.49-2.66,2.57-2.5.94-.92.17,5.41c-5.15-4.27-10.27-8.46-15.58-12.24a81.21,81.21,0,0,0-16.7-9.37,43.65,43.65,0,0,0-18.15-3.19c-6.24.2-12.56,1.73-18.85,3.63l-19.11,6.11c-6.39,2.07-12.83,4-19.27,5.92-12.89,3.82-25.84,7.43-38.92,10.59,12.48-5,25-9.81,37.56-14.6l18.8-7.17,9.4-3.57c3.13-1.21,6.3-2.42,9.54-3.5,6.47-2.17,13.26-4.1,20.46-4.58a49.43,49.43,0,0,1,21.25,3.37,83,83,0,0,1,18.35,10.23c5.62,4,10.82,8.42,15.92,12.81l3.09,2.66-2.92,2.76-1,.89.08-5.16a8.38,8.38,0,0,1,2.29,5.09,10.57,10.57,0,0,1-.72,4.85,11.53,11.53,0,0,1-2.57,3.94,10.86,10.86,0,0,1-2,1.53c-.38.21-.79.41-1.18.59s-.74.27-1.11.38a13.7,13.7,0,0,1-8.54-.54,24.92,24.92,0,0,1-6.48-3.77c-1.85-1.41-3.45-2.86-5.05-4.07a18.21,18.21,0,0,0-4.89-2.74,23.52,23.52,0,0,0-11.58-.55c-8.11,1.21-16.17,5.56-25.31,6.56-1.13.13-2.28.18-3.42.2a24.94,24.94,0,0,1-3.46-.25,23.19,23.19,0,0,1-6.53-2A15.84,15.84,0,0,1,935.38,1389.72Z"/></g></svg>