<svg width="300" height="300" viewBox="0 0 300 300" fill="none" xmlns="http://www.w3.org/2000/svg">
<path d="M183.7 150.173C183.7 183.227 156.904 210.023 123.85 210.023C90.7957 210.023 64 183.227 64 150.173C64 117.118 90.7957 90.3228 123.85 90.3228C156.904 90.3228 183.7 117.118 183.7 150.173ZM74.2743 150.173C74.2743 177.552 96.4701 199.748 123.85 199.748C151.23 199.748 173.425 177.552 173.425 150.173C173.425 122.793 151.23 100.597 123.85 100.597C96.4701 100.597 74.2743 122.793 74.2743 150.173Z" fill="white"/>
<path d="M235 150.173C235 183.227 208.204 210.023 175.15 210.023C142.096 210.023 115.3 183.227 115.3 150.173C115.3 117.118 142.096 90.3228 175.15 90.3228C208.204 90.3228 235 117.118 235 150.173ZM125.574 150.173C125.574 177.552 147.77 199.748 175.15 199.748C202.53 199.748 224.725 177.552 224.725 150.173C224.725 122.793 202.53 100.597 175.15 100.597C147.77 100.597 125.574 122.793 125.574 150.173Z" fill="white"/>
<path d="M146.158 262.279C128.067 262.279 113.401 247.613 113.401 229.522C113.401 227.508 113.583 225.537 113.93 223.624C114.858 223.545 115.796 223.505 116.743 223.505C134.835 223.505 149.501 238.171 149.501 256.262C149.501 258.276 149.501 262.279 149.501 262.279C148.574 262.358 147.106 262.279 146.158 262.279Z" fill="#FEF2F2"/>
<path d="M152.843 262.279C170.935 262.279 185.601 247.613 185.601 229.522C185.601 227.508 185.419 225.537 185.071 223.624C184.144 223.545 183.206 223.505 182.258 223.505C164.167 223.505 149.501 238.171 149.501 256.262C149.501 258.276 149.501 262.279 149.501 262.279C150.428 262.358 151.896 262.279 152.843 262.279Z" fill="#FCCCCA"/>
<path d="M152.841 38.0351C170.933 38.0351 185.599 52.701 185.599 70.7924C185.599 72.8059 185.417 74.7769 185.069 76.69C184.142 76.7688 183.204 76.8091 182.256 76.8091C164.165 76.8091 149.499 62.1431 149.499 44.0517C149.499 42.0383 149.499 38.0351 149.499 38.0351C150.426 37.9562 151.894 38.0351 152.841 38.0351Z" fill="#FEF2F2"/>
<path d="M146.156 38.0351C128.065 38.0351 113.399 52.701 113.399 70.7924C113.399 72.8059 113.581 74.7769 113.928 76.69C114.856 76.7688 115.794 76.8091 116.742 76.8091C134.833 76.8091 149.499 62.1431 149.499 44.0517C149.499 42.0383 149.499 38.0351 149.499 38.0351C148.572 37.9562 147.104 38.0351 146.156 38.0351Z" fill="#FCCCCA"/>
</svg>
