<svg width="320" height="320" viewBox="0 0 320 320" fill="none" xmlns="http://www.w3.org/2000/svg">
<path d="M319.519 167.454C319.519 167.454 330.011 224.49 253.033 254.593C176.056 284.695 88.5856 301.177 43.6057 256.488C-10.9308 202.304 -11.8096 178.174 27.0637 129.759C65.937 81.3441 72.2226 5.08032 185.921 49.2844C299.62 93.4886 312.362 112.277 319.519 167.454Z" fill="#F2E1DE"/>
<path d="M193.395 249.212H135.962L128.489 198.338H200.868L193.395 249.212Z" fill="white"/>
<path d="M193.395 249.59C193.395 252.989 180.537 255.744 164.676 255.744C148.815 255.744 135.961 252.98 135.961 249.59C135.961 246.199 148.819 243.435 164.658 243.435C180.496 243.435 193.395 246.199 193.395 249.59Z" fill="white"/>
<path d="M164.676 206.096C184.662 206.096 200.863 202.623 200.863 198.338C200.863 194.054 184.662 190.58 164.676 190.58C144.691 190.58 128.489 194.054 128.489 198.338C128.489 202.623 144.691 206.096 164.676 206.096Z" fill="#E0B0AA"/>
<path d="M197.472 201.623C204.88 198.541 179.791 195.491 172.319 194.252C161.202 192.372 142.59 194.538 133.063 202.139C133.063 202.139 144.327 206.585 166.892 206.119C166.892 206.119 186.715 206.119 197.472 201.623Z" fill="#51312C"/>
<path d="M165.888 178.243C165.888 178.243 168.136 163.732 178.137 161.626C188.139 159.521 192.548 164.312 193.879 168.136C195.21 171.959 194.556 178.474 193.128 182.417C191.7 186.361 189.94 174.931 187.885 175.654C185.831 176.377 184.748 177.921 179.229 178.11C173.71 178.299 169.357 174.221 165.888 178.243Z" fill="#668290"/>
<path d="M182.288 166.205C180.499 166.16 178.712 166.327 176.962 166.703C175.227 167.057 173.561 167.69 172.028 168.578C170.512 169.464 169.219 170.687 168.251 172.153C167.308 173.636 166.672 175.294 166.38 177.027C165.92 180.542 165.648 184.154 165.436 187.724C165.344 189.515 165.281 191.307 165.247 193.1C165.206 194.892 165.201 196.689 165.247 198.472H164.409C164.469 194.86 164.593 191.271 164.837 187.678C164.934 185.881 165.072 184.089 165.21 182.293L165.436 179.607C165.524 178.713 165.574 177.81 165.74 176.903C166.027 175.078 166.694 173.334 167.698 171.784C168.723 170.243 170.102 168.97 171.72 168.071C173.321 167.187 175.067 166.593 176.875 166.316C178.665 166.02 180.488 165.983 182.288 166.205Z" fill="#1C5170"/>
<path d="M135.961 186.996C135.961 186.996 139.55 176.76 146.023 174.645C152.495 172.531 158.249 177.244 158.249 177.244C158.249 177.244 156.098 183.873 152.896 185.034C149.694 186.195 145.226 183.997 141.379 185.204C137.532 186.411 135.961 186.996 135.961 186.996Z" fill="#668290"/>
<path d="M145.617 180.602C146.865 179.713 148.184 178.927 149.561 178.252C150.937 177.552 152.397 177.028 153.905 176.695C154.662 176.541 155.437 176.485 156.208 176.529C157.003 176.569 157.777 176.798 158.466 177.197C158.639 177.299 158.802 177.416 158.954 177.548C159.106 177.67 159.25 177.8 159.387 177.939C159.668 178.206 159.945 178.474 160.202 178.764C160.46 179.054 160.723 179.34 160.963 179.639C161.202 179.939 161.423 180.256 161.663 180.56C162.543 181.848 163.234 183.255 163.713 184.739C164.182 186.215 164.533 187.726 164.763 189.258C165.192 192.312 165.43 195.389 165.477 198.472H164.197C164.325 195.441 164.234 192.405 163.925 189.387C163.57 186.407 162.898 183.398 161.262 180.86C161.05 180.547 160.857 180.224 160.622 179.939C160.387 179.653 160.161 179.335 159.912 179.054C159.664 178.773 159.41 178.492 159.148 178.22C159.026 178.08 158.891 177.95 158.747 177.833C158.612 177.712 158.465 177.604 158.309 177.511C157.998 177.315 157.664 177.161 157.314 177.05C156.955 176.959 156.588 176.902 156.218 176.88C155.471 176.847 154.723 176.909 153.992 177.064C152.51 177.377 151.067 177.853 149.69 178.483C148.288 179.102 146.928 179.81 145.617 180.602Z" fill="#1C5170"/>
<path d="M130.926 61.183C130.442 59.6546 129.605 58.262 128.481 57.1183C127.358 55.9746 125.981 55.1121 124.461 54.6008C122.942 54.0896 121.323 53.944 119.737 54.176C118.151 54.4079 116.641 55.0108 115.332 55.9358C112.674 57.8015 110.679 60.8605 110.38 64.1406C110.163 66.5085 111.057 68.7244 111.762 70.9495L114.116 78.5094C114.577 80.0343 117 79.3801 116.521 77.846C114.811 72.3869 110.739 65.0343 114.761 59.8792C118.584 54.9913 126.541 55.5119 128.521 61.8141C128.982 63.339 131.405 62.6894 130.926 61.1553V61.183Z" fill="#B65F50"/>
<path d="M159.815 94.3661C159.945 94.2543 160.097 94.1727 160.262 94.1274C160.427 94.0821 160.599 94.0741 160.768 94.1041C160.936 94.1342 161.095 94.2014 161.234 94.3009C161.373 94.4005 161.488 94.5298 161.571 94.6794C161.756 95.0348 161.853 95.4301 161.852 95.8311C161.905 96.9532 161.543 98.0556 160.834 98.9269C160.751 99.0288 160.655 99.1187 160.548 99.1941C160.34 99.3152 160.102 99.3758 159.861 99.3692C159.596 99.411 159.324 99.3852 159.071 99.2942C158.819 99.2032 158.593 99.05 158.415 98.8486C158.051 98.3418 158.106 97.5909 158.185 96.9321" fill="#B65F50"/>
<path d="M127.342 60.7684C120.534 71.6725 112.819 81.9837 104.28 91.593C103.691 92.1557 103.249 92.8551 102.995 93.6292C102.728 94.7625 103.294 95.9326 103.888 96.9185C110.361 107.855 122.611 115.134 135.307 115.595L149.561 79.136" fill="#CF786C"/>
<path d="M137.804 104.566L159.917 99.1664C159.51 98.3193 159.371 97.3679 159.52 96.4398C159.669 95.5118 160.099 94.6515 160.751 93.9745C155.068 94.6744 149.335 94.8733 143.618 94.5688C141.586 94.4628 139.421 94.32 137.629 95.3151C136.836 95.7584 136.176 96.4037 135.713 97.1853C135.251 97.9669 135.004 98.857 134.998 99.765C134.991 100.673 135.225 101.567 135.676 102.355C136.127 103.143 136.778 103.798 137.564 104.252" fill="#CF786C"/>
<path d="M138.306 75.2847C141.941 77.5881 146.027 79.242 149.68 78.316C150.021 77.4553 150.181 76.5334 150.148 75.6081C150.116 74.6829 149.892 73.7744 149.492 72.9398C148.501 70.77 146.704 69.0977 144.949 67.4853C142.678 65.3984 140.342 63.2838 137.615 61.8833C134.888 60.4828 131.566 59.8747 128.669 60.9343C128.334 61.0223 128.033 61.2065 127.803 61.4641C127.589 61.8082 127.495 62.213 127.535 62.6158C127.535 62.9199 127.535 63.2193 127.568 63.5372C129.392 68.4711 134.188 72.6588 138.306 75.2847Z" fill="#B65F50"/>
<path d="M119.05 75.0309C121.602 79.5072 125.195 83.3021 129.526 86.0938C133.856 88.8855 138.796 90.5916 143.927 91.0674C144.724 91.1411 144.719 89.8973 143.927 89.819C139.014 89.3495 134.287 87.7036 130.145 85.0204C126.004 82.3373 122.569 78.6959 120.133 74.4044C120.046 74.269 119.911 74.1722 119.754 74.1345C119.598 74.0967 119.434 74.1209 119.295 74.2019C119.156 74.2829 119.054 74.4144 119.01 74.569C118.966 74.7235 118.984 74.8891 119.059 75.0309H119.05Z" fill="#B65F50"/>
<path d="M133.584 94.8821C132.859 95.7253 132.381 96.7532 132.205 97.8516C132.028 98.9499 132.16 100.076 132.584 101.104C133.009 102.132 133.711 103.022 134.611 103.676C135.511 104.329 136.575 104.72 137.685 104.805C138.482 104.888 138.477 103.644 137.685 103.561C136.815 103.489 135.983 103.179 135.279 102.664C134.574 102.15 134.025 101.452 133.692 100.646C133.359 99.8397 133.254 98.9575 133.39 98.096C133.525 97.2344 133.895 96.4269 134.46 95.762C134.962 95.1446 134.087 94.2601 133.58 94.8821H133.584Z" fill="#B65F50"/>
<path d="M161.142 97.1992C166.086 98.3694 164.98 107.735 165.077 111.669C165.187 115.969 165.204 120.269 165.127 124.569C164.98 133.17 164.45 141.761 163.593 150.321C163.515 151.118 164.759 151.113 164.837 150.321C165.912 139.723 166.439 129.076 166.417 118.423C166.417 113.157 166.417 107.827 165.957 102.562C165.689 99.5625 164.662 96.7478 161.479 95.9922C160.7 95.808 160.368 97.0057 161.147 97.1946L161.142 97.1992Z" fill="#FF8C8C"/>
<path d="M160.668 101.788L160.986 110.504C161.013 111.305 162.262 111.31 162.23 110.504L161.893 101.788C161.866 100.991 160.617 100.986 160.65 101.788H160.668Z" fill="#FF5051"/>
<path d="M160.484 117.064C161.595 130.147 160.616 143.323 157.586 156.098C157.402 156.877 158.604 157.208 158.788 156.43C161.848 143.547 162.842 130.259 161.732 117.064C161.663 116.272 160.419 116.263 160.484 117.064Z" fill="#FF8C8C"/>
<path d="M163.211 155.029V160.009C163.211 160.174 163.276 160.332 163.393 160.449C163.51 160.566 163.668 160.631 163.833 160.631C163.998 160.631 164.156 160.566 164.273 160.449C164.389 160.332 164.455 160.174 164.455 160.009V155.029C164.455 154.864 164.389 154.706 164.273 154.59C164.156 154.473 163.998 154.407 163.833 154.407C163.668 154.407 163.51 154.473 163.393 154.59C163.276 154.706 163.211 154.864 163.211 155.029Z" fill="#FF5051"/>
<path d="M158.563 161.401C158.237 162.567 158.124 163.783 158.231 164.989C158.3 165.782 159.544 165.791 159.475 164.989C159.373 163.895 159.471 162.791 159.765 161.732C159.809 161.573 159.788 161.402 159.706 161.259C159.625 161.115 159.489 161.009 159.33 160.965C159.17 160.921 159 160.942 158.856 161.024C158.712 161.106 158.607 161.241 158.563 161.401Z" fill="#FF5051"/>
</svg>
