<svg width="1000" height="500" viewBox="0 0 1000 500" fill="none" xmlns="http://www.w3.org/2000/svg">
<path d="M283.484 241.665V82C267.402 83.7328 207.27 93.0963 158.294 139.458L159.297 140.552L161.608 143.014L164.313 146.054L166.593 148.669L169.147 151.709C169.907 152.591 170.637 153.503 171.366 154.415C172.096 155.327 173.008 156.482 173.798 157.455L175.926 160.252L178.267 163.474L180.304 166.362C181.034 167.457 181.794 168.551 182.523 169.676L184.469 172.716L186.567 176.09C187.205 177.124 187.843 178.158 188.451 179.131L190.458 182.596L192.221 185.636L194.136 189.224C194.684 190.288 195.261 191.352 195.778 192.416C196.295 193.48 196.994 194.878 197.602 196.125C198.21 197.371 198.666 198.283 199.153 199.378C199.639 200.472 200.338 201.962 200.885 203.238L202.345 206.522L203.986 210.535C204.442 211.629 204.898 212.723 205.324 213.818C205.75 214.912 206.388 216.645 206.905 218.044L208.09 221.266C208.638 222.786 209.124 224.306 209.641 225.826C209.975 226.86 210.34 227.863 210.674 228.866C211.222 230.569 211.739 232.271 212.225 234.004L213.046 236.649C213.806 239.263 214.505 241.908 215.204 244.614C218.394 257.255 220.821 270.077 222.47 283.01C224.116 296.016 224.035 309.182 222.227 322.166C221.801 324.457 221.315 326.676 220.768 328.824C220.585 329.554 220.372 330.253 220.16 330.952C219.764 332.351 219.4 333.779 218.943 335.117C218.67 335.968 218.336 336.759 218.032 337.58C217.728 338.4 217.211 339.951 216.724 341.076C216.238 342.2 215.995 342.717 215.599 343.538C215.204 344.359 214.657 345.636 214.14 346.578L212.833 348.919C212.286 349.892 211.769 350.865 211.191 351.777C210.614 352.689 210.188 353.266 209.702 353.996C209.215 354.726 208.486 355.79 207.847 356.641C207.209 357.492 206.753 358.009 206.206 358.678C205.658 359.347 204.868 360.319 204.169 361.11C203.47 361.9 202.983 362.356 202.375 362.964L200.642 364.788C225.177 354.899 246.184 337.882 260.951 315.935C275.718 293.988 283.567 268.118 283.484 241.665V241.665Z" fill="#F9928F"/>
<path d="M20.0007 241.908C19.8907 276.188 33.1057 309.169 56.8556 333.889C80.6056 358.609 113.032 373.133 147.289 374.395C149.265 374.395 151.545 374.395 154.038 374.091C166.387 373.581 178.343 369.61 188.543 362.63C189.759 361.748 190.914 360.836 192.039 359.893C193.292 358.842 194.489 357.726 195.626 356.549C198.579 353.504 201.17 350.127 203.348 346.487C205.058 343.728 206.552 340.842 207.817 337.853C210.181 332.191 211.924 326.289 213.015 320.251C213.36 318.346 213.634 316.319 213.836 314.171C214.397 307.558 214.478 300.913 214.079 294.289C214.064 294.137 214.064 293.984 214.079 293.833C214.079 292.191 213.867 290.792 213.775 289.424C213.775 289.029 213.775 288.695 213.775 288.36V287.6V287.418C213.775 286.597 213.623 285.959 213.563 285.412C213.502 284.864 213.563 284.773 213.563 284.56C213.563 284.347 213.563 284.074 213.563 284.043C211.962 271.557 209.596 259.181 206.479 246.985C198.902 216.484 185.163 187.857 166.107 162.866C163.492 159.461 160.787 156.178 157.99 152.986C156.47 151.253 154.95 149.581 153.399 147.939C151.849 146.297 150.055 144.413 148.322 142.71C98.7995 93.7344 36.4171 84.0062 20.0007 82.2429V241.908Z" fill="#F95F59"/>
<path d="M623.183 362.115L626.801 359.075C624.226 354.405 620.431 350.524 615.82 347.847C611.209 345.169 605.957 343.796 600.626 343.874C579.345 343.874 566.911 360.078 566.911 381.176C566.911 402.274 579.345 418.387 600.626 418.387C605.891 418.244 611.036 416.776 615.584 414.119C620.132 411.463 623.938 407.702 626.649 403.186L622.909 400.724C606.706 424.467 582.385 415.499 582.537 381.328C582.689 347.158 606.979 337.977 623.183 362.115Z" fill="#F95F59"/>
<path d="M806.166 89.7206C802.352 89.6846 798.612 90.7812 795.422 92.8717C792.231 94.9621 789.732 97.9524 788.242 101.464C786.752 104.975 786.337 108.85 787.05 112.597C787.763 116.345 789.572 119.796 792.248 122.515C794.924 125.233 798.346 127.097 802.082 127.869C805.818 128.641 809.698 128.288 813.233 126.853C816.767 125.418 819.797 122.967 821.937 119.81C824.078 116.652 825.234 112.931 825.258 109.116C825.282 104.017 823.288 99.1158 819.711 95.4818C816.134 91.8479 811.265 89.7767 806.166 89.7206V89.7206Z" fill="#2A516D"/>
<path d="M664.559 343.447C655.743 343.447 644.464 345.332 638.11 356.884L642.153 358.039C649.389 347.49 659.938 347.916 664.863 347.916C674.409 347.916 678.178 352.263 678.178 361.231V368.315C658.783 375.55 632.577 372.936 632.577 398.138C632.577 430.393 670.487 417.655 678.178 405.799V416.409H692.649V365.335C692.771 351.989 685.414 343.447 664.559 343.447ZM678.178 401.877C665.136 417.078 648.355 416.074 648.355 396.831C648.355 377.587 663.556 377.161 678.178 372.51V401.877Z" fill="#F95F59"/>
<path d="M718.824 362.996V344.178H704.353V416.41H718.824V373.12C722.593 351.292 734.024 352.873 744.604 352.873V344.178C731.866 344.178 723.019 347.522 718.824 362.996Z" fill="#F95F59"/>
<path d="M781.359 344.054C759.075 344.054 746.033 360.106 746.033 381.235C746.033 402.363 759.075 418.567 781.359 418.567C802.183 418.567 810.27 405.95 811.151 404.096L808.689 401.786C786.132 428.113 761.963 407.866 761.963 381.235V377.891H811.303V372.388C811.303 364.453 807.959 344.054 781.359 344.054ZM762.388 372.388C764.273 354.148 772.36 349.101 781.48 349.101C790.6 349.101 793.64 356.64 793.944 372.388H762.388Z" fill="#F95F59"/>
<path d="M855.293 374.151C844.866 369.226 835.898 366.46 835.898 358.647C835.898 350.834 842.707 347.52 851.524 347.52C856.722 347.52 869.764 349.982 869.764 360.957H874.811C874.811 344.905 856.753 343.477 851.524 343.477C832.858 343.477 823.038 352.445 823.038 362.994C823.038 376.613 837.631 382.815 845.9 386.433C858.911 392.209 866.724 393.82 866.724 403.214C866.724 409.872 859.063 413.915 849.061 413.915C840.671 413.642 828.814 410.176 828.814 398.016H823.038C823.038 413.49 838.239 418.567 848.788 418.567C866.299 418.567 879.888 411.331 879.888 399.444C879.736 386.159 870.342 381.234 855.293 374.151Z" fill="#F95F59"/>
<path d="M418.556 152.565C399.768 152.565 375.751 156.578 362.193 181.203L370.826 183.665C386.209 161.199 408.706 162.111 419.164 162.111C439.502 162.111 447.528 171.231 447.528 190.445V205.645C406.243 221.028 350.488 215.495 350.488 269.091C350.488 337.767 431.202 310.649 447.528 285.417V308.187H478.324L478.628 199.474C478.628 170.745 462.911 152.565 418.556 152.565ZM447.436 276.996C419.711 309.342 383.96 307.184 383.96 266.203C383.96 224.341 416.306 224.341 447.436 214.522V276.996Z" fill="#2A516D"/>
<path d="M584.879 154.083C558.704 154.083 542.986 165.179 534.079 176.883V154.083H503.252V374.945H534.079V289.306C543.199 300.706 559.312 312.41 584.879 312.41C632.334 312.41 651.76 277.905 651.76 232.942C651.76 187.98 632.334 154.083 584.879 154.083ZM534.079 273.923V192.601C569.8 141.162 618.168 159.95 617.833 232.942C617.833 305.327 569.8 325.361 534.079 273.923Z" fill="#2A516D"/>
<path d="M707.18 194.151V154.083H676.384V308.093H707.18V215.766C715.175 169.253 739.496 172.627 761.901 172.627V154.083C734.905 154.083 716.087 161.197 707.18 194.151Z" fill="#2A516D"/>
<path d="M821.122 153.776H790.326V308.09H821.122V153.776Z" fill="#2A516D"/>
<path d="M880.557 82.6421H849.761V308.094H880.557V82.6421Z" fill="#2A516D"/>
<path d="M910 163C910 157.477 914.477 153 920 153H970C975.523 153 980 157.477 980 163V298C980 303.523 975.523 308 970 308H920C914.477 308 910 303.523 910 298V163Z" fill="#FFC74C"/>
<path d="M956.699 276.687C956.699 275.577 956.559 274.675 956.279 273.979C955.999 273.266 955.637 272.711 955.192 272.314C954.747 271.916 954.245 271.643 953.685 271.494C953.125 271.345 952.557 271.27 951.98 271.27C951.321 271.27 950.728 271.361 950.201 271.544C949.674 271.709 949.229 272.007 948.867 272.438C948.504 272.852 948.224 273.407 948.027 274.103C947.829 274.799 947.73 275.677 947.73 276.737L947.73 282.601L956.699 282.601L956.699 276.687ZM933.251 282.601L942.146 282.601L942.146 278.228C942.146 277.3 942.08 276.464 941.949 275.718C941.817 274.973 941.586 274.343 941.257 273.83C940.927 273.3 940.474 272.902 939.898 272.637C939.321 272.355 938.596 272.214 937.723 272.214C936.867 272.214 936.159 272.322 935.598 272.538C935.022 272.753 934.561 273.084 934.215 273.531C933.869 273.979 933.622 274.55 933.474 275.246C933.325 275.925 933.251 276.737 933.251 277.681L933.251 282.601ZM927 277.681C927 275.18 927.231 273.051 927.692 271.295C928.153 269.539 928.804 268.106 929.644 266.996C930.484 265.886 931.505 265.083 932.708 264.586C933.91 264.072 935.253 263.816 936.735 263.816C937.542 263.816 938.325 263.932 939.082 264.164C939.824 264.395 940.524 264.76 941.183 265.257C941.825 265.754 942.418 266.392 942.962 267.17C943.505 267.949 943.975 268.885 944.37 269.978C944.946 267.593 945.877 265.828 947.162 264.685C948.447 263.542 950.111 262.971 952.153 262.971C953.685 262.971 955.11 263.269 956.428 263.865C957.745 264.462 958.898 265.34 959.887 266.499C960.859 267.642 961.625 269.059 962.185 270.748C962.728 272.438 963 274.368 963 276.538L963 291L927 291L927 277.681Z" fill="#2A516D"/>
<path d="M933.424 249.258L941.825 249.258L941.825 237.878L948.002 237.878L948.002 249.258L956.576 249.258L956.576 234.399L963 234.399L963 257.707L927 257.707L927 234.399L933.424 234.399L933.424 249.258Z" fill="#2A516D"/>
<path d="M933.622 203.202L933.622 213.39L963 213.39L963 221.789L933.622 221.789L933.622 231.977L927 231.977L927 203.202L933.622 203.202Z" fill="#2A516D"/>
<path d="M949.237 183.344L939.379 186.698C938.753 186.947 938.02 187.212 937.18 187.493C936.323 187.775 935.401 188.057 934.412 188.338C935.417 188.587 936.348 188.852 937.205 189.133C938.061 189.415 938.802 189.68 939.428 189.929L949.237 193.258L949.237 183.344ZM963 170L963 176.51C963 177.239 962.835 177.827 962.506 178.275C962.16 178.722 961.723 179.061 961.196 179.293L954.92 181.43L954.92 195.196L961.196 197.333C961.658 197.516 962.078 197.847 962.456 198.327C962.819 198.791 963 199.371 963 200.067L963 206.627L927 192.612L927 184.015L963 170Z" fill="#2A516D"/>
</svg>
