<svg width="34" height="33" viewBox="0 0 34 33" fill="none" xmlns="http://www.w3.org/2000/svg">
<path d="M26.96 29.5714H7.5875C6.63346 29.5664 5.72028 29.1835 5.0479 28.5066C4.37552 27.8298 3.99872 26.9141 4 25.96V6.5875C4.00443 5.6345 4.38611 4.72204 5.06156 4.04973C5.73701 3.37742 6.65123 2.99999 7.60425 3H26.9768C27.9308 3.00316 28.8447 3.38421 29.5185 4.05973C30.1922 4.73525 30.5708 5.65019 30.5714 6.60424V25.9768C30.5676 26.9319 30.1854 27.8465 29.5085 28.5203C28.8315 29.1941 27.9151 29.5721 26.96 29.5714ZM7.60425 4.19583C6.9655 4.19583 6.35291 4.44958 5.90124 4.90124C5.44958 5.35291 5.19584 5.96549 5.19584 6.60424V25.9768C5.199 26.6137 5.45406 27.2234 5.90531 27.6729C6.35656 28.1223 6.96734 28.375 7.60425 28.3756H26.9768C27.6149 28.3724 28.2257 28.1164 28.6754 27.6636C29.1251 27.2108 29.3769 26.5982 29.3756 25.96V6.5875C29.3705 5.95061 29.1137 5.34159 28.6611 4.89348C28.2085 4.44536 27.5969 4.19455 26.96 4.19583H7.60425Z" fill="#1C5170"/>
<path d="M16.9676 25.9409C16.326 25.921 15.7174 25.652 15.2706 25.1911C14.8238 24.7302 14.5739 24.1135 14.5739 23.4715C14.5739 22.8296 14.8238 22.2129 15.2706 21.752C15.7174 21.291 16.326 21.0221 16.9676 21.0021C17.2984 20.9918 17.6278 21.0481 17.9364 21.1676C18.245 21.287 18.5265 21.4673 18.7641 21.6976C19.0017 21.9279 19.1906 22.2036 19.3196 22.5084C19.4486 22.8131 19.5151 23.1406 19.5151 23.4715C19.5151 23.8025 19.4486 24.13 19.3196 24.4347C19.1906 24.7394 19.0017 25.0152 18.7641 25.2455C18.5265 25.4758 18.245 25.656 17.9364 25.7755C17.6278 25.895 17.2984 25.9512 16.9676 25.9409ZM16.9676 22.198C16.6321 22.2049 16.3127 22.3439 16.079 22.5848C15.8453 22.8257 15.716 23.1491 15.7192 23.4847C15.7173 23.6507 15.7486 23.8155 15.8112 23.9693C15.8739 24.1231 15.9667 24.2628 16.0841 24.3802C16.2015 24.4976 16.3412 24.5904 16.495 24.6531C16.6488 24.7157 16.8136 24.747 16.9796 24.7451C17.1515 24.7526 17.3231 24.7251 17.4841 24.6645C17.6451 24.6038 17.7922 24.5112 17.9165 24.3922C18.0407 24.2732 18.1396 24.1303 18.2072 23.9721C18.2747 23.8139 18.3096 23.6436 18.3096 23.4715C18.3096 23.2995 18.2747 23.1292 18.2072 22.971C18.1396 22.8128 18.0407 22.6698 17.9165 22.5508C17.7922 22.4318 17.6451 22.3392 17.4841 22.2786C17.3231 22.2179 17.1515 22.1905 16.9796 22.198H16.9676ZM18.7901 19.7848H15.138L15.0591 19.2778C14.9975 18.9294 14.9639 18.5767 14.9586 18.223C14.9586 16.69 15.6761 15.3817 17.0561 14.3318L18.1874 13.4827C18.4212 13.3356 18.6145 13.1322 18.7494 12.8911C18.8844 12.6501 18.9568 12.379 18.9599 12.1027C18.9599 11.3996 18.5007 10.5816 17.2044 10.5816C15.8627 10.5816 15.4824 11.732 15.3987 12.6959C15.3748 12.9733 15.3628 13.2029 15.3628 13.3966V14.0209L11.474 13.8582L11.3568 13.4445C11.2531 13.0448 11.2056 12.6327 11.2157 12.2199C11.2157 9.44322 13.2725 6.63062 17.1949 6.63062C19.0484 6.63062 20.6245 7.18787 21.739 8.2426C22.245 8.71072 22.6484 9.27864 22.9238 9.91053C23.1992 10.5424 23.3406 11.2245 23.339 11.9138C23.339 13.7817 22.4685 15.3482 20.756 16.568L19.7994 17.252C19.0962 17.7543 18.7805 18.3091 18.7805 19.0458L18.7901 19.7848ZM16.1736 18.589H17.6325C17.7545 17.6729 18.2544 16.898 19.1225 16.2762L20.0792 15.5922C21.4759 14.5973 22.1576 13.3942 22.1576 11.9138C22.1576 9.94547 20.6054 7.82645 17.1996 7.82645C14.808 7.82645 12.4163 9.33559 12.4163 12.2199C12.4163 12.3993 12.4163 12.5596 12.4354 12.6983L14.1981 12.7724C14.1981 12.7126 14.1981 12.6528 14.2124 12.5883C14.387 10.5816 15.5063 9.38342 17.2092 9.38342C19.2373 9.38342 20.1605 10.7921 20.1605 12.1004C20.1574 12.5636 20.0412 13.019 19.8219 13.4271C19.6027 13.8352 19.287 14.1835 18.9025 14.4418L17.7784 15.2861C16.6735 16.1184 16.1593 17.0511 16.1593 18.2206C16.1577 18.3436 16.1625 18.4665 16.1736 18.589V18.589Z" fill="#1C5170"/>
</svg>
