<svg width="33" height="33" viewBox="0 0 33 33" fill="none" xmlns="http://www.w3.org/2000/svg">
<path d="M22.9066 12.1711H10.0156V13.2443H22.9066V12.1711Z" fill="#1C5170"/>
<path d="M22.9066 16.1267H10.0156V17.1999H22.9066V16.1267Z" fill="#1C5170"/>
<path d="M22.9066 20.0847H10.0156V21.1579H22.9066V20.0847Z" fill="#1C5170"/>
<path d="M16.4611 24.0405H10.0156V25.1137H16.4611V24.0405Z" fill="#1C5170"/>
<path d="M23.7801 29.5201H9.14202C8.61752 29.519 8.11483 29.3101 7.74396 28.9393C7.37308 28.5684 7.16422 28.0657 7.16309 27.5412V5.97894C7.16422 5.45444 7.37308 4.95175 7.74396 4.58087C8.11483 4.20999 8.61752 4.00113 9.14202 4H20.7323L25.7655 9.26071V27.5412C25.7644 28.0668 25.5546 28.5705 25.1824 28.9415C24.8101 29.3126 24.3058 29.5207 23.7801 29.5201ZM9.14202 5.07318C8.90197 5.07374 8.67192 5.16935 8.50218 5.33909C8.33244 5.50883 8.23683 5.73889 8.23626 5.97894V27.5412C8.23626 27.7814 8.33169 28.0118 8.50155 28.1817C8.67142 28.3515 8.9018 28.447 9.14202 28.447H23.7801C24.0206 28.447 24.2512 28.3516 24.4214 28.1818C24.5916 28.012 24.6875 27.7816 24.6881 27.5412V9.68998L20.2687 5.07318H9.14202Z" fill="#1C5170"/>
<path d="M25.2248 10.012H21.9409C21.4162 10.0114 20.9132 9.80272 20.5422 9.43172C20.1712 9.06072 19.9625 8.5577 19.9619 8.03303V4.53662H21.0351V8.03303C21.0351 8.27325 21.1305 8.50364 21.3004 8.6735C21.4702 8.84336 21.7006 8.93879 21.9409 8.93879H25.2248V10.012Z" fill="#1C5170"/>
</svg>
