<svg width="300" height="300" viewBox="0 0 300 300" fill="none" xmlns="http://www.w3.org/2000/svg">
<path d="M61.74 150.251C34.8829 150.251 13.1108 128.479 13.1108 101.622C13.1108 98.6326 13.3805 95.7066 13.8968 92.8665C15.2733 92.7494 16.6662 92.6897 18.073 92.6897C44.9301 92.6897 66.7022 114.462 66.7022 141.319C66.7022 144.308 66.7022 150.251 66.7022 150.251C65.3257 150.368 63.1468 150.251 61.74 150.251Z" fill="#FEF2F2"/>
<path d="M71.6648 150.251C98.5219 150.251 120.294 128.479 120.294 101.622C120.294 98.6326 120.024 95.7066 119.508 92.8665C118.131 92.7494 116.739 92.6897 115.332 92.6897C88.4746 92.6897 66.7026 114.462 66.7026 141.319C66.7026 144.308 66.7026 150.251 66.7026 150.251C68.0791 150.368 70.258 150.251 71.6648 150.251Z" fill="#FCCCCA"/>
<path d="M71.554 149.317C98.4111 149.317 120.183 171.089 120.183 197.946C120.183 200.935 119.913 203.861 119.397 206.701C118.021 206.818 116.628 206.878 115.221 206.878C88.3638 206.878 66.5918 185.106 66.5918 158.249C66.5918 155.26 66.5918 149.317 66.5918 149.317C67.9683 149.2 70.1472 149.317 71.554 149.317Z" fill="#FEF2F2"/>
<path d="M61.6292 149.317C34.772 149.317 13 171.089 13 197.946C13 200.935 13.2697 203.861 13.786 206.701C15.1625 206.818 16.5554 206.878 17.9622 206.878C44.8193 206.878 66.5913 185.106 66.5913 158.249C66.5913 155.26 66.5913 149.317 66.5913 149.317C65.2148 149.2 63.036 149.317 61.6292 149.317Z" fill="#FCCCCA"/>
<path d="M217.906 150.536C198.703 150.536 183.136 134.969 183.136 115.766C183.136 113.629 183.329 111.537 183.698 109.506C184.682 109.423 185.678 109.38 186.684 109.38C205.887 109.38 221.454 124.947 221.454 144.15C221.454 146.287 221.454 150.536 221.454 150.536C220.47 150.62 218.912 150.536 217.906 150.536Z" fill="#FEF2F2"/>
<path d="M225.003 150.536C244.205 150.536 259.772 134.969 259.772 115.766C259.772 113.629 259.58 111.537 259.21 109.506C258.226 109.423 257.23 109.38 256.225 109.38C237.022 109.38 221.455 124.947 221.455 144.15C221.455 146.287 221.455 150.536 221.455 150.536C222.439 150.62 223.997 150.536 225.003 150.536Z" fill="#FCCCCA"/>
<path d="M224.923 149.868C244.126 149.868 259.693 165.435 259.693 184.638C259.693 186.775 259.501 188.867 259.131 190.898C258.147 190.981 257.151 191.024 256.145 191.024C236.943 191.024 221.376 175.457 221.376 156.254C221.376 154.117 221.376 149.868 221.376 149.868C222.36 149.784 223.918 149.868 224.923 149.868Z" fill="#FEF2F2"/>
<path d="M217.828 149.868C198.625 149.868 183.058 165.435 183.058 184.638C183.058 186.775 183.251 188.867 183.62 190.898C184.604 190.981 185.6 191.024 186.606 191.024C205.809 191.024 221.376 175.457 221.376 156.254C221.376 154.117 221.376 149.868 221.376 149.868C220.392 149.784 218.834 149.868 217.828 149.868Z" fill="#FCCCCA"/>
<path d="M154.096 196.623V103.202L282 80.7628V219.062L154.096 196.623Z" stroke="white" stroke-width="8"/>
</svg>
