<svg width="34" height="33" viewBox="0 0 34 33" fill="none" xmlns="http://www.w3.org/2000/svg">
<path d="M13.209 23.0749V9.97534L24.553 16.524L13.209 23.0749ZM14.3315 11.9195V21.124L22.308 16.5173L14.3315 11.9195Z" fill="#1C5170"/>
<path d="M27.8037 26.0001H6.54358C5.86935 25.9989 5.22307 25.7305 4.74631 25.2538C4.26955 24.777 4.00119 24.1307 4 23.4565V9.59363C4.00059 8.91922 4.26877 8.27259 4.74566 7.7957C5.22254 7.31882 5.86917 7.05064 6.54358 7.05005H27.8037C28.4781 7.05064 29.1248 7.31882 29.6017 7.7957C30.0785 8.27259 30.3467 8.91922 30.3473 9.59363V23.4565C30.3461 24.1307 30.0778 24.777 29.601 25.2538C29.1242 25.7305 28.478 25.9989 27.8037 26.0001ZM6.54358 8.17255C6.16687 8.17314 5.80576 8.32305 5.53938 8.58943C5.27301 8.85581 5.12309 9.21692 5.1225 9.59363V23.4565C5.12309 23.8332 5.27301 24.1943 5.53938 24.4607C5.80576 24.7271 6.16687 24.877 6.54358 24.8776H27.8037C28.1804 24.877 28.5415 24.7271 28.8079 24.4607C29.0743 24.1943 29.2242 23.8332 29.2248 23.4565V9.59363C29.2242 9.21692 29.0743 8.85581 28.8079 8.58943C28.5415 8.32305 28.1804 8.17314 27.8037 8.17255H6.54358Z" fill="#1C5170"/>
</svg>
