<svg width="34" height="33" viewBox="0 0 34 33" fill="none" xmlns="http://www.w3.org/2000/svg">
<path d="M6.54909 30.0252C6.31409 30.0237 6.08245 29.9692 5.8715 29.8656C5.66056 29.762 5.47577 29.6121 5.33097 29.427C5.18617 29.2419 5.08511 29.0264 5.03534 28.7968C4.98558 28.5671 4.9884 28.3291 5.0436 28.1007L7.04632 19.9333L19.7647 3.25317C20.278 2.58159 21.0368 2.14112 21.8745 2.02847C22.7122 1.91583 23.5604 2.14021 24.2329 2.65236L26.765 4.58832C27.4366 5.10158 27.8771 5.86038 27.9897 6.6981C28.1024 7.53582 27.878 8.38401 27.3659 9.05645L14.652 25.7366L7.30644 29.8249C7.07524 29.9552 6.8145 30.0242 6.54909 30.0252V30.0252ZM8.10523 20.442L6.16236 28.3746C6.14393 28.4504 6.148 28.5299 6.17409 28.6034C6.20018 28.6768 6.24714 28.7411 6.30922 28.7883C6.37129 28.8354 6.44579 28.8635 6.52356 28.8689C6.60134 28.8743 6.67901 28.857 6.74706 28.8189L13.8832 24.8457L26.4589 8.35665C26.6209 8.14414 26.7395 7.90179 26.8079 7.64344C26.8763 7.38509 26.8931 7.11581 26.8574 6.85096C26.8217 6.58611 26.7342 6.33089 26.5998 6.09986C26.4655 5.86884 26.287 5.66653 26.0745 5.5045L23.5423 3.56854C23.1132 3.24164 22.5719 3.09828 22.0372 3.16991C21.5025 3.24155 21.0181 3.52233 20.6901 3.95067L8.10523 20.442Z" fill="#1C5170"/>
<path d="M7.83127 20.0045L7.1333 20.9197L13.8254 26.0232L14.5233 25.108L7.83127 20.0045Z" fill="#1C5170"/>
<path d="M18.5446 5.88972L17.8467 6.80493L24.5387 11.9084L25.2367 10.9932L18.5446 5.88972Z" fill="#1C5170"/>
</svg>
